<?xml version="1.0" encoding="utf-8"?>
<!-- Generator: Adobe Illustrator 16.0.3, SVG Export Plug-In . SVG Version: 6.00 Build 0)  -->
<!DOCTYPE svg PUBLIC "-//W3C//DTD SVG 1.1//EN" "http://www.w3.org/Graphics/SVG/1.1/DTD/svg11.dtd">
<svg version="1.1" id="Layer_1" xmlns="http://www.w3.org/2000/svg" xmlns:xlink="http://www.w3.org/1999/xlink" x="0px" y="0px"
	 width="224.025px" height="51.948px" viewBox="0 0 224.025 51.948" enable-background="new 0 0 224.025 51.948"
	 xml:space="preserve">
<g opacity="0.1">
	<path fill="#fff" d="M59.104,41.236L51.252,6.187h7.541l2.496,15.132c0.624,3.744,1.352,8.061,1.82,12.169h0.104
		c0.468-4.16,1.04-8.373,1.664-12.325l2.392-14.977h7.488l-8.008,35.049H59.104z"/>
	<path fill="#fff" d="M84.532,6.187v35.049H77.72V6.187H84.532z"/>
	<path fill="#fff" d="M89.835,34.268c1.404,0.78,3.796,1.352,5.772,1.352c3.224,0,4.784-1.664,4.784-3.952c0-2.548-1.56-3.796-4.524-5.72
		c-4.784-2.912-6.604-6.604-6.604-9.776c0-5.616,3.744-10.296,11.077-10.296c2.288,0,4.472,0.624,5.512,1.248l-1.092,5.876
		c-0.988-0.624-2.496-1.196-4.472-1.196c-2.912,0-4.316,1.768-4.316,3.64c0,2.08,1.04,3.172,4.836,5.46
		c4.628,2.809,6.344,6.345,6.344,10.037c0,6.396-4.732,10.608-11.596,10.608c-2.809,0-5.564-0.728-6.708-1.404L89.835,34.268z"/>
	<path fill="#fff" d="M117.915,6.187v35.049h-6.812V6.187H117.915z"/>
	<path fill="#fff" d="M144.695,23.087c0,13.208-4.68,18.564-11.336,18.564c-7.957,0-11.077-8.424-11.077-18.045
		c0-9.568,3.796-17.836,11.545-17.836C142.303,5.771,144.695,15.079,144.695,23.087z M129.354,23.711
		c0,7.956,1.508,12.012,4.265,12.012c2.86,0,3.952-5.2,3.952-12.325c0-6.136-0.937-11.7-4.004-11.7
		C130.863,11.699,129.354,16.171,129.354,23.711z"/>
	<path fill="#fff" d="M149.01,41.236V6.187h6.24l5.408,13.729c1.041,2.704,2.757,7.228,3.744,10.245h0.104
		c-0.208-3.692-0.676-9.776-0.676-16.225V6.187h5.979v35.049h-6.24l-5.355-13.313c-1.145-2.964-2.756-7.384-3.536-10.557h-0.104
		c0.156,3.536,0.416,8.944,0.416,15.965v7.904H149.01z"/>
</g>
</svg>
