<?xml version="1.0" encoding="utf-8"?>
<!-- Generator: Adobe Illustrator 16.0.3, SVG Export Plug-In . SVG Version: 6.00 Build 0)  -->
<!DOCTYPE svg PUBLIC "-//W3C//DTD SVG 1.1//EN" "http://www.w3.org/Graphics/SVG/1.1/DTD/svg11.dtd">
<svg version="1.1" id="Layer_1" xmlns="http://www.w3.org/2000/svg" xmlns:xlink="http://www.w3.org/1999/xlink" x="0px" y="0px"
	 width="224.025px" height="51.948px" viewBox="0 0 224.025 51.948" enable-background="new 0 0 224.025 51.948"
	 xml:space="preserve">
<g opacity="0.1">
	<path fill="#fff" d="M60.588,28.963c-0.156-3.328-0.416-7.853-0.313-11.597h-0.156c-0.624,3.744-1.56,8.061-2.236,10.765l-3.016,12.532h-4.836
		l-2.912-12.324c-0.676-2.808-1.612-7.176-2.133-10.973h-0.155c-0.104,3.796-0.313,8.217-0.521,11.701l-0.572,12.168h-5.876
		L40.41,6.187h7.177l2.808,12.688c0.988,4.42,1.873,8.32,2.496,12.272h0.104c0.521-3.9,1.3-7.852,2.236-12.272l2.756-12.688h7.177
		l2.132,35.049h-6.085L60.588,28.963z"/>
	<path fill="#fff" d="M79.099,6.187v35.049h-6.813V6.187H79.099z"/>
	<path fill="#fff" d="M84.401,34.268c1.404,0.78,3.796,1.352,5.772,1.352c3.225,0,4.784-1.664,4.784-3.952c0-2.548-1.56-3.796-4.524-5.72
		c-4.784-2.912-6.604-6.604-6.604-9.776c0-5.616,3.744-10.296,11.076-10.296c2.288,0,4.472,0.624,5.512,1.248l-1.092,5.876
		c-0.988-0.624-2.496-1.196-4.473-1.196c-2.912,0-4.315,1.768-4.315,3.64c0,2.08,1.04,3.172,4.836,5.46
		c4.628,2.809,6.345,6.345,6.345,10.037c0,6.396-4.732,10.608-11.597,10.608c-2.809,0-5.564-0.728-6.708-1.404L84.401,34.268z"/>
	<path fill="#fff" d="M104.89,34.268c1.403,0.78,3.796,1.352,5.772,1.352c3.224,0,4.783-1.664,4.783-3.952c0-2.548-1.56-3.796-4.523-5.72
		c-4.784-2.912-6.604-6.604-6.604-9.776c0-5.616,3.744-10.296,11.076-10.296c2.288,0,4.473,0.624,5.513,1.248l-1.092,5.876
		c-0.988-0.624-2.496-1.196-4.473-1.196c-2.912,0-4.316,1.768-4.316,3.64c0,2.08,1.04,3.172,4.836,5.46
		c4.629,2.809,6.345,6.345,6.345,10.037c0,6.396-4.732,10.608-11.597,10.608c-2.808,0-5.564-0.728-6.708-1.404L104.89,34.268z"/>
	<path fill="#fff" d="M132.97,6.187v35.049h-6.813V6.187H132.97z"/>
	<path fill="#fff" d="M159.749,23.087c0,13.208-4.68,18.564-11.336,18.564c-7.957,0-11.077-8.424-11.077-18.045
		c0-9.568,3.796-17.836,11.545-17.836C157.356,5.771,159.749,15.079,159.749,23.087z M144.408,23.711
		c0,7.956,1.509,12.012,4.265,12.012c2.859,0,3.952-5.2,3.952-12.325c0-6.136-0.937-11.7-4.005-11.7
		C145.917,11.699,144.408,16.171,144.408,23.711z"/>
	<path fill="#fff" d="M164.063,41.236V6.187h6.24l5.408,13.729c1.041,2.704,2.757,7.228,3.744,10.245h0.104
		c-0.208-3.692-0.676-9.776-0.676-16.225V6.187h5.979v35.049h-6.24l-5.355-13.313c-1.145-2.964-2.756-7.384-3.536-10.557h-0.104
		c0.156,3.536,0.416,8.944,0.416,15.965v7.904H164.063z"/>
</g>
</svg>
