<?xml version="1.0" encoding="utf-8"?>
<!-- Generator: Adobe Illustrator 16.0.3, SVG Export Plug-In . SVG Version: 6.00 Build 0)  -->
<!DOCTYPE svg PUBLIC "-//W3C//DTD SVG 1.1//EN" "http://www.w3.org/Graphics/SVG/1.1/DTD/svg11.dtd">
<svg version="1.1" id="Layer_1" xmlns="http://www.w3.org/2000/svg" xmlns:xlink="http://www.w3.org/1999/xlink" x="0px" y="0px"
	 width="224.026px" height="51.948px" viewBox="0 0 224.026 51.948" enable-background="new 0 0 224.026 51.948"
	 xml:space="preserve">
<g opacity="0.1">
	<path d="M38.228,23.087c0,13.208-4.68,18.564-11.336,18.564c-7.957,0-11.077-8.424-11.077-18.045
		c0-9.568,3.796-17.836,11.545-17.836C35.835,5.771,38.228,15.079,38.228,23.087z M22.887,23.711c0,7.956,1.508,12.012,4.265,12.012
		c2.86,0,3.952-5.2,3.952-12.325c0-6.136-0.937-11.7-4.004-11.7C24.395,11.699,22.887,16.171,22.887,23.711z"/>
	<path d="M49.146,6.187v22.777c0,5.148,1.56,6.708,3.328,6.708c1.976,0,3.38-1.404,3.38-6.708V6.187h6.813v21.581
		c0,8.997-3.38,13.885-10.141,13.885c-7.332,0-10.192-5.044-10.192-13.833V6.187H49.146z"/>
	<path d="M68.542,6.707c2.132-0.416,4.836-0.676,7.437-0.676c3.744,0,7.072,0.52,9.36,2.6c2.132,1.924,2.756,4.265,2.756,7.28
		c0,3.744-1.82,7.125-5.408,8.789v0.104c2.392,0.936,3.588,3.172,4.264,6.916c0.676,3.9,1.612,8.217,2.236,9.517h-7.124
		c-0.416-0.988-1.196-4.524-1.716-8.372c-0.624-4.368-1.716-5.616-4.004-5.616h-0.988v13.988h-6.813V6.707z M75.354,21.995h1.196
		c2.964,0,4.68-2.392,4.68-5.46c0-2.964-1.196-5.096-4.264-5.2c-0.572,0-1.248,0.052-1.612,0.208V21.995z"/>
	<path d="M100.469,34.268c1.404,0.78,3.796,1.352,5.772,1.352c3.224,0,4.784-1.664,4.784-3.952c0-2.548-1.56-3.796-4.524-5.72
		c-4.784-2.912-6.604-6.604-6.604-9.776c0-5.616,3.744-10.296,11.077-10.296c2.288,0,4.472,0.624,5.512,1.248l-1.092,5.876
		c-0.988-0.624-2.496-1.196-4.472-1.196c-2.912,0-4.316,1.768-4.316,3.64c0,2.08,1.04,3.172,4.836,5.46
		c4.628,2.809,6.344,6.345,6.344,10.037c0,6.396-4.732,10.608-11.596,10.608c-2.809,0-5.564-0.728-6.708-1.404L100.469,34.268z"/>
	<path d="M125.533,12.479h-6.188V6.187h19.241v6.292h-6.24v28.757h-6.812V12.479z"/>
	<path d="M162.194,23.087c0,13.208-4.68,18.564-11.336,18.564c-7.957,0-11.077-8.424-11.077-18.045
		c0-9.568,3.796-17.836,11.545-17.836C159.802,5.771,162.194,15.079,162.194,23.087z M146.854,23.711
		c0,7.956,1.508,12.012,4.265,12.012c2.86,0,3.952-5.2,3.952-12.325c0-6.136-0.937-11.7-4.004-11.7
		C148.362,11.699,146.854,16.171,146.854,23.711z"/>
	<path d="M166.509,6.707c2.132-0.416,4.836-0.676,7.437-0.676c3.744,0,7.072,0.52,9.36,2.6c2.132,1.924,2.756,4.265,2.756,7.28
		c0,3.744-1.82,7.125-5.408,8.789v0.104c2.392,0.936,3.588,3.172,4.264,6.916c0.676,3.9,1.612,8.217,2.236,9.517h-7.124
		c-0.416-0.988-1.196-4.524-1.716-8.372c-0.624-4.368-1.716-5.616-4.004-5.616h-0.988v13.988h-6.813V6.707z M173.321,21.995h1.196
		c2.964,0,4.68-2.392,4.68-5.46c0-2.964-1.196-5.096-4.264-5.2c-0.572,0-1.248,0.052-1.612,0.208V21.995z"/>
	<path d="M194.848,41.236V27.819l-7.696-21.633h7.28l2.393,8.373c0.624,2.236,1.3,4.836,1.82,7.436h0.104
		c0.416-2.548,0.988-5.096,1.612-7.592l2.08-8.216h7.072l-7.853,21.373v13.677H194.848z"/>
</g>
</svg>
