<?xml version="1.0" encoding="utf-8"?>
<!-- Generator: Adobe Illustrator 16.0.3, SVG Export Plug-In . SVG Version: 6.00 Build 0)  -->
<!DOCTYPE svg PUBLIC "-//W3C//DTD SVG 1.1//EN" "http://www.w3.org/Graphics/SVG/1.1/DTD/svg11.dtd">
<svg version="1.1" id="Layer_1" xmlns="http://www.w3.org/2000/svg" xmlns:xlink="http://www.w3.org/1999/xlink" x="0px" y="0px"
	 width="224.025px" height="51.948px" viewBox="0 0 224.025 51.948" enable-background="new 0 0 224.025 51.948"
	 xml:space="preserve">
<g opacity="0.1">
	<path d="M15.892,8.969c1.924-0.416,4.524-0.676,7.125-0.676c4.056,0,7.228,0.572,9.516,2.704c2.08,1.82,3.016,4.732,3.016,7.696
		c0,3.796-1.144,6.448-2.964,8.424c-2.185,2.288-5.721,3.328-8.528,3.328c-0.468,0-0.937,0-1.353,0v13.053h-6.812V8.969z
		 M22.704,24.882c0.313,0.104,0.676,0.104,1.092,0.104c3.432,0,4.992-2.444,4.992-5.72c0-3.068-1.248-5.46-4.42-5.46
		c-0.624,0-1.248,0.104-1.664,0.26V24.882z"/>
	<path d="M60.352,25.35c0,13.208-4.68,18.564-11.336,18.564c-7.956,0-11.076-8.424-11.076-18.045
		c0-9.568,3.796-17.836,11.544-17.836C57.96,8.033,60.352,17.341,60.352,25.35z M45.012,25.974c0,7.956,1.508,12.012,4.264,12.012
		c2.86,0,3.952-5.2,3.952-12.325c0-6.136-0.936-11.7-4.004-11.7C46.52,13.961,45.012,18.434,45.012,25.974z"/>
	<path d="M64.667,8.969c2.132-0.416,4.836-0.676,7.436-0.676c3.744,0,7.072,0.52,9.36,2.6c2.132,1.924,2.756,4.265,2.756,7.28
		c0,3.744-1.82,7.125-5.408,8.789v0.104c2.392,0.936,3.588,3.172,4.264,6.916c0.676,3.9,1.612,8.217,2.236,9.517h-7.125
		c-0.416-0.988-1.196-4.524-1.716-8.372c-0.624-4.368-1.716-5.616-4.004-5.616h-0.988v13.988h-6.812V8.969z M71.479,24.258h1.196
		c2.964,0,4.68-2.392,4.68-5.46c0-2.964-1.196-5.096-4.264-5.2c-0.572,0-1.248,0.052-1.612,0.208V24.258z"/>
	<path d="M92.747,14.742h-6.188V8.449h19.24v6.292h-6.24v28.757h-6.812V14.742z"/>
	<path d="M109.387,8.449h15.236v5.928h-8.425v8.996h7.904v5.668h-7.904v14.457h-6.812V8.449z"/>
	<path d="M150.467,25.35c0,13.208-4.68,18.564-11.336,18.564c-7.957,0-11.077-8.424-11.077-18.045
		c0-9.568,3.796-17.836,11.545-17.836C148.074,8.033,150.467,17.341,150.467,25.35z M135.126,25.974
		c0,7.956,1.509,12.012,4.265,12.012c2.859,0,3.952-5.2,3.952-12.325c0-6.136-0.937-11.7-4.005-11.7
		C136.635,13.961,135.126,18.434,135.126,25.974z"/>
	<path d="M154.781,8.449h6.812v29.277h8.997v5.772h-15.809V8.449z"/>
	<path d="M181.353,8.449v35.049h-6.812V8.449H181.353z"/>
	<path d="M208.133,25.35c0,13.208-4.68,18.564-11.336,18.564c-7.957,0-11.077-8.424-11.077-18.045
		c0-9.568,3.796-17.836,11.545-17.836C205.74,8.033,208.133,17.341,208.133,25.35z M192.792,25.974
		c0,7.956,1.509,12.012,4.265,12.012c2.859,0,3.952-5.2,3.952-12.325c0-6.136-0.937-11.7-4.005-11.7
		C194.301,13.961,192.792,18.434,192.792,25.974z"/>
</g>
</svg>
