<?xml version="1.0" encoding="utf-8"?>
<!-- Generator: Adobe Illustrator 16.0.3, SVG Export Plug-In . SVG Version: 6.00 Build 0)  -->
<!DOCTYPE svg PUBLIC "-//W3C//DTD SVG 1.1//EN" "http://www.w3.org/Graphics/SVG/1.1/DTD/svg11.dtd">
<svg version="1.1" id="Layer_1" xmlns="http://www.w3.org/2000/svg" xmlns:xlink="http://www.w3.org/1999/xlink" x="0px" y="0px"
	 width="224.026px" height="51.947px" viewBox="0 0 224.026 51.947" enable-background="new 0 0 224.026 51.947"
	 xml:space="preserve">
<g opacity="0.1">
	<path d="M61.626,6.707c1.924-0.416,4.524-0.676,7.125-0.676c4.056,0,7.228,0.571,9.516,2.703c2.08,1.82,3.016,4.732,3.016,7.697
		c0,3.795-1.144,6.447-2.964,8.424c-2.185,2.287-5.721,3.328-8.528,3.328c-0.468,0-0.937,0-1.353,0v13.053h-6.812V6.707z
		 M68.438,22.619c0.313,0.104,0.676,0.104,1.092,0.104c3.432,0,4.992-2.443,4.992-5.72c0-3.067-1.248-5.46-4.42-5.46
		c-0.624,0-1.248,0.104-1.664,0.26V22.619z"/>
	<path d="M92.202,6.187v14.04h7.124V6.187h6.813v35.05h-6.813V26.571h-7.124v14.665h-6.813V6.187H92.202z"/>
	<path d="M118.981,6.187v35.05h-6.812V6.187H118.981z"/>
	<path d="M125.064,6.187h6.812v29.276h8.997v5.773h-15.809V6.187z"/>
	<path d="M164.117,23.088c0,13.207-4.68,18.564-11.336,18.564c-7.956,0-11.076-8.425-11.076-18.045
		c0-9.568,3.796-17.837,11.544-17.837C161.725,5.771,164.117,15.078,164.117,23.088z M148.777,23.711
		c0,7.957,1.508,12.013,4.264,12.013c2.86,0,3.952-5.2,3.952-12.325c0-6.135-0.936-11.699-4.004-11.699
		C150.285,11.699,148.777,16.171,148.777,23.711z"/>
</g>
</svg>
