<?xml version="1.0" encoding="utf-8"?>
<!-- Generator: Adobe Illustrator 16.0.3, SVG Export Plug-In . SVG Version: 6.00 Build 0)  -->
<!DOCTYPE svg PUBLIC "-//W3C//DTD SVG 1.1//EN" "http://www.w3.org/Graphics/SVG/1.1/DTD/svg11.dtd">
<svg version="1.1" id="Layer_1" xmlns="http://www.w3.org/2000/svg" xmlns:xlink="http://www.w3.org/1999/xlink" x="0px" y="0px"
	 width="224.026px" height="51.947px" viewBox="0 0 224.026 51.947" enable-background="new 0 0 224.026 51.947"
	 xml:space="preserve">
<g opacity="0.1">
	<path d="M55.438,34.268c1.404,0.779,3.796,1.352,5.772,1.352c3.224,0,4.784-1.664,4.784-3.951c0-2.549-1.56-3.797-4.524-5.721
		c-4.784-2.912-6.604-6.604-6.604-9.776c0-5.616,3.744-10.296,11.076-10.296c2.288,0,4.473,0.623,5.513,1.248l-1.092,5.875
		c-0.988-0.623-2.496-1.195-4.472-1.195c-2.912,0-4.316,1.768-4.316,3.641c0,2.08,1.04,3.172,4.836,5.459
		c4.628,2.809,6.344,6.346,6.344,10.037c0,6.396-4.732,10.608-11.597,10.608c-2.808,0-5.564-0.728-6.708-1.403L55.438,34.268z"/>
	<path d="M97.403,23.088c0,13.207-4.68,18.564-11.336,18.564c-7.956,0-11.076-8.425-11.076-18.045
		c0-9.568,3.796-17.837,11.544-17.837C95.011,5.771,97.403,15.078,97.403,23.088z M82.063,23.711c0,7.957,1.508,12.013,4.264,12.013
		c2.86,0,3.952-5.2,3.952-12.325c0-6.135-0.936-11.699-4.004-11.699C83.57,11.699,82.063,16.171,82.063,23.711z"/>
	<path d="M101.717,6.707c1.924-0.416,4.524-0.676,7.125-0.676c4.056,0,7.228,0.571,9.516,2.703c2.08,1.82,3.016,4.732,3.016,7.697
		c0,3.795-1.144,6.447-2.964,8.424c-2.185,2.287-5.721,3.328-8.528,3.328c-0.468,0-0.937,0-1.353,0v13.053h-6.812V6.707z
		 M108.529,22.619c0.313,0.104,0.676,0.104,1.092,0.104c3.432,0,4.992-2.443,4.992-5.72c0-3.067-1.248-5.46-4.42-5.46
		c-0.624,0-1.248,0.104-1.664,0.26V22.619z"/>
	<path d="M132.293,6.187v14.04h7.124V6.187h6.812v35.05h-6.812V26.571h-7.124v14.665h-6.813V6.187H132.293z"/>
	<path d="M156.161,41.236V27.819l-7.697-21.633h7.281l2.393,8.372c0.623,2.236,1.299,4.836,1.82,7.437h0.104
		c0.416-2.548,0.988-5.097,1.611-7.593l2.08-8.216h7.072l-7.852,21.372v13.678H156.161z"/>
</g>
</svg>
