<?xml version="1.0" encoding="utf-8"?>
<!-- Generator: Adobe Illustrator 16.0.3, SVG Export Plug-In . SVG Version: 6.00 Build 0)  -->
<!DOCTYPE svg PUBLIC "-//W3C//DTD SVG 1.1//EN" "http://www.w3.org/Graphics/SVG/1.1/DTD/svg11.dtd">
<svg version="1.1" id="Layer_1" xmlns="http://www.w3.org/2000/svg" xmlns:xlink="http://www.w3.org/1999/xlink" x="0px" y="0px"
	 width="224.025px" height="51.948px" viewBox="0 0 224.025 51.948" enable-background="new 0 0 224.025 51.948"
	 xml:space="preserve">
<g opacity="0.1">
	<path d="M33.286,35.49l-1.56,8.008h-6.604l7.592-35.049h8.165l6.812,35.049h-6.604l-1.508-8.008H33.286z M38.954,30.186
		l-1.144-7.332c-0.364-2.132-0.832-5.616-1.144-7.957H36.51c-0.364,2.34-0.884,5.98-1.248,8.008l-1.3,7.28H38.954z"/>
	<path d="M51.537,8.969c2.08-0.468,4.784-0.676,7.749-0.676c3.276,0,6.448,0.416,8.892,2.496c1.872,1.56,2.652,3.9,2.652,6.344
		c0,3.12-1.612,6.137-5.096,7.645v0.208c4.056,1.144,6.24,4.524,6.24,8.372c0,2.912-0.937,5.148-2.601,6.864
		c-2.08,2.288-5.616,3.536-11.492,3.536c-2.6,0-4.784-0.156-6.344-0.364V8.969z M58.349,22.854h1.456c2.444,0,4.316-2.08,4.316-4.94
		c0-2.548-1.196-4.524-4.004-4.524c-0.729,0-1.353,0.052-1.769,0.208V22.854z M58.349,38.402c0.416,0.104,0.884,0.104,1.508,0.104
		c2.756,0,5.044-1.664,5.044-5.252c0-3.484-2.393-5.305-5.097-5.356h-1.456V38.402z"/>
	<path d="M97.349,25.35c0,13.208-4.68,18.564-11.336,18.564c-7.957,0-11.077-8.424-11.077-18.045
		c0-9.568,3.796-17.836,11.545-17.836C94.957,8.033,97.349,17.341,97.349,25.35z M82.008,25.974c0,7.956,1.508,12.012,4.265,12.012
		c2.86,0,3.952-5.2,3.952-12.325c0-6.136-0.937-11.7-4.004-11.7C83.517,13.961,82.008,18.434,82.008,25.974z"/>
	<path d="M108.268,8.449v22.777c0,5.148,1.561,6.708,3.328,6.708c1.977,0,3.38-1.404,3.38-6.708V8.449h6.813V30.03
		c0,8.997-3.38,13.885-10.14,13.885c-7.333,0-10.192-5.044-10.192-13.833V8.449H108.268z"/>
	<path d="M131.459,14.742h-6.187V8.449h19.24v6.292h-6.24v28.757h-6.813V14.742z"/>
	<path d="M162.971,8.449v22.777c0,5.148,1.561,6.708,3.328,6.708c1.977,0,3.379-1.404,3.379-6.708V8.449h6.813V30.03
		c0,8.997-3.379,13.885-10.141,13.885c-7.332,0-10.191-5.044-10.191-13.833V8.449H162.971z"/>
	<path d="M181.586,36.53c1.404,0.78,3.797,1.352,5.771,1.352c3.225,0,4.785-1.664,4.785-3.952c0-2.548-1.561-3.796-4.523-5.72
		c-4.785-2.912-6.605-6.604-6.605-9.776c0-5.616,3.744-10.296,11.076-10.296c2.289,0,4.473,0.624,5.514,1.248l-1.094,5.876
		c-0.986-0.624-2.496-1.196-4.471-1.196c-2.912,0-4.316,1.768-4.316,3.64c0,2.08,1.039,3.172,4.836,5.46
		c4.629,2.809,6.344,6.345,6.344,10.037c0,6.396-4.732,10.608-11.596,10.608c-2.809,0-5.564-0.728-6.709-1.404L181.586,36.53z"/>
</g>
</svg>
