<?xml version="1.0" encoding="utf-8"?>
<!-- Generator: Adobe Illustrator 16.0.3, SVG Export Plug-In . SVG Version: 6.00 Build 0)  -->
<!DOCTYPE svg PUBLIC "-//W3C//DTD SVG 1.1//EN" "http://www.w3.org/Graphics/SVG/1.1/DTD/svg11.dtd">
<svg version="1.1" id="Layer_1" xmlns="http://www.w3.org/2000/svg" xmlns:xlink="http://www.w3.org/1999/xlink" x="0px" y="0px"
	 width="224.026px" height="51.948px" viewBox="0 0 224.026 51.948" enable-background="new 0 0 224.026 51.948"
	 xml:space="preserve">
<g opacity="0.1">
	<path d="M26.449,42.979c-0.988,0.468-2.912,0.832-5.304,0.832c-8.944,0-13.209-7.384-13.209-17.317
		c0-13.208,7.333-18.356,14.145-18.356c2.393,0,4.057,0.468,4.732,0.936l-1.144,5.72c-0.78-0.364-1.664-0.676-3.172-0.676
		c-3.848,0-7.332,3.328-7.332,12.012c0,8.373,3.172,11.648,7.332,11.648c1.145,0,2.444-0.26,3.276-0.52L26.449,42.979z"/>
	<path d="M50.265,25.35c0,13.208-4.68,18.564-11.336,18.564c-7.957,0-11.077-8.424-11.077-18.045
		c0-9.568,3.796-17.836,11.545-17.836C47.873,8.033,50.265,17.341,50.265,25.35z M34.924,25.974c0,7.956,1.508,12.012,4.265,12.012
		c2.86,0,3.952-5.2,3.952-12.325c0-6.136-0.937-11.7-4.004-11.7C36.433,13.961,34.924,18.434,34.924,25.974z"/>
	<path d="M54.58,43.499V8.449h6.24l5.408,13.729c1.04,2.704,2.756,7.228,3.744,10.245h0.104C69.868,28.73,69.4,22.646,69.4,16.198
		V8.449h5.98v35.049h-6.24l-5.356-13.313c-1.144-2.964-2.756-7.384-3.536-10.557h-0.104c0.156,3.536,0.416,8.944,0.416,15.965v7.904
		H54.58z"/>
	<path d="M85.208,14.742h-6.188V8.449H98.26v6.292H92.02v28.757h-6.812V14.742z"/>
	<path d="M105.643,35.49l-1.56,8.008h-6.604l7.592-35.049h8.165l6.812,35.049h-6.604l-1.508-8.008H105.643z M111.311,30.186
		l-1.144-7.332c-0.364-2.132-0.832-5.616-1.144-7.957h-0.156c-0.364,2.34-0.885,5.98-1.248,8.008l-1.301,7.28H111.311z"/>
	<path d="M139.859,42.979c-0.988,0.468-2.912,0.832-5.305,0.832c-8.943,0-13.208-7.384-13.208-17.317
		c0-13.208,7.332-18.356,14.144-18.356c2.393,0,4.057,0.468,4.732,0.936l-1.145,5.72c-0.779-0.364-1.664-0.676-3.172-0.676
		c-3.848,0-7.332,3.328-7.332,12.012c0,8.373,3.172,11.648,7.332,11.648c1.145,0,2.445-0.26,3.277-0.52L139.859,42.979z"/>
	<path d="M148.646,14.742h-6.189V8.449h19.24v6.292h-6.24v28.757h-6.811V14.742z"/>
	<path d="M180.156,8.449v22.777c0,5.148,1.561,6.708,3.328,6.708c1.977,0,3.381-1.404,3.381-6.708V8.449h6.813V30.03
		c0,8.997-3.381,13.885-10.141,13.885c-7.332,0-10.193-5.044-10.193-13.833V8.449H180.156z"/>
	<path d="M198.773,36.53c1.402,0.78,3.795,1.352,5.771,1.352c3.225,0,4.783-1.664,4.783-3.952c0-2.548-1.559-3.796-4.523-5.72
		c-4.783-2.912-6.604-6.604-6.604-9.776c0-5.616,3.744-10.296,11.076-10.296c2.287,0,4.473,0.624,5.512,1.248l-1.092,5.876
		c-0.988-0.624-2.496-1.196-4.473-1.196c-2.912,0-4.316,1.768-4.316,3.64c0,2.08,1.041,3.172,4.836,5.46
		c4.629,2.809,6.346,6.345,6.346,10.037c0,6.396-4.732,10.608-11.598,10.608c-2.807,0-5.564-0.728-6.707-1.404L198.773,36.53z"/>
</g>
</svg>
