<?xml version="1.0" encoding="utf-8"?>
<!-- Generator: Adobe Illustrator 16.0.3, SVG Export Plug-In . SVG Version: 6.00 Build 0)  -->
<!DOCTYPE svg PUBLIC "-//W3C//DTD SVG 1.1//EN" "http://www.w3.org/Graphics/SVG/1.1/DTD/svg11.dtd">
<svg version="1.1" id="Layer_1" xmlns="http://www.w3.org/2000/svg" xmlns:xlink="http://www.w3.org/1999/xlink" x="0px" y="0px"
	 width="224.025px" height="51.948px" viewBox="0 0 224.025 51.948" enable-background="new 0 0 224.025 51.948"
	 xml:space="preserve">
<g opacity="0.1">
	<path d="M36.9,28.106h-8.01v9.464h9.049v5.928H22.08V8.449h15.236v5.928h-8.426v8.061h8.01V28.106z"/>
	<path d="M53.904,43.499l-2.236-6.448c-0.676-2.028-1.248-4.004-1.873-6.24h-0.104c-0.572,2.236-1.145,4.368-1.664,6.344
		l-1.873,6.344h-6.76l6.553-17.94L39.654,8.449h7.125l2.027,6.5c0.572,1.82,1.041,3.64,1.613,5.616h0.104
		c0.572-2.132,0.988-3.796,1.455-5.721l1.77-6.396h6.813l-6.553,17.42l6.916,17.629H53.904z"/>
	<path d="M63.73,8.969c1.924-0.416,4.525-0.676,7.125-0.676c4.057,0,7.229,0.572,9.516,2.704c2.08,1.82,3.018,4.732,3.018,7.696
		c0,3.796-1.145,6.448-2.965,8.424c-2.184,2.288-5.721,3.328-8.529,3.328c-0.467,0-0.936,0-1.352,0v13.053H63.73V8.969z
		 M70.543,24.882c0.313,0.104,0.676,0.104,1.092,0.104c3.434,0,4.992-2.444,4.992-5.72c0-3.068-1.248-5.46-4.42-5.46
		c-0.623,0-1.248,0.104-1.664,0.26V24.882z"/>
	<path d="M102.314,28.106h-8.008v9.464h9.049v5.928H87.494V8.449h15.236v5.928h-8.424v8.061h8.008V28.106z"/>
	<path d="M107.982,8.969c2.131-0.416,4.836-0.676,7.436-0.676c3.744,0,7.072,0.52,9.361,2.6c2.131,1.924,2.756,4.265,2.756,7.28
		c0,3.744-1.82,7.125-5.408,8.789v0.104c2.393,0.936,3.588,3.172,4.264,6.916c0.676,3.9,1.611,8.217,2.236,9.517h-7.125
		c-0.416-0.988-1.195-4.524-1.715-8.372c-0.625-4.368-1.717-5.616-4.004-5.616h-0.988v13.988h-6.813V8.969z M114.795,24.258h1.195
		c2.965,0,4.68-2.392,4.68-5.46c0-2.964-1.195-5.096-4.264-5.2c-0.572,0-1.248,0.052-1.611,0.208V24.258z"/>
	<path d="M136.063,14.742h-6.189V8.449h19.242v6.292h-6.24v28.757h-6.813V14.742z"/>
	<path d="M159.514,8.449v35.049h-6.813V8.449H159.514z"/>
	<path d="M164.816,36.53c1.404,0.78,3.797,1.352,5.773,1.352c3.223,0,4.783-1.664,4.783-3.952c0-2.548-1.561-3.796-4.523-5.72
		c-4.785-2.912-6.605-6.604-6.605-9.776c0-5.616,3.744-10.296,11.076-10.296c2.289,0,4.473,0.624,5.514,1.248l-1.092,5.876
		c-0.988-0.624-2.496-1.196-4.473-1.196c-2.912,0-4.316,1.768-4.316,3.64c0,2.08,1.039,3.172,4.836,5.46
		c4.629,2.809,6.344,6.345,6.344,10.037c0,6.396-4.732,10.608-11.596,10.608c-2.809,0-5.564-0.728-6.709-1.404L164.816,36.53z"/>
	<path d="M200.904,28.106h-8.008v9.464h9.049v5.928h-15.861V8.449h15.236v5.928h-8.424v8.061h8.008V28.106z"/>
</g>
</svg>
