<?xml version="1.0" encoding="utf-8"?>
<!-- Generator: Adobe Illustrator 16.0.3, SVG Export Plug-In . SVG Version: 6.00 Build 0)  -->
<!DOCTYPE svg PUBLIC "-//W3C//DTD SVG 1.1//EN" "http://www.w3.org/Graphics/SVG/1.1/DTD/svg11.dtd">
<svg version="1.1" id="Layer_1" xmlns="http://www.w3.org/2000/svg" xmlns:xlink="http://www.w3.org/1999/xlink" x="0px" y="0px"
	 width="50px" height="30px" viewBox="0 0 100.123 51.948" 
	 xml:space="preserve">
<g opacity="0.1">
	<path fill="#fff" d="M6.189,12.479H0V6.187h19.241v6.292h-6.24v28.757H6.189V12.479z"/>
	<path fill="#fff" d="M37.648,25.843h-8.008v9.464h9.049v5.928H22.828V6.187h15.236v5.928h-8.424v8.061h8.008V25.843z"/>
	<path fill="#fff" d="M48.881,33.228l-1.561,8.008h-6.604l7.593-35.049h8.164l6.813,35.049H56.68l-1.508-8.008H48.881z M54.549,27.923
		l-1.145-7.332c-0.363-2.132-0.832-5.616-1.145-7.957h-0.156c-0.363,2.34-0.883,5.98-1.248,8.008l-1.299,7.28H54.549z"/>
	<path fill="#fff" d="M88.557,28.963c-0.156-3.328-0.416-7.853-0.313-11.597h-0.156c-0.623,3.744-1.561,8.061-2.236,10.765l-3.016,12.532H78
		l-2.912-12.324c-0.676-2.808-1.612-7.176-2.133-10.973h-0.156c-0.104,3.796-0.311,8.217-0.52,11.701l-0.572,12.168h-5.875
		l2.547-35.049h7.177l2.808,12.688c0.988,4.42,1.873,8.32,2.496,12.272h0.104c0.521-3.9,1.3-7.852,2.235-12.272l2.757-12.688h7.177
		l2.131,35.049H89.18L88.557,28.963z"/>
</g>
</svg>
