<?xml version="1.0" encoding="utf-8"?>
<!-- Generator: Adobe Illustrator 16.0.3, SVG Export Plug-In . SVG Version: 6.00 Build 0)  -->
<!DOCTYPE svg PUBLIC "-//W3C//DTD SVG 1.1//EN" "http://www.w3.org/Graphics/SVG/1.1/DTD/svg11.dtd">
<svg version="1.1" id="Layer_1" xmlns="http://www.w3.org/2000/svg" xmlns:xlink="http://www.w3.org/1999/xlink" x="0px" y="0px"
	 width="55px" height="25px" viewBox="0 0 132.908 51.948" 
	 xml:space="preserve">
<g opacity="0.1">
	<path fill="#fff" d="M5.61,6.707c1.716-0.416,4.212-0.676,6.917-0.676c4.42,0,7.488,1.04,9.724,3.12c3.016,2.704,4.576,7.332,4.576,14.145
		c0,7.072-1.82,12.116-4.888,14.82c-2.34,2.288-5.824,3.38-10.712,3.38c-2.132,0-4.264-0.208-5.616-0.364V6.707z M12.422,35.828
		c0.313,0.104,0.832,0.104,1.196,0.104c3.276,0,6.136-3.224,6.136-12.896c0-7.176-1.872-11.544-5.98-11.544
		c-0.468,0-0.937,0-1.353,0.156V35.828z"/>
	<path fill="#fff" d="M31.142,6.707c2.132-0.416,4.836-0.676,7.437-0.676c3.744,0,7.072,0.52,9.36,2.6c2.132,1.924,2.756,4.265,2.756,7.28
		c0,3.744-1.82,7.125-5.408,8.789v0.104c2.392,0.936,3.588,3.172,4.264,6.916c0.676,3.9,1.612,8.217,2.236,9.517h-7.124
		c-0.416-0.988-1.196-4.524-1.716-8.372c-0.624-4.368-1.716-5.616-4.004-5.616h-0.988v13.988h-6.813V6.707z M37.955,21.995h1.196
		c2.964,0,4.68-2.392,4.68-5.46c0-2.964-1.196-5.096-4.264-5.2c-0.572,0-1.248,0.052-1.612,0.208V21.995z"/>
	<path fill="#fff" d="M70.402,25.843h-8.008v9.464h9.048v5.928h-15.86V6.187h15.236v5.928h-8.424v8.061h8.008V25.843z"/>
	<path fill="#fff" d="M81.633,33.228l-1.56,8.008h-6.604l7.593-35.049h8.164l6.813,35.049h-6.604l-1.509-8.008H81.633z M87.302,27.923
		l-1.145-7.332c-0.364-2.132-0.832-5.616-1.145-7.957h-0.155c-0.364,2.34-0.884,5.98-1.248,8.008l-1.3,7.28H87.302z"/>
	<path fill="#fff" d="M121.31,28.963c-0.156-3.328-0.416-7.853-0.313-11.597h-0.156c-0.624,3.744-1.56,8.061-2.236,10.765l-3.016,12.532h-4.836
		l-2.912-12.324c-0.676-2.808-1.612-7.176-2.133-10.973h-0.155c-0.104,3.796-0.313,8.217-0.521,11.701l-0.572,12.168h-5.876
		l2.548-35.049h7.177l2.808,12.688c0.988,4.42,1.873,8.32,2.496,12.272h0.104c0.521-3.9,1.3-7.852,2.236-12.272l2.756-12.688h7.177
		l2.132,35.049h-6.085L121.31,28.963z"/>
</g>
</svg>
