<?xml version="1.0" encoding="utf-8"?>
<!-- Generator: Adobe Illustrator 16.0.0, SVG Export Plug-In . SVG Version: 6.00 Build 0)  -->
<!DOCTYPE svg PUBLIC "-//W3C//DTD SVG 1.1//EN" "http://www.w3.org/Graphics/SVG/1.1/DTD/svg11.dtd">
<svg version="1.1" id="Layer_1" xmlns="http://www.w3.org/2000/svg" xmlns:xlink="http://www.w3.org/1999/xlink" x="0px" y="0px"
	 width="64px" height="64px" viewBox="0 0 64 64" enable-background="new 0 0 64 64" xml:space="preserve">
<g>
	<g>
		<g>
			<g>
				<g>
					<linearGradient id="SVGID_1_" gradientUnits="userSpaceOnUse" x1="9.3789" y1="53.3105" x2="11.8457" y2="53.3105">
						<stop  offset="0" style="stop-color:#EB3349"/>
						<stop  offset="1" style="stop-color:#F45C43"/>
					</linearGradient>
					<path fill="url(#SVGID_1_)" d="M11.487,52.446l-0.004-0.006c-0.48-0.48-1.26-0.482-1.742-0.004
						c-0.482,0.48-0.482,1.26-0.004,1.744c0.48,0.48,1.264,0.484,1.744,0.004C11.964,53.704,11.968,52.927,11.487,52.446z"/>
				</g>
			</g>
		</g>
		<g>
			<g>
				<g>
					<linearGradient id="SVGID_2_" gradientUnits="userSpaceOnUse" x1="11.8955" y1="56.3086" x2="14.3613" y2="56.3086">
						<stop  offset="0" style="stop-color:#EB3349"/>
						<stop  offset="1" style="stop-color:#F45C43"/>
					</linearGradient>
					<path fill="url(#SVGID_2_)" d="M14.003,55.444l-0.004-0.006c-0.48-0.48-1.26-0.482-1.742-0.002
						c-0.48,0.479-0.482,1.26-0.002,1.74c0.479,0.482,1.262,0.486,1.742,0.006C14.479,56.702,14.483,55.925,14.003,55.444z"/>
				</g>
			</g>
		</g>
		<g>
			<g>
				<g>
					<linearGradient id="SVGID_3_" gradientUnits="userSpaceOnUse" x1="6.3174" y1="50.7109" x2="8.7852" y2="50.7109">
						<stop  offset="0" style="stop-color:#EB3349"/>
						<stop  offset="1" style="stop-color:#F45C43"/>
					</linearGradient>
					<path fill="url(#SVGID_3_)" d="M8.427,49.847l-0.006-0.006c-0.479-0.48-1.26-0.482-1.74-0.002
						c-0.482,0.48-0.484,1.26-0.004,1.74c0.48,0.482,1.262,0.486,1.744,0.008C8.903,51.104,8.907,50.329,8.427,49.847z"/>
				</g>
			</g>
		</g>
		<g>
			<g>
				<g>
					<linearGradient id="SVGID_4_" gradientUnits="userSpaceOnUse" x1="52.6768" y1="10.168" x2="55.1445" y2="10.168">
						<stop  offset="0" style="stop-color:#EB3349"/>
						<stop  offset="1" style="stop-color:#F45C43"/>
					</linearGradient>
					<path fill="url(#SVGID_4_)" d="M54.786,9.304L54.78,9.298c-0.479-0.48-1.258-0.482-1.74-0.002s-0.484,1.26-0.002,1.74
						c0.479,0.482,1.262,0.486,1.742,0.006C55.263,10.562,55.267,9.786,54.786,9.304z"/>
				</g>
			</g>
		</g>
		<g>
			<g>
				<g>
					<linearGradient id="SVGID_5_" gradientUnits="userSpaceOnUse" x1="55.2178" y1="13.2871" x2="57.6836" y2="13.2871">
						<stop  offset="0" style="stop-color:#EB3349"/>
						<stop  offset="1" style="stop-color:#F45C43"/>
					</linearGradient>
					<path fill="url(#SVGID_5_)" d="M57.327,12.423l-0.006-0.006c-0.48-0.48-1.26-0.482-1.74-0.004
						c-0.482,0.48-0.484,1.26-0.004,1.742s1.262,0.486,1.742,0.006C57.802,13.681,57.806,12.905,57.327,12.423z"/>
				</g>
			</g>
		</g>
		<g>
			<g>
				<g>
					<linearGradient id="SVGID_6_" gradientUnits="userSpaceOnUse" x1="49.5674" y1="7.6172" x2="52.0352" y2="7.6172">
						<stop  offset="0" style="stop-color:#EB3349"/>
						<stop  offset="1" style="stop-color:#F45C43"/>
					</linearGradient>
					<path fill="url(#SVGID_6_)" d="M51.677,6.751l-0.006-0.004c-0.479-0.48-1.258-0.482-1.74-0.002
						c-0.482,0.479-0.484,1.258-0.004,1.74s1.264,0.486,1.744,0.006C52.153,8.011,52.157,7.235,51.677,6.751z"/>
				</g>
			</g>
		</g>
		<g>
			<linearGradient id="SVGID_7_" gradientUnits="userSpaceOnUse" x1="0" y1="32" x2="64" y2="32">
				<stop  offset="0" style="stop-color:#EB3349"/>
				<stop  offset="1" style="stop-color:#F45C43"/>
			</linearGradient>
			<path fill="url(#SVGID_7_)" d="M6.642,51.544l1.762-1.754c-8.75-11.588-7.834-28.193,2.736-38.725
				c10.57-10.533,27.18-11.391,38.738-2.6l1.76-1.754C39.106-3.032,20.935-2.171,9.401,9.319
				C-2.132,20.812-3.058,38.979,6.642,51.544z M54.599,54.681c11.533-11.494,12.459-29.662,2.76-42.227l-1.76,1.754
				c8.75,11.59,7.832,28.195-2.738,38.727c-10.568,10.531-27.18,11.389-38.736,2.598l-1.76,1.756
				C24.894,67.032,43.067,66.171,54.599,54.681z"/>
		</g>
	</g>
	<g>
		<linearGradient id="SVGID_8_" gradientUnits="userSpaceOnUse" x1="21.6846" y1="28.9385" x2="32.5986" y2="28.9385">
			<stop  offset="0" style="stop-color:#EB3349"/>
			<stop  offset="1" style="stop-color:#F45C43"/>
		</linearGradient>
		<linearGradient id="SVGID_9_" gradientUnits="userSpaceOnUse" x1="21.4346" y1="28.9385" x2="32.8486" y2="28.9385">
			<stop  offset="0" style="stop-color:#EB3349"/>
			<stop  offset="1" style="stop-color:#F45C43"/>
		</linearGradient>
		<path fill="url(#SVGID_8_)" stroke="url(#SVGID_9_)" stroke-width="0.5" stroke-miterlimit="10" d="M31.267,28.938
			c0,2.275-1.85,4.125-4.125,4.125s-4.127-1.85-4.127-4.125s1.852-4.127,4.127-4.127S31.267,26.663,31.267,28.938L31.267,28.938z
			 M21.685,28.938c0,3.01,2.447,5.457,5.457,5.457c3.008,0,5.457-2.447,5.457-5.457s-2.449-5.457-5.457-5.457
			C24.132,23.481,21.685,25.929,21.685,28.938L21.685,28.938z"/>
		<linearGradient id="SVGID_10_" gradientUnits="userSpaceOnUse" x1="31.333" y1="37.8193" x2="32.665" y2="37.8193">
			<stop  offset="0" style="stop-color:#EB3349"/>
			<stop  offset="1" style="stop-color:#F45C43"/>
		</linearGradient>
		<linearGradient id="SVGID_11_" gradientUnits="userSpaceOnUse" x1="31.083" y1="37.8193" x2="32.915" y2="37.8193">
			<stop  offset="0" style="stop-color:#EB3349"/>
			<stop  offset="1" style="stop-color:#F45C43"/>
		</linearGradient>
		<path fill="url(#SVGID_10_)" stroke="url(#SVGID_11_)" stroke-width="0.5" stroke-miterlimit="10" d="M31.999,37.153
			c-0.176,0-0.346,0.072-0.471,0.195c-0.123,0.123-0.195,0.295-0.195,0.471s0.072,0.346,0.195,0.471
			c0.125,0.123,0.295,0.195,0.471,0.195s0.346-0.072,0.471-0.195c0.125-0.125,0.195-0.295,0.195-0.471s-0.07-0.348-0.195-0.471
			S32.175,37.153,31.999,37.153L31.999,37.153z"/>
		<linearGradient id="SVGID_12_" gradientUnits="userSpaceOnUse" x1="21.6182" y1="37.8193" x2="30.2197" y2="37.8193">
			<stop  offset="0" style="stop-color:#EB3349"/>
			<stop  offset="1" style="stop-color:#F45C43"/>
		</linearGradient>
		<linearGradient id="SVGID_13_" gradientUnits="userSpaceOnUse" x1="21.3682" y1="37.8193" x2="30.4697" y2="37.8193">
			<stop  offset="0" style="stop-color:#EB3349"/>
			<stop  offset="1" style="stop-color:#F45C43"/>
		</linearGradient>
		<path fill="url(#SVGID_12_)" stroke="url(#SVGID_13_)" stroke-width="0.5" stroke-miterlimit="10" d="M22.282,38.485h7.271
			c0.367,0,0.666-0.299,0.666-0.666s-0.299-0.666-0.666-0.666h-7.271c-0.365,0-0.664,0.299-0.664,0.666S21.917,38.485,22.282,38.485
			L22.282,38.485z"/>
		<linearGradient id="SVGID_14_" gradientUnits="userSpaceOnUse" x1="24.2471" y1="43.8916" x2="32.665" y2="43.8916">
			<stop  offset="0" style="stop-color:#EB3349"/>
			<stop  offset="1" style="stop-color:#F45C43"/>
		</linearGradient>
		<linearGradient id="SVGID_15_" gradientUnits="userSpaceOnUse" x1="23.9971" y1="43.8916" x2="32.915" y2="43.8916">
			<stop  offset="0" style="stop-color:#EB3349"/>
			<stop  offset="1" style="stop-color:#F45C43"/>
		</linearGradient>
		<path fill="url(#SVGID_14_)" stroke="url(#SVGID_15_)" stroke-width="0.5" stroke-miterlimit="10" d="M31.999,43.226h-7.086
			c-0.367,0-0.666,0.299-0.666,0.666s0.299,0.666,0.666,0.666h7.086c0.367,0,0.666-0.299,0.666-0.666S32.366,43.226,31.999,43.226
			L31.999,43.226z"/>
		<linearGradient id="SVGID_16_" gradientUnits="userSpaceOnUse" x1="21.6182" y1="43.8916" x2="22.9482" y2="43.8916">
			<stop  offset="0" style="stop-color:#EB3349"/>
			<stop  offset="1" style="stop-color:#F45C43"/>
		</linearGradient>
		<linearGradient id="SVGID_17_" gradientUnits="userSpaceOnUse" x1="21.3682" y1="43.8916" x2="23.1982" y2="43.8916">
			<stop  offset="0" style="stop-color:#EB3349"/>
			<stop  offset="1" style="stop-color:#F45C43"/>
		</linearGradient>
		<path fill="url(#SVGID_16_)" stroke="url(#SVGID_17_)" stroke-width="0.5" stroke-miterlimit="10" d="M22.282,43.226
			c-0.174,0-0.346,0.072-0.471,0.195c-0.123,0.123-0.193,0.295-0.193,0.471s0.07,0.346,0.193,0.471
			c0.125,0.123,0.297,0.195,0.471,0.195c0.176,0,0.348-0.072,0.471-0.195c0.125-0.125,0.195-0.295,0.195-0.471
			s-0.07-0.348-0.195-0.471C22.63,43.298,22.458,43.226,22.282,43.226L22.282,43.226z"/>
		<linearGradient id="SVGID_18_" gradientUnits="userSpaceOnUse" x1="16.7588" y1="31.999" x2="47.2393" y2="31.999">
			<stop  offset="0" style="stop-color:#EB3349"/>
			<stop  offset="1" style="stop-color:#F45C43"/>
		</linearGradient>
		<linearGradient id="SVGID_19_" gradientUnits="userSpaceOnUse" x1="16.5088" y1="31.999" x2="47.4893" y2="31.999">
			<stop  offset="0" style="stop-color:#EB3349"/>
			<stop  offset="1" style="stop-color:#F45C43"/>
		</linearGradient>
		<path fill="url(#SVGID_18_)" stroke="url(#SVGID_19_)" stroke-width="0.5" stroke-miterlimit="10" d="M45.909,44.11h-8.387V19.222
			c0-0.367-0.297-0.664-0.664-0.664h-9.051v-2.266h18.102V44.11L45.909,44.11z M36.192,47.704H18.091V19.888h18.102V47.704
			L36.192,47.704z M46.575,14.962H27.142c-0.367,0-0.666,0.299-0.666,0.666v2.93h-9.051c-0.367,0-0.666,0.297-0.666,0.664V48.37
			c0,0.367,0.299,0.666,0.666,0.666h19.434c0.367,0,0.664-0.299,0.664-0.666v-2.93h9.053c0.367,0,0.664-0.297,0.664-0.664V15.628
			C47.239,15.261,46.942,14.962,46.575,14.962L46.575,14.962z"/>
	</g>
</g>
</svg>
