<?xml version="1.0" encoding="utf-8"?>
<!-- Generator: Adobe Illustrator 16.0.0, SVG Export Plug-In . SVG Version: 6.00 Build 0)  -->
<!DOCTYPE svg PUBLIC "-//W3C//DTD SVG 1.1//EN" "http://www.w3.org/Graphics/SVG/1.1/DTD/svg11.dtd">
<svg version="1.1" id="Layer_1" xmlns="http://www.w3.org/2000/svg" xmlns:xlink="http://www.w3.org/1999/xlink" x="0px" y="0px"
	 width="64px" height="64px" viewBox="0 0 64 64" enable-background="new 0 0 64 64" xml:space="preserve">
<g>
	<g>
		<g>
			<g>
				<g>
					<linearGradient id="SVGID_1_" gradientUnits="userSpaceOnUse" x1="9.3838" y1="53.3105" x2="11.8506" y2="53.3105">
						<stop  offset="0" style="stop-color:#EB3349"/>
						<stop  offset="1" style="stop-color:#F45C43"/>
					</linearGradient>
					<path fill="url(#SVGID_1_)" d="M11.492,52.446l-0.004-0.006c-0.48-0.48-1.26-0.482-1.742-0.004
						c-0.482,0.48-0.482,1.26-0.004,1.744c0.48,0.48,1.264,0.484,1.744,0.004C11.969,53.704,11.973,52.927,11.492,52.446z"/>
				</g>
			</g>
		</g>
		<g>
			<g>
				<g>
					<linearGradient id="SVGID_2_" gradientUnits="userSpaceOnUse" x1="11.9004" y1="56.3086" x2="14.3662" y2="56.3086">
						<stop  offset="0" style="stop-color:#EB3349"/>
						<stop  offset="1" style="stop-color:#F45C43"/>
					</linearGradient>
					<path fill="url(#SVGID_2_)" d="M14.008,55.444l-0.004-0.006c-0.48-0.48-1.26-0.482-1.742-0.002
						c-0.48,0.479-0.482,1.26-0.002,1.74c0.479,0.482,1.262,0.486,1.742,0.006C14.484,56.702,14.488,55.925,14.008,55.444z"/>
				</g>
			</g>
		</g>
		<g>
			<g>
				<g>
					<linearGradient id="SVGID_3_" gradientUnits="userSpaceOnUse" x1="6.3223" y1="50.7109" x2="8.79" y2="50.7109">
						<stop  offset="0" style="stop-color:#EB3349"/>
						<stop  offset="1" style="stop-color:#F45C43"/>
					</linearGradient>
					<path fill="url(#SVGID_3_)" d="M8.432,49.847l-0.006-0.006c-0.479-0.48-1.26-0.482-1.74-0.002
						c-0.482,0.48-0.484,1.26-0.004,1.74c0.48,0.482,1.262,0.486,1.744,0.008C8.908,51.104,8.912,50.329,8.432,49.847z"/>
				</g>
			</g>
		</g>
		<g>
			<g>
				<g>
					<linearGradient id="SVGID_4_" gradientUnits="userSpaceOnUse" x1="52.6816" y1="10.168" x2="55.1494" y2="10.168">
						<stop  offset="0" style="stop-color:#EB3349"/>
						<stop  offset="1" style="stop-color:#F45C43"/>
					</linearGradient>
					<path fill="url(#SVGID_4_)" d="M54.791,9.304l-0.006-0.006c-0.479-0.48-1.258-0.482-1.74-0.002s-0.484,1.26-0.002,1.74
						c0.479,0.482,1.262,0.486,1.742,0.006C55.268,10.562,55.271,9.786,54.791,9.304z"/>
				</g>
			</g>
		</g>
		<g>
			<g>
				<g>
					<linearGradient id="SVGID_5_" gradientUnits="userSpaceOnUse" x1="55.2227" y1="13.2871" x2="57.6885" y2="13.2871">
						<stop  offset="0" style="stop-color:#EB3349"/>
						<stop  offset="1" style="stop-color:#F45C43"/>
					</linearGradient>
					<path fill="url(#SVGID_5_)" d="M57.332,12.423l-0.006-0.006c-0.48-0.48-1.26-0.482-1.74-0.004
						c-0.482,0.48-0.484,1.26-0.004,1.742s1.262,0.486,1.742,0.006C57.807,13.681,57.811,12.905,57.332,12.423z"/>
				</g>
			</g>
		</g>
		<g>
			<g>
				<g>
					<linearGradient id="SVGID_6_" gradientUnits="userSpaceOnUse" x1="49.5723" y1="7.6172" x2="52.04" y2="7.6172">
						<stop  offset="0" style="stop-color:#EB3349"/>
						<stop  offset="1" style="stop-color:#F45C43"/>
					</linearGradient>
					<path fill="url(#SVGID_6_)" d="M51.682,6.751l-0.006-0.004c-0.479-0.48-1.258-0.482-1.74-0.002
						c-0.482,0.479-0.484,1.258-0.004,1.74s1.264,0.486,1.744,0.006C52.158,8.011,52.162,7.235,51.682,6.751z"/>
				</g>
			</g>
		</g>
		<g>
			<linearGradient id="SVGID_7_" gradientUnits="userSpaceOnUse" x1="0.0039" y1="32" x2="64.0059" y2="32">
				<stop  offset="0" style="stop-color:#EB3349"/>
				<stop  offset="1" style="stop-color:#F45C43"/>
			</linearGradient>
			<path fill="url(#SVGID_7_)" d="M6.646,51.544l1.762-1.754c-8.75-11.588-7.834-28.193,2.736-38.725
				c10.57-10.533,27.18-11.391,38.738-2.6l1.76-1.754C39.111-3.032,20.939-2.171,9.406,9.319
				C-2.127,20.812-3.053,38.979,6.646,51.544z M54.604,54.681c11.533-11.494,12.459-29.662,2.76-42.227l-1.76,1.754
				c8.75,11.59,7.832,28.195-2.738,38.727c-10.568,10.531-27.18,11.389-38.736,2.598l-1.76,1.756
				C24.898,67.032,43.072,66.171,54.604,54.681z"/>
		</g>
	</g>
	<g>
		<linearGradient id="SVGID_8_" gradientUnits="userSpaceOnUse" x1="14.0723" y1="30.5098" x2="49.9355" y2="30.5098">
			<stop  offset="0" style="stop-color:#EB3349"/>
			<stop  offset="1" style="stop-color:#F45C43"/>
		</linearGradient>
		<linearGradient id="SVGID_9_" gradientUnits="userSpaceOnUse" x1="13.8223" y1="30.5098" x2="50.1855" y2="30.5098">
			<stop  offset="0" style="stop-color:#EB3349"/>
			<stop  offset="1" style="stop-color:#F45C43"/>
		</linearGradient>
		
			<path fill-rule="evenodd" clip-rule="evenodd" fill="url(#SVGID_8_)" stroke="url(#SVGID_9_)" stroke-width="0.5" stroke-miterlimit="10" d="
			M14.072,45.079c0-9.713,0-19.424,0-29.137c0.133-0.258,0.363-0.352,0.637-0.365c0.256-0.01,0.512-0.008,0.768-0.008
			c10.074,0,20.145,0.002,30.217,0.004c1.156,0,2.311,0,3.467,0c0.316,0,0.607,0.053,0.775,0.369c0,9.713,0,19.424,0,29.137
			c-0.223,0.404-0.611,0.371-0.986,0.371c-10.189,0-20.377-0.002-30.566-0.004c-1.18,0-2.357,0-3.537,0
			C14.529,45.446,14.238,45.392,14.072,45.079z M31.969,44.294c5.439,0,10.879,0,16.318,0c0.57,0,0.57-0.004,0.57-0.555
			c0-6.723,0-13.447,0-20.17c0-0.537,0-0.537-0.551-0.537c-0.945,0-1.893,0.006-2.838,0.006c-9.922-0.002-19.844-0.006-29.768-0.006
			c-0.553,0-0.553,0-0.553,0.57c0,6.711,0,13.424,0,20.137c0,0.551,0,0.555,0.57,0.555C21.135,44.294,26.551,44.294,31.969,44.294z
			 M28.844,21.872c0,0.002,0,0.004,0,0.006c4.422,0,8.848-0.004,13.271,0.006c0.334,0,0.447-0.104,0.445-0.445
			c-0.016-1.422-0.016-2.846,0-4.271c0.002-0.336-0.105-0.449-0.443-0.443c-1.051,0.016-2.102,0.008-3.152,0.008
			c-7.785,0-15.57-0.002-23.355-0.002c-0.443,0-0.459,0.014-0.461,0.451c0,1.375,0,2.752,0,4.129
			c0.002,0.563,0.002,0.563,0.564,0.563C20.09,21.872,24.465,21.872,28.844,21.872z M46.223,21.878c0.723,0,1.447,0,2.172-0.002
			c0.443,0,0.463-0.016,0.463-0.445c0-1.426-0.008-2.85,0.006-4.271c0.002-0.314-0.088-0.439-0.418-0.436
			c-1.457,0.012-2.918,0.012-4.377,0c-0.328-0.004-0.418,0.121-0.416,0.436c0.014,1.422,0.004,2.846,0.008,4.271
			c0,0.43,0.018,0.445,0.461,0.445C44.822,21.878,45.521,21.878,46.223,21.878z"/>
		<linearGradient id="SVGID_10_" gradientUnits="userSpaceOnUse" x1="18.5303" y1="34.4824" x2="46.0459" y2="34.4824">
			<stop  offset="0" style="stop-color:#EB3349"/>
			<stop  offset="1" style="stop-color:#F45C43"/>
		</linearGradient>
		<linearGradient id="SVGID_11_" gradientUnits="userSpaceOnUse" x1="18.2803" y1="34.4824" x2="46.2959" y2="34.4824">
			<stop  offset="0" style="stop-color:#EB3349"/>
			<stop  offset="1" style="stop-color:#F45C43"/>
		</linearGradient>
		
			<path fill-rule="evenodd" clip-rule="evenodd" fill="url(#SVGID_10_)" stroke="url(#SVGID_11_)" stroke-width="0.5" stroke-miterlimit="10" d="
			M32.281,29.7c4.215,0,8.428,0,12.643,0c0.139,0,0.279-0.004,0.42,0.004c0.496,0.023,0.697,0.225,0.697,0.721
			c0.004,1.854,0.002,3.711,0.002,5.566c0,0.852,0.004,1.707,0.002,2.559c-0.002,0.492-0.205,0.707-0.703,0.709
			c-1.402,0.01-2.803,0.006-4.203-0.004c-0.418-0.002-0.65-0.191-0.688-0.506c-0.043-0.391,0.203-0.633,0.688-0.639
			c0.828-0.012,1.658-0.006,2.486-0.006c0.314,0,0.631-0.01,0.945,0.002c0.27,0.012,0.375-0.096,0.371-0.369
			c-0.008-0.959-0.004-1.916-0.004-2.871c0-1.193-0.01-2.383,0.008-3.572c0.004-0.34-0.109-0.447-0.445-0.443
			c-7.18,0.008-14.357,0.006-21.539,0.006c-0.969,0-1.938,0.01-2.906-0.006c-0.322-0.008-0.426,0.107-0.424,0.426
			c0.012,2.113,0.006,4.227,0.006,6.342c0,0.48,0.006,0.486,0.492,0.486c6.094,0,12.188,0,18.281,0c0.209,0,0.42-0.018,0.625,0.053
			c0.246,0.082,0.4,0.248,0.408,0.51c0.006,0.273-0.141,0.455-0.404,0.549c-0.148,0.049-0.299,0.049-0.451,0.049
			c-6.256,0-12.514,0-18.771,0c-0.223,0-0.445,0.006-0.666-0.014c-0.42-0.035-0.615-0.24-0.617-0.654
			c-0.004-2.742-0.004-5.486,0-8.23c0.002-0.416,0.195-0.619,0.615-0.658c0.148-0.016,0.301-0.008,0.455-0.008
			C23.828,29.7,28.055,29.7,32.281,29.7z"/>
		<linearGradient id="SVGID_12_" gradientUnits="userSpaceOnUse" x1="31.7041" y1="27.125" x2="32.8711" y2="27.125">
			<stop  offset="0" style="stop-color:#EB3349"/>
			<stop  offset="1" style="stop-color:#F45C43"/>
		</linearGradient>
		<linearGradient id="SVGID_13_" gradientUnits="userSpaceOnUse" x1="31.4541" y1="27.125" x2="33.1211" y2="27.125">
			<stop  offset="0" style="stop-color:#EB3349"/>
			<stop  offset="1" style="stop-color:#F45C43"/>
		</linearGradient>
		
			<path fill-rule="evenodd" clip-rule="evenodd" fill="url(#SVGID_12_)" stroke="url(#SVGID_13_)" stroke-width="0.5" stroke-miterlimit="10" d="
			M31.711,27.124c0-0.303-0.008-0.605,0.002-0.908c0.018-0.438,0.246-0.703,0.586-0.693c0.322,0.006,0.557,0.262,0.564,0.676
			c0.012,0.629,0.01,1.26-0.008,1.889c-0.012,0.393-0.246,0.637-0.561,0.641c-0.326,0.006-0.564-0.252-0.584-0.656
			c-0.014-0.316-0.002-0.631-0.002-0.947H31.711z"/>
		<linearGradient id="SVGID_14_" gradientUnits="userSpaceOnUse" x1="28.8311" y1="27.2109" x2="30.7373" y2="27.2109">
			<stop  offset="0" style="stop-color:#EB3349"/>
			<stop  offset="1" style="stop-color:#F45C43"/>
		</linearGradient>
		<linearGradient id="SVGID_15_" gradientUnits="userSpaceOnUse" x1="28.5811" y1="27.2109" x2="30.9873" y2="27.2109">
			<stop  offset="0" style="stop-color:#EB3349"/>
			<stop  offset="1" style="stop-color:#F45C43"/>
		</linearGradient>
		
			<path fill-rule="evenodd" clip-rule="evenodd" fill="url(#SVGID_14_)" stroke="url(#SVGID_15_)" stroke-width="0.5" stroke-miterlimit="10" d="
			M30.178,28.737c-0.219-0.016-0.408-0.125-0.504-0.346c-0.273-0.639-0.547-1.281-0.799-1.932c-0.121-0.316,0.02-0.621,0.291-0.729
			c0.281-0.119,0.59-0.016,0.727,0.295c0.289,0.648,0.563,1.305,0.809,1.967C30.838,28.362,30.572,28.724,30.178,28.737z"/>
		<linearGradient id="SVGID_16_" gradientUnits="userSpaceOnUse" x1="33.8379" y1="27.207" x2="35.751" y2="27.207">
			<stop  offset="0" style="stop-color:#EB3349"/>
			<stop  offset="1" style="stop-color:#F45C43"/>
		</linearGradient>
		<linearGradient id="SVGID_17_" gradientUnits="userSpaceOnUse" x1="33.5879" y1="27.207" x2="36.001" y2="27.207">
			<stop  offset="0" style="stop-color:#EB3349"/>
			<stop  offset="1" style="stop-color:#F45C43"/>
		</linearGradient>
		
			<path fill-rule="evenodd" clip-rule="evenodd" fill="url(#SVGID_16_)" stroke="url(#SVGID_17_)" stroke-width="0.5" stroke-miterlimit="10" d="
			M34.398,28.731c-0.359,0.002-0.648-0.338-0.535-0.691c0.225-0.709,0.523-1.396,0.85-2.068c0.137-0.281,0.41-0.348,0.691-0.238
			c0.287,0.115,0.416,0.375,0.311,0.66c-0.256,0.688-0.545,1.361-0.836,2.037C34.795,28.624,34.611,28.714,34.398,28.731z"/>
		<linearGradient id="SVGID_18_" gradientUnits="userSpaceOnUse" x1="29.3496" y1="34.4805" x2="30.4609" y2="34.4805">
			<stop  offset="0" style="stop-color:#EB3349"/>
			<stop  offset="1" style="stop-color:#F45C43"/>
		</linearGradient>
		<linearGradient id="SVGID_19_" gradientUnits="userSpaceOnUse" x1="29.0996" y1="34.4805" x2="30.7109" y2="34.4805">
			<stop  offset="0" style="stop-color:#EB3349"/>
			<stop  offset="1" style="stop-color:#F45C43"/>
		</linearGradient>
		
			<path fill-rule="evenodd" clip-rule="evenodd" fill="url(#SVGID_18_)" stroke="url(#SVGID_19_)" stroke-width="0.5" stroke-miterlimit="10" d="
			M30.461,34.485c-0.002,0.291-0.277,0.561-0.568,0.551c-0.281-0.006-0.535-0.26-0.543-0.541c-0.01-0.297,0.25-0.566,0.547-0.57
			C30.191,33.923,30.461,34.19,30.461,34.485z"/>
		<linearGradient id="SVGID_20_" gradientUnits="userSpaceOnUse" x1="31.4453" y1="34.4766" x2="32.5566" y2="34.4766">
			<stop  offset="0" style="stop-color:#EB3349"/>
			<stop  offset="1" style="stop-color:#F45C43"/>
		</linearGradient>
		<linearGradient id="SVGID_21_" gradientUnits="userSpaceOnUse" x1="31.1953" y1="34.4766" x2="32.8066" y2="34.4766">
			<stop  offset="0" style="stop-color:#EB3349"/>
			<stop  offset="1" style="stop-color:#F45C43"/>
		</linearGradient>
		
			<path fill-rule="evenodd" clip-rule="evenodd" fill="url(#SVGID_20_)" stroke="url(#SVGID_21_)" stroke-width="0.5" stroke-miterlimit="10" d="
			M32.004,35.032c-0.295,0-0.563-0.27-0.559-0.563s0.277-0.557,0.57-0.549c0.279,0.008,0.533,0.266,0.541,0.547
			C32.563,34.765,32.301,35.032,32.004,35.032z"/>
		<linearGradient id="SVGID_22_" gradientUnits="userSpaceOnUse" x1="33.5508" y1="34.4785" x2="34.6582" y2="34.4785">
			<stop  offset="0" style="stop-color:#EB3349"/>
			<stop  offset="1" style="stop-color:#F45C43"/>
		</linearGradient>
		<linearGradient id="SVGID_23_" gradientUnits="userSpaceOnUse" x1="33.3008" y1="34.4785" x2="34.9082" y2="34.4785">
			<stop  offset="0" style="stop-color:#EB3349"/>
			<stop  offset="1" style="stop-color:#F45C43"/>
		</linearGradient>
		
			<path fill-rule="evenodd" clip-rule="evenodd" fill="url(#SVGID_22_)" stroke="url(#SVGID_23_)" stroke-width="0.5" stroke-miterlimit="10" d="
			M34.658,34.474c0.002,0.295-0.26,0.561-0.557,0.559c-0.295-0.002-0.557-0.27-0.551-0.564c0.008-0.283,0.256-0.533,0.539-0.543
			C34.385,33.917,34.654,34.179,34.658,34.474z"/>
		<linearGradient id="SVGID_24_" gradientUnits="userSpaceOnUse" x1="18.5488" y1="19.2979" x2="39.1582" y2="19.2979">
			<stop  offset="0" style="stop-color:#EB3349"/>
			<stop  offset="1" style="stop-color:#F45C43"/>
		</linearGradient>
		<linearGradient id="SVGID_25_" gradientUnits="userSpaceOnUse" x1="18.2988" y1="19.2979" x2="39.4082" y2="19.2979">
			<stop  offset="0" style="stop-color:#EB3349"/>
			<stop  offset="1" style="stop-color:#F45C43"/>
		</linearGradient>
		
			<path fill-rule="evenodd" clip-rule="evenodd" fill="url(#SVGID_24_)" stroke="url(#SVGID_25_)" stroke-width="0.5" stroke-miterlimit="10" d="
			M28.969,18.724c-0.641,0-1.164,0-1.164-0.004c0,0-0.525-0.002-1.164-0.002c0,0-4.766,0-7.73,0c-0.119,0-0.119,0-0.119,0
			c-0.133,0-0.242,0.262-0.242,0.58c0,0.316,0.523,0.578,1.164,0.578c0,0,12.365,0.002,19.129,0.002c0.105,0,0.105,0,0.105,0
			c0.115,0.004,0.211-0.256,0.211-0.574s-0.523-0.578-1.164-0.58H28.969z"/>
	</g>
</g>
</svg>
