<?xml version="1.0" encoding="utf-8"?>
<!-- Generator: Adobe Illustrator 16.0.0, SVG Export Plug-In . SVG Version: 6.00 Build 0)  -->
<!DOCTYPE svg PUBLIC "-//W3C//DTD SVG 1.1//EN" "http://www.w3.org/Graphics/SVG/1.1/DTD/svg11.dtd">
<svg version="1.1" id="Layer_1" xmlns="http://www.w3.org/2000/svg" xmlns:xlink="http://www.w3.org/1999/xlink" x="0px" y="0px"
	 width="64px" height="64px" viewBox="0 0 64 64" enable-background="new 0 0 64 64" xml:space="preserve">
<g>
	<g>
		<g>
			<g>
				<g>
					<linearGradient id="SVGID_1_" gradientUnits="userSpaceOnUse" x1="9.3828" y1="53.3105" x2="11.8496" y2="53.3105">
						<stop  offset="0" style="stop-color:#EB3349"/>
						<stop  offset="1" style="stop-color:#F45C43"/>
					</linearGradient>
					<path fill="url(#SVGID_1_)" d="M11.491,52.446l-0.004-0.006c-0.48-0.48-1.26-0.482-1.742-0.004
						c-0.482,0.48-0.482,1.26-0.004,1.744c0.48,0.48,1.264,0.484,1.744,0.004C11.968,53.704,11.972,52.927,11.491,52.446z"/>
				</g>
			</g>
		</g>
		<g>
			<g>
				<g>
					<linearGradient id="SVGID_2_" gradientUnits="userSpaceOnUse" x1="11.8994" y1="56.3086" x2="14.3652" y2="56.3086">
						<stop  offset="0" style="stop-color:#EB3349"/>
						<stop  offset="1" style="stop-color:#F45C43"/>
					</linearGradient>
					<path fill="url(#SVGID_2_)" d="M14.007,55.444l-0.004-0.006c-0.48-0.48-1.26-0.482-1.742-0.002
						c-0.48,0.479-0.482,1.26-0.002,1.74c0.479,0.482,1.262,0.486,1.742,0.006C14.483,56.702,14.487,55.925,14.007,55.444z"/>
				</g>
			</g>
		</g>
		<g>
			<g>
				<g>
					<linearGradient id="SVGID_3_" gradientUnits="userSpaceOnUse" x1="6.3213" y1="50.7109" x2="8.7891" y2="50.7109">
						<stop  offset="0" style="stop-color:#EB3349"/>
						<stop  offset="1" style="stop-color:#F45C43"/>
					</linearGradient>
					<path fill="url(#SVGID_3_)" d="M8.431,49.847l-0.006-0.006c-0.479-0.48-1.26-0.482-1.74-0.002
						c-0.482,0.48-0.484,1.26-0.004,1.74c0.48,0.482,1.262,0.486,1.744,0.008C8.907,51.104,8.911,50.329,8.431,49.847z"/>
				</g>
			</g>
		</g>
		<g>
			<g>
				<g>
					<linearGradient id="SVGID_4_" gradientUnits="userSpaceOnUse" x1="52.6807" y1="10.168" x2="55.1484" y2="10.168">
						<stop  offset="0" style="stop-color:#EB3349"/>
						<stop  offset="1" style="stop-color:#F45C43"/>
					</linearGradient>
					<path fill="url(#SVGID_4_)" d="M54.79,9.304l-0.006-0.006c-0.479-0.48-1.258-0.482-1.74-0.002s-0.484,1.26-0.002,1.74
						c0.479,0.482,1.262,0.486,1.742,0.006C55.267,10.562,55.271,9.786,54.79,9.304z"/>
				</g>
			</g>
		</g>
		<g>
			<g>
				<g>
					<linearGradient id="SVGID_5_" gradientUnits="userSpaceOnUse" x1="55.2217" y1="13.2871" x2="57.6875" y2="13.2871">
						<stop  offset="0" style="stop-color:#EB3349"/>
						<stop  offset="1" style="stop-color:#F45C43"/>
					</linearGradient>
					<path fill="url(#SVGID_5_)" d="M57.331,12.423l-0.006-0.006c-0.48-0.48-1.26-0.482-1.74-0.004
						c-0.482,0.48-0.484,1.26-0.004,1.742s1.262,0.486,1.742,0.006C57.806,13.681,57.81,12.905,57.331,12.423z"/>
				</g>
			</g>
		</g>
		<g>
			<g>
				<g>
					<linearGradient id="SVGID_6_" gradientUnits="userSpaceOnUse" x1="49.5713" y1="7.6172" x2="52.0391" y2="7.6172">
						<stop  offset="0" style="stop-color:#EB3349"/>
						<stop  offset="1" style="stop-color:#F45C43"/>
					</linearGradient>
					<path fill="url(#SVGID_6_)" d="M51.681,6.751l-0.006-0.004c-0.479-0.48-1.258-0.482-1.74-0.002
						c-0.482,0.479-0.484,1.258-0.004,1.74s1.264,0.486,1.744,0.006C52.157,8.011,52.161,7.235,51.681,6.751z"/>
				</g>
			</g>
		</g>
		<g>
			<linearGradient id="SVGID_7_" gradientUnits="userSpaceOnUse" x1="0.0039" y1="32" x2="64.0039" y2="32">
				<stop  offset="0" style="stop-color:#EB3349"/>
				<stop  offset="1" style="stop-color:#F45C43"/>
			</linearGradient>
			<path fill="url(#SVGID_7_)" d="M6.646,51.544l1.762-1.754c-8.75-11.588-7.834-28.193,2.736-38.725
				c10.57-10.533,27.18-11.391,38.738-2.6l1.76-1.754C39.11-3.032,20.938-2.171,9.405,9.319
				C-2.128,20.812-3.054,38.979,6.646,51.544z M54.603,54.681c11.533-11.494,12.459-29.662,2.76-42.227l-1.76,1.754
				c8.75,11.59,7.832,28.195-2.738,38.727c-10.568,10.531-27.18,11.389-38.736,2.598l-1.76,1.756
				C24.897,67.032,43.071,66.171,54.603,54.681z"/>
		</g>
	</g>
	<linearGradient id="SVGID_8_" gradientUnits="userSpaceOnUse" x1="12.3545" y1="31.999" x2="51.6533" y2="31.999">
		<stop  offset="0" style="stop-color:#EB3349"/>
		<stop  offset="1" style="stop-color:#F45C43"/>
	</linearGradient>
	<linearGradient id="SVGID_9_" gradientUnits="userSpaceOnUse" x1="12.1045" y1="31.999" x2="51.9033" y2="31.999">
		<stop  offset="0" style="stop-color:#EB3349"/>
		<stop  offset="1" style="stop-color:#F45C43"/>
	</linearGradient>
	<path fill="url(#SVGID_8_)" stroke="url(#SVGID_9_)" stroke-width="0.5" stroke-miterlimit="10" d="M50.177,17.024
		c-0.385-0.014-0.781-0.021-1.182-0.021c-4.818,0-9.703,0.963-12.951,1.771c-0.281,0.068-0.475,0.318-0.475,0.605v26.168
		c0,0.211,0.105,0.404,0.279,0.521c0.104,0.068,0.225,0.104,0.346,0.104c0.082,0,0.164-0.016,0.244-0.049
		c2.744-1.166,8.199-3.25,13.914-4.121c0.74-0.111,1.301-0.762,1.301-1.512V18.552C51.653,17.724,51.003,17.054,50.177,17.024z
		 M50.403,40.491c0,0.137-0.104,0.254-0.238,0.275c-5.295,0.807-10.359,2.625-13.348,3.844V19.87
		c3.172-0.764,7.713-1.617,12.178-1.617c0.383,0,0.766,0.008,1.137,0.021c0.152,0.004,0.271,0.127,0.271,0.277V40.491z
		 M34.413,18.815c-0.207-0.107-0.455-0.094-0.646,0.039l-0.105,0.072c-1.137,0.736-1.906,0.727-3.016,0.01l-0.121-0.082
		c-0.191-0.133-0.438-0.145-0.645-0.037c-0.205,0.107-0.334,0.322-0.334,0.553v26.178c0,0.039,0.004,0.078,0.012,0.117
		c0.096,0.514,0.885,1.33,2.588,1.33c1.705,0,2.492-0.816,2.59-1.33c0.006-0.039,0.012-0.078,0.012-0.117V19.37
		C34.747,19.136,34.616,18.923,34.413,18.815z M33.495,45.372c-0.121,0.115-0.488,0.375-1.35,0.375s-1.229-0.26-1.35-0.375V20.429
		c0.916,0.387,1.775,0.389,2.699,0V45.372z M27.964,18.774c-3.25-0.809-8.137-1.771-12.953-1.771c-0.398,0-0.797,0.008-1.182,0.021
		c-0.828,0.029-1.475,0.699-1.475,1.527v21.939c0,0.762,0.545,1.396,1.299,1.51c5.711,0.871,11.17,2.957,13.916,4.123
		c0.078,0.031,0.16,0.049,0.244,0.049c0.121,0,0.24-0.037,0.344-0.104c0.176-0.117,0.281-0.313,0.281-0.521V19.38
		C28.438,19.093,28.243,18.843,27.964,18.774z M27.188,44.61c-3.404-1.393-8.246-3.066-13.348-3.844
		c-0.137-0.021-0.238-0.137-0.238-0.275V18.552c0-0.15,0.119-0.273,0.271-0.277c0.371-0.014,0.754-0.021,1.137-0.021
		c4.463,0,9.006,0.854,12.178,1.617V44.61z"/>
</g>
</svg>
