<?xml version="1.0" encoding="utf-8"?>
<!-- Generator: Adobe Illustrator 16.0.0, SVG Export Plug-In . SVG Version: 6.00 Build 0)  -->
<!DOCTYPE svg PUBLIC "-//W3C//DTD SVG 1.1//EN" "http://www.w3.org/Graphics/SVG/1.1/DTD/svg11.dtd">
<svg version="1.1" id="Layer_1" xmlns="http://www.w3.org/2000/svg" xmlns:xlink="http://www.w3.org/1999/xlink" x="0px" y="0px"
	 width="64px" height="64px" viewBox="0 0 64 64" enable-background="new 0 0 64 64" xml:space="preserve">
<g>
	<g>
		<g>
			<g>
				<g>
					<linearGradient id="SVGID_1_" gradientUnits="userSpaceOnUse" x1="9.3779" y1="53.3105" x2="11.8452" y2="53.3105">
						<stop  offset="0" style="stop-color:#EB3349"/>
						<stop  offset="1" style="stop-color:#F45C43"/>
					</linearGradient>
					<path fill="url(#SVGID_1_)" d="M11.487,52.446l-0.005-0.006c-0.479-0.48-1.26-0.482-1.741-0.004
						c-0.482,0.48-0.483,1.26-0.004,1.744c0.48,0.48,1.263,0.484,1.744,0.004C11.963,53.704,11.967,52.927,11.487,52.446z"/>
				</g>
			</g>
		</g>
		<g>
			<g>
				<g>
					<linearGradient id="SVGID_2_" gradientUnits="userSpaceOnUse" x1="11.8945" y1="56.3086" x2="14.3608" y2="56.3086">
						<stop  offset="0" style="stop-color:#EB3349"/>
						<stop  offset="1" style="stop-color:#F45C43"/>
					</linearGradient>
					<path fill="url(#SVGID_2_)" d="M14.002,55.444l-0.004-0.006c-0.48-0.48-1.26-0.482-1.742-0.002
						c-0.481,0.479-0.482,1.26-0.003,1.74c0.479,0.482,1.263,0.486,1.743,0.006C14.479,56.702,14.483,55.925,14.002,55.444z"/>
				</g>
			</g>
		</g>
		<g>
			<g>
				<g>
					<linearGradient id="SVGID_3_" gradientUnits="userSpaceOnUse" x1="6.3169" y1="50.7109" x2="8.7837" y2="50.7109">
						<stop  offset="0" style="stop-color:#EB3349"/>
						<stop  offset="1" style="stop-color:#F45C43"/>
					</linearGradient>
					<path fill="url(#SVGID_3_)" d="M8.426,49.847L8.42,49.841c-0.479-0.48-1.26-0.482-1.741-0.002s-0.483,1.26-0.003,1.74
						c0.48,0.482,1.262,0.486,1.744,0.008C8.902,51.104,8.906,50.329,8.426,49.847z"/>
				</g>
			</g>
		</g>
		<g>
			<g>
				<g>
					<linearGradient id="SVGID_4_" gradientUnits="userSpaceOnUse" x1="52.6758" y1="10.168" x2="55.1426" y2="10.168">
						<stop  offset="0" style="stop-color:#EB3349"/>
						<stop  offset="1" style="stop-color:#F45C43"/>
					</linearGradient>
					<path fill="url(#SVGID_4_)" d="M54.785,9.304l-0.006-0.006c-0.479-0.48-1.258-0.482-1.74-0.002s-0.484,1.26-0.002,1.74
						c0.479,0.482,1.262,0.486,1.742,0.006C55.261,10.562,55.265,9.786,54.785,9.304z"/>
				</g>
			</g>
		</g>
		<g>
			<g>
				<g>
					<linearGradient id="SVGID_5_" gradientUnits="userSpaceOnUse" x1="55.2163" y1="13.2871" x2="57.6821" y2="13.2871">
						<stop  offset="0" style="stop-color:#EB3349"/>
						<stop  offset="1" style="stop-color:#F45C43"/>
					</linearGradient>
					<path fill="url(#SVGID_5_)" d="M57.326,12.423l-0.006-0.006c-0.48-0.48-1.26-0.482-1.74-0.004
						c-0.482,0.48-0.484,1.26-0.004,1.742s1.262,0.486,1.742,0.006C57.8,13.681,57.804,12.905,57.326,12.423z"/>
				</g>
			</g>
		</g>
		<g>
			<g>
				<g>
					<linearGradient id="SVGID_6_" gradientUnits="userSpaceOnUse" x1="49.5659" y1="7.6172" x2="52.0332" y2="7.6172">
						<stop  offset="0" style="stop-color:#EB3349"/>
						<stop  offset="1" style="stop-color:#F45C43"/>
					</linearGradient>
					<path fill="url(#SVGID_6_)" d="M51.675,6.751l-0.006-0.004c-0.479-0.48-1.258-0.482-1.74-0.002
						c-0.482,0.479-0.484,1.258-0.004,1.74s1.264,0.486,1.744,0.006C52.152,8.011,52.156,7.235,51.675,6.751z"/>
				</g>
			</g>
		</g>
		<g>
			<linearGradient id="SVGID_7_" gradientUnits="userSpaceOnUse" x1="-9.765625e-004" y1="32" x2="63.999" y2="32">
				<stop  offset="0" style="stop-color:#EB3349"/>
				<stop  offset="1" style="stop-color:#F45C43"/>
			</linearGradient>
			<path fill="url(#SVGID_7_)" d="M6.641,51.544l1.762-1.754c-8.751-11.588-7.834-28.193,2.736-38.725
				c10.569-10.533,27.179-11.391,38.737-2.6l1.76-1.754C39.105-3.032,20.934-2.171,9.401,9.319
				C-2.132,20.812-3.058,38.979,6.641,51.544z M54.597,54.681c11.533-11.494,12.459-29.662,2.76-42.227l-1.76,1.754
				c8.75,11.59,7.832,28.195-2.738,38.727C42.291,63.466,25.68,64.323,14.123,55.532l-1.76,1.756
				C24.893,67.032,43.066,66.171,54.597,54.681z"/>
		</g>
	</g>
	<linearGradient id="SVGID_8_" gradientUnits="userSpaceOnUse" x1="14.8442" y1="31.999" x2="49.1533" y2="31.999">
		<stop  offset="0" style="stop-color:#EB3349"/>
		<stop  offset="1" style="stop-color:#F45C43"/>
	</linearGradient>
	<linearGradient id="SVGID_9_" gradientUnits="userSpaceOnUse" x1="14.5942" y1="31.999" x2="49.4033" y2="31.999">
		<stop  offset="0" style="stop-color:#EB3349"/>
		<stop  offset="1" style="stop-color:#F45C43"/>
	</linearGradient>
	
		<path fill-rule="evenodd" clip-rule="evenodd" fill="url(#SVGID_8_)" stroke="url(#SVGID_9_)" stroke-width="0.5" stroke-miterlimit="10" d="
		M20.095,49.456c-0.636,0.051-1.301-0.176-1.975-0.346c-0.271-0.068-0.231-0.18-0.068-0.342c0.852-0.846,1.7-1.695,2.548-2.545
		c0.375-0.375,0.379-1.299,0.009-1.674c-0.169-0.17-0.36-0.324-0.503-0.514c-0.349-0.465-0.792-0.633-1.368-0.574
		c-0.276,0.029-0.492,0.084-0.694,0.291c-0.814,0.834-1.644,1.654-2.471,2.475c-0.109,0.109-0.24,0.326-0.353-0.012
		c-0.528-1.574-0.555-3.127,0.268-4.611c0.995-1.797,2.54-2.736,4.591-2.818c0.296-0.012,0.51-0.09,0.72-0.301
		c1.909-1.924,3.824-3.842,5.75-5.746c0.239-0.236,0.232-0.357,0-0.588c-3.354-3.34-6.699-6.689-10.047-10.033
		c-0.349-0.35-0.694-0.691-0.793-1.211c-0.107-0.559,0.008-1.063,0.395-1.463c1.073-1.107,2.152-2.213,3.261-3.285
		c0.752-0.729,1.734-0.686,2.51,0.078c1.482,1.459,2.947,2.938,4.419,4.408c1.876,1.875,3.754,3.748,5.625,5.629
		c0.173,0.172,0.273,0.201,0.463,0.01c1.957-1.973,3.923-3.936,5.891-5.896c0.139-0.139,0.19-0.275,0.192-0.479
		c0.021-2.746,1.923-4.936,4.634-5.324c0.969-0.139,1.916,0.027,2.836,0.334c0.316,0.107,0.078,0.244-0.014,0.336
		c-0.82,0.83-1.646,1.652-2.471,2.477c-0.46,0.459-0.459,1.34-0.002,1.795c0.139,0.137,0.302,0.256,0.406,0.416
		c0.407,0.623,1.011,0.656,1.658,0.598c0.184-0.016,0.286-0.129,0.398-0.24c0.841-0.84,1.682-1.682,2.521-2.521
		c0.131-0.131,0.249-0.271,0.352,0.037c0.508,1.539,0.55,3.057-0.236,4.52c-0.998,1.859-2.564,2.832-4.678,2.895
		c-0.26,0.008-0.448,0.08-0.633,0.266c-1.918,1.93-3.84,3.855-5.773,5.77c-0.231,0.229-0.209,0.355,0.008,0.572
		c2.781,2.781,5.551,5.57,8.332,8.35c0.256,0.256,0.398,0.518,0.447,0.883c0.252,1.902,0.525,3.799,0.807,5.697
		c0.045,0.295-0.053,0.33-0.305,0.293c-1.547-0.227-3.096-0.441-4.645-0.662c-0.361-0.051-0.721-0.131-1.085-0.152
		c-0.333-0.021-0.569-0.162-0.801-0.393c-2.694-2.705-5.399-5.4-8.091-8.109c-0.22-0.221-0.333-0.203-0.542,0.008
		c-1.941,1.955-3.892,3.9-5.842,5.848c-0.142,0.143-0.221,0.277-0.222,0.502C25.516,47.11,23.159,49.458,20.095,49.456z
		 M44.708,40.833c-0.034-0.117-0.133-0.182-0.213-0.262c-2.311-2.313-4.623-4.625-6.936-6.938
		c-3.873-3.871-7.747-7.742-11.615-11.617c-0.179-0.18-0.276-0.154-0.436,0.01c-0.5,0.52-1.015,1.021-1.524,1.531
		c-0.647,0.646-1.294,1.293-1.94,1.941c-0.111,0.111-0.252,0.205-0.067,0.391c1.126,1.119,2.243,2.246,3.367,3.369
		c1.22,1.219,2.446,2.432,3.666,3.65c1.284,1.285,2.561,2.578,3.846,3.861c1.228,1.229,2.462,2.449,3.69,3.676
		c1.383,1.379,2.764,2.76,4.139,4.146c0.131,0.133,0.211,0.127,0.334,0.004c1.187-1.191,2.377-2.377,3.565-3.566
		C44.639,40.976,44.706,40.925,44.708,40.833z M20.337,48.169c0.018,0.029,0.035,0.055,0.052,0.084
		c0.146-0.012,0.294-0.014,0.439-0.037c1.976-0.307,3.617-2.088,3.469-4.266c-0.029-0.432,0.11-0.719,0.41-1.016
		c2.024-2,4.028-4.021,6.048-6.025c0.206-0.205,0.238-0.32,0.013-0.539c-0.942-0.916-1.874-1.844-2.787-2.789
		c-0.25-0.26-0.386-0.229-0.623,0.01c-2.044,2.063-4.103,4.109-6.151,6.166c-0.18,0.18-0.348,0.268-0.625,0.246
		c-2.143-0.174-3.93,1.115-4.432,3.178c-0.063,0.258-0.126,0.523-0.09,0.861c0.531-0.531,1.028-1.014,1.507-1.516
		c0.182-0.191,0.376-0.266,0.635-0.258c0.491,0.014,0.983,0.014,1.474,0.002c0.234-0.006,0.411,0.061,0.577,0.23
		c0.518,0.533,1.045,1.057,1.577,1.576c0.159,0.154,0.231,0.324,0.227,0.547c-0.01,0.469-0.019,0.938,0.002,1.404
		c0.014,0.314-0.092,0.539-0.317,0.752C21.264,47.231,20.805,47.706,20.337,48.169z M47.958,20.034
		c-0.158,0.029-0.214,0.139-0.291,0.215c-0.424,0.418-0.848,0.834-1.26,1.262c-0.164,0.172-0.34,0.242-0.574,0.234
		c-0.514-0.012-1.029-0.012-1.543,0.002c-0.225,0.006-0.389-0.066-0.543-0.227c-0.373-0.387-0.729-0.797-1.145-1.133
		c-0.539-0.436-0.674-0.957-0.691-1.635c-0.021-0.838,0.139-1.504,0.839-2.021c0.339-0.25,0.609-0.596,0.933-0.92
		c-0.197-0.064-0.33-0.027-0.465-0.01c-2.103,0.301-3.719,2.145-3.522,4.416c0.027,0.314-0.077,0.531-0.298,0.75
		c-2.043,2.029-4.072,4.072-6.117,6.1c-0.238,0.236-0.23,0.379,0.002,0.607c0.93,0.91,1.854,1.828,2.76,2.762
		c0.24,0.25,0.369,0.213,0.593-0.014c2.044-2.061,4.102-4.107,6.149-6.164c0.182-0.182,0.353-0.26,0.625-0.242
		c1.798,0.111,3.177-0.594,4.066-2.18C47.784,21.284,47.928,20.681,47.958,20.034z M16.872,20.55
		c0.012,0.191,0.117,0.334,0.251,0.467c0.551,0.547,1.105,1.092,1.646,1.648c0.165,0.172,0.272,0.178,0.442,0.006
		c1.149-1.162,2.305-2.316,3.466-3.465c0.188-0.186,0.164-0.303-0.013-0.475c-0.55-0.531-1.083-1.082-1.626-1.619
		c-0.336-0.334-0.58-0.34-0.912-0.012c-1.013,1.008-2.019,2.021-3.029,3.031C16.98,20.247,16.895,20.378,16.872,20.55z
		 M20.988,24.821c0.036-0.027,0.095-0.061,0.143-0.105c0.108-0.1,0.211-0.207,0.316-0.313c1.059-1.057,2.111-2.119,3.18-3.166
		c0.217-0.211,0.227-0.35-0.005-0.547c-0.242-0.207-0.463-0.439-0.681-0.674c-0.133-0.143-0.226-0.176-0.385-0.016
		c-1.172,1.184-2.354,2.359-3.531,3.541c-0.054,0.053-0.11,0.123-0.127,0.193C19.876,23.825,20.864,24.815,20.988,24.821z
		 M45.191,42.12c-0.999,0.998-1.95,1.945-2.9,2.898c-0.12,0.119-0.045,0.182,0.085,0.199c1.028,0.146,2.057,0.285,3.086,0.432
		c0.185,0.025,0.252-0.023,0.212-0.221c-0.052-0.258-0.077-0.52-0.115-0.779C45.439,43.829,45.32,43.009,45.191,42.12z"/>
</g>
</svg>
