<?xml version="1.0" encoding="utf-8"?>
<!-- Generator: Adobe Illustrator 16.0.0, SVG Export Plug-In . SVG Version: 6.00 Build 0)  -->
<!DOCTYPE svg PUBLIC "-//W3C//DTD SVG 1.1//EN" "http://www.w3.org/Graphics/SVG/1.1/DTD/svg11.dtd">
<svg version="1.1" id="Layer_1" xmlns="http://www.w3.org/2000/svg" xmlns:xlink="http://www.w3.org/1999/xlink" x="0px" y="0px"
	 width="64px" height="64px" viewBox="0 0 64 64" enable-background="new 0 0 64 64" xml:space="preserve">
<g>
	<g>
		<g>
			<g>
				<g>
					<linearGradient id="SVGID_1_" gradientUnits="userSpaceOnUse" x1="9.3789" y1="53.3105" x2="11.8457" y2="53.3105">
						<stop  offset="0" style="stop-color:#EB3349"/>
						<stop  offset="1" style="stop-color:#F45C43"/>
					</linearGradient>
					<path fill="url(#SVGID_1_)" d="M11.488,52.446l-0.005-0.006c-0.479-0.48-1.26-0.482-1.741-0.004
						c-0.482,0.48-0.483,1.26-0.004,1.744c0.48,0.48,1.263,0.484,1.744,0.004C11.964,53.704,11.968,52.927,11.488,52.446z"/>
				</g>
			</g>
		</g>
		<g>
			<g>
				<g>
					<linearGradient id="SVGID_2_" gradientUnits="userSpaceOnUse" x1="11.8955" y1="56.3086" x2="14.3613" y2="56.3086">
						<stop  offset="0" style="stop-color:#EB3349"/>
						<stop  offset="1" style="stop-color:#F45C43"/>
					</linearGradient>
					<path fill="url(#SVGID_2_)" d="M14.003,55.444L14,55.438c-0.48-0.48-1.26-0.482-1.742-0.002
						c-0.481,0.479-0.482,1.26-0.003,1.74c0.479,0.482,1.263,0.486,1.743,0.006C14.48,56.702,14.484,55.925,14.003,55.444z"/>
				</g>
			</g>
		</g>
		<g>
			<g>
				<g>
					<linearGradient id="SVGID_3_" gradientUnits="userSpaceOnUse" x1="6.3179" y1="50.7109" x2="8.7847" y2="50.7109">
						<stop  offset="0" style="stop-color:#EB3349"/>
						<stop  offset="1" style="stop-color:#F45C43"/>
					</linearGradient>
					<path fill="url(#SVGID_3_)" d="M8.427,49.847l-0.006-0.006c-0.479-0.48-1.26-0.482-1.741-0.002s-0.483,1.26-0.003,1.74
						c0.48,0.482,1.262,0.486,1.744,0.008C8.903,51.104,8.907,50.329,8.427,49.847z"/>
				</g>
			</g>
		</g>
		<g>
			<g>
				<g>
					<linearGradient id="SVGID_4_" gradientUnits="userSpaceOnUse" x1="52.6768" y1="10.168" x2="55.1426" y2="10.168">
						<stop  offset="0" style="stop-color:#EB3349"/>
						<stop  offset="1" style="stop-color:#F45C43"/>
					</linearGradient>
					<path fill="url(#SVGID_4_)" d="M54.785,9.304l-0.006-0.006c-0.479-0.48-1.258-0.482-1.74-0.002
						c-0.481,0.48-0.483,1.26-0.002,1.74c0.479,0.482,1.262,0.486,1.742,0.006C55.261,10.562,55.265,9.786,54.785,9.304z"/>
				</g>
			</g>
		</g>
		<g>
			<g>
				<g>
					<linearGradient id="SVGID_5_" gradientUnits="userSpaceOnUse" x1="55.2163" y1="13.2871" x2="57.6831" y2="13.2871">
						<stop  offset="0" style="stop-color:#EB3349"/>
						<stop  offset="1" style="stop-color:#F45C43"/>
					</linearGradient>
					<path fill="url(#SVGID_5_)" d="M57.326,12.423l-0.006-0.006c-0.48-0.48-1.26-0.482-1.74-0.004
						c-0.482,0.48-0.484,1.26-0.004,1.742s1.262,0.486,1.743,0.006C57.801,13.681,57.805,12.905,57.326,12.423z"/>
				</g>
			</g>
		</g>
		<g>
			<g>
				<g>
					<linearGradient id="SVGID_6_" gradientUnits="userSpaceOnUse" x1="49.5664" y1="7.6172" x2="52.0332" y2="7.6172">
						<stop  offset="0" style="stop-color:#EB3349"/>
						<stop  offset="1" style="stop-color:#F45C43"/>
					</linearGradient>
					<path fill="url(#SVGID_6_)" d="M51.675,6.751L51.67,6.747c-0.479-0.48-1.259-0.482-1.741-0.002
						c-0.482,0.479-0.483,1.258-0.004,1.74c0.48,0.482,1.264,0.486,1.744,0.006C52.152,8.011,52.156,7.235,51.675,6.751z"/>
				</g>
			</g>
		</g>
		<g>
			<linearGradient id="SVGID_7_" gradientUnits="userSpaceOnUse" x1="-4.882813e-004" y1="32" x2="63.9995" y2="32">
				<stop  offset="0" style="stop-color:#EB3349"/>
				<stop  offset="1" style="stop-color:#F45C43"/>
			</linearGradient>
			<path fill="url(#SVGID_7_)" d="M6.642,51.544l1.762-1.754C-0.347,38.202,0.57,21.597,11.14,11.065
				c10.569-10.533,27.178-11.391,38.736-2.6l1.76-1.754C39.106-3.032,20.935-2.171,9.402,9.319
				C-2.131,20.812-3.057,38.979,6.642,51.544z M54.597,54.681c11.534-11.494,12.459-29.662,2.76-42.227l-1.76,1.754
				c8.75,11.59,7.832,28.195-2.737,38.727s-27.179,11.389-38.736,2.598l-1.76,1.756C24.894,67.032,43.066,66.171,54.597,54.681z"/>
		</g>
	</g>
	<path fill-rule="evenodd" clip-rule="evenodd" fill="none" d="M45.194,42.112c0.129,0.889,0.248,1.709,0.367,2.527
		c0.038,0.262,0.064,0.523,0.115,0.779c0.04,0.197-0.027,0.248-0.212,0.223c-1.028-0.146-2.057-0.287-3.086-0.432
		c-0.129-0.018-0.204-0.082-0.084-0.201C43.243,44.058,44.195,43.108,45.194,42.112z"/>
	<g>
		<linearGradient id="SVGID_8_" gradientUnits="userSpaceOnUse" x1="13.229" y1="31.999" x2="50.77" y2="31.999">
			<stop  offset="0" style="stop-color:#EB3349"/>
			<stop  offset="1" style="stop-color:#F45C43"/>
		</linearGradient>
		<linearGradient id="SVGID_9_" gradientUnits="userSpaceOnUse" x1="12.979" y1="31.999" x2="51.02" y2="31.999">
			<stop  offset="0" style="stop-color:#EB3349"/>
			<stop  offset="1" style="stop-color:#F45C43"/>
		</linearGradient>
		<path fill="url(#SVGID_8_)" stroke="url(#SVGID_9_)" stroke-width="0.5" stroke-miterlimit="10" d="M48.13,18.235H15.869
			c-1.457,0-2.64,1.184-2.64,2.639v22.252c0,1.455,1.183,2.637,2.64,2.637H48.13c1.458,0,2.64-1.182,2.64-2.637V20.874
			C50.77,19.419,49.588,18.235,48.13,18.235L48.13,18.235z M49.518,43.126c0,0.766-0.621,1.389-1.387,1.389H15.869
			c-0.767,0-1.387-0.623-1.387-1.389V20.874c0-0.768,0.62-1.387,1.387-1.387H48.13c0.767,0,1.387,0.619,1.387,1.387V43.126z
			 M49.518,43.126"/>
		<linearGradient id="SVGID_10_" gradientUnits="userSpaceOnUse" x1="33.8765" y1="31.9941" x2="46.3906" y2="31.9941">
			<stop  offset="0" style="stop-color:#EB3349"/>
			<stop  offset="1" style="stop-color:#F45C43"/>
		</linearGradient>
		<linearGradient id="SVGID_11_" gradientUnits="userSpaceOnUse" x1="33.6265" y1="31.9941" x2="46.6406" y2="31.9941">
			<stop  offset="0" style="stop-color:#EB3349"/>
			<stop  offset="1" style="stop-color:#F45C43"/>
		</linearGradient>
		<path fill="url(#SVGID_10_)" stroke="url(#SVGID_11_)" stroke-width="0.5" stroke-miterlimit="10" d="M35.355,35.907
			c-0.914,0.457-1.479,1.375-1.479,2.396v0.777c0,0.504,0,1.68,6.256,1.68c6.258,0,6.258-1.176,6.258-1.68v-0.828
			c0-0.98-0.535-1.885-1.397-2.35l-2.358-1.164v-0.236c1.021-0.555,1.736-1.473,2.136-2.73c0.605-0.322,0.993-0.947,0.993-1.65
			v-0.627c0-0.572-0.266-1.105-0.709-1.461c-0.085-0.592-0.232-1.148-0.44-1.654c-0.092-0.227-0.17-0.396-0.235-0.535
			c-0.169-0.361-0.169-0.361-0.049-0.975c0.061-0.299,0.101-0.572,0.125-0.803c0.04-0.34-0.143-0.652-0.458-0.783
			c-0.315-0.129-0.666-0.033-0.877,0.236c-0.122,0.156-0.317,0.322-0.57,0.496c-0.688,0.457-1.479,0.506-2.02,0.461
			c-0.128-0.01-0.263-0.014-0.398-0.014c-2.868,0-4.521,1.197-4.909,3.563c-0.453,0.355-0.721,0.893-0.721,1.469v0.627
			c0,0.703,0.388,1.328,0.993,1.65c0.4,1.258,1.115,2.176,2.136,2.73v0.24L35.355,35.907L35.355,35.907z M35.13,38.304
			c0-0.543,0.301-1.035,0.787-1.279l2.362-1.205c0.373-0.189,0.602-0.568,0.602-0.984v-1.137l-0.375-0.16
			c-0.951-0.408-1.567-1.189-1.888-2.385l-0.088-0.332l-0.331-0.105c-0.263-0.082-0.447-0.324-0.447-0.594v-0.627
			c0-0.225,0.132-0.436,0.343-0.551l0.291-0.152l0.04-0.326c0.223-1.906,1.366-2.754,3.708-2.754c0.101,0,0.202,0.006,0.297,0.014
			c0.959,0.074,1.845-0.104,2.582-0.525c-0.055,0.482,0.021,0.719,0.234,1.174c0.06,0.125,0.13,0.279,0.212,0.479
			c0.195,0.48,0.327,1.021,0.388,1.609l0.036,0.33l0.293,0.156c0.208,0.111,0.339,0.322,0.339,0.547v0.627
			c0,0.27-0.184,0.512-0.446,0.594l-0.331,0.105l-0.088,0.332c-0.321,1.195-0.938,1.977-1.885,2.385l-0.379,0.16v1.133
			c0,0.418,0.242,0.809,0.62,0.992l2.411,1.189c0.437,0.236,0.72,0.717,0.72,1.24v0.686c-0.388,0.24-1.976,0.568-5.004,0.568
			c-3.027,0-4.616-0.328-5.003-0.568V38.304z M35.13,38.938"/>
		<linearGradient id="SVGID_12_" gradientUnits="userSpaceOnUse" x1="23.8633" y1="29.9512" x2="31.3735" y2="29.9512">
			<stop  offset="0" style="stop-color:#EB3349"/>
			<stop  offset="1" style="stop-color:#F45C43"/>
		</linearGradient>
		<linearGradient id="SVGID_13_" gradientUnits="userSpaceOnUse" x1="23.6133" y1="29.9512" x2="31.6235" y2="29.9512">
			<stop  offset="0" style="stop-color:#EB3349"/>
			<stop  offset="1" style="stop-color:#F45C43"/>
		</linearGradient>
		<path fill="url(#SVGID_12_)" stroke="url(#SVGID_13_)" stroke-width="0.5" stroke-miterlimit="10" d="M30.747,30.577
			c0.345,0,0.627-0.279,0.627-0.625s-0.282-0.627-0.627-0.627H24.49c-0.345,0-0.626,0.281-0.626,0.627s0.282,0.625,0.626,0.625
			H30.747L30.747,30.577z M30.747,30.577"/>
		<linearGradient id="SVGID_14_" gradientUnits="userSpaceOnUse" x1="20.7354" y1="29.9512" x2="22.6147" y2="29.9512">
			<stop  offset="0" style="stop-color:#EB3349"/>
			<stop  offset="1" style="stop-color:#F45C43"/>
		</linearGradient>
		<linearGradient id="SVGID_15_" gradientUnits="userSpaceOnUse" x1="20.4854" y1="29.9512" x2="22.8647" y2="29.9512">
			<stop  offset="0" style="stop-color:#EB3349"/>
			<stop  offset="1" style="stop-color:#F45C43"/>
		</linearGradient>
		<path fill="url(#SVGID_14_)" stroke="url(#SVGID_15_)" stroke-width="0.5" stroke-miterlimit="10" d="M21.987,30.577
			c0.346,0,0.627-0.279,0.627-0.625s-0.282-0.627-0.627-0.627h-0.625c-0.346,0-0.626,0.281-0.626,0.627s0.281,0.625,0.626,0.625
			H21.987L21.987,30.577z M21.987,30.577"/>
		<linearGradient id="SVGID_16_" gradientUnits="userSpaceOnUse" x1="29.4941" y1="35.8711" x2="31.3735" y2="35.8711">
			<stop  offset="0" style="stop-color:#EB3349"/>
			<stop  offset="1" style="stop-color:#F45C43"/>
		</linearGradient>
		<linearGradient id="SVGID_17_" gradientUnits="userSpaceOnUse" x1="29.2441" y1="35.8711" x2="31.6235" y2="35.8711">
			<stop  offset="0" style="stop-color:#EB3349"/>
			<stop  offset="1" style="stop-color:#F45C43"/>
		</linearGradient>
		<path fill="url(#SVGID_16_)" stroke="url(#SVGID_17_)" stroke-width="0.5" stroke-miterlimit="10" d="M30.121,35.245
			c-0.346,0-0.626,0.279-0.626,0.625c0,0.344,0.281,0.627,0.626,0.627h0.626c0.345,0,0.627-0.283,0.627-0.627
			c0-0.346-0.282-0.625-0.627-0.625H30.121L30.121,35.245z M30.121,35.245"/>
		<linearGradient id="SVGID_18_" gradientUnits="userSpaceOnUse" x1="25.7422" y1="35.8711" x2="28.2446" y2="35.8711">
			<stop  offset="0" style="stop-color:#EB3349"/>
			<stop  offset="1" style="stop-color:#F45C43"/>
		</linearGradient>
		<linearGradient id="SVGID_19_" gradientUnits="userSpaceOnUse" x1="25.4922" y1="35.8711" x2="28.4946" y2="35.8711">
			<stop  offset="0" style="stop-color:#EB3349"/>
			<stop  offset="1" style="stop-color:#F45C43"/>
		</linearGradient>
		<path fill="url(#SVGID_18_)" stroke="url(#SVGID_19_)" stroke-width="0.5" stroke-miterlimit="10" d="M26.365,35.245
			c-0.345,0-0.623,0.279-0.623,0.625c0,0.344,0.278,0.627,0.623,0.627h1.253c0.345,0,0.626-0.283,0.626-0.627
			c0-0.346-0.282-0.625-0.626-0.625H26.365L26.365,35.245z M26.365,35.245"/>
		<linearGradient id="SVGID_20_" gradientUnits="userSpaceOnUse" x1="22.6147" y1="35.8711" x2="24.4897" y2="35.8711">
			<stop  offset="0" style="stop-color:#EB3349"/>
			<stop  offset="1" style="stop-color:#F45C43"/>
		</linearGradient>
		<linearGradient id="SVGID_21_" gradientUnits="userSpaceOnUse" x1="22.3647" y1="35.8711" x2="24.7397" y2="35.8711">
			<stop  offset="0" style="stop-color:#EB3349"/>
			<stop  offset="1" style="stop-color:#F45C43"/>
		</linearGradient>
		<path fill="url(#SVGID_20_)" stroke="url(#SVGID_21_)" stroke-width="0.5" stroke-miterlimit="10" d="M23.237,35.245
			c-0.345,0-0.622,0.279-0.622,0.625c0,0.344,0.277,0.627,0.622,0.627h0.626c0.346,0,0.626-0.283,0.626-0.627
			c0-0.346-0.28-0.625-0.626-0.625H23.237L23.237,35.245z M23.237,35.245"/>
		<linearGradient id="SVGID_22_" gradientUnits="userSpaceOnUse" x1="18.8589" y1="35.8711" x2="21.3618" y2="35.8711">
			<stop  offset="0" style="stop-color:#EB3349"/>
			<stop  offset="1" style="stop-color:#F45C43"/>
		</linearGradient>
		<linearGradient id="SVGID_23_" gradientUnits="userSpaceOnUse" x1="18.6089" y1="35.8711" x2="21.6118" y2="35.8711">
			<stop  offset="0" style="stop-color:#EB3349"/>
			<stop  offset="1" style="stop-color:#F45C43"/>
		</linearGradient>
		<path fill="url(#SVGID_22_)" stroke="url(#SVGID_23_)" stroke-width="0.5" stroke-miterlimit="10" d="M19.485,35.245
			c-0.348,0-0.626,0.279-0.626,0.625c0,0.344,0.278,0.627,0.626,0.627h1.25c0.345,0,0.626-0.283,0.626-0.627
			c0-0.346-0.282-0.625-0.626-0.625H19.485L19.485,35.245z M19.485,35.245"/>
		<linearGradient id="SVGID_24_" gradientUnits="userSpaceOnUse" x1="16.3574" y1="35.874" x2="17.606" y2="35.874">
			<stop  offset="0" style="stop-color:#EB3349"/>
			<stop  offset="1" style="stop-color:#F45C43"/>
		</linearGradient>
		<linearGradient id="SVGID_25_" gradientUnits="userSpaceOnUse" x1="16.1074" y1="35.874" x2="17.856" y2="35.874">
			<stop  offset="0" style="stop-color:#EB3349"/>
			<stop  offset="1" style="stop-color:#F45C43"/>
		</linearGradient>
		<path fill="url(#SVGID_24_)" stroke="url(#SVGID_25_)" stroke-width="0.5" stroke-miterlimit="10" d="M17.427,35.423
			c-0.232-0.229-0.651-0.229-0.889,0c-0.113,0.121-0.18,0.285-0.18,0.447s0.067,0.324,0.18,0.441
			c0.119,0.115,0.28,0.186,0.442,0.186c0.166,0,0.327-0.07,0.447-0.186c0.112-0.117,0.179-0.279,0.179-0.441
			S17.539,35.544,17.427,35.423L17.427,35.423z M17.427,35.423"/>
		<linearGradient id="SVGID_26_" gradientUnits="userSpaceOnUse" x1="16.3574" y1="32.7422" x2="31.3735" y2="32.7422">
			<stop  offset="0" style="stop-color:#EB3349"/>
			<stop  offset="1" style="stop-color:#F45C43"/>
		</linearGradient>
		<linearGradient id="SVGID_27_" gradientUnits="userSpaceOnUse" x1="16.1074" y1="32.7422" x2="31.6235" y2="32.7422">
			<stop  offset="0" style="stop-color:#EB3349"/>
			<stop  offset="1" style="stop-color:#F45C43"/>
		</linearGradient>
		<path fill="url(#SVGID_26_)" stroke="url(#SVGID_27_)" stroke-width="0.5" stroke-miterlimit="10" d="M16.98,32.116
			c-0.345,0-0.623,0.281-0.623,0.625s0.278,0.627,0.623,0.627h13.767c0.345,0,0.627-0.283,0.627-0.627s-0.282-0.625-0.627-0.625
			H16.98L16.98,32.116z M16.98,32.116"/>
	</g>
</g>
</svg>
