<?xml version="1.0" encoding="utf-8"?>
<!-- Generator: Adobe Illustrator 16.0.0, SVG Export Plug-In . SVG Version: 6.00 Build 0)  -->
<!DOCTYPE svg PUBLIC "-//W3C//DTD SVG 1.1//EN" "http://www.w3.org/Graphics/SVG/1.1/DTD/svg11.dtd">
<svg version="1.1" id="Layer_1" xmlns="http://www.w3.org/2000/svg" xmlns:xlink="http://www.w3.org/1999/xlink" x="0px" y="0px"
	 width="64px" height="64px" viewBox="0 0 64 64" enable-background="new 0 0 64 64" xml:space="preserve">
<g>
	<g>
		<g>
			<g>
				<g>
					<linearGradient id="SVGID_1_" gradientUnits="userSpaceOnUse" x1="9.3789" y1="53.3105" x2="11.8457" y2="53.3105">
						<stop  offset="0" style="stop-color:#EB3349"/>
						<stop  offset="1" style="stop-color:#F45C43"/>
					</linearGradient>
					<path fill="url(#SVGID_1_)" d="M11.488,52.446l-0.005-0.006c-0.479-0.48-1.26-0.482-1.741-0.004
						c-0.482,0.48-0.483,1.26-0.004,1.744c0.48,0.48,1.263,0.484,1.744,0.004C11.964,53.704,11.968,52.927,11.488,52.446z"/>
				</g>
			</g>
		</g>
		<g>
			<g>
				<g>
					<linearGradient id="SVGID_2_" gradientUnits="userSpaceOnUse" x1="11.8955" y1="56.3086" x2="14.3613" y2="56.3086">
						<stop  offset="0" style="stop-color:#EB3349"/>
						<stop  offset="1" style="stop-color:#F45C43"/>
					</linearGradient>
					<path fill="url(#SVGID_2_)" d="M14.003,55.444L14,55.438c-0.48-0.48-1.26-0.482-1.742-0.002
						c-0.481,0.479-0.482,1.26-0.003,1.74c0.479,0.482,1.263,0.486,1.743,0.006C14.48,56.702,14.484,55.925,14.003,55.444z"/>
				</g>
			</g>
		</g>
		<g>
			<g>
				<g>
					<linearGradient id="SVGID_3_" gradientUnits="userSpaceOnUse" x1="6.3179" y1="50.7109" x2="8.7847" y2="50.7109">
						<stop  offset="0" style="stop-color:#EB3349"/>
						<stop  offset="1" style="stop-color:#F45C43"/>
					</linearGradient>
					<path fill="url(#SVGID_3_)" d="M8.427,49.847l-0.006-0.006c-0.479-0.48-1.26-0.482-1.741-0.002s-0.483,1.26-0.003,1.74
						c0.48,0.482,1.262,0.486,1.744,0.008C8.903,51.104,8.907,50.329,8.427,49.847z"/>
				</g>
			</g>
		</g>
		<g>
			<g>
				<g>
					<linearGradient id="SVGID_4_" gradientUnits="userSpaceOnUse" x1="52.6768" y1="10.168" x2="55.1426" y2="10.168">
						<stop  offset="0" style="stop-color:#EB3349"/>
						<stop  offset="1" style="stop-color:#F45C43"/>
					</linearGradient>
					<path fill="url(#SVGID_4_)" d="M54.785,9.304l-0.006-0.006c-0.479-0.48-1.258-0.482-1.74-0.002
						c-0.481,0.48-0.483,1.26-0.002,1.74c0.479,0.482,1.262,0.486,1.742,0.006C55.261,10.562,55.265,9.786,54.785,9.304z"/>
				</g>
			</g>
		</g>
		<g>
			<g>
				<g>
					<linearGradient id="SVGID_5_" gradientUnits="userSpaceOnUse" x1="55.2163" y1="13.2871" x2="57.6831" y2="13.2871">
						<stop  offset="0" style="stop-color:#EB3349"/>
						<stop  offset="1" style="stop-color:#F45C43"/>
					</linearGradient>
					<path fill="url(#SVGID_5_)" d="M57.326,12.423l-0.006-0.006c-0.48-0.48-1.26-0.482-1.74-0.004
						c-0.482,0.48-0.484,1.26-0.004,1.742s1.262,0.486,1.743,0.006C57.801,13.681,57.805,12.905,57.326,12.423z"/>
				</g>
			</g>
		</g>
		<g>
			<g>
				<g>
					<linearGradient id="SVGID_6_" gradientUnits="userSpaceOnUse" x1="49.5664" y1="7.6172" x2="52.0332" y2="7.6172">
						<stop  offset="0" style="stop-color:#EB3349"/>
						<stop  offset="1" style="stop-color:#F45C43"/>
					</linearGradient>
					<path fill="url(#SVGID_6_)" d="M51.675,6.751L51.67,6.747c-0.479-0.48-1.259-0.482-1.741-0.002
						c-0.482,0.479-0.483,1.258-0.004,1.74c0.48,0.482,1.264,0.486,1.744,0.006C52.152,8.011,52.156,7.235,51.675,6.751z"/>
				</g>
			</g>
		</g>
		<g>
			<linearGradient id="SVGID_7_" gradientUnits="userSpaceOnUse" x1="-4.882813e-004" y1="32" x2="63.9995" y2="32">
				<stop  offset="0" style="stop-color:#EB3349"/>
				<stop  offset="1" style="stop-color:#F45C43"/>
			</linearGradient>
			<path fill="url(#SVGID_7_)" d="M6.642,51.544l1.762-1.754C-0.347,38.202,0.57,21.597,11.14,11.065
				c10.569-10.533,27.178-11.391,38.736-2.6l1.76-1.754C39.106-3.032,20.935-2.171,9.402,9.319
				C-2.131,20.812-3.057,38.979,6.642,51.544z M54.597,54.681c11.534-11.494,12.459-29.662,2.76-42.227l-1.76,1.754
				c8.75,11.59,7.832,28.195-2.737,38.727s-27.179,11.389-38.736,2.598l-1.76,1.756C24.894,67.032,43.066,66.171,54.597,54.681z"/>
		</g>
	</g>
	<linearGradient id="SVGID_8_" gradientUnits="userSpaceOnUse" x1="15.7666" y1="31.999" x2="48.2324" y2="31.999">
		<stop  offset="0" style="stop-color:#EB3349"/>
		<stop  offset="1" style="stop-color:#F45C43"/>
	</linearGradient>
	<linearGradient id="SVGID_9_" gradientUnits="userSpaceOnUse" x1="15.5166" y1="31.999" x2="48.4824" y2="31.999">
		<stop  offset="0" style="stop-color:#EB3349"/>
		<stop  offset="1" style="stop-color:#F45C43"/>
	</linearGradient>
	
		<path fill-rule="evenodd" clip-rule="evenodd" fill="url(#SVGID_8_)" stroke="url(#SVGID_9_)" stroke-width="0.5" stroke-miterlimit="10" d="
		M35.844,34.532c-0.001-4.494-0.001-8.988-0.001-13.484c0.001-0.871-0.009-1.74,0.007-2.609c0.026-1.422-0.709-2.357-1.844-2.686
		c-0.029-0.01-0.056-0.031-0.083-0.045H17.694c-0.459,0.17-0.908,0.355-1.251,0.729c-0.445,0.48-0.67,1.055-0.671,1.703
		c-0.004,5.535-0.011,11.07,0.002,16.605c0.003,1.473,1.112,2.475,2.692,2.477c3.16,0.008,6.321,0.002,9.479,0.002
		c1.728,0,3.457,0.004,5.185-0.002c0.613-0.002,1.198-0.115,1.708-0.494C35.574,36.177,35.844,35.421,35.844,34.532z M34.792,34.659
		c0,0.139-0.004,0.277-0.036,0.41c-0.172,0.721-0.711,1.109-1.535,1.109c-4.964,0.002-9.926,0-14.891-0.002
		c-0.932,0-1.514-0.578-1.514-1.506c-0.001-2.734-0.001-5.469-0.001-8.207c0,0-0.002,0-0.002,0v-2.77
		c0-1.844-0.004-3.689,0.003-5.535c0.002-0.785,0.478-1.32,1.25-1.428c0.177-0.027,0.358-0.043,0.538-0.043
		c2.078,0,4.156-0.004,6.233,0c1.304,0.006,2.609,0.045,3.913,0.027c1.58-0.027,3.159-0.053,4.738,0.016
		c0.374,0.016,0.677,0.166,0.926,0.43c0.311,0.33,0.384,0.736,0.384,1.176C34.794,23.78,34.795,29.22,34.792,34.659z M48.218,40.462
		c-0.181-1.662-0.356-3.328-0.537-4.99c-0.073-0.674-0.15-1.346-0.232-2.02c-0.022-0.186-0.011-0.355,0.083-0.521
		c0.083-0.146,0.136-0.314,0.231-0.451c0.481-0.688,0.473-1.438,0.361-2.227c-0.306-2.139-1.2-3.99-2.729-5.514
		c-1.512-1.504-3.334-2.408-5.458-2.695c-0.965-0.129-1.919-0.115-2.876,0.055c-0.215,0.035-0.254,0.125-0.227,0.318
		c0.104,0.717,0.099,0.717,0.8,0.633c4.042-0.477,7.812,1.904,9.101,5.766c0.248,0.746,0.396,1.516,0.413,2.307
		c0.003,0.186-0.013,0.363-0.117,0.518c-0.57,0.85-0.696,1.754-0.538,2.771c0.25,1.609,0.383,3.24,0.564,4.859
		c0.007,0.072,0.009,0.146,0.021,0.221c0.034,0.23-0.056,0.322-0.297,0.32c-0.731-0.012-1.462-0.006-2.195-0.006
		c-0.497,0-0.497,0-0.498,0.514c-0.001,1.178-0.001,2.354-0.003,3.531c-0.001,0.412-0.002,0.418-0.428,0.418
		c-2.811,0.002-5.619,0-8.43,0.004c-0.16,0-0.395-0.08-0.458,0.109c-0.089,0.27-0.08,0.57,0.002,0.846
		c0.039,0.125,0.203,0.086,0.315,0.086c0.998,0.004,1.994,0.004,2.991,0.004c0.731,0,0.73,0,0.731,0.746
		c0.003,0.744,0.009,1.484,0.014,2.227h1.019c0.005-0.848,0.011-1.693,0.016-2.543c0.003-0.426,0.002-0.43,0.418-0.43
		c1.473,0,2.947,0,4.422,0.002c0.43,0,0.44-0.01,0.44-0.449c0-1.209,0.005-2.418-0.009-3.627c-0.004-0.303,0.089-0.41,0.397-0.402
		c0.784,0.018,1.569,0.01,2.354,0.006C48.242,40.843,48.257,40.815,48.218,40.462z M29.74,38.169
		c-0.628,0.002-0.604-0.047-0.604,0.363c0,1.797,0,3.598,0.001,5.398c0,0.09,0.007,0.176,0.011,0.266h1.019
		c0.005-0.357,0.014-0.715,0.015-1.07c0.001-1.564,0.001-3.127,0-4.691C30.182,38.169,30.18,38.169,29.74,38.169z M23.453,26.374
		c-0.626,0.014-1.252-0.008-1.877,0.01c-0.274,0.01-0.369-0.07-0.365-0.357c0.013-1.273,0.006-2.545,0.006-3.818
		c0-1.25-0.009-2.502,0.005-3.754c0.004-0.311-0.104-0.402-0.403-0.398c-0.641,0.008-0.641-0.006-0.642,0.645
		c-0.001,2.416-0.002,4.834-0.005,7.254c0,0.424-0.001,0.424-0.425,0.424c-0.571,0.002-1.145,0.01-1.717-0.004
		c-0.237-0.002-0.351,0.066-0.348,0.324c0.006,0.879,0.006,1.76-0.003,2.639c-0.003,0.258,0.114,0.33,0.35,0.326
		c0.562-0.008,1.124-0.006,1.686-0.006c0.463,0,0.464,0,0.464,0.449c0.001,1.436,0,2.865,0.001,4.297
		c0,0.473,0.001,0.473,0.479,0.475h0.128c0.428-0.004,0.432-0.004,0.432-0.422c0-1.432,0-2.863,0-4.295c0-0.504,0-0.506,0.499-0.506
		c0.573,0.002,1.146-0.006,1.718,0.01c0.27,0.008,0.384-0.08,0.379-0.363c-0.012-0.857-0.013-1.717-0.006-2.576
		C23.808,26.468,23.717,26.368,23.453,26.374z M22.766,28.319c-0.004,0.225-0.087,0.295-0.302,0.291
		c-0.57-0.008-1.142-0.002-1.712-0.002c0,0,0,0,0,0.002h-1.206c-0.828,0-0.814,0-0.824-0.816c-0.003-0.299,0.099-0.383,0.385-0.379
		c0.931,0.014,1.862,0.01,2.792,0.01C22.795,27.425,22.788,27.425,22.766,28.319z M28.854,24.175
		c-0.013-0.871-0.011-1.736-0.001-2.607c0.004-0.25-0.094-0.336-0.338-0.334c-0.592,0.008-1.187-0.014-1.78,0.004
		c-0.3,0.01-0.38-0.102-0.375-0.387c0.014-0.795-0.008-1.592,0.007-2.385c0.006-0.301-0.085-0.418-0.397-0.41
		c-0.76,0.014-0.649-0.01-0.654,0.652c-0.005,0.711-0.013,1.42,0.005,2.129c0.007,0.299-0.077,0.416-0.39,0.404
		c-0.604-0.021-1.208,0-1.813-0.01c-0.252-0.004-0.36,0.074-0.357,0.346c0.013,0.869,0.011,1.738,0.001,2.609
		c-0.005,0.25,0.085,0.334,0.333,0.33c0.613-0.012,1.229,0.012,1.844-0.01c0.291-0.008,0.382,0.076,0.381,0.373
		c-0.015,1.602-0.008,3.201-0.008,4.803h0.004c0,1.59-0.001,3.18,0,4.77c0,0.416,0.008,0.422,0.43,0.426
		c0.616,0.004,0.616,0.004,0.616-0.625v-9.316c0.001-0.424,0.001-0.424,0.418-0.424c0.571,0,1.145-0.01,1.716,0.004
		C28.75,24.522,28.857,24.444,28.854,24.175z M27.463,23.478c-0.542-0.01-1.082-0.002-1.624-0.002c-0.403,0-0.806,0.004-1.209,0
		c-0.933-0.014-0.81,0.123-0.832-0.836c-0.006-0.275,0.087-0.369,0.367-0.365c0.933,0.016,1.866-0.004,2.799,0.01
		c0.975,0.014,0.816-0.186,0.843,0.867C27.814,23.409,27.699,23.481,27.463,23.478z M33.562,28.284
		c-0.625,0.016-1.25-0.008-1.876,0.014c-0.288,0.008-0.357-0.098-0.357-0.371c0.012-1.578,0.007-3.158,0.007-4.738
		c0-1.568-0.009-3.139,0.006-4.709c0.001-0.314-0.083-0.434-0.41-0.426c-0.637,0.014-0.641-0.002-0.637,0.621
		c0.011,1.496,0.062,2.99,0.026,4.486c-0.039,1.578,0.035,3.156,0.017,4.736c-0.004,0.301-0.077,0.414-0.391,0.4
		c-0.593-0.021-1.187,0-1.781-0.012c-0.25-0.006-0.37,0.066-0.366,0.34c0.011,0.869,0.011,1.74,0.001,2.607
		c-0.004,0.273,0.113,0.346,0.365,0.34c0.604-0.012,1.209,0.012,1.813-0.008c0.286-0.008,0.362,0.094,0.357,0.369
		c-0.015,0.859,0.003,1.719-0.01,2.576c-0.005,0.275,0.084,0.377,0.363,0.371c0.747-0.014,0.639,0.031,0.645-0.623
		c0.005-0.785,0.009-1.57-0.002-2.355c-0.004-0.246,0.073-0.34,0.327-0.334c0.625,0.014,1.251-0.008,1.876,0.008
		c0.285,0.006,0.4-0.08,0.395-0.377c-0.012-0.85-0.008-1.697,0.003-2.547C33.938,28.38,33.84,28.276,33.562,28.284z M32.886,30.233
		c0.014,0.223-0.083,0.295-0.299,0.295c-1.145-0.004-2.291-0.004-3.436,0c-0.211,0-0.318-0.064-0.303-0.291
		c0.012-0.199,0.011-0.402,0-0.604c-0.013-0.225,0.087-0.299,0.301-0.295c0.574,0.01,1.145,0.004,1.719,0.004
		c0-0.002,0-0.002,0-0.004c0.572,0,1.144,0.004,1.717-0.004c0.214-0.004,0.314,0.068,0.3,0.293
		C32.873,29.829,32.873,30.032,32.886,30.233z"/>
</g>
</svg>
