<?xml version="1.0" encoding="utf-8"?>
<!-- Generator: Adobe Illustrator 16.0.0, SVG Export Plug-In . SVG Version: 6.00 Build 0)  -->
<!DOCTYPE svg PUBLIC "-//W3C//DTD SVG 1.1//EN" "http://www.w3.org/Graphics/SVG/1.1/DTD/svg11.dtd">
<svg version="1.1" id="Layer_1" xmlns="http://www.w3.org/2000/svg" xmlns:xlink="http://www.w3.org/1999/xlink" x="0px" y="0px"
	 width="64px" height="64px" viewBox="0 0 64 64" enable-background="new 0 0 64 64" xml:space="preserve">
<g>
	<g>
		<g>
			<g>
				<g>
					<linearGradient id="SVGID_1_" gradientUnits="userSpaceOnUse" x1="9.3789" y1="53.3105" x2="11.8457" y2="53.3105">
						<stop  offset="0" style="stop-color:#EB3349"/>
						<stop  offset="1" style="stop-color:#F45C43"/>
					</linearGradient>
					<path fill="url(#SVGID_1_)" d="M11.487,52.446l-0.004-0.006c-0.48-0.48-1.26-0.482-1.742-0.004
						c-0.482,0.48-0.482,1.26-0.004,1.744c0.48,0.48,1.264,0.484,1.744,0.004C11.964,53.704,11.968,52.927,11.487,52.446z"/>
				</g>
			</g>
		</g>
		<g>
			<g>
				<g>
					<linearGradient id="SVGID_2_" gradientUnits="userSpaceOnUse" x1="11.8955" y1="56.3086" x2="14.3613" y2="56.3086">
						<stop  offset="0" style="stop-color:#EB3349"/>
						<stop  offset="1" style="stop-color:#F45C43"/>
					</linearGradient>
					<path fill="url(#SVGID_2_)" d="M14.003,55.444l-0.004-0.006c-0.48-0.48-1.26-0.482-1.742-0.002
						c-0.48,0.479-0.482,1.26-0.002,1.74c0.479,0.482,1.262,0.486,1.742,0.006C14.479,56.702,14.483,55.925,14.003,55.444z"/>
				</g>
			</g>
		</g>
		<g>
			<g>
				<g>
					<linearGradient id="SVGID_3_" gradientUnits="userSpaceOnUse" x1="6.3174" y1="50.7109" x2="8.7852" y2="50.7109">
						<stop  offset="0" style="stop-color:#EB3349"/>
						<stop  offset="1" style="stop-color:#F45C43"/>
					</linearGradient>
					<path fill="url(#SVGID_3_)" d="M8.427,49.847l-0.006-0.006c-0.479-0.48-1.26-0.482-1.74-0.002
						c-0.482,0.48-0.484,1.26-0.004,1.74c0.48,0.482,1.262,0.486,1.744,0.008C8.903,51.104,8.907,50.329,8.427,49.847z"/>
				</g>
			</g>
		</g>
		<g>
			<g>
				<g>
					<linearGradient id="SVGID_4_" gradientUnits="userSpaceOnUse" x1="52.6768" y1="10.168" x2="55.1445" y2="10.168">
						<stop  offset="0" style="stop-color:#EB3349"/>
						<stop  offset="1" style="stop-color:#F45C43"/>
					</linearGradient>
					<path fill="url(#SVGID_4_)" d="M54.786,9.304L54.78,9.298c-0.479-0.48-1.258-0.482-1.74-0.002s-0.484,1.26-0.002,1.74
						c0.479,0.482,1.262,0.486,1.742,0.006C55.263,10.562,55.267,9.786,54.786,9.304z"/>
				</g>
			</g>
		</g>
		<g>
			<g>
				<g>
					<linearGradient id="SVGID_5_" gradientUnits="userSpaceOnUse" x1="55.2178" y1="13.2871" x2="57.6836" y2="13.2871">
						<stop  offset="0" style="stop-color:#EB3349"/>
						<stop  offset="1" style="stop-color:#F45C43"/>
					</linearGradient>
					<path fill="url(#SVGID_5_)" d="M57.327,12.423l-0.006-0.006c-0.48-0.48-1.26-0.482-1.74-0.004
						c-0.482,0.48-0.484,1.26-0.004,1.742s1.262,0.486,1.742,0.006C57.802,13.681,57.806,12.905,57.327,12.423z"/>
				</g>
			</g>
		</g>
		<g>
			<g>
				<g>
					<linearGradient id="SVGID_6_" gradientUnits="userSpaceOnUse" x1="49.5674" y1="7.6172" x2="52.0352" y2="7.6172">
						<stop  offset="0" style="stop-color:#EB3349"/>
						<stop  offset="1" style="stop-color:#F45C43"/>
					</linearGradient>
					<path fill="url(#SVGID_6_)" d="M51.677,6.751l-0.006-0.004c-0.479-0.48-1.258-0.482-1.74-0.002
						c-0.482,0.479-0.484,1.258-0.004,1.74s1.264,0.486,1.744,0.006C52.153,8.011,52.157,7.235,51.677,6.751z"/>
				</g>
			</g>
		</g>
		<g>
			<linearGradient id="SVGID_7_" gradientUnits="userSpaceOnUse" x1="0" y1="32" x2="64" y2="32">
				<stop  offset="0" style="stop-color:#EB3349"/>
				<stop  offset="1" style="stop-color:#F45C43"/>
			</linearGradient>
			<path fill="url(#SVGID_7_)" d="M6.642,51.544l1.762-1.754c-8.75-11.588-7.834-28.193,2.736-38.725
				c10.57-10.533,27.18-11.391,38.738-2.6l1.76-1.754C39.106-3.032,20.935-2.171,9.401,9.319
				C-2.132,20.812-3.058,38.979,6.642,51.544z M54.599,54.681c11.533-11.494,12.459-29.662,2.76-42.227l-1.76,1.754
				c8.75,11.59,7.832,28.195-2.738,38.727c-10.568,10.531-27.18,11.389-38.736,2.598l-1.76,1.756
				C24.894,67.032,43.067,66.171,54.599,54.681z"/>
		</g>
	</g>
	<g>
		<linearGradient id="SVGID_8_" gradientUnits="userSpaceOnUse" x1="17.0498" y1="31.999" x2="46.9521" y2="31.999">
			<stop  offset="0" style="stop-color:#EB3349"/>
			<stop  offset="1" style="stop-color:#F45C43"/>
		</linearGradient>
		<linearGradient id="SVGID_9_" gradientUnits="userSpaceOnUse" x1="16.7998" y1="31.999" x2="47.2021" y2="31.999">
			<stop  offset="0" style="stop-color:#EB3349"/>
			<stop  offset="1" style="stop-color:#F45C43"/>
		</linearGradient>
		<path fill="url(#SVGID_8_)" stroke="url(#SVGID_9_)" stroke-width="0.5" stroke-miterlimit="10" d="M29.97,47.726
			c0-0.35,0.283-0.633,0.633-0.633h2.797c0.348,0,0.633,0.283,0.633,0.633s-0.285,0.635-0.633,0.635h-2.797
			C30.253,48.36,29.97,48.075,29.97,47.726L29.97,47.726z M22.878,25.694c0-2.691,2.188-4.881,4.879-4.881
			c1.975,0,3.678,1.182,4.445,2.873c4.938,0.107,8.922,4.156,8.922,9.121c0,5.029-4.094,9.121-9.123,9.121
			c-5.031,0-9.123-4.092-9.123-9.121c0-1.496,0.361-2.91,1.002-4.156C23.253,27.831,22.878,26.804,22.878,25.694L22.878,25.694z
			 M31.368,25.694c0-0.244-0.025-0.482-0.07-0.713c-2.439,0.217-4.561,1.555-5.846,3.49c0.625,0.52,1.428,0.832,2.305,0.832
			C29.749,29.304,31.368,27.685,31.368,25.694L31.368,25.694z M24.146,32.808c0,4.33,3.523,7.855,7.855,7.855
			s7.857-3.525,7.857-7.855c0-4.137-3.217-7.539-7.277-7.836c0.035,0.236,0.053,0.477,0.053,0.723c0,2.688-2.188,4.877-4.877,4.877
			c-1.098,0-2.111-0.363-2.926-0.977C24.392,30.577,24.146,31.663,24.146,32.808L24.146,32.808z M24.146,25.694
			c0,0.641,0.168,1.246,0.463,1.77c1.439-1.984,3.654-3.367,6.197-3.701c-0.641-1.01-1.768-1.68-3.049-1.68
			C25.765,22.083,24.146,23.7,24.146,25.694L24.146,25.694z M28.552,44.757c-0.35,0-0.635,0.283-0.635,0.633
			c0,0.352,0.285,0.637,0.635,0.637h6.898c0.35,0,0.633-0.285,0.633-0.637c0-0.35-0.283-0.633-0.633-0.633H28.552L28.552,44.757z
			 M17.05,17.151c0-0.35,0.283-0.633,0.633-0.633h6.238l7.801-3.822c0.178-0.086,0.383-0.086,0.557,0l7.803,3.822h6.236
			c0.352,0,0.635,0.283,0.635,0.633v33.582c0,0.352-0.283,0.633-0.635,0.633H17.683c-0.35,0-0.633-0.281-0.633-0.633V17.151
			L17.05,17.151z M32.001,13.97l-5.203,2.549h10.406L32.001,13.97z M18.315,50.101h27.369V17.784h-5.738c-0.008,0-0.016,0-0.025,0
			H24.079c-0.008,0-0.018,0-0.025,0h-5.738V50.101z M18.315,17.784"/>
	</g>
</g>
</svg>
