<?xml version="1.0" encoding="utf-8"?>
<!-- Generator: Adobe Illustrator 16.0.0, SVG Export Plug-In . SVG Version: 6.00 Build 0)  -->
<!DOCTYPE svg PUBLIC "-//W3C//DTD SVG 1.1//EN" "http://www.w3.org/Graphics/SVG/1.1/DTD/svg11.dtd">
<svg version="1.1" id="Layer_1" xmlns="http://www.w3.org/2000/svg" xmlns:xlink="http://www.w3.org/1999/xlink" x="0px" y="0px"
	 width="64px" height="64px" viewBox="0 0 64 64" enable-background="new 0 0 64 64" xml:space="preserve">
<path fill-rule="evenodd" clip-rule="evenodd" fill="none" d="M46.466,24.789c1.76-0.457,2.573,0.511,3.242,1.912
	c0.705,1.478,1.606,2.859,2.356,4.316c0.614,1.193,1.408,2.159,2.69,2.651c0.917,0.353,1.165,0.963,0.829,1.893
	c-0.219,0.604-0.307,1.253-0.473,1.878c-0.174,0.655-0.446,1.208-1.261,1.25c-0.737,0.038-1.291-0.084-1.745-0.809
	c-1.62-2.583-4.43-2.627-6.18-0.156c-0.683,0.965-3.517,1.622-4.513,1.053c-0.504-0.288-0.437-0.762-0.341-1.187
	c0.887-3.924,1.779-7.846,2.702-11.76C44.156,24.208,45.54,24.992,46.466,24.789z"/>
<path fill-rule="evenodd" clip-rule="evenodd" fill="#ED1B28" d="M11.974,22.257c-3.293,0-6.585,0.006-9.879-0.005
	c-0.911-0.002-2.052,0.017-2.094-1.174c-0.049-1.366,1.171-1.315,2.138-1.316c6.521-0.013,13.041-0.012,19.563,0.001
	c0.9,0.001,2.05-0.043,2.093,1.168c0.048,1.377-1.181,1.309-2.138,1.316C18.431,22.271,15.201,22.256,11.974,22.257z"/>
<path fill-rule="evenodd" clip-rule="evenodd" fill="#ED1B28" d="M15.74,26.967c-3.302-0.001-6.603,0.005-9.904-0.005
	c-0.843-0.002-1.901,0.057-1.947-1.079c-0.05-1.233,1.059-1.342,1.968-1.346c6.603-0.023,13.205-0.024,19.807,0.01
	c0.881,0.004,2.05,0.034,2.042,1.269c-0.006,1.296-1.18,1.14-2.062,1.144C22.343,26.979,19.041,26.967,15.74,26.967z"/>
<path fill-rule="evenodd" clip-rule="evenodd" fill="#ED1B28" d="M13.323,29.453c1.808,0.003,3.615-0.014,5.423,0.009
	c0.764,0.01,1.463,0.241,1.48,1.167c0.019,0.916-0.683,1.242-1.428,1.248c-3.743,0.029-7.486,0.024-11.229-0.023
	c-0.744-0.009-1.459-0.375-1.404-1.275c0.055-0.888,0.778-1.114,1.543-1.121C9.579,29.44,11.451,29.452,13.323,29.453z"/>
<path fill-rule="evenodd" clip-rule="evenodd" fill="#ED1B28" d="M61.866,30.949c-1.484-0.674-2.479-1.764-3.221-3.208
	c-0.679-1.319-1.73-2.464-2.295-3.82c-1.615-3.882-4.224-5.867-8.56-5.011c-0.186,0.036-0.388-0.002-0.581-0.017
	c-0.434-0.033-0.66-0.226-0.762-0.696c-0.641-2.961-0.748-3.051-3.703-3.057c-5.435-0.011-10.872-0.003-16.307-0.003
	c-5.5,0-11.001-0.022-16.501,0.018c-1.144,0.009-2.924-0.382-2.864,1.364c0.056,1.623,1.795,1.088,2.857,1.091
	c10.677,0.037,21.354,0.044,32.03,0.005c1.592-0.006,2.233,0.311,1.792,2.104c-1.484,6.025-2.859,12.078-4.206,18.136
	c-0.278,1.253-0.871,1.695-2.125,1.684c-5.111-0.046-10.224-0.037-15.336-0.005c-1.022,0.006-1.588-0.315-2.088-1.285
	c-1.702-3.295-5.771-3.481-7.928-0.44c-0.224,0.315-0.412,0.658-0.589,1.003c-0.321,0.623-0.857,0.785-1.471,0.631
	c-0.791-0.199-0.682-0.857-0.569-1.424c0.149-0.76,0.433-1.496,0.559-2.258c0.116-0.698,0.654-1.624-0.488-1.952
	c-1.178-0.339-1.608,0.488-1.857,1.445c-0.277,1.064-0.551,2.129-0.814,3.195c-0.669,2.692-0.182,3.394,2.595,3.54
	c1.02,0.053,1.764,0.225,2.431,1.181c1.914,2.741,5.287,2.853,7.403,0.264c0.761-0.932,1.489-1.441,2.734-1.434
	c7.959,0.044,15.918,0.031,23.878,0.013c1.04-0.001,1.768,0.261,2.418,1.208c1.738,2.534,5.207,2.808,7.144,0.438
	c1.094-1.338,2.237-1.758,3.82-1.655c1.916,0.126,3.021-0.78,3.357-2.713c0.254-1.462,0.634-2.906,1.015-4.342
	C64.121,33.119,63.62,31.746,61.866,30.949z M15.732,42.803c-1.261,0.092-2.047-0.609-2.115-1.949
	c-0.08-1.53,0.942-2.703,2.359-2.677c1.32,0.024,1.975,0.75,2.084,2.079C17.938,41.669,17.235,42.693,15.732,42.803z M54.46,40.375
	c-0.119,1.425-1.017,2.469-2.521,2.46c-1.311-0.009-1.885-0.965-1.878-2.244c0.035-1.465,1.085-2.517,2.457-2.412
	C53.857,38.281,54.562,39.143,54.46,40.375z M60.91,35.188c-0.284,0.786-0.398,1.63-0.614,2.444
	c-0.227,0.853-0.581,1.572-1.642,1.626c-0.959,0.05-1.68-0.109-2.271-1.052c-2.108-3.361-5.765-3.418-8.042-0.203
	c-0.888,1.255-4.576,2.111-5.872,1.37c-0.656-0.375-0.568-0.991-0.443-1.544c1.153-5.106,2.315-10.209,3.516-15.303
	c0.497-2.112,2.298-1.091,3.503-1.356c2.29-0.595,3.349,0.665,4.219,2.488c0.918,1.923,2.091,3.721,3.066,5.617
	c0.8,1.553,1.833,2.81,3.502,3.45C61.024,33.184,61.348,33.978,60.91,35.188z"/>
<path fill-rule="evenodd" clip-rule="evenodd" fill="none" d="M47.247,39.712c0.026-1.125,0.833-1.933,1.888-1.853
	c1.029,0.078,1.57,0.74,1.492,1.688c-0.092,1.095-0.781,1.897-1.938,1.891C47.683,41.431,47.241,40.697,47.247,39.712z"/>
</svg>
