<?xml version="1.0" encoding="utf-8"?>
<!-- Generator: Adobe Illustrator 16.0.0, SVG Export Plug-In . SVG Version: 6.00 Build 0)  -->
<!DOCTYPE svg PUBLIC "-//W3C//DTD SVG 1.1//EN" "http://www.w3.org/Graphics/SVG/1.1/DTD/svg11.dtd">
<svg version="1.1" id="Layer_1" xmlns="http://www.w3.org/2000/svg" xmlns:xlink="http://www.w3.org/1999/xlink" x="0px" y="0px"
	 width="64px" height="64px" viewBox="0 0 64 64" enable-background="new 0 0 64 64" xml:space="preserve">
<g>
	
		<path fill-rule="evenodd" clip-rule="evenodd" fill="none" stroke="#ED1B28" stroke-width="2" stroke-linecap="round" stroke-linejoin="round" stroke-miterlimit="10" d="
		M2.024,22.077c0.962-0.344,1.935-0.666,2.888-1.037c2.567-1.001,3.55-3.446,2.418-5.967c-1.289-2.869-1.308-2.889,0.901-5.049
		c2.309-2.256,1.346-2.079,4.184-0.751c3.173,1.483,5.506,0.521,6.695-2.786c1.016-2.826,0.389-2.401,3.41-2.424
		c3.135-0.023,3.137-0.005,4.267,2.883c1.09,2.788,3.467,3.708,6.219,2.458c3.253-1.479,2.188-1.621,4.677,0.865
		c2.406,2.404,2.309,1.396,0.824,4.574c-1.307,2.804-0.292,5.259,2.618,6.329c3.265,1.196,2.722,0.442,2.727,3.918
		c0.003,3.302,0.502,2.635-2.612,3.757c-3.053,1.1-4.064,3.551-2.682,6.477c1.437,3.042,1.459,2.083-0.782,4.391
		c-2.114,2.177-2.14,2.153-4.877,0.898c-2.652-1.215-5.037-0.24-6.111,2.502c-1.135,2.889-1.135,2.907-4.267,2.883
		c-3.02-0.022-2.395,0.398-3.409-2.425c-1.188-3.31-3.521-4.268-6.696-2.785c-2.835,1.324-1.87,1.509-4.184-0.751
		c-2.209-2.16-2.19-2.18-0.901-5.048c1.129-2.516,0.144-4.97-2.418-5.968c-0.953-0.371-1.926-0.692-2.888-1.037
		C2.024,26.015,2.024,24.046,2.024,22.077z M22.923,32.463c4.214-0.019,7.425-3.284,7.402-7.526
		c-0.023-4.126-3.299-7.345-7.471-7.339c-4.197,0.007-7.539,3.329-7.516,7.467C15.362,29.215,18.713,32.482,22.923,32.463z"/>
	
		<path fill-rule="evenodd" clip-rule="evenodd" fill="none" stroke="#ED1B28" stroke-width="2" stroke-linecap="round" stroke-linejoin="round" stroke-miterlimit="10" d="
		M44.86,51.705c-1.068-0.01-2.444-2.119-2.045-3.02c0.952-2.146,0.606-3.104-1.589-3.88c-0.933-0.331-1.059-0.921-0.998-1.726
		c0.063-0.853-0.268-1.768,0.985-2.213c2.205-0.783,2.617-1.789,1.59-3.885c-0.633-1.295,0.454-1.641,0.979-2.32
		c0.483-0.625,0.999-0.831,1.821-0.432c2.09,1.018,3.026,0.63,3.848-1.616c0.349-0.956,0.999-0.987,1.766-0.934
		c0.807,0.056,1.702-0.298,2.153,0.889c0.893,2.347,1.726,2.667,3.936,1.635c0.678-0.317,1.127-0.256,1.663,0.271
		c1.41,1.389,1.431,1.366,0.726,3.245c-0.484,1.289,0,2.349,1.353,2.953c1.454,0.651,1.944,1.757,1.521,3.336
		c-0.156,0.576-0.646,0.641-1.066,0.812c-2.024,0.831-2.49,1.831-1.495,3.752c0.527,1.015,0.051,1.511-0.581,2.103
		c-0.65,0.608-1.113,1.347-2.277,0.726c-1.853-0.988-3.024-0.467-3.723,1.542c-0.306,0.872-0.791,1.204-1.658,1.098
		c-0.83-0.102-1.791,0.348-2.274-0.894c-0.924-2.377-1.696-2.649-4.042-1.676C45.234,51.562,45.016,51.644,44.86,51.705z
		 M55.347,42.768c-0.018-2.102-1.823-3.856-3.957-3.844c-2.104,0.012-3.936,1.847-3.908,3.916c0.028,2.103,1.838,3.927,3.916,3.944
		C53.526,46.8,55.364,44.931,55.347,42.768z"/>
	
		<path fill-rule="evenodd" clip-rule="evenodd" fill="none" stroke="#ED1B28" stroke-width="2" stroke-linecap="round" stroke-linejoin="round" stroke-miterlimit="10" d="
		M38.982,56.726c-1.031-0.238-1.387,0.125-1.105,1.039c0.206,0.664-0.225,0.915-0.673,1.193c-0.47,0.291-0.867,0.271-1.256-0.15
		c-0.678-0.736-1.146-0.543-1.38,0.369c-0.158,0.615-0.562,0.766-1.141,0.771c-0.606,0.005-0.941-0.238-1.102-0.824
		c-0.228-0.834-0.681-1.045-1.318-0.355c-0.426,0.461-0.837,0.478-1.349,0.15c-0.463-0.295-0.812-0.569-0.614-1.219
		c0.256-0.852-0.128-1.229-0.974-0.994c-0.632,0.176-0.948-0.098-1.238-0.586c-0.297-0.5-0.351-0.922,0.124-1.361
		c0.773-0.715,0.423-1.151-0.421-1.371c-0.574-0.15-0.707-0.523-0.717-1.05c-0.012-0.571,0.118-1.011,0.739-1.161
		c1.079-0.261,1.044-0.778,0.327-1.443c-0.447-0.413-0.299-0.832-0.045-1.271c0.25-0.436,0.531-0.795,1.115-0.616
		c1.039,0.317,1.33-0.128,1.057-1.076c-0.197-0.685,0.294-0.884,0.722-1.166c0.463-0.307,0.862-0.31,1.25,0.125
		c0.668,0.752,1.139,0.56,1.376-0.347c0.151-0.578,0.523-0.702,1.051-0.708c0.56-0.005,1.005,0.084,1.169,0.719
		c0.235,0.924,0.708,1.109,1.368,0.352c0.393-0.452,0.773-0.437,1.236-0.136c0.433,0.282,0.907,0.495,0.708,1.174
		c-0.291,0.977,0.054,1.366,1.067,1.061c0.657-0.199,0.891,0.278,1.177,0.715c0.315,0.48,0.261,0.858-0.161,1.241
		c-0.621,0.564-0.693,1.068,0.261,1.325c0.633,0.172,0.868,0.548,0.856,1.202c-0.012,0.605-0.229,0.941-0.822,1.097
		c-0.903,0.238-0.948,0.717-0.282,1.31c0.42,0.376,0.474,0.77,0.167,1.247C39.853,56.454,39.616,57.002,38.982,56.726z
		 M36.225,52.246c-0.021-1.585-1.182-2.718-2.778-2.713c-1.581,0.004-2.769,1.179-2.766,2.738c0.003,1.587,1.284,2.849,2.849,2.81
		C35.046,55.042,36.245,53.781,36.225,52.246z"/>
</g>
</svg>
