<?xml version="1.0" encoding="utf-8"?>
<!-- Generator: Adobe Illustrator 16.0.0, SVG Export Plug-In . SVG Version: 6.00 Build 0)  -->
<!DOCTYPE svg PUBLIC "-//W3C//DTD SVG 1.1//EN" "http://www.w3.org/Graphics/SVG/1.1/DTD/svg11.dtd">
<svg version="1.1" id="Layer_1" xmlns="http://www.w3.org/2000/svg" xmlns:xlink="http://www.w3.org/1999/xlink" x="0px" y="0px"
	 width="64px" height="64px" viewBox="0 0 64 64" enable-background="new 0 0 64 64" xml:space="preserve">
<g>
	<g>
		<path fill="none" stroke="#ED1B28" stroke-width="2" stroke-linecap="round" stroke-linejoin="round" stroke-miterlimit="10" d="
			M46.854,56.918c-0.864,0-1.664-0.178-2.258-0.443c-2.112-1.095-3.597-2.61-5.085-7.064c-1.512-4.638-4.359-6.807-7.096-8.915
			c-2.349-1.815-4.785-3.683-6.893-7.521c-1.575-2.848-2.436-5.969-2.436-8.735c0-8.317,6.538-14.851,14.853-14.851
			c8.315,0,14.854,6.534,14.854,14.851h5.941c0-11.669-9.123-20.797-20.795-20.797c-11.673,0-20.794,9.127-20.794,20.797
			c0,3.74,1.132,7.875,3.182,11.592c2.701,4.897,5.882,7.364,8.467,9.355c2.402,1.838,4.128,3.181,5.078,6.09
			c1.782,5.401,4.071,8.434,8.107,10.547c1.517,0.682,3.184,1.04,4.875,1.04c6.567,0,11.883-5.314,11.883-11.883h-5.941
			C52.795,54.246,50.12,56.918,46.854,56.918L46.854,56.918z M19.047,5.354L14.83,1.136C8.916,7.047,5.264,15.221,5.264,24.243
			c0,9.033,3.652,17.205,9.565,23.112l4.187-4.19c-4.809-4.84-7.812-11.522-7.812-18.922C11.205,16.851,14.209,10.167,19.047,5.354
			L19.047,5.354z M30.516,24.243c0,4.1,3.326,7.434,7.425,7.434c4.1,0,7.429-3.333,7.429-7.434c0-4.099-3.329-7.427-7.429-7.427
			C33.842,16.818,30.516,20.146,30.516,24.243L30.516,24.243z M30.516,24.243"/>
	</g>
</g>
</svg>
