<?xml version="1.0" encoding="utf-8"?>
<!-- Generator: Adobe Illustrator 16.0.0, SVG Export Plug-In . SVG Version: 6.00 Build 0)  -->
<!DOCTYPE svg PUBLIC "-//W3C//DTD SVG 1.1//EN" "http://www.w3.org/Graphics/SVG/1.1/DTD/svg11.dtd">
<svg version="1.1" id="Layer_1" xmlns="http://www.w3.org/2000/svg" xmlns:xlink="http://www.w3.org/1999/xlink" x="0px" y="0px"
	 width="64px" height="64px" viewBox="0 0 64 64" enable-background="new 0 0 64 64" xml:space="preserve">
<g>
	<path fill="#ED1B28" d="M41.337,43.668H22.663c-0.571,0-1.038-0.466-1.038-1.037c0-0.572,0.467-1.037,1.038-1.037h18.674
		c0.571,0,1.038,0.465,1.038,1.037C42.375,43.203,41.908,43.668,41.337,43.668L41.337,43.668z M32,60.875l-1.646-1.646h3.291
		L32,60.875L32,60.875z M38.8,50.068c-0.349-0.233-0.802-0.233-1.149,0l-2.538,1.691l-2.536-1.691c-0.349-0.233-0.802-0.233-1.15,0
		l-2.538,1.691l-2.537-1.691c-0.348-0.233-0.802-0.233-1.15,0l-1.499,0.998v-5.323h16.598v5.323L38.8,50.068L38.8,50.068z
		 M24.292,53.166l1.484-0.988l2.536,1.691c0.349,0.232,0.802,0.232,1.15,0L32,52.178l2.537,1.691c0.348,0.232,0.801,0.232,1.149,0
		l2.537-1.691l1.484,0.989l-3.987,3.987h-7.441L24.292,53.166L24.292,53.166z M16.439,18.771C16.439,10.191,23.42,3.21,32,3.21
		s15.561,6.98,15.561,15.561c0,4.886-2.329,9.511-6.246,12.449h-5.165v-6.776l3.633-3.028c1.647-1.372,2.593-3.388,2.593-5.531
		c0-2.934-2.377-5.413-5.188-5.413c-0.923,0-1.805,0.253-2.598,0.723c-1.596-0.925-3.581-0.925-5.179,0
		c-0.794-0.47-1.676-0.723-2.599-0.723c-2.811,0-5.188,2.479-5.188,5.413c0,2.143,0.945,4.159,2.593,5.532l3.633,3.027v6.776h-5.165
		C18.769,28.282,16.439,23.658,16.439,18.771L16.439,18.771z M34.81,14.341c0.087,0.181,0.15,0.371,0.199,0.566
		c0.013,0.048,0.022,0.095,0.034,0.143c0.04,0.2,0.069,0.403,0.069,0.608c0,0.207-0.029,0.409-0.069,0.608
		c-0.012,0.048-0.021,0.097-0.034,0.144c-0.049,0.194-0.112,0.384-0.199,0.566c-0.007,0.013-0.017,0.026-0.022,0.04
		c-0.054,0.106-0.127,0.205-0.193,0.305c-0.066-0.1-0.14-0.198-0.193-0.305c-0.008-0.014-0.017-0.027-0.022-0.04
		c-0.088-0.182-0.15-0.373-0.201-0.566c-0.013-0.048-0.022-0.096-0.032-0.144c-0.04-0.199-0.07-0.401-0.07-0.608
		c0-0.206,0.03-0.408,0.07-0.607c0.01-0.047,0.02-0.096,0.032-0.144c0.051-0.194,0.113-0.385,0.201-0.566
		c0.008-0.014,0.015-0.027,0.022-0.041c0.054-0.107,0.127-0.204,0.193-0.305c0.066,0.101,0.14,0.198,0.193,0.305
		C34.792,14.315,34.802,14.328,34.81,14.341L34.81,14.341z M29.622,14.341c0.088,0.181,0.15,0.371,0.201,0.566
		c0.013,0.048,0.022,0.095,0.032,0.143c0.04,0.2,0.07,0.403,0.07,0.608c0,0.207-0.03,0.409-0.07,0.608
		c-0.01,0.048-0.02,0.097-0.032,0.144c-0.051,0.194-0.113,0.384-0.201,0.566c-0.006,0.013-0.015,0.026-0.022,0.04
		c-0.054,0.106-0.127,0.205-0.193,0.305c-0.066-0.1-0.14-0.198-0.193-0.305c-0.006-0.014-0.016-0.027-0.022-0.04
		c-0.087-0.182-0.15-0.373-0.199-0.566c-0.013-0.048-0.022-0.096-0.034-0.144c-0.04-0.199-0.069-0.401-0.069-0.608
		c0-0.206,0.029-0.408,0.069-0.607c0.012-0.047,0.021-0.096,0.034-0.144c0.049-0.194,0.112-0.385,0.199-0.566
		c0.008-0.014,0.017-0.027,0.022-0.041c0.054-0.107,0.127-0.204,0.193-0.305c0.066,0.101,0.14,0.198,0.193,0.305
		C29.605,14.315,29.614,14.328,29.622,14.341L29.622,14.341z M29.552,23.162l-4.007-3.339c-1.172-0.978-1.844-2.412-1.844-3.937
		c0-1.779,1.454-3.338,3.111-3.338c0.322,0,0.64,0.052,0.942,0.152c-0.02,0.029-0.035,0.062-0.055,0.092
		c-0.109,0.161-0.207,0.326-0.297,0.497c-0.02,0.039-0.044,0.075-0.063,0.114c-0.104,0.209-0.188,0.425-0.263,0.646
		c-0.019,0.057-0.032,0.116-0.05,0.173c-0.052,0.173-0.093,0.35-0.126,0.528c-0.012,0.066-0.024,0.133-0.035,0.2
		c-0.031,0.234-0.054,0.471-0.054,0.71c0,1.56,0.708,3.027,1.942,4.022c0.189,0.154,0.422,0.23,0.651,0.23
		c0.23,0,0.462-0.076,0.651-0.23C31.292,18.686,32,17.218,32,15.659c0-0.239-0.022-0.476-0.056-0.71
		c-0.009-0.067-0.021-0.133-0.033-0.2c-0.033-0.178-0.074-0.355-0.126-0.528c-0.018-0.058-0.031-0.116-0.05-0.173
		c-0.074-0.221-0.159-0.437-0.263-0.646c-0.019-0.037-0.041-0.072-0.062-0.11c-0.09-0.173-0.191-0.341-0.301-0.503
		c-0.019-0.028-0.032-0.06-0.052-0.087c0.606-0.202,1.279-0.202,1.887,0c-0.021,0.027-0.034,0.059-0.053,0.087
		c-0.111,0.163-0.211,0.33-0.303,0.503c-0.019,0.037-0.041,0.073-0.061,0.11c-0.103,0.209-0.189,0.425-0.262,0.646
		c-0.02,0.057-0.034,0.116-0.051,0.173c-0.051,0.173-0.093,0.35-0.125,0.528c-0.013,0.066-0.025,0.133-0.035,0.2
		C32.022,15.183,32,15.42,32,15.659c0,1.56,0.708,3.027,1.942,4.022c0.189,0.154,0.42,0.23,0.651,0.23
		c0.229,0,0.462-0.076,0.651-0.23c1.234-0.996,1.942-2.463,1.942-4.022c0-0.239-0.022-0.476-0.056-0.71
		c-0.01-0.067-0.022-0.133-0.033-0.2c-0.033-0.178-0.074-0.355-0.126-0.528c-0.018-0.058-0.031-0.116-0.052-0.173
		c-0.073-0.221-0.159-0.437-0.262-0.646c-0.019-0.039-0.043-0.075-0.064-0.114c-0.088-0.171-0.188-0.336-0.296-0.497
		c-0.02-0.03-0.034-0.063-0.055-0.092c0.304-0.1,0.619-0.152,0.943-0.152c1.657,0,3.111,1.559,3.111,3.338
		c0,1.525-0.672,2.961-1.844,3.937l-4.007,3.339c-0.236,0.197-0.374,0.488-0.374,0.796v7.262h-4.148v-7.262
		C29.926,23.65,29.788,23.359,29.552,23.162L29.552,23.162z M21.625,34.332c0-0.571,0.467-1.037,1.038-1.037h18.669l0.013,0.002
		c0.567,0.004,1.03,0.465,1.03,1.035c0,0.572-0.467,1.038-1.038,1.038H22.663C22.092,35.37,21.625,34.904,21.625,34.332
		L21.625,34.332z M21.625,38.481c0-0.571,0.467-1.037,1.038-1.037h18.674c0.571,0,1.038,0.465,1.038,1.037
		c0,0.572-0.467,1.038-1.038,1.038H22.663C22.092,39.52,21.625,39.053,21.625,38.481L21.625,38.481z M44.449,42.631
		c0-0.8-0.313-1.523-0.81-2.075c0.498-0.552,0.81-1.275,0.81-2.075c0-0.8-0.313-1.522-0.81-2.075c0.498-0.551,0.81-1.275,0.81-2.075
		c0-0.872-0.363-1.659-0.942-2.226c3.859-3.335,6.128-8.206,6.128-13.335c0-9.725-7.91-17.636-17.635-17.636
		S14.365,9.046,14.365,18.771c0,5.129,2.269,10,6.128,13.335c-0.578,0.567-0.942,1.354-0.942,2.226c0,0.8,0.313,1.523,0.81,2.075
		c-0.498,0.552-0.81,1.275-0.81,2.075c0,0.8,0.313,1.523,0.81,2.075c-0.498,0.552-0.81,1.275-0.81,2.075
		c0,1.35,0.871,2.491,2.074,2.921v7.453c0,0.278,0.114,0.54,0.307,0.731l-0.001,0.002l9.337,9.336
		c0.201,0.203,0.467,0.304,0.732,0.304s0.531-0.102,0.732-0.304l9.337-9.336l-0.001-0.002c0.192-0.192,0.307-0.453,0.307-0.731
		v-7.453C43.578,45.123,44.449,43.981,44.449,42.631L44.449,42.631z"/>
	<polygon fill="#ED1B28" points="47.864,5.591 52.014,1.44 53.48,2.908 49.331,7.058 47.864,5.591 	"/>
	<polygon fill="#ED1B28" points="47.863,31.952 49.33,30.485 53.479,34.634 52.013,36.102 47.863,31.952 	"/>
	<polygon fill="#ED1B28" points="52.748,17.733 58.972,17.733 58.972,19.809 52.748,19.809 52.748,17.733 	"/>
	<polygon fill="#ED1B28" points="10.52,2.907 11.986,1.44 16.136,5.59 14.669,7.057 10.52,2.907 	"/>
	<polygon fill="#ED1B28" points="10.52,34.636 14.669,30.486 16.136,31.953 11.986,36.103 10.52,34.636 	"/>
	<polygon fill="#ED1B28" points="5.028,17.733 11.252,17.733 11.252,19.809 5.028,19.809 5.028,17.733 	"/>
</g>
</svg>
