<?xml version="1.0" encoding="utf-8"?>
<!-- Generator: Adobe Illustrator 16.0.3, SVG Export Plug-In . SVG Version: 6.00 Build 0)  -->
<!DOCTYPE svg PUBLIC "-//W3C//DTD SVG 1.1//EN" "http://www.w3.org/Graphics/SVG/1.1/DTD/svg11.dtd">
<svg version="1.1" xmlns="http://www.w3.org/2000/svg" xmlns:xlink="http://www.w3.org/1999/xlink" x="0px" y="0px" width="64px"
	 height="64px" viewBox="0 0 64 64" enable-background="new 0 0 64 64" xml:space="preserve">
<g id="Layer_1">
	<g>
		<linearGradient id="SVGID_1_" gradientUnits="userSpaceOnUse" x1="0.667" y1="32" x2="63.333" y2="32">
			<stop  offset="0" style="stop-color:#EB3349"/>
			<stop  offset="1" style="stop-color:#F45C43"/>
		</linearGradient>
		<path fill="url(#SVGID_1_)" d="M57.066,15.55h-9.4v-4.7c0-3.46-2.806-6.267-6.266-6.267H22.6c-3.46,0-6.266,2.806-6.266,6.267v4.7
			h-9.4c-3.461,0-6.267,2.806-6.267,6.267v7.833v23.5c0,3.46,2.806,6.267,6.267,6.267h50.133c3.461,0,6.267-2.806,6.267-6.267v-23.5
			v-7.833C63.333,18.356,60.527,15.55,57.066,15.55z M22.6,10.85H41.4v4.7H22.6V10.85z M44.533,32.783
			c0,3.461-2.806,6.267-6.267,6.267H25.733c-3.461,0-6.267-2.806-6.267-6.267V29.65h6.267v3.133h12.533V29.65h6.267V32.783z"/>
	</g>
</g>
<g id="Layer_2">
</g>
</svg>
