<?xml version="1.0" encoding="utf-8"?>
<!-- Generator: Adobe Illustrator 16.0.3, SVG Export Plug-In . SVG Version: 6.00 Build 0)  -->
<!DOCTYPE svg PUBLIC "-//W3C//DTD SVG 1.1//EN" "http://www.w3.org/Graphics/SVG/1.1/DTD/svg11.dtd">
<svg version="1.1" xmlns="http://www.w3.org/2000/svg" xmlns:xlink="http://www.w3.org/1999/xlink" x="0px" y="0px" width="64px"
	 height="64px" viewBox="0 0 64 64" enable-background="new 0 0 64 64" xml:space="preserve">
<g id="Layer_1">
	<linearGradient id="SVGID_1_" gradientUnits="userSpaceOnUse" x1="14" y1="32" x2="50" y2="32">
		<stop  offset="0" style="stop-color:#EB3349"/>
		<stop  offset="1" style="stop-color:#F45C43"/>
	</linearGradient>
	<path fill="url(#SVGID_1_)" d="M44,1H20c-3.313,0-6,2.776-6,6.2v49.6c0,3.424,2.687,6.2,6,6.2h24c3.313,0,6-2.776,6-6.2V7.2
		C50,3.776,47.313,1,44,1z M32,59.9c-1.657,0-3-1.388-3-3.1c0-1.712,1.343-3.1,3-3.1s3,1.388,3,3.1C35,58.512,33.657,59.9,32,59.9z
		 M45.5,50.6h-27V7.2c0-0.854,0.674-1.55,1.5-1.55h24c0.827,0,1.5,0.695,1.5,1.55V50.6z"/>
	<linearGradient id="SVGID_2_" gradientUnits="userSpaceOnUse" x1="18.6943" y1="30.6953" x2="45.4229" y2="30.6953">
		<stop  offset="0" style="stop-color:#EB3349"/>
		<stop  offset="1" style="stop-color:#F45C43"/>
	</linearGradient>
	<path fill="url(#SVGID_2_)" d="M30.465,31.33c0.512,0.126,1.044,0.201,1.594,0.201s1.082-0.074,1.594-0.201l2.396,4.452
		c-1.26,0.446-2.604,0.688-3.99,0.688s-2.73-0.243-3.99-0.688L30.465,31.33L30.465,31.33z M32.059,21.507
		c1.843,0,3.341,1.499,3.341,3.341c0,1.842-1.498,3.341-3.341,3.341s-3.341-1.499-3.341-3.341
		C28.718,23.006,30.216,21.507,32.059,21.507L32.059,21.507z M19.573,48.036c0.252,0.136,0.522,0.2,0.79,0.2
		c0.595,0,1.17-0.318,1.473-0.878l4.639-8.616c1.751,0.687,3.636,1.07,5.584,1.07s3.833-0.383,5.584-1.07l4.639,8.616
		c0.303,0.561,0.878,0.878,1.473,0.878c0.268,0,0.538-0.063,0.79-0.2c0.813-0.438,1.116-1.451,0.679-2.262l-4.627-8.593
		c1.09-0.745,2.096-1.619,2.961-2.645c0.596-0.705,0.506-1.759-0.201-2.354c-0.703-0.595-1.758-0.505-2.352,0.2
		c-0.592,0.701-1.267,1.314-1.997,1.847l-2.415-4.485c1.317-1.221,2.148-2.96,2.148-4.895c0-3.106-2.134-5.717-5.011-6.462v-3.561
		c0-0.922-0.749-1.67-1.671-1.67c-0.924,0-1.671,0.749-1.671,1.67v3.561c-2.877,0.745-5.011,3.356-5.011,6.462
		c0,1.934,0.831,3.673,2.148,4.895l-2.415,4.485c-0.73-0.532-1.405-1.146-1.997-1.847c-0.595-0.706-1.648-0.795-2.352-0.2
		c-0.707,0.595-0.797,1.649-0.201,2.354c0.865,1.025,1.871,1.9,2.961,2.645l-4.627,8.593C18.457,46.585,18.761,47.599,19.573,48.036
		L19.573,48.036z"/>
</g>
<g id="Layer_2">
</g>
</svg>
