<?xml version="1.0" encoding="utf-8"?>
<!-- Generator: Adobe Illustrator 16.0.3, SVG Export Plug-In . SVG Version: 6.00 Build 0)  -->
<!DOCTYPE svg PUBLIC "-//W3C//DTD SVG 1.1//EN" "http://www.w3.org/Graphics/SVG/1.1/DTD/svg11.dtd">
<svg version="1.1" xmlns="http://www.w3.org/2000/svg" xmlns:xlink="http://www.w3.org/1999/xlink" x="0px" y="0px" width="64px"
	 height="64px" viewBox="0 0 64 64" enable-background="new 0 0 64 64" xml:space="preserve">
<g id="Layer_1">
	<g>
		<linearGradient id="SVGID_1_" gradientUnits="userSpaceOnUse" x1="34.9756" y1="47.3496" x2="64" y2="47.3496">
			<stop  offset="0" style="stop-color:#EB3349"/>
			<stop  offset="1" style="stop-color:#F45C43"/>
		</linearGradient>
		<path fill="url(#SVGID_1_)" d="M43.653,38.665c-1.713,1.714-3.322,3.192-4.85,4.479l0,0c-1.344,1.131-2.612,2.074-3.828,2.885
			l8.147,8.149l0,0l5.711,5.71c1.893,1.893,4.556,2.3,5.945,0.909l8.395-8.393c1.391-1.391,0.984-4.053-0.91-5.945l-5.71-5.712
			l-1.142-1.142l-6.531-6.531C47.134,35.053,45.368,36.951,43.653,38.665L43.653,38.665z"/>
		<linearGradient id="SVGID_2_" gradientUnits="userSpaceOnUse" x1="4.5244" y1="16.8018" x2="33.376" y2="16.8018">
			<stop  offset="0" style="stop-color:#EB3349"/>
			<stop  offset="1" style="stop-color:#F45C43"/>
		</linearGradient>
		<path fill="url(#SVGID_2_)" d="M23.3,27.642c1.288-1.53,2.761-3.139,4.478-4.853c1.53-1.53,3.453-3.326,5.599-5.215l-8.431-8.433
			L11.33,4.48L4.524,2.149l2.33,6.808l4.66,13.614l8.885,8.884C21.208,30.249,22.174,28.978,23.3,27.642L23.3,27.642L23.3,27.642z"
			/>
		<linearGradient id="SVGID_3_" gradientUnits="userSpaceOnUse" x1="0.999" y1="31.9878" x2="62.6396" y2="31.9878">
			<stop  offset="0" style="stop-color:#EB3349"/>
			<stop  offset="1" style="stop-color:#F45C43"/>
		</linearGradient>
		<path fill="url(#SVGID_3_)" d="M28.938,45.583c3.012-1.014,6.988-3.761,12.431-9.203C52.408,25.341,65.287,7.399,62.165,4.277
			c-0.323-0.323-0.804-0.476-1.421-0.476c-5.343,0-20.785,11.374-30.683,21.271c-5.432,5.431-8.172,9.4-9.19,12.409
			c-1.12-0.109-2.271-0.04-3.401,0.181c-2.303,0.45-4.515,1.544-6.152,3.183C9.754,42.41,8.9,44.143,8.261,46.018
			c-1.23,3.604-2.416,8.117-7.262,11.332c3.611,3.612,17.742,4.626,24.598-2.227c0.725-0.725,1.342-1.563,1.848-2.47
			c0.639-1.147,1.071-2.41,1.323-3.701C28.984,47.831,29.046,46.695,28.938,45.583L28.938,45.583z"/>
	</g>
</g>
<g id="Layer_2">
</g>
</svg>
