<?xml version="1.0" encoding="utf-8"?>
<!-- Generator: Adobe Illustrator 16.0.3, SVG Export Plug-In . SVG Version: 6.00 Build 0)  -->
<!DOCTYPE svg PUBLIC "-//W3C//DTD SVG 1.1//EN" "http://www.w3.org/Graphics/SVG/1.1/DTD/svg11.dtd">
<svg version="1.1" xmlns="http://www.w3.org/2000/svg" xmlns:xlink="http://www.w3.org/1999/xlink" x="0px" y="0px" width="64px"
	 height="64px" viewBox="0 0 64 64" enable-background="new 0 0 64 64" xml:space="preserve">
<g id="Layer_1">
	<g>
		<linearGradient id="SVGID_1_" gradientUnits="userSpaceOnUse" x1="8.3145" y1="24.1064" x2="34.6387" y2="24.1064">
			<stop  offset="0" style="stop-color:#EB3349"/>
			<stop  offset="1" style="stop-color:#F45C43"/>
		</linearGradient>
		<path fill="url(#SVGID_1_)" d="M32,13.575c-0.975,0-1.793,0.558-2.252,1.348C15.58,15.239,10.105,22.552,9.674,29.74
			C8.877,30.196,8.314,31.019,8.314,32c0,1.455,1.186,2.639,2.637,2.639c1.455,0,2.641-1.184,2.641-2.639
			c0-0.944-0.527-1.736-1.275-2.203c0.277-3.693,2.607-11.897,17.477-12.227c0.465,0.752,1.262,1.282,2.207,1.282
			c1.455,0,2.639-1.184,2.639-2.639S33.455,13.575,32,13.575L32,13.575z"/>
		<linearGradient id="SVGID_2_" gradientUnits="userSpaceOnUse" x1="39.8926" y1="26.0796" x2="55.6797" y2="26.0796">
			<stop  offset="0" style="stop-color:#EB3349"/>
			<stop  offset="1" style="stop-color:#F45C43"/>
		</linearGradient>
		<path fill="url(#SVGID_2_)" d="M42.031,16.501c-0.396-0.316-0.939-0.377-1.393-0.158c-0.455,0.22-0.746,0.68-0.746,1.187v17.101
			c0,0.559,0.355,1.056,0.879,1.241c0.145,0.05,0.293,0.074,0.438,0.074c0.391,0,0.771-0.175,1.027-0.493l4.867-6.083h7.26
			c0.559,0,1.057-0.354,1.242-0.88c0.186-0.527,0.016-1.114-0.42-1.463L42.031,16.501L42.031,16.501z"/>
		<linearGradient id="SVGID_3_" gradientUnits="userSpaceOnUse" x1="0.4277" y1="32" x2="63.5723" y2="32">
			<stop  offset="0" style="stop-color:#EB3349"/>
			<stop  offset="1" style="stop-color:#F45C43"/>
		</linearGradient>
		<path fill="url(#SVGID_3_)" d="M5.691,39.893V8.321h52.619l0.002,31.572H5.691L5.691,39.893z M32,47.794
			c-1.453,0-2.639-1.185-2.639-2.639c0-1.455,1.186-2.639,2.639-2.639c1.455,0,2.639,1.184,2.639,2.639
			C34.639,46.609,33.455,47.794,32,47.794L32,47.794z M58.311,3.059H5.691c-2.902,0-5.264,2.36-5.264,5.262v36.834
			c0,2.901,2.361,5.261,5.264,5.261h18.422c-0.055,2.099-0.455,5.457-1.961,7.042c-0.553,0.58-1.184,0.852-1.992,0.852
			c-0.727,0-1.314,0.588-1.314,1.315c0,0.728,0.588,1.316,1.314,1.316h23.68c0.727,0,1.316-0.588,1.316-1.316
			c0-0.727-0.59-1.315-1.316-1.315c-0.807,0-1.439-0.27-1.988-0.851c-1.502-1.577-1.904-4.939-1.963-7.042h18.422
			c2.9,0,5.262-2.36,5.262-5.261V8.321C63.572,5.419,61.211,3.059,58.311,3.059L58.311,3.059z"/>
	</g>
</g>
<g id="Layer_2">
</g>
</svg>
