<?xml version="1.0" encoding="utf-8"?>
<!-- Generator: Adobe Illustrator 16.0.3, SVG Export Plug-In . SVG Version: 6.00 Build 0)  -->
<!DOCTYPE svg PUBLIC "-//W3C//DTD SVG 1.1//EN" "http://www.w3.org/Graphics/SVG/1.1/DTD/svg11.dtd">
<svg version="1.1" xmlns="http://www.w3.org/2000/svg" xmlns:xlink="http://www.w3.org/1999/xlink" x="0px" y="0px" width="64px"
	 height="64px" viewBox="0 0 64 64" enable-background="new 0 0 64 64" xml:space="preserve">
<g id="Layer_1">
	<g>
		<linearGradient id="SVGID_1_" gradientUnits="userSpaceOnUse" x1="1.9961" y1="32" x2="62.0029" y2="32">
			<stop  offset="0" style="stop-color:#EB3349"/>
			<stop  offset="1" style="stop-color:#F45C43"/>
		</linearGradient>
		<path fill="url(#SVGID_1_)" d="M45.299,39.521c6.539-9.294,5.679-22.244-2.627-30.549C38.171,4.471,32.186,1.991,25.82,1.991
			c-6.368,0-12.354,2.48-16.854,6.981c-9.293,9.293-9.293,24.415,0,33.708c4.501,4.501,10.486,6.981,16.854,6.981
			c4.979,0,9.713-1.536,13.699-4.351l15.501,15.5c0.798,0.799,1.844,1.199,2.892,1.199c1.045,0,2.094-0.399,2.893-1.199
			c1.598-1.598,1.598-4.186,0-5.784L45.299,39.521z M41.132,33.866c-0.182,0.344-0.392,0.674-0.596,1.008v-0.001
			c-0.395,0.642-0.818,1.27-1.304,1.865c-0.369,0.454-0.766,0.892-1.188,1.313c-0.844,0.845-1.754,1.583-2.713,2.216
			c-0.15,0.099-0.311,0.181-0.464,0.275c-2.767,1.705-5.905,2.574-9.048,2.574c-3.319,0-6.638-0.951-9.514-2.849
			c-0.959-0.633-1.868-1.371-2.712-2.216c-0.423-0.422-0.818-0.86-1.188-1.313c-0.738-0.905-1.371-1.868-1.898-2.872
			c-1.318-2.509-1.979-5.274-1.979-8.04c0-2.766,0.66-5.532,1.979-8.041c0.793-1.505,1.82-2.919,3.087-4.185
			c3.375-3.376,7.801-5.065,12.226-5.065c4.424,0,8.85,1.689,12.225,5.065c1.266,1.265,2.295,2.679,3.087,4.185
			c1.316,2.509,1.979,5.274,1.979,8.041C43.11,28.592,42.448,31.357,41.132,33.866z"/>
		<g>
			<linearGradient id="SVGID_2_" gradientUnits="userSpaceOnUse" x1="11.1631" y1="28.0488" x2="30.1738" y2="28.0488">
				<stop  offset="0" style="stop-color:#EB3349"/>
				<stop  offset="1" style="stop-color:#F45C43"/>
			</linearGradient>
			<path fill="url(#SVGID_2_)" d="M28.742,22.622l-4.599,8.475l-5.888-8.334c-0.283-0.402-0.836-0.503-1.245-0.232l-5.442,3.629
				c-0.417,0.278-0.531,0.841-0.254,1.258c0.278,0.417,0.842,0.53,1.26,0.251l4.71-3.139l6.219,8.805
				c0.171,0.243,0.447,0.384,0.741,0.384c0.018,0,0.035-0.001,0.053-0.001c0.313-0.019,0.595-0.197,0.743-0.473l5.134-9.456
				C29.591,23.545,29.094,23.137,28.742,22.622z"/>
			<linearGradient id="SVGID_3_" gradientUnits="userSpaceOnUse" x1="29.3848" y1="20.791" x2="33.4688" y2="20.791">
				<stop  offset="0" style="stop-color:#EB3349"/>
				<stop  offset="1" style="stop-color:#F45C43"/>
			</linearGradient>
			<circle fill="url(#SVGID_3_)" cx="31.427" cy="20.791" r="2.042"/>
			<linearGradient id="SVGID_4_" gradientUnits="userSpaceOnUse" x1="33.2705" y1="26.3491" x2="40.1973" y2="26.3491">
				<stop  offset="0" style="stop-color:#EB3349"/>
				<stop  offset="1" style="stop-color:#F45C43"/>
			</linearGradient>
			<path fill="url(#SVGID_4_)" d="M33.271,23.462l5.3,6.879c0.309,0.397,0.878,0.471,1.273,0.167
				c0.396-0.307,0.471-0.876,0.165-1.273l-5.571-7.231C34.199,22.596,33.791,23.103,33.271,23.462z"/>
		</g>
	</g>
</g>
<g id="Layer_2">
</g>
</svg>
