<?xml version="1.0" encoding="utf-8"?>
<!-- Generator: Adobe Illustrator 16.0.3, SVG Export Plug-In . SVG Version: 6.00 Build 0)  -->
<!DOCTYPE svg PUBLIC "-//W3C//DTD SVG 1.1//EN" "http://www.w3.org/Graphics/SVG/1.1/DTD/svg11.dtd">
<svg version="1.1" id="Layer_1" xmlns="http://www.w3.org/2000/svg" xmlns:xlink="http://www.w3.org/1999/xlink" x="0px" y="0px"
	 width="52px" height="400px" viewBox="0 0 52 400" enable-background="new 0 0 52 400" xml:space="preserve">
<g opacity="0.1">
	<path d="M33.242,24.359h-8.009v9.482h9.049v5.941H18.421V4.662h15.237v5.939h-8.425v8.076h8.009V24.359z"/>
	<path d="M29.419,84.227l-2.236-6.461c-0.676-2.033-1.248-4.012-1.872-6.254h-0.104c-0.572,2.242-1.144,4.379-1.664,6.357
		l-1.872,6.357h-6.76l6.552-17.977L15.17,49.105h7.124l2.028,6.514c0.572,1.824,1.04,3.648,1.612,5.629h0.104
		c0.572-2.137,0.988-3.805,1.456-5.732l1.769-6.41h6.812l-6.552,17.457l6.916,17.664H29.419z"/>
	<path d="M16.783,94.07c1.924-0.416,4.524-0.676,7.125-0.676c4.056,0,7.228,0.572,9.516,2.709c2.08,1.824,3.016,4.742,3.016,7.713
		c0,3.803-1.144,6.461-2.964,8.441c-2.185,2.293-5.721,3.334-8.528,3.334c-0.468,0-0.937,0-1.353,0v13.08h-6.812V94.07z
		 M23.595,110.016c0.313,0.105,0.676,0.105,1.092,0.105c3.432,0,4.992-2.449,4.992-5.732c0-3.074-1.248-5.471-4.42-5.471
		c-0.624,0-1.248,0.104-1.664,0.26V110.016z"/>
	<path d="M33.242,157.691h-8.009v9.484h9.049v5.939H18.421v-35.121h15.237v5.941h-8.425v8.076h8.009V157.691z"/>
	<path d="M16.445,182.959c2.132-0.416,4.836-0.676,7.437-0.676c3.744,0,7.072,0.52,9.36,2.605c2.132,1.928,2.756,4.271,2.756,7.295
		c0,3.752-1.82,7.139-5.408,8.807v0.104c2.392,0.938,3.588,3.178,4.264,6.93c0.676,3.908,1.612,8.234,2.236,9.537h-7.124
		c-0.416-0.99-1.196-4.533-1.716-8.391c-0.624-4.377-1.716-5.627-4.004-5.627h-0.988v14.018h-6.813V182.959z M23.257,198.279h1.196
		c2.964,0,4.68-2.396,4.68-5.471c0-2.971-1.196-5.107-4.264-5.211c-0.572,0-1.248,0.053-1.612,0.209V198.279z"/>
	<path d="M22.243,233.188h-6.188v-6.305h19.241v6.305h-6.24v28.816h-6.813V233.188z"/>
	<path d="M29.03,271.328v35.121h-6.813v-35.121H29.03z"/>
	<path d="M17.641,343.912c1.404,0.781,3.796,1.354,5.772,1.354c3.224,0,4.784-1.666,4.784-3.959c0-2.555-1.56-3.805-4.524-5.732
		c-4.784-2.918-6.604-6.617-6.604-9.797c0-5.627,3.744-10.316,11.076-10.316c2.288,0,4.473,0.625,5.513,1.25l-1.092,5.889
		c-0.988-0.625-2.496-1.199-4.472-1.199c-2.912,0-4.316,1.771-4.316,3.648c0,2.084,1.04,3.178,4.836,5.471
		c4.628,2.814,6.344,6.357,6.344,10.057c0,6.41-4.732,10.631-11.597,10.631c-2.808,0-5.564-0.73-6.708-1.408L17.641,343.912z"/>
	<path d="M33.242,379.914h-8.009v9.484h9.049v5.939H18.421v-35.121h15.237v5.941h-8.425v8.076h8.009V379.914z"/>
</g>
</svg>
