<?xml version="1.0" encoding="utf-8"?>
<!-- Generator: Adobe Illustrator 16.0.0, SVG Export Plug-In . SVG Version: 6.00 Build 0)  -->
<!DOCTYPE svg PUBLIC "-//W3C//DTD SVG 1.1//EN" "http://www.w3.org/Graphics/SVG/1.1/DTD/svg11.dtd">
<svg version="1.1" id="Layer_1" xmlns="http://www.w3.org/2000/svg" xmlns:xlink="http://www.w3.org/1999/xlink" x="0px" y="0px"
	 width="64px" height="64px" viewBox="0 0 64 64" enable-background="new 0 0 64 64" xml:space="preserve">
<g>
	<text transform="matrix(1 0 0 1 -0.4604 -3.7617)" fill="#080045" font-family="'MyriadPro-BoldCond'" font-size="18">Responsive</text>
</g>
<g>
	<g>
		<g>
			<g>
				<g>
					<linearGradient id="SVGID_1_" gradientUnits="userSpaceOnUse" x1="9.3784" y1="53.3105" x2="11.8452" y2="53.3105">
						<stop  offset="0" style="stop-color:#EB3349"/>
						<stop  offset="1" style="stop-color:#F45C43"/>
					</linearGradient>
					<path fill="url(#SVGID_1_)" d="M11.487,52.445l-0.005-0.006c-0.48-0.48-1.26-0.482-1.741-0.002
						c-0.482,0.479-0.483,1.26-0.004,1.742c0.48,0.48,1.263,0.484,1.744,0.004C11.964,53.705,11.967,52.928,11.487,52.445z"/>
				</g>
			</g>
		</g>
		<g>
			<g>
				<g>
					<linearGradient id="SVGID_2_" gradientUnits="userSpaceOnUse" x1="11.8945" y1="56.3086" x2="14.3608" y2="56.3086">
						<stop  offset="0" style="stop-color:#EB3349"/>
						<stop  offset="1" style="stop-color:#F45C43"/>
					</linearGradient>
					<path fill="url(#SVGID_2_)" d="M14.003,55.443l-0.005-0.006c-0.48-0.48-1.26-0.482-1.741-0.002s-0.483,1.26-0.003,1.742
						c0.479,0.48,1.262,0.484,1.743,0.004C14.479,56.701,14.483,55.926,14.003,55.443z"/>
				</g>
			</g>
		</g>
		<g>
			<g>
				<g>
					<linearGradient id="SVGID_3_" gradientUnits="userSpaceOnUse" x1="6.3174" y1="50.7109" x2="8.7842" y2="50.7109">
						<stop  offset="0" style="stop-color:#EB3349"/>
						<stop  offset="1" style="stop-color:#F45C43"/>
					</linearGradient>
					<path fill="url(#SVGID_3_)" d="M8.426,49.846l-0.005-0.004c-0.479-0.482-1.26-0.484-1.741-0.004s-0.483,1.26-0.003,1.742
						c0.479,0.48,1.262,0.484,1.743,0.006C8.902,51.105,8.906,50.328,8.426,49.846z"/>
				</g>
			</g>
		</g>
		<g>
			<g>
				<g>
					<linearGradient id="SVGID_4_" gradientUnits="userSpaceOnUse" x1="52.6758" y1="10.168" x2="55.1421" y2="10.168">
						<stop  offset="0" style="stop-color:#EB3349"/>
						<stop  offset="1" style="stop-color:#F45C43"/>
					</linearGradient>
					<path fill="url(#SVGID_4_)" d="M54.784,9.303l-0.006-0.004c-0.479-0.482-1.259-0.484-1.74-0.004s-0.483,1.26-0.003,1.742
						c0.479,0.48,1.262,0.484,1.743,0.004S55.265,9.785,54.784,9.303z"/>
				</g>
			</g>
		</g>
		<g>
			<g>
				<g>
					<linearGradient id="SVGID_5_" gradientUnits="userSpaceOnUse" x1="55.2158" y1="13.2871" x2="57.6826" y2="13.2871">
						<stop  offset="0" style="stop-color:#EB3349"/>
						<stop  offset="1" style="stop-color:#F45C43"/>
					</linearGradient>
					<path fill="url(#SVGID_5_)" d="M57.324,12.422l-0.005-0.006c-0.48-0.48-1.26-0.482-1.741-0.002s-0.483,1.258-0.003,1.74
						s1.262,0.486,1.743,0.006C57.801,13.68,57.805,12.904,57.324,12.422z"/>
				</g>
			</g>
		</g>
		<g>
			<g>
				<g>
					<linearGradient id="SVGID_6_" gradientUnits="userSpaceOnUse" x1="49.5659" y1="7.6172" x2="52.0327" y2="7.6172">
						<stop  offset="0" style="stop-color:#EB3349"/>
						<stop  offset="1" style="stop-color:#F45C43"/>
					</linearGradient>
					<path fill="url(#SVGID_6_)" d="M51.675,6.752L51.67,6.746c-0.48-0.48-1.26-0.482-1.741-0.002
						c-0.482,0.48-0.483,1.26-0.004,1.74c0.48,0.482,1.263,0.486,1.744,0.006C52.151,8.012,52.155,7.234,51.675,6.752z"/>
				</g>
			</g>
		</g>
		<g>
			<linearGradient id="SVGID_7_" gradientUnits="userSpaceOnUse" x1="-4.882813e-004" y1="32" x2="63.999" y2="32">
				<stop  offset="0" style="stop-color:#EB3349"/>
				<stop  offset="1" style="stop-color:#F45C43"/>
			</linearGradient>
			<path fill="url(#SVGID_7_)" d="M6.642,51.545l1.761-1.754c-8.75-11.59-7.833-28.195,2.736-38.727
				C21.709,0.533,38.317-0.324,49.875,8.467l1.761-1.754C39.105-3.031,20.934-2.172,9.4,9.32
				C-2.132,20.811-3.058,38.979,6.642,51.545z M54.597,54.68c11.534-11.492,12.459-29.66,2.76-42.227l-1.76,1.754
				c8.749,11.59,7.832,28.195-2.737,38.727C42.29,63.467,25.681,64.324,14.123,55.531l-1.76,1.756
				C24.894,67.031,43.064,66.17,54.597,54.68z"/>
		</g>
	</g>
	<g>
		<g>
			<linearGradient id="SVGID_8_" gradientUnits="userSpaceOnUse" x1="12.6289" y1="32" x2="51.3687" y2="32">
				<stop  offset="0" style="stop-color:#EB3349"/>
				<stop  offset="1" style="stop-color:#F45C43"/>
			</linearGradient>
			<path fill-rule="evenodd" clip-rule="evenodd" fill="url(#SVGID_8_)" d="M49.816,15.836c-5.936,0-11.869,0-17.804,0H15.964
				c-0.702,0-1.405-0.01-2.105,0.006c-0.715,0.014-1.117,0.383-1.206,1.09c-0.027,0.215-0.021,0.434-0.021,0.65v20.611
				c0,0.637-0.008,1.271,0.004,1.906c0.012,0.684,0.358,1.129,1.006,1.334c0.292,0.094,0.591,0.102,0.893,0.102
				c5.495,0,10.989,0,16.484,0c-0.003,0.785-0.002,1.572-0.002,2.359c0,0.686,0,1.373,0,2.063c-1.576,0-3.153,0-4.73,0
				c-0.41,0-0.813,0.047-1.102,0.373c-0.3,0.336-0.398,0.734-0.208,1.164c0.201,0.461,0.563,0.676,1.068,0.674
				c2.003-0.004,4.006-0.002,6.011-0.002c2.038,0,4.075,0.006,6.111-0.002c0.646-0.004,1.086-0.424,1.129-1.039
				c0.038-0.518-0.368-1.02-0.939-1.129c-0.193-0.039-0.399-0.039-0.598-0.039c-1.51-0.002-3.021,0-4.53,0
				c-0.001-0.66-0.002-1.32-0.002-1.98c0-0.814,0.003-1.629-0.002-2.441c5.522,0,11.045-0.002,16.565-0.002
				c1.184,0,1.577-0.389,1.577-1.559c0.002-7.521,0.002-15.045,0.001-22.568C51.367,16.219,50.985,15.836,49.816,15.836z
				 M49.362,38.576c0,0.881-0.138,1.033-1.006,1.033c-10.904,0.002-21.809,0.002-32.712,0c-0.867,0-1.008-0.154-1.008-1.033V18.859
				c0-1.008,0.094-1.102,1.134-1.102h16.254c5.387,0,10.771,0,16.156,0c0.199,0,0.403-0.006,0.6,0.02
				c0.361,0.047,0.579,0.244,0.58,0.631c0,0.133,0.003,0.268,0.003,0.4C49.363,25.398,49.363,31.986,49.362,38.576z"/>
			<g>
				<g>
					<linearGradient id="SVGID_9_" gradientUnits="userSpaceOnUse" x1="20.1738" y1="33.0488" x2="34.7988" y2="33.0488">
						<stop  offset="0" style="stop-color:#EB3349"/>
						<stop  offset="1" style="stop-color:#F45C43"/>
					</linearGradient>
					<path fill="url(#SVGID_9_)" d="M30.385,32.229c-0.275,0-0.725,0-1,0h-6.492c-0.275,0-0.725,0.012-1,0.025l-1.22,0.063
						c-0.275,0.014-0.5,0.25-0.5,0.525v0.527c0,0.275,0.225,0.5,0.5,0.5h13.625c0.275,0,0.5-0.225,0.5-0.5v-0.641
						c0-0.275-0.225-0.5-0.5-0.5H30.385z M32.283,33.084c0,0.084-0.225,0.152-0.5,0.152h-3.621c-0.275,0-0.5-0.068-0.5-0.152
						s0.225-0.152,0.5-0.152h3.621C32.058,32.932,32.283,33,32.283,33.084z M32.283,33.236"/>
				</g>
				<g>
					<linearGradient id="SVGID_10_" gradientUnits="userSpaceOnUse" x1="22.3926" y1="26.6719" x2="37.8145" y2="26.6719">
						<stop  offset="0" style="stop-color:#EB3349"/>
						<stop  offset="1" style="stop-color:#F45C43"/>
					</linearGradient>
					<path fill="url(#SVGID_10_)" d="M23.549,23.244c0-0.275,0.225-0.5,0.5-0.5h12.109c0.275,0,0.5,0.084,0.5,0.188
						s0.225,0.188,0.5,0.188h0.156c0.275,0,0.5-0.225,0.5-0.5v-0.531c0-0.275-0.225-0.5-0.5-0.5H22.893c-0.275,0-0.5,0.225-0.5,0.5
						v9.168c0,0.275,0.225,0.5,0.5,0.5h11.406c0.275,0,0.5-0.225,0.5-0.5v-0.152c0-0.275-0.225-0.5-0.5-0.5h-10.25
						c-0.275,0-0.5-0.225-0.5-0.5V23.244z M23.549,22.744"/>
				</g>
				<g>
					<linearGradient id="SVGID_11_" gradientUnits="userSpaceOnUse" x1="36.6074" y1="24.9004" x2="36.6074" y2="24.9004">
						<stop  offset="0" style="stop-color:#EB3349"/>
						<stop  offset="1" style="stop-color:#F45C43"/>
					</linearGradient>
					<path fill="url(#SVGID_11_)" d="M36.607,24.9"/>
				</g>
				<g>
					<linearGradient id="SVGID_12_" gradientUnits="userSpaceOnUse" x1="40.666" y1="32.25" x2="46.2832" y2="32.25">
						<stop  offset="0" style="stop-color:#EB3349"/>
						<stop  offset="1" style="stop-color:#F45C43"/>
					</linearGradient>
					<path fill="url(#SVGID_12_)" d="M40.666,36.475c0,0.275,0.225,0.5,0.5,0.5h4.617c0.275,0,0.5-0.225,0.5-0.5v-8.449
						c0-0.275-0.225-0.5-0.5-0.5h-4.617c-0.275,0-0.5,0.225-0.5,0.5V36.475z M43.549,36.564c-0.18,0-0.324-0.145-0.324-0.324
						c0-0.176,0.145-0.32,0.324-0.32c0.176,0,0.32,0.145,0.32,0.32C43.869,36.42,43.725,36.564,43.549,36.564z M43.6,27.916
						c0.074,0,0.137,0.063,0.137,0.137s-0.063,0.133-0.137,0.133s-0.137-0.059-0.137-0.133S43.525,27.916,43.6,27.916z
						 M42.795,28.434c0-0.035,0.225-0.064,0.5-0.064h0.613c0.275,0,0.5,0.029,0.5,0.064s-0.225,0.064-0.5,0.064h-0.613
						C43.02,28.498,42.795,28.469,42.795,28.434z M41.568,29.463c0-0.275,0.225-0.5,0.5-0.5h2.816c0.275,0,0.5,0.225,0.5,0.5v5.992
						c-1.461,0.004-3.094,0.012-3.816,0.004V29.463z M41.568,28.963"/>
				</g>
			</g>
		</g>
		<linearGradient id="SVGID_13_" gradientUnits="userSpaceOnUse" x1="35.0469" y1="29.4063" x2="43.0742" y2="29.4063">
			<stop  offset="0" style="stop-color:#EB3349"/>
			<stop  offset="1" style="stop-color:#F45C43"/>
		</linearGradient>
		<path fill="url(#SVGID_13_)" d="M42.574,23.383h-7.027c-0.275,0-0.5,0.225-0.5,0.5V34.93c0,0.275,0.225,0.5,0.5,0.5h3.784
			c0.275,0,0.5-0.225,0.5-0.5v-0.996c0-0.275-0.225-0.5-0.5-0.5h-2.624c-0.275,0-0.5-0.227-0.5-0.5v-7.887
			c0-0.275,0.225-0.5,0.5-0.5h4.707c0.275,0,0.5,0.225,0.5,0.5v1.086c0,0.275,0.225,0.5,0.5,0.5h0.16c0.275,0,0.5-0.225,0.5-0.5
			v-2.25C43.074,23.607,42.85,23.383,42.574,23.383z M38.614,34.119c0.18,0,0.325,0.145,0.325,0.324s-0.146,0.326-0.325,0.326
			s-0.325-0.146-0.325-0.326S38.435,34.119,38.614,34.119z"/>
	</g>
</g>
</svg>
