<?xml version="1.0" encoding="utf-8"?>
<!-- Generator: Adobe Illustrator 16.0.0, SVG Export Plug-In . SVG Version: 6.00 Build 0)  -->
<!DOCTYPE svg PUBLIC "-//W3C//DTD SVG 1.1//EN" "http://www.w3.org/Graphics/SVG/1.1/DTD/svg11.dtd">
<svg version="1.1" id="Layer_1" xmlns="http://www.w3.org/2000/svg" xmlns:xlink="http://www.w3.org/1999/xlink" x="0px" y="0px"
	 width="64px" height="64px" viewBox="0 0 64 64" enable-background="new 0 0 64 64" xml:space="preserve">
<g>
	<text transform="matrix(1 0 0 1 5.4399 -1.8447)" fill="#080045" font-family="'MyriadPro-BoldCond'" font-size="18">Static</text>
</g>
<g>
	<g>
		<g>
			<g>
				<g>
					<linearGradient id="SVGID_1_" gradientUnits="userSpaceOnUse" x1="9.3784" y1="53.3105" x2="11.8447" y2="53.3105">
						<stop  offset="0" style="stop-color:#EB3349"/>
						<stop  offset="1" style="stop-color:#F45C43"/>
					</linearGradient>
					<path fill="url(#SVGID_1_)" d="M11.487,52.445l-0.005-0.006c-0.48-0.48-1.26-0.482-1.741-0.002
						c-0.482,0.479-0.483,1.26-0.003,1.742c0.48,0.48,1.262,0.484,1.744,0.004C11.963,53.705,11.967,52.928,11.487,52.445z"/>
				</g>
			</g>
		</g>
		<g>
			<g>
				<g>
					<linearGradient id="SVGID_2_" gradientUnits="userSpaceOnUse" x1="11.894" y1="56.3086" x2="14.3608" y2="56.3086">
						<stop  offset="0" style="stop-color:#EB3349"/>
						<stop  offset="1" style="stop-color:#F45C43"/>
					</linearGradient>
					<path fill="url(#SVGID_2_)" d="M14.003,55.443l-0.005-0.006c-0.48-0.48-1.26-0.482-1.742-0.002
						c-0.481,0.48-0.483,1.26-0.003,1.742c0.48,0.48,1.262,0.484,1.744,0.004C14.479,56.701,14.483,55.926,14.003,55.443z"/>
				</g>
			</g>
		</g>
		<g>
			<g>
				<g>
					<linearGradient id="SVGID_3_" gradientUnits="userSpaceOnUse" x1="6.3174" y1="50.7109" x2="8.7837" y2="50.7109">
						<stop  offset="0" style="stop-color:#EB3349"/>
						<stop  offset="1" style="stop-color:#F45C43"/>
					</linearGradient>
					<path fill="url(#SVGID_3_)" d="M8.426,49.846l-0.005-0.004c-0.48-0.482-1.26-0.484-1.742-0.004
						c-0.481,0.48-0.483,1.26-0.003,1.742c0.48,0.48,1.262,0.484,1.744,0.006C8.902,51.105,8.906,50.328,8.426,49.846z"/>
				</g>
			</g>
		</g>
		<g>
			<g>
				<g>
					<linearGradient id="SVGID_4_" gradientUnits="userSpaceOnUse" x1="52.6753" y1="10.168" x2="55.1416" y2="10.168">
						<stop  offset="0" style="stop-color:#EB3349"/>
						<stop  offset="1" style="stop-color:#F45C43"/>
					</linearGradient>
					<path fill="url(#SVGID_4_)" d="M54.784,9.303l-0.006-0.004c-0.479-0.482-1.259-0.484-1.741-0.004
						c-0.481,0.48-0.483,1.26-0.002,1.742c0.479,0.48,1.262,0.484,1.743,0.004C55.26,10.561,55.264,9.785,54.784,9.303z"/>
				</g>
			</g>
		</g>
		<g>
			<g>
				<g>
					<linearGradient id="SVGID_5_" gradientUnits="userSpaceOnUse" x1="55.2158" y1="13.2871" x2="57.6816" y2="13.2871">
						<stop  offset="0" style="stop-color:#EB3349"/>
						<stop  offset="1" style="stop-color:#F45C43"/>
					</linearGradient>
					<path fill="url(#SVGID_5_)" d="M57.324,12.422l-0.005-0.006c-0.48-0.48-1.26-0.482-1.741-0.002
						c-0.482,0.48-0.484,1.258-0.003,1.74s1.262,0.486,1.743,0.006C57.8,13.68,57.804,12.904,57.324,12.422z"/>
				</g>
			</g>
		</g>
		<g>
			<g>
				<g>
					<linearGradient id="SVGID_6_" gradientUnits="userSpaceOnUse" x1="49.5654" y1="7.6172" x2="52.0327" y2="7.6172">
						<stop  offset="0" style="stop-color:#EB3349"/>
						<stop  offset="1" style="stop-color:#F45C43"/>
					</linearGradient>
					<path fill="url(#SVGID_6_)" d="M51.675,6.752l-0.005-0.006c-0.48-0.48-1.259-0.482-1.741-0.002
						c-0.482,0.48-0.483,1.26-0.003,1.74c0.48,0.482,1.263,0.486,1.744,0.006C52.151,8.012,52.155,7.234,51.675,6.752z"/>
				</g>
			</g>
		</g>
		<g>
			<linearGradient id="SVGID_7_" gradientUnits="userSpaceOnUse" x1="-9.765625e-004" y1="32" x2="63.999" y2="32">
				<stop  offset="0" style="stop-color:#EB3349"/>
				<stop  offset="1" style="stop-color:#F45C43"/>
			</linearGradient>
			<path fill="url(#SVGID_7_)" d="M6.642,51.545l1.761-1.754c-8.75-11.59-7.833-28.195,2.736-38.727
				C21.708,0.533,38.317-0.324,49.875,8.467l1.76-1.754C39.105-3.031,20.934-2.172,9.4,9.32
				C-2.132,20.811-3.058,38.979,6.642,51.545z M54.597,54.68c11.534-11.492,12.459-29.66,2.759-42.227l-1.76,1.754
				c8.75,11.59,7.833,28.195-2.737,38.727C42.29,63.467,25.68,64.324,14.123,55.531l-1.76,1.756
				C24.893,67.031,43.064,66.17,54.597,54.68z"/>
		</g>
	</g>
	<g>
		<linearGradient id="SVGID_8_" gradientUnits="userSpaceOnUse" x1="14.2407" y1="32.001" x2="49.7563" y2="32.001">
			<stop  offset="0" style="stop-color:#EB3349"/>
			<stop  offset="1" style="stop-color:#F45C43"/>
		</linearGradient>
		<path fill-rule="evenodd" clip-rule="evenodd" fill="url(#SVGID_8_)" d="M32.04,15.754c5.116,0,10.23,0,15.345,0
			c1.649,0,2.37,0.723,2.371,2.389c0.002,6.635,0.002,13.27-0.003,19.904c-0.001,1.635-0.758,2.393-2.39,2.395
			c-3.45,0.004-6.9,0.002-10.35,0.002c-1.018,0-1.019,0.002-1.021,1.049c-0.004,1.084,0.042,2.174-0.022,3.256
			c-0.045,0.736,0.297,0.926,0.926,1.172c1.892,0.74,3.896,0.539,5.829,0.873c0.284,0.047,0.569,0.104,0.85,0.174
			c0.167,0.041,0.34,0.131,0.331,0.33c-0.014,0.234-0.218,0.305-0.412,0.338c-0.617,0.105-1.234,0.244-1.856,0.289
			c-2.259,0.164-4.517,0.348-6.785,0.322c-2.629-0.031-5.26,0.035-7.889-0.031c-1.947-0.047-3.9-0.156-5.831-0.457
			c-0.363-0.057-1,0.014-0.968-0.51c0.031-0.473,0.646-0.4,1.028-0.443c1.316-0.146,2.636-0.25,3.957-0.352
			c0.865-0.064,1.707-0.461,2.556-0.725c0.291-0.09,0.288-0.361,0.289-0.604c0.002-1.35-0.016-2.701,0.002-4.053
			c0.008-0.605-0.354-0.633-0.807-0.631c-3.473,0.004-6.948,0.004-10.421,0.002c-1.746-0.002-2.518-0.754-2.521-2.516
			c-0.01-6.586-0.01-13.174-0.003-19.76c0.001-1.662,0.781-2.414,2.449-2.414C21.81,15.754,26.925,15.754,32.04,15.754z
			 M31.974,38.508c5.018,0,10.036,0.002,15.055,0c1.312,0,1.524-0.207,1.524-1.504c0.001-6.248,0.001-12.496,0-18.746
			c0-1.279-0.277-1.551-1.587-1.551c-9.988-0.002-19.976-0.002-29.964,0c-1.207,0-1.563,0.33-1.565,1.539
			c-0.008,6.271-0.007,12.545,0,18.816c0.002,1.131,0.343,1.445,1.482,1.445C21.937,38.51,26.956,38.508,31.974,38.508z"/>
		<linearGradient id="SVGID_9_" gradientUnits="userSpaceOnUse" x1="16.6958" y1="30.2754" x2="47.2915" y2="30.2754">
			<stop  offset="0" style="stop-color:#EB3349"/>
			<stop  offset="1" style="stop-color:#F45C43"/>
		</linearGradient>
		<path fill-rule="evenodd" clip-rule="evenodd" fill="url(#SVGID_9_)" d="M32.048,28.51c-4.749,0-9.498,0-14.247,0.002
			c-1.103,0-1.104,0-1.104,1.133c-0.001,0.436-0.002,0.869,0,1.303c0.003,1.076,0.003,1.078,1.092,1.078
			c9.451,0.002,18.901,0.002,28.353,0.002c0.072,0,0.146-0.008,0.217,0c0.671,0.08,0.985-0.176,0.927-0.891
			c-0.046-0.551-0.007-1.107-0.01-1.662c-0.005-0.949-0.016-0.963-0.978-0.963C41.547,28.51,36.799,28.512,32.048,28.51z"/>
		<linearGradient id="SVGID_10_" gradientUnits="userSpaceOnUse" x1="16.8145" y1="20.1328" x2="36.4175" y2="20.1328">
			<stop  offset="0" style="stop-color:#EB3349"/>
			<stop  offset="1" style="stop-color:#F45C43"/>
		</linearGradient>
		<path fill-rule="evenodd" clip-rule="evenodd" fill="url(#SVGID_10_)" d="M26.543,21.875c2.992,0,5.984-0.012,8.975,0.01
			c0.64,0.004,0.946-0.18,0.894-0.865c-0.043-0.551-0.006-1.109-0.01-1.664c-0.006-0.936-0.026-0.959-0.99-0.959
			c-4.415-0.002-8.829-0.002-13.244-0.002c-1.472,0-2.944,0.025-4.415-0.012c-0.675-0.016-0.987,0.186-0.932,0.898
			c0.044,0.553,0.006,1.109,0.01,1.664c0.007,0.889,0.043,0.928,0.955,0.928C20.705,21.877,23.625,21.875,26.543,21.875z"/>
		<linearGradient id="SVGID_11_" gradientUnits="userSpaceOnUse" x1="29.4404" y1="35.418" x2="47.2544" y2="35.418">
			<stop  offset="0" style="stop-color:#EB3349"/>
			<stop  offset="1" style="stop-color:#F45C43"/>
		</linearGradient>
		<path fill-rule="evenodd" clip-rule="evenodd" fill="url(#SVGID_11_)" d="M38.351,37.082c2.675,0,5.351-0.016,8.025,0.012
			c0.666,0.008,0.921-0.229,0.872-0.883c-0.037-0.506-0.005-1.014-0.008-1.52c-0.007-0.896-0.042-0.938-0.943-0.938
			c-2.989-0.004-5.978-0.002-8.966-0.002c-2.339,0-4.676,0.018-7.014-0.01c-0.668-0.01-0.917,0.23-0.872,0.887
			c0.038,0.527,0.04,1.063,0,1.59c-0.048,0.664,0.222,0.883,0.88,0.875C33,37.066,35.676,37.082,38.351,37.082z"/>
		<linearGradient id="SVGID_12_" gradientUnits="userSpaceOnUse" x1="16.8477" y1="35.418" x2="27.1294" y2="35.418">
			<stop  offset="0" style="stop-color:#EB3349"/>
			<stop  offset="1" style="stop-color:#F45C43"/>
		</linearGradient>
		<path fill-rule="evenodd" clip-rule="evenodd" fill="url(#SVGID_12_)" d="M22.059,33.752c-1.205,0-2.41-0.004-3.615,0
			c-1.75,0.008-1.596-0.164-1.591,1.594c0.005,1.963-0.22,1.729,1.733,1.734c2.579,0.01,5.158-0.008,7.736,0.012
			c0.593,0.004,0.836-0.211,0.804-0.805c-0.03-0.578-0.029-1.158,0-1.734c0.031-0.594-0.207-0.818-0.802-0.809
			C24.903,33.77,23.481,33.754,22.059,33.752z"/>
		<linearGradient id="SVGID_13_" gradientUnits="userSpaceOnUse" x1="38.7021" y1="20.1318" x2="47.2783" y2="20.1318">
			<stop  offset="0" style="stop-color:#EB3349"/>
			<stop  offset="1" style="stop-color:#F45C43"/>
		</linearGradient>
		<path fill-rule="evenodd" clip-rule="evenodd" fill="url(#SVGID_13_)" d="M43.045,21.889c1.18,0,2.358-0.01,3.537,0.002
			c0.48,0.006,0.709-0.176,0.695-0.678c-0.019-0.723-0.019-1.443,0-2.166c0.014-0.498-0.203-0.68-0.691-0.678
			c-2.381,0.014-4.764,0.016-7.146,0c-0.521-0.004-0.752,0.184-0.737,0.713c0.02,0.697,0.02,1.396-0.001,2.092
			c-0.015,0.529,0.214,0.729,0.733,0.721C40.639,21.877,41.843,21.889,43.045,21.889z"/>
		<linearGradient id="SVGID_14_" gradientUnits="userSpaceOnUse" x1="16.7046" y1="25.2002" x2="25.2573" y2="25.2002">
			<stop  offset="0" style="stop-color:#EB3349"/>
			<stop  offset="1" style="stop-color:#F45C43"/>
		</linearGradient>
		<path fill-rule="evenodd" clip-rule="evenodd" fill="url(#SVGID_14_)" d="M21.003,26.943c1.182,0,2.364-0.008,3.546,0.004
			c0.479,0.006,0.717-0.174,0.705-0.678c-0.018-0.699-0.02-1.4,0.002-2.098c0.016-0.533-0.22-0.721-0.738-0.719
			c-2.366,0.016-4.729,0.018-7.095,0c-0.54-0.002-0.732,0.227-0.718,0.738c0.019,0.676,0.015,1.352,0.002,2.027
			c-0.011,0.525,0.234,0.734,0.748,0.729C18.637,26.934,19.82,26.943,21.003,26.943z"/>
		<linearGradient id="SVGID_15_" gradientUnits="userSpaceOnUse" x1="27.7183" y1="25.1992" x2="36.2686" y2="25.1992">
			<stop  offset="0" style="stop-color:#EB3349"/>
			<stop  offset="1" style="stop-color:#F45C43"/>
		</linearGradient>
		<path fill-rule="evenodd" clip-rule="evenodd" fill="url(#SVGID_15_)" d="M32.012,23.461c-1.207,0-2.413,0.008-3.62-0.004
			c-0.446-0.004-0.68,0.164-0.674,0.631c0.009,0.725,0.008,1.447,0.001,2.172c-0.005,0.492,0.239,0.688,0.716,0.686
			c2.389-0.008,4.778-0.008,7.167,0c0.51,0.004,0.674-0.244,0.662-0.717c-0.017-0.676-0.025-1.352,0.003-2.027
			c0.024-0.576-0.234-0.76-0.781-0.748C34.329,23.477,33.17,23.461,32.012,23.461z"/>
		<linearGradient id="SVGID_16_" gradientUnits="userSpaceOnUse" x1="38.7168" y1="25.1973" x2="47.2686" y2="25.1973">
			<stop  offset="0" style="stop-color:#EB3349"/>
			<stop  offset="1" style="stop-color:#F45C43"/>
		</linearGradient>
		<path fill-rule="evenodd" clip-rule="evenodd" fill="url(#SVGID_16_)" d="M43.042,23.461c-1.207,0-2.414,0.012-3.62-0.006
			c-0.484-0.006-0.716,0.174-0.705,0.674c0.014,0.699,0.01,1.4,0.001,2.1c-0.007,0.475,0.189,0.717,0.686,0.715
			c2.413-0.006,4.825-0.006,7.238,0c0.479,0.002,0.626-0.248,0.619-0.684c-0.013-0.676-0.029-1.354,0.005-2.027
			c0.031-0.615-0.247-0.795-0.822-0.779C45.31,23.48,44.176,23.459,43.042,23.461z"/>
		<linearGradient id="SVGID_17_" gradientUnits="userSpaceOnUse" x1="16.6958" y1="30.2754" x2="47.2915" y2="30.2754">
			<stop  offset="0" style="stop-color:#EB3349"/>
			<stop  offset="1" style="stop-color:#F45C43"/>
		</linearGradient>
		<path fill-rule="evenodd" clip-rule="evenodd" fill="url(#SVGID_17_)" d="M32.048,28.51c4.751,0.002,9.499,0,14.249,0.002
			c0.962,0,0.973,0.014,0.978,0.963c0.003,0.555-0.036,1.111,0.01,1.662c0.059,0.715-0.256,0.971-0.927,0.891
			c-0.071-0.008-0.145,0-0.217,0c-9.451,0-18.901,0-28.353-0.002c-1.089,0-1.089-0.002-1.092-1.078
			c-0.002-0.434-0.001-0.867,0-1.303c0.001-1.133,0.002-1.133,1.104-1.133C22.55,28.51,27.299,28.51,32.048,28.51z"/>
		<linearGradient id="SVGID_18_" gradientUnits="userSpaceOnUse" x1="16.8145" y1="20.1328" x2="36.4175" y2="20.1328">
			<stop  offset="0" style="stop-color:#EB3349"/>
			<stop  offset="1" style="stop-color:#F45C43"/>
		</linearGradient>
		<path fill-rule="evenodd" clip-rule="evenodd" fill="url(#SVGID_18_)" d="M26.543,21.875c-2.919,0-5.839,0.002-8.758-0.002
			c-0.912,0-0.948-0.039-0.955-0.928c-0.004-0.555,0.034-1.111-0.01-1.664c-0.056-0.713,0.257-0.914,0.932-0.898
			c1.471,0.037,2.943,0.012,4.415,0.012c4.415,0,8.829,0,13.244,0.002c0.964,0,0.984,0.023,0.99,0.959
			c0.004,0.555-0.033,1.113,0.01,1.664c0.053,0.686-0.254,0.869-0.894,0.865C32.528,21.863,29.536,21.875,26.543,21.875z"/>
		<linearGradient id="SVGID_19_" gradientUnits="userSpaceOnUse" x1="29.4404" y1="35.418" x2="47.2544" y2="35.418">
			<stop  offset="0" style="stop-color:#EB3349"/>
			<stop  offset="1" style="stop-color:#F45C43"/>
		</linearGradient>
		<path fill-rule="evenodd" clip-rule="evenodd" fill="url(#SVGID_19_)" d="M38.351,37.082c-2.675,0-5.351-0.016-8.025,0.012
			c-0.658,0.008-0.928-0.211-0.88-0.875c0.04-0.527,0.038-1.063,0-1.59c-0.045-0.656,0.204-0.896,0.872-0.887
			c2.338,0.027,4.675,0.01,7.014,0.01c2.988,0,5.977-0.002,8.966,0.002c0.901,0,0.937,0.041,0.943,0.938
			c0.003,0.506-0.029,1.014,0.008,1.52c0.049,0.654-0.206,0.891-0.872,0.883C43.702,37.066,41.026,37.082,38.351,37.082z"/>
		<linearGradient id="SVGID_20_" gradientUnits="userSpaceOnUse" x1="16.8477" y1="35.418" x2="27.1294" y2="35.418">
			<stop  offset="0" style="stop-color:#EB3349"/>
			<stop  offset="1" style="stop-color:#F45C43"/>
		</linearGradient>
		<path fill-rule="evenodd" clip-rule="evenodd" fill="url(#SVGID_20_)" d="M22.059,33.752c1.422,0.002,2.844,0.018,4.266-0.008
			c0.595-0.01,0.833,0.215,0.802,0.809c-0.029,0.576-0.03,1.156,0,1.734c0.032,0.594-0.211,0.809-0.804,0.805
			c-2.578-0.02-5.157-0.002-7.736-0.012c-1.953-0.006-1.729,0.229-1.733-1.734c-0.005-1.758-0.159-1.586,1.591-1.594
			C19.649,33.748,20.854,33.752,22.059,33.752z"/>
		<linearGradient id="SVGID_21_" gradientUnits="userSpaceOnUse" x1="38.7021" y1="20.1318" x2="47.2783" y2="20.1318">
			<stop  offset="0" style="stop-color:#EB3349"/>
			<stop  offset="1" style="stop-color:#F45C43"/>
		</linearGradient>
		<path fill-rule="evenodd" clip-rule="evenodd" fill="url(#SVGID_21_)" d="M43.045,21.889c-1.202,0-2.406-0.012-3.609,0.006
			c-0.52,0.008-0.748-0.191-0.733-0.721c0.021-0.695,0.021-1.395,0.001-2.092c-0.015-0.529,0.216-0.717,0.737-0.713
			c2.382,0.016,4.765,0.014,7.146,0c0.488-0.002,0.705,0.18,0.691,0.678c-0.019,0.723-0.019,1.443,0,2.166
			c0.014,0.502-0.215,0.684-0.695,0.678C45.404,21.879,44.225,21.889,43.045,21.889z"/>
		<linearGradient id="SVGID_22_" gradientUnits="userSpaceOnUse" x1="16.7046" y1="25.2002" x2="25.2573" y2="25.2002">
			<stop  offset="0" style="stop-color:#EB3349"/>
			<stop  offset="1" style="stop-color:#F45C43"/>
		</linearGradient>
		<path fill-rule="evenodd" clip-rule="evenodd" fill="url(#SVGID_22_)" d="M21.003,26.943c-1.184,0-2.366-0.01-3.548,0.004
			c-0.514,0.006-0.759-0.203-0.748-0.729c0.013-0.676,0.017-1.352-0.002-2.027c-0.015-0.512,0.178-0.74,0.718-0.738
			c2.365,0.018,4.729,0.016,7.095,0c0.519-0.002,0.754,0.186,0.738,0.719c-0.021,0.697-0.02,1.398-0.002,2.098
			c0.012,0.504-0.227,0.684-0.705,0.678C23.368,26.936,22.185,26.943,21.003,26.943z"/>
		<linearGradient id="SVGID_23_" gradientUnits="userSpaceOnUse" x1="27.7183" y1="25.1992" x2="36.2686" y2="25.1992">
			<stop  offset="0" style="stop-color:#EB3349"/>
			<stop  offset="1" style="stop-color:#F45C43"/>
		</linearGradient>
		<path fill-rule="evenodd" clip-rule="evenodd" fill="url(#SVGID_23_)" d="M32.012,23.461c1.158,0,2.316,0.016,3.474-0.008
			c0.547-0.012,0.806,0.172,0.781,0.748c-0.028,0.676-0.02,1.352-0.003,2.027c0.012,0.473-0.152,0.721-0.662,0.717
			c-2.389-0.008-4.778-0.008-7.167,0c-0.477,0.002-0.721-0.193-0.716-0.686c0.007-0.725,0.008-1.447-0.001-2.172
			c-0.006-0.467,0.228-0.635,0.674-0.631C29.599,23.469,30.805,23.461,32.012,23.461z"/>
		<linearGradient id="SVGID_24_" gradientUnits="userSpaceOnUse" x1="38.7168" y1="25.1973" x2="47.2686" y2="25.1973">
			<stop  offset="0" style="stop-color:#EB3349"/>
			<stop  offset="1" style="stop-color:#F45C43"/>
		</linearGradient>
		<path fill-rule="evenodd" clip-rule="evenodd" fill="url(#SVGID_24_)" d="M43.042,23.461c1.134-0.002,2.268,0.02,3.401-0.008
			c0.575-0.016,0.854,0.164,0.822,0.779c-0.034,0.674-0.018,1.352-0.005,2.027c0.007,0.436-0.14,0.686-0.619,0.684
			c-2.413-0.006-4.825-0.006-7.238,0c-0.496,0.002-0.692-0.24-0.686-0.715c0.009-0.699,0.013-1.4-0.001-2.1
			c-0.011-0.5,0.221-0.68,0.705-0.674C40.628,23.473,41.835,23.461,43.042,23.461z"/>
	</g>
</g>
</svg>
