<?xml version="1.0" encoding="utf-8"?>
<!-- Generator: Adobe Illustrator 16.0.0, SVG Export Plug-In . SVG Version: 6.00 Build 0)  -->
<!DOCTYPE svg PUBLIC "-//W3C//DTD SVG 1.1//EN" "http://www.w3.org/Graphics/SVG/1.1/DTD/svg11.dtd">
<svg version="1.1" id="Layer_1" xmlns="http://www.w3.org/2000/svg" xmlns:xlink="http://www.w3.org/1999/xlink" x="0px" y="0px"
	 width="64px" height="64px" viewBox="0 0 64 64" enable-background="new 0 0 64 64" xml:space="preserve">
<g>
	<text transform="matrix(1 0 0 1 6.2539 -4.0845)"><tspan x="0" y="0" fill="#080045" font-family="'MyriadPro-BoldCond'" font-size="18">Portfolio</tspan><tspan x="55.601" y="0" fill="#080045" font-family="'MyriadPro-BoldCond'" font-size="4"> Creation</tspan></text>
</g>
<g>
	<g>
		<g>
			<g>
				<g>
					<linearGradient id="SVGID_1_" gradientUnits="userSpaceOnUse" x1="9.3838" y1="53.3105" x2="11.8506" y2="53.3105">
						<stop  offset="0" style="stop-color:#EB3349"/>
						<stop  offset="1" style="stop-color:#F45C43"/>
					</linearGradient>
					<path fill="url(#SVGID_1_)" d="M11.492,52.446l-0.004-0.006c-0.48-0.48-1.26-0.482-1.742-0.002
						c-0.482,0.479-0.482,1.26-0.004,1.742c0.48,0.48,1.264,0.484,1.744,0.004C11.969,53.706,11.973,52.929,11.492,52.446z"/>
				</g>
			</g>
		</g>
		<g>
			<g>
				<g>
					<linearGradient id="SVGID_2_" gradientUnits="userSpaceOnUse" x1="11.9004" y1="56.3086" x2="14.3662" y2="56.3086">
						<stop  offset="0" style="stop-color:#EB3349"/>
						<stop  offset="1" style="stop-color:#F45C43"/>
					</linearGradient>
					<path fill="url(#SVGID_2_)" d="M14.008,55.444l-0.004-0.006c-0.48-0.48-1.26-0.482-1.742-0.002
						c-0.48,0.48-0.482,1.26-0.002,1.742c0.479,0.48,1.262,0.484,1.742,0.004C14.484,56.702,14.488,55.927,14.008,55.444z"/>
				</g>
			</g>
		</g>
		<g>
			<g>
				<g>
					<linearGradient id="SVGID_3_" gradientUnits="userSpaceOnUse" x1="6.3223" y1="50.7109" x2="8.79" y2="50.7109">
						<stop  offset="0" style="stop-color:#EB3349"/>
						<stop  offset="1" style="stop-color:#F45C43"/>
					</linearGradient>
					<path fill="url(#SVGID_3_)" d="M8.432,49.847l-0.006-0.004c-0.479-0.482-1.26-0.484-1.74-0.004
						c-0.482,0.48-0.484,1.26-0.004,1.742c0.48,0.48,1.262,0.484,1.744,0.006C8.908,51.106,8.912,50.329,8.432,49.847z"/>
				</g>
			</g>
		</g>
		<g>
			<g>
				<g>
					<linearGradient id="SVGID_4_" gradientUnits="userSpaceOnUse" x1="52.6816" y1="10.1675" x2="55.1475" y2="10.1675">
						<stop  offset="0" style="stop-color:#EB3349"/>
						<stop  offset="1" style="stop-color:#F45C43"/>
					</linearGradient>
					<path fill="url(#SVGID_4_)" d="M54.789,9.303l-0.006-0.004c-0.479-0.482-1.258-0.484-1.74-0.004
						c-0.48,0.48-0.482,1.26-0.002,1.742c0.479,0.48,1.262,0.484,1.742,0.004C55.266,10.561,55.27,9.785,54.789,9.303z"/>
				</g>
			</g>
		</g>
		<g>
			<g>
				<g>
					<linearGradient id="SVGID_5_" gradientUnits="userSpaceOnUse" x1="55.2207" y1="13.2866" x2="57.6885" y2="13.2866">
						<stop  offset="0" style="stop-color:#EB3349"/>
						<stop  offset="1" style="stop-color:#F45C43"/>
					</linearGradient>
					<path fill="url(#SVGID_5_)" d="M57.33,12.422l-0.006-0.006c-0.48-0.48-1.26-0.482-1.74-0.002
						c-0.482,0.48-0.484,1.258-0.004,1.74s1.262,0.486,1.744,0.006S57.811,12.904,57.33,12.422z"/>
				</g>
			</g>
		</g>
		<g>
			<g>
				<g>
					<linearGradient id="SVGID_6_" gradientUnits="userSpaceOnUse" x1="49.5713" y1="7.6167" x2="52.0381" y2="7.6167">
						<stop  offset="0" style="stop-color:#EB3349"/>
						<stop  offset="1" style="stop-color:#F45C43"/>
					</linearGradient>
					<path fill="url(#SVGID_6_)" d="M51.68,6.752l-0.004-0.006c-0.48-0.48-1.26-0.482-1.742-0.002s-0.482,1.26-0.004,1.74
						c0.48,0.482,1.264,0.486,1.744,0.006C52.156,8.012,52.16,7.234,51.68,6.752z"/>
				</g>
			</g>
		</g>
		<g>
			<linearGradient id="SVGID_7_" gradientUnits="userSpaceOnUse" x1="0.0039" y1="32" x2="64.0039" y2="32">
				<stop  offset="0" style="stop-color:#EB3349"/>
				<stop  offset="1" style="stop-color:#F45C43"/>
			</linearGradient>
			<path fill="url(#SVGID_7_)" d="M6.646,51.546l1.762-1.754c-8.75-11.59-7.834-28.196,2.736-38.728S38.322-0.324,49.881,8.467
				l1.76-1.754C39.111-3.031,20.939-2.172,9.406,9.32C-2.127,20.811-3.053,38.979,6.646,51.546z M54.602,54.681
				c11.535-11.492,12.459-29.661,2.76-42.228l-1.76,1.754c8.75,11.59,7.832,28.196-2.736,38.728
				c-10.57,10.533-27.18,11.391-38.736,2.598l-1.76,1.756C24.898,67.032,43.07,66.171,54.602,54.681z"/>
		</g>
	</g>
	<g>
		<linearGradient id="SVGID_8_" gradientUnits="userSpaceOnUse" x1="12.6338" y1="32.001" x2="51.375" y2="32.001">
			<stop  offset="0" style="stop-color:#EB3349"/>
			<stop  offset="1" style="stop-color:#F45C43"/>
		</linearGradient>
		<path fill-rule="evenodd" clip-rule="evenodd" fill="url(#SVGID_8_)" d="M49.822,15.836c-5.936,0-11.869,0-17.805,0H15.969
			c-0.701,0-1.404-0.01-2.105,0.006c-0.715,0.014-1.117,0.383-1.205,1.09c-0.027,0.215-0.021,0.434-0.021,0.65v20.612
			c0,0.637-0.008,1.271,0.004,1.906c0.012,0.684,0.359,1.129,1.006,1.334c0.293,0.094,0.592,0.102,0.893,0.102
			c5.496,0,10.99,0,16.484,0c-0.002,0.785-0.002,1.572-0.002,2.359c0,0.686,0,1.373,0,2.063c-1.576,0-3.152,0-4.73,0
			c-0.41,0-0.813,0.047-1.102,0.373c-0.299,0.336-0.398,0.734-0.207,1.164c0.201,0.461,0.563,0.676,1.068,0.674
			c2.002-0.004,4.006-0.002,6.01-0.002c2.039,0,4.076,0.006,6.111-0.002c0.646-0.004,1.086-0.424,1.129-1.039
			c0.039-0.518-0.367-1.02-0.939-1.129c-0.193-0.039-0.398-0.039-0.598-0.039c-1.51-0.002-3.02,0-4.529,0
			c-0.002-0.66-0.002-1.32-0.002-1.98c0-0.814,0.002-1.629-0.002-2.441c5.521,0,11.045-0.002,16.564-0.002
			c1.184,0,1.578-0.389,1.578-1.559c0.002-7.522,0.002-15.046,0-22.569C51.373,16.219,50.99,15.836,49.822,15.836z M49.367,38.577
			c0,0.881-0.137,1.033-1.006,1.033c-10.904,0.002-21.809,0.002-32.711,0c-0.867,0-1.008-0.154-1.008-1.033V18.859
			c0-1.008,0.094-1.102,1.133-1.102h16.254c5.387,0,10.771,0,16.156,0c0.199,0,0.404-0.006,0.6,0.02
			c0.361,0.047,0.58,0.244,0.58,0.631c0,0.133,0.004,0.268,0.004,0.4C49.369,25.398,49.369,31.987,49.367,38.577z"/>
		<g>
			<linearGradient id="SVGID_9_" gradientUnits="userSpaceOnUse" x1="33.0645" y1="19.7217" x2="37.6104" y2="19.7217">
				<stop  offset="0" style="stop-color:#EB3349"/>
				<stop  offset="1" style="stop-color:#F45C43"/>
			</linearGradient>
			<path fill-rule="evenodd" clip-rule="evenodd" fill="url(#SVGID_9_)" d="M36.965,18.607c0.213,0.715,0.424,1.428,0.637,2.143
				c0.025,0.088-0.006,0.096-0.082,0.078c-0.465-0.119-0.928-0.234-1.393-0.352c-0.033-0.008-0.078-0.008-0.086-0.051
				c-0.014-0.09-0.061-0.07-0.109-0.035c-0.098,0.066-0.193,0.059-0.303,0.025c-0.814-0.236-1.629-0.467-2.443-0.699
				c-0.039-0.012-0.084-0.016-0.121-0.055c0.051-0.037,0.109-0.043,0.162-0.057c1.209-0.324,2.418-0.645,3.627-0.967
				c0.031-0.008,0.061-0.02,0.092-0.031C36.951,18.607,36.959,18.607,36.965,18.607z"/>
			<linearGradient id="SVGID_10_" gradientUnits="userSpaceOnUse" x1="21.5674" y1="25.5933" x2="25.6104" y2="25.5933">
				<stop  offset="0" style="stop-color:#EB3349"/>
				<stop  offset="1" style="stop-color:#F45C43"/>
			</linearGradient>
			<path fill-rule="evenodd" clip-rule="evenodd" fill="url(#SVGID_10_)" d="M23.381,29.564c0.049-0.031,0.049-0.066,0.059-0.096
				c0.238-0.799,0.477-1.596,0.719-2.395c0.02-0.072,0.021-0.137,0.002-0.207c-0.285-1.012-0.566-2.023-0.854-3.033
				c-0.025-0.094-0.004-0.127,0.09-0.152c0.529-0.146,1.057-0.301,1.586-0.449c0.08-0.021,0.125-0.059,0.152-0.141
				c0.148-0.455,0.303-0.908,0.453-1.363c0.01-0.029,0.035-0.066,0.014-0.09c-0.025-0.033-0.064-0.008-0.098,0
				c-1.271,0.328-2.543,0.656-3.813,0.982c-0.141,0.037-0.141,0.037-0.102,0.182c0.559,2.119,1.119,4.238,1.68,6.357
				C23.305,29.293,23.342,29.424,23.381,29.564z"/>
			<linearGradient id="SVGID_11_" gradientUnits="userSpaceOnUse" x1="24.958" y1="36.6934" x2="30.291" y2="36.6934">
				<stop  offset="0" style="stop-color:#EB3349"/>
				<stop  offset="1" style="stop-color:#F45C43"/>
			</linearGradient>
			<path fill-rule="evenodd" clip-rule="evenodd" fill="url(#SVGID_11_)" d="M30.291,36.761c-0.043-0.043-0.088-0.043-0.127-0.055
				c-0.355-0.096-0.713-0.191-1.068-0.287c-1.344-0.359-2.686-0.721-4.029-1.08c-0.113-0.029-0.125-0.021-0.094,0.088
				c0.244,0.848,0.488,1.695,0.73,2.547c0.021,0.08,0.055,0.107,0.133,0.074c0.025-0.012,0.055-0.016,0.082-0.023
				c1.379-0.395,2.756-0.787,4.133-1.182C30.129,36.821,30.209,36.808,30.291,36.761z"/>
			<linearGradient id="SVGID_12_" gradientUnits="userSpaceOnUse" x1="22.875" y1="28.4741" x2="42.4395" y2="28.4741">
				<stop  offset="0" style="stop-color:#EB3349"/>
				<stop  offset="1" style="stop-color:#F45C43"/>
			</linearGradient>
			<path fill-rule="evenodd" clip-rule="evenodd" fill="url(#SVGID_12_)" d="M42.439,22.867c-0.113,0.414-0.23,0.828-0.342,1.242
				c-0.633,2.33-1.266,4.662-1.898,6.994c-0.625,2.304-1.248,4.608-1.873,6.913c-0.057,0.205-0.018,0.199-0.246,0.139
				c-1.664-0.438-3.328-0.873-4.992-1.311c-2.137-0.563-4.275-1.125-6.412-1.686c-1.219-0.32-2.436-0.641-3.654-0.959
				c-0.023-0.008-0.047-0.016-0.072-0.02c-0.072-0.014-0.086-0.055-0.066-0.123c0.068-0.246,0.135-0.492,0.201-0.738
				c0.771-2.847,1.543-5.692,2.314-8.536c0.535-1.979,1.074-3.957,1.609-5.938c0.025-0.096,0.066-0.102,0.15-0.078
				c1.426,0.375,2.854,0.75,4.281,1.125c1.959,0.514,3.918,1.027,5.875,1.543c1.691,0.445,3.383,0.891,5.074,1.336
				c0.018,0.004,0.035,0.008,0.051,0.012C42.439,22.811,42.439,22.84,42.439,22.867z M25.508,29.783
				c-0.008,0.08,0.064,0.07,0.107,0.082c2.404,0.646,4.811,1.289,7.215,1.934c1.721,0.461,3.439,0.924,5.16,1.385
				c0.135,0.037,0.135,0.037,0.172-0.098c0.24-0.864,0.48-1.729,0.721-2.595c0.604-2.174,1.207-4.346,1.814-6.52
				c0.027-0.1,0.006-0.135-0.092-0.16c-0.746-0.193-1.488-0.393-2.232-0.59c-2.328-0.617-4.656-1.234-6.984-1.854
				c-1.098-0.291-2.195-0.58-3.291-0.875c-0.104-0.027-0.143-0.01-0.166,0.096c-0.055,0.238-0.123,0.475-0.186,0.711
				c-0.699,2.65-1.4,5.301-2.1,7.953C25.6,29.428,25.555,29.604,25.508,29.783z"/>
			<linearGradient id="SVGID_13_" gradientUnits="userSpaceOnUse" x1="21.5674" y1="25.5933" x2="25.6104" y2="25.5933">
				<stop  offset="0" style="stop-color:#EB3349"/>
				<stop  offset="1" style="stop-color:#F45C43"/>
			</linearGradient>
			<path fill-rule="evenodd" clip-rule="evenodd" fill="url(#SVGID_13_)" d="M23.381,29.564c-0.039-0.141-0.076-0.271-0.111-0.404
				c-0.561-2.119-1.121-4.238-1.68-6.357c-0.039-0.145-0.039-0.145,0.102-0.182c1.27-0.326,2.541-0.654,3.813-0.982
				c0.033-0.008,0.072-0.033,0.098,0c0.021,0.023-0.004,0.061-0.014,0.09c-0.15,0.455-0.305,0.908-0.453,1.363
				c-0.027,0.082-0.072,0.119-0.152,0.141c-0.529,0.148-1.057,0.303-1.586,0.449c-0.094,0.025-0.115,0.059-0.09,0.152
				c0.287,1.01,0.568,2.021,0.854,3.033c0.02,0.07,0.018,0.135-0.002,0.207c-0.242,0.799-0.48,1.596-0.719,2.395
				C23.43,29.498,23.43,29.533,23.381,29.564z"/>
			<linearGradient id="SVGID_14_" gradientUnits="userSpaceOnUse" x1="24.958" y1="36.6934" x2="30.291" y2="36.6934">
				<stop  offset="0" style="stop-color:#EB3349"/>
				<stop  offset="1" style="stop-color:#F45C43"/>
			</linearGradient>
			<path fill-rule="evenodd" clip-rule="evenodd" fill="url(#SVGID_14_)" d="M30.291,36.761c-0.082,0.047-0.162,0.061-0.24,0.082
				c-1.377,0.395-2.754,0.787-4.133,1.182c-0.027,0.008-0.057,0.012-0.082,0.023c-0.078,0.033-0.111,0.006-0.133-0.074
				c-0.242-0.852-0.486-1.699-0.73-2.547c-0.031-0.109-0.02-0.117,0.094-0.088c1.344,0.359,2.686,0.721,4.029,1.08
				c0.355,0.096,0.713,0.191,1.068,0.287C30.203,36.718,30.248,36.718,30.291,36.761z"/>
			<linearGradient id="SVGID_15_" gradientUnits="userSpaceOnUse" x1="27.5791" y1="28.2861" x2="37.3643" y2="28.2861">
				<stop  offset="0" style="stop-color:#EB3349"/>
				<stop  offset="1" style="stop-color:#F45C43"/>
			</linearGradient>
			<path fill-rule="evenodd" clip-rule="evenodd" fill="url(#SVGID_15_)" d="M37.363,31.238c0.012,0.078-0.068,0.035-0.125,0.02
				c-0.75-0.199-1.5-0.4-2.252-0.6c-2.432-0.65-4.865-1.299-7.297-1.947c-0.135-0.035-0.139-0.041-0.051-0.143
				c0.561-0.641,1.123-1.281,1.682-1.924c0.063-0.072,0.092-0.061,0.133,0.018c0.223,0.412,0.449,0.822,0.67,1.234
				c0.045,0.086,0.074,0.088,0.143,0.023c0.678-0.643,1.359-1.281,2.039-1.92c0.09-0.086,0.096-0.086,0.16,0.021
				c0.35,0.582,0.699,1.162,1.043,1.746c0.051,0.086,0.084,0.088,0.156,0.023c0.891-0.779,1.785-1.557,2.68-2.336
				c0.055-0.045,0.107-0.092,0.16-0.139c0.055-0.047,0.078-0.035,0.088,0.035c0.039,0.316,0.084,0.633,0.125,0.949
				c0.09,0.684,0.18,1.369,0.27,2.055c0.088,0.682,0.176,1.363,0.264,2.045C37.285,30.664,37.32,30.928,37.363,31.238z"/>
			<linearGradient id="SVGID_16_" gradientUnits="userSpaceOnUse" x1="29.2207" y1="24.1455" x2="31.3838" y2="24.1455">
				<stop  offset="0" style="stop-color:#EB3349"/>
				<stop  offset="1" style="stop-color:#F45C43"/>
			</linearGradient>
			<path fill-rule="evenodd" clip-rule="evenodd" fill="url(#SVGID_16_)" d="M29.221,24.121c0-0.523,0.334-0.963,0.803-1.016
				c0.59-0.066,1.205,0.281,1.344,0.979c0.084,0.418-0.156,0.805-0.598,0.996c-0.281,0.123-0.576,0.146-0.873,0.07
				c-0.252-0.066-0.422-0.238-0.539-0.467C29.266,24.508,29.221,24.32,29.221,24.121z"/>
		</g>
	</g>
</g>
</svg>
