<?xml version="1.0" encoding="utf-8"?>
<!-- Generator: Adobe Illustrator 16.0.0, SVG Export Plug-In . SVG Version: 6.00 Build 0)  -->
<!DOCTYPE svg PUBLIC "-//W3C//DTD SVG 1.1//EN" "http://www.w3.org/Graphics/SVG/1.1/DTD/svg11.dtd">
<svg version="1.1" id="Layer_1" xmlns="http://www.w3.org/2000/svg" xmlns:xlink="http://www.w3.org/1999/xlink" x="0px" y="0px"
	 width="64px" height="64px" viewBox="0 0 64 64" enable-background="new 0 0 64 64" xml:space="preserve">
<g>
	<text transform="matrix(1 0 0 1 -2.1265 -2.3457)" fill="#080045" font-family="'MyriadPro-BoldCond'" font-size="18">E-Commerce</text>
</g>
<g>
	<g>
		<g>
			<g>
				<g>
					<linearGradient id="SVGID_1_" gradientUnits="userSpaceOnUse" x1="9.3794" y1="53.3105" x2="11.8457" y2="53.3105">
						<stop  offset="0" style="stop-color:#EB3349"/>
						<stop  offset="1" style="stop-color:#F45C43"/>
					</linearGradient>
					<path fill="url(#SVGID_1_)" d="M11.488,52.445l-0.005-0.006c-0.48-0.48-1.26-0.482-1.741-0.002
						c-0.482,0.479-0.483,1.26-0.003,1.742c0.48,0.48,1.262,0.484,1.744,0.004C11.964,53.705,11.968,52.928,11.488,52.445z"/>
				</g>
			</g>
		</g>
		<g>
			<g>
				<g>
					<linearGradient id="SVGID_2_" gradientUnits="userSpaceOnUse" x1="11.8955" y1="56.3086" x2="14.3618" y2="56.3086">
						<stop  offset="0" style="stop-color:#EB3349"/>
						<stop  offset="1" style="stop-color:#F45C43"/>
					</linearGradient>
					<path fill="url(#SVGID_2_)" d="M14.004,55.443l-0.005-0.006c-0.48-0.48-1.26-0.482-1.742-0.002
						c-0.481,0.48-0.483,1.26-0.003,1.742c0.48,0.48,1.262,0.484,1.744,0.004C14.48,56.701,14.484,55.926,14.004,55.443z"/>
				</g>
			</g>
		</g>
		<g>
			<g>
				<g>
					<linearGradient id="SVGID_3_" gradientUnits="userSpaceOnUse" x1="6.3179" y1="50.7109" x2="8.7847" y2="50.7109">
						<stop  offset="0" style="stop-color:#EB3349"/>
						<stop  offset="1" style="stop-color:#F45C43"/>
					</linearGradient>
					<path fill="url(#SVGID_3_)" d="M8.427,49.846l-0.005-0.004c-0.48-0.482-1.26-0.484-1.742-0.004
						c-0.481,0.48-0.483,1.26-0.003,1.742c0.48,0.48,1.262,0.484,1.744,0.006C8.903,51.105,8.907,50.328,8.427,49.846z"/>
				</g>
			</g>
		</g>
		<g>
			<g>
				<g>
					<linearGradient id="SVGID_4_" gradientUnits="userSpaceOnUse" x1="52.6768" y1="10.168" x2="55.1426" y2="10.168">
						<stop  offset="0" style="stop-color:#EB3349"/>
						<stop  offset="1" style="stop-color:#F45C43"/>
					</linearGradient>
					<path fill="url(#SVGID_4_)" d="M54.785,9.303l-0.006-0.004c-0.479-0.482-1.258-0.484-1.74-0.004
						c-0.481,0.48-0.483,1.26-0.002,1.742c0.479,0.48,1.262,0.484,1.742,0.004C55.261,10.561,55.265,9.785,54.785,9.303z"/>
				</g>
			</g>
		</g>
		<g>
			<g>
				<g>
					<linearGradient id="SVGID_5_" gradientUnits="userSpaceOnUse" x1="55.2163" y1="13.2871" x2="57.6831" y2="13.2871">
						<stop  offset="0" style="stop-color:#EB3349"/>
						<stop  offset="1" style="stop-color:#F45C43"/>
					</linearGradient>
					<path fill="url(#SVGID_5_)" d="M57.326,12.422l-0.006-0.006c-0.48-0.48-1.26-0.482-1.74-0.002
						c-0.482,0.48-0.484,1.258-0.004,1.74s1.262,0.486,1.743,0.006C57.801,13.68,57.805,12.904,57.326,12.422z"/>
				</g>
			</g>
		</g>
		<g>
			<g>
				<g>
					<linearGradient id="SVGID_6_" gradientUnits="userSpaceOnUse" x1="49.5664" y1="7.6172" x2="52.0332" y2="7.6172">
						<stop  offset="0" style="stop-color:#EB3349"/>
						<stop  offset="1" style="stop-color:#F45C43"/>
					</linearGradient>
					<path fill="url(#SVGID_6_)" d="M51.675,6.752L51.67,6.746c-0.479-0.48-1.259-0.482-1.741-0.002s-0.483,1.26-0.004,1.74
						c0.48,0.482,1.264,0.486,1.744,0.006C52.152,8.012,52.156,7.234,51.675,6.752z"/>
				</g>
			</g>
		</g>
		<g>
			<linearGradient id="SVGID_7_" gradientUnits="userSpaceOnUse" x1="-4.882813e-004" y1="32" x2="63.9995" y2="32">
				<stop  offset="0" style="stop-color:#EB3349"/>
				<stop  offset="1" style="stop-color:#F45C43"/>
			</linearGradient>
			<path fill="url(#SVGID_7_)" d="M6.643,51.545l1.761-1.754c-8.75-11.59-7.833-28.195,2.736-38.727
				C21.709,0.533,38.318-0.324,49.876,8.467l1.76-1.754C39.106-3.031,20.935-2.172,9.401,9.32
				C-2.131,20.811-3.057,38.979,6.643,51.545z M54.597,54.68c11.534-11.492,12.459-29.66,2.76-42.227l-1.76,1.754
				c8.75,11.59,7.832,28.195-2.737,38.727c-10.569,10.533-27.179,11.391-38.736,2.598l-1.76,1.756
				C24.894,67.031,43.066,66.17,54.597,54.68z"/>
		</g>
	</g>
	<linearGradient id="SVGID_8_" gradientUnits="userSpaceOnUse" x1="12.6299" y1="32" x2="51.3691" y2="32">
		<stop  offset="0" style="stop-color:#EB3349"/>
		<stop  offset="1" style="stop-color:#F45C43"/>
	</linearGradient>
	<path fill-rule="evenodd" clip-rule="evenodd" fill="url(#SVGID_8_)" d="M49.817,15.836c-5.936,0-11.869,0-17.804,0H15.964
		c-0.702,0-1.405-0.01-2.105,0.006c-0.715,0.014-1.117,0.383-1.206,1.09c-0.027,0.215-0.021,0.434-0.021,0.65v20.611
		c0,0.637-0.008,1.271,0.004,1.906c0.012,0.684,0.358,1.129,1.006,1.334c0.292,0.094,0.591,0.102,0.893,0.102
		c5.495,0,10.989,0,16.484,0c-0.003,0.785-0.002,1.572-0.002,2.359c0,0.686,0,1.373,0,2.063c-1.576,0-3.153,0-4.73,0
		c-0.41,0-0.813,0.047-1.102,0.373c-0.3,0.336-0.398,0.734-0.208,1.164c0.201,0.461,0.563,0.676,1.068,0.674
		c2.003-0.004,4.006-0.002,6.011-0.002c2.038,0,4.075,0.006,6.11-0.002c0.646-0.004,1.086-0.424,1.129-1.039
		c0.039-0.518-0.367-1.02-0.939-1.129c-0.193-0.039-0.398-0.039-0.598-0.039c-1.51-0.002-3.02,0-4.529,0
		c-0.001-0.66-0.002-1.32-0.002-1.98c0-0.814,0.003-1.629-0.002-2.441c5.521,0,11.045-0.002,16.564-0.002
		c1.184,0,1.578-0.389,1.578-1.559c0.002-7.521,0.002-15.045,0-22.568C51.368,16.219,50.985,15.836,49.817,15.836z M49.362,38.576
		c0,0.881-0.137,1.033-1.006,1.033c-10.904,0.002-21.808,0.002-32.711,0c-0.867,0-1.008-0.154-1.008-1.033V18.859
		c0-1.008,0.094-1.102,1.134-1.102h16.254c5.386,0,10.771,0,16.155,0c0.199,0,0.404-0.006,0.6,0.02
		c0.361,0.047,0.58,0.244,0.58,0.631c0,0.133,0.004,0.268,0.004,0.4C49.364,25.398,49.364,31.986,49.362,38.576z"/>
	
		<linearGradient id="SVGID_9_" gradientUnits="userSpaceOnUse" x1="109.2119" y1="28.999" x2="131.8682" y2="28.999" gradientTransform="matrix(-1 0 0 1 152.5391 0)">
		<stop  offset="0" style="stop-color:#EB3349"/>
		<stop  offset="1" style="stop-color:#F45C43"/>
	</linearGradient>
	<path fill-rule="evenodd" clip-rule="evenodd" fill="url(#SVGID_9_)" d="M42.196,22.314c0.888,0,1.272,0.422,1.086,1.285
		c-0.559,2.598-1.143,5.189-1.728,7.783c-0.113,0.502-0.448,0.754-0.969,0.77c-0.31,0.008-0.62,0.002-0.932,0.002
		c-3.846,0-7.69,0-11.535,0c-0.429,0-0.431,0.002-0.332,0.426c0.198,0.838,0.398,1.678,0.599,2.518
		c0.12,0.506,0.12,0.508,0.629,0.508c3.256,0,6.515-0.002,9.772,0c0.206,0,0.415,0.008,0.619,0.035
		c0.51,0.072,0.861,0.471,0.837,0.936c-0.026,0.482-0.42,0.867-0.928,0.896c-0.196,0.01-0.393,0.012-0.587,0.002
		c-0.221-0.014-0.295,0.047-0.277,0.293c0.057,0.814-0.503,1.432-1.275,1.443c-0.885,0.012-1.461-0.533-1.427-1.393
		c0.011-0.281-0.064-0.35-0.335-0.348c-1.208,0.012-2.417,0.018-3.625-0.002c-0.354-0.008-0.463,0.07-0.447,0.447
		c0.031,0.756-0.565,1.295-1.349,1.295c-0.779,0-1.351-0.545-1.363-1.301c-0.006-0.434-0.006-0.434-0.463-0.434
		c-0.801-0.002-1.135-0.258-1.317-1.018c-1.231-5.148-2.465-10.293-3.689-15.439c-0.071-0.297-0.19-0.424-0.51-0.416
		c-0.435,0.012-0.878,0.064-1.307-0.041c-0.503-0.129-0.736-0.527-0.661-1.09c0.055-0.402,0.396-0.68,0.861-0.682
		c0.714-0.006,1.428-0.004,2.14-0.002c0.617,0.002,0.892,0.229,1.036,0.838c0.178,0.76,0.378,1.52,0.534,2.283
		c0.069,0.332,0.216,0.412,0.538,0.412c2.75-0.012,5.501-0.008,8.254-0.008C36.763,22.314,39.479,22.314,42.196,22.314z
		 M26.847,24.541c-0.02-0.389-0.01-0.406-0.563-0.385c-0.147,0.004-0.41-0.143-0.427,0.172c-0.022,0.451,0.148,0.631,0.591,0.631
		C26.736,25.016,26.865,24.877,26.847,24.541z M40.242,24.559c-0.016,0.332,0.13,0.416,0.431,0.404
		c0.407-0.016,0.57-0.172,0.542-0.641c-0.02-0.33-0.312-0.092-0.429-0.174C40.26,24.148,40.262,24.16,40.242,24.559z M29.547,24.549
		c0,0.311,0.097,0.432,0.415,0.414c0.396-0.021,0.396-0.035,0.425-0.514c0.022-0.377-0.219-0.293-0.476-0.305
		C29.642,24.092,29.547,24.234,29.547,24.549z M35.368,24.965c0.358,0.02,0.364-0.174,0.384-0.445
		c0.033-0.441-0.257-0.352-0.514-0.377c-0.303-0.027-0.355,0.121-0.315,0.336C34.929,24.934,34.959,24.941,35.368,24.965z
		 M38.45,24.557c-0.006,0.322,0.119,0.406,0.423,0.41c0.323,0.004,0.408-0.119,0.411-0.426c0.004-0.32-0.109-0.445-0.423-0.385
		C38.529,24.088,38.454,24.252,38.45,24.557z M36.658,24.557c-0.006,0.322,0.117,0.408,0.423,0.41
		c0.319,0.002,0.415-0.117,0.415-0.426c-0.002-0.314-0.102-0.461-0.415-0.383C36.735,24.086,36.665,24.252,36.658,24.557z
		 M33.126,24.551c-0.002,0.316,0.109,0.416,0.421,0.416c0.315,0.002,0.419-0.105,0.415-0.418c-0.005-0.307-0.077-0.475-0.403-0.391
		C33.222,24.094,33.128,24.238,33.126,24.551z M31.752,24.967c0.308,0,0.423-0.096,0.423-0.412c0-0.314-0.102-0.424-0.417-0.416
		c-0.295,0.01-0.483,0.057-0.4,0.393C31.297,24.865,31.437,24.967,31.752,24.967z M27.806,24.549c0,0.314,0.107,0.418,0.421,0.418
		c0.313,0.002,0.418-0.102,0.417-0.416c-0.002-0.313-0.091-0.459-0.415-0.395C27.907,24.096,27.808,24.234,27.806,24.549z
		 M29.964,26.756c0.313,0.002,0.421-0.102,0.421-0.416c0-0.318-0.111-0.418-0.423-0.418c-0.313,0-0.457,0.098-0.398,0.42
		C29.501,26.668,29.654,26.754,29.964,26.756z M38.889,26.756c0.348,0.018,0.382-0.154,0.395-0.438
		c0.014-0.346-0.152-0.391-0.439-0.396c-0.334-0.006-0.435,0.137-0.378,0.432C38.399,26.721,38.61,26.742,38.889,26.756z
		 M37.099,26.754c0.348,0.02,0.386-0.152,0.396-0.438c0.012-0.348-0.162-0.387-0.445-0.395c-0.34-0.008-0.431,0.143-0.374,0.434
		C36.603,26.727,36.822,26.742,37.099,26.754z M35.754,26.332c0.008-0.328-0.122-0.408-0.425-0.41
		c-0.326-0.004-0.411,0.125-0.413,0.428c-0.004,0.324,0.121,0.443,0.433,0.391C35.689,26.807,35.746,26.627,35.754,26.332z
		 M33.551,26.756c0.324,0.006,0.408-0.115,0.411-0.422c0.004-0.322-0.113-0.412-0.421-0.412c-0.317,0-0.455,0.107-0.398,0.424
		C33.081,26.68,33.25,26.75,33.551,26.756z M31.776,26.756c0.344,0.016,0.386-0.15,0.396-0.436c0.012-0.344-0.152-0.391-0.439-0.398
		c-0.34-0.01-0.427,0.145-0.378,0.439C31.286,26.717,31.495,26.742,31.776,26.756z M28.641,26.318
		c0.018-0.346-0.149-0.387-0.437-0.396c-0.344-0.014-0.39,0.152-0.396,0.439c-0.006,0.334,0.136,0.438,0.429,0.377
		C28.607,26.809,28.629,26.598,28.641,26.318z M39.284,28.125c0.006-0.32-0.118-0.412-0.423-0.416
		c-0.326-0.002-0.409,0.127-0.411,0.432c-0.004,0.32,0.109,0.449,0.425,0.387C39.21,28.598,39.279,28.428,39.284,28.125z
		 M37.056,28.545c0.287-0.008,0.451-0.051,0.439-0.395c-0.011-0.291-0.067-0.449-0.402-0.439c-0.292,0.008-0.483,0.057-0.419,0.404
		C36.62,28.42,36.721,28.557,37.056,28.545z M35.751,28.115c0.013-0.334-0.133-0.4-0.431-0.404
		c-0.333-0.006-0.398,0.145-0.404,0.438c-0.008,0.336,0.14,0.432,0.441,0.383C35.706,28.602,35.742,28.402,35.751,28.115z
		 M33.962,28.125c0.006-0.32-0.113-0.412-0.423-0.416c-0.324-0.002-0.409,0.127-0.413,0.432c-0.004,0.32,0.111,0.449,0.427,0.387
		C33.889,28.598,33.958,28.428,33.962,28.125z M32.173,28.135c0-0.313-0.102-0.424-0.417-0.426c-0.315,0-0.419,0.109-0.417,0.424
		c0.002,0.309,0.087,0.463,0.415,0.395C32.077,28.592,32.173,28.447,32.173,28.135z M29.938,28.545
		c0.277-0.012,0.461-0.033,0.447-0.387c-0.012-0.283-0.055-0.459-0.396-0.445c-0.277,0.01-0.5,0.029-0.423,0.383
		C29.515,28.398,29.59,28.561,29.938,28.545z M28.641,28.115c0.014-0.338-0.138-0.398-0.433-0.404
		c-0.338-0.008-0.393,0.15-0.401,0.439c-0.01,0.338,0.138,0.43,0.439,0.377C28.597,28.602,28.631,28.4,28.641,28.115z
		 M38.452,29.871c-0.004,0.32,0.109,0.414,0.419,0.416c0.321,0.002,0.41-0.117,0.41-0.424c0.003-0.316-0.099-0.455-0.418-0.393
		C38.531,29.406,38.454,29.568,38.452,29.871z M37.099,30.285c0.348,0.018,0.382-0.16,0.395-0.441
		c0.016-0.354-0.166-0.379-0.443-0.389c-0.34-0.01-0.433,0.135-0.37,0.424C36.608,30.252,36.822,30.273,37.099,30.285z
		 M35.332,29.453c-0.32-0.004-0.413,0.111-0.415,0.42c-0.002,0.322,0.121,0.41,0.427,0.414c0.321,0.002,0.449-0.113,0.391-0.426
		C35.8,29.527,35.632,29.459,35.332,29.453z M33.13,29.9c-0.02,0.354,0.174,0.371,0.447,0.385c0.36,0.02,0.366-0.18,0.38-0.449
		c0.021-0.354-0.159-0.41-0.444-0.367C33.145,29.398,33.147,29.631,33.13,29.9z M31.782,30.285c0.352,0.02,0.374-0.17,0.389-0.443
		c0.018-0.357-0.168-0.375-0.443-0.387c-0.35-0.018-0.417,0.152-0.37,0.441C31.286,30.258,31.507,30.271,31.782,30.285z
		 M29.972,30.287c0.326,0.004,0.406-0.127,0.413-0.428c0.006-0.33-0.134-0.4-0.431-0.406c-0.326-0.004-0.447,0.111-0.386,0.424
		C29.503,30.211,29.673,30.281,29.972,30.287z M28.212,29.455c-0.332-0.012-0.398,0.129-0.405,0.426
		c-0.006,0.33,0.136,0.4,0.433,0.406c0.33,0.008,0.437-0.127,0.384-0.434C28.694,29.51,28.503,29.465,28.212,29.455z M26.525,25.93
		c-0.144,0.012-0.319,0.018-0.257,0.215c0.069,0.211-0.041,0.557,0.324,0.592c0.326,0.033,0.218-0.242,0.239-0.326
		C26.861,26.094,26.827,25.904,26.525,25.93z M40.477,26.736c0.394-0.02,0.263-0.391,0.337-0.607
		c0.071-0.209-0.127-0.188-0.259-0.197c-0.308-0.023-0.319,0.182-0.301,0.463C40.27,26.502,40.187,26.752,40.477,26.736z"/>
</g>
</svg>
