<?xml version="1.0" encoding="utf-8"?>
<!-- Generator: Adobe Illustrator 16.0.0, SVG Export Plug-In . SVG Version: 6.00 Build 0)  -->
<!DOCTYPE svg PUBLIC "-//W3C//DTD SVG 1.1//EN" "http://www.w3.org/Graphics/SVG/1.1/DTD/svg11.dtd">
<svg version="1.1" id="Layer_1" xmlns="http://www.w3.org/2000/svg" xmlns:xlink="http://www.w3.org/1999/xlink" x="0px" y="0px"
	 width="64px" height="64px" viewBox="0 0 64 64" enable-background="new 0 0 64 64" xml:space="preserve">
<g>
	<g>
		<g>
			<g>
				<g>
					<linearGradient id="SVGID_1_" gradientUnits="userSpaceOnUse" x1="9.3799" y1="53.3105" x2="11.8467" y2="53.3105">
						<stop  offset="0" style="stop-color:#EB3349"/>
						<stop  offset="1" style="stop-color:#F45C43"/>
					</linearGradient>
					<path fill="url(#SVGID_1_)" d="M11.488,52.446l-0.004-0.006c-0.48-0.48-1.26-0.482-1.742-0.002
						c-0.482,0.479-0.482,1.26-0.004,1.742c0.48,0.48,1.264,0.484,1.744,0.004C11.965,53.706,11.969,52.929,11.488,52.446z"/>
				</g>
			</g>
		</g>
		<g>
			<g>
				<g>
					<linearGradient id="SVGID_2_" gradientUnits="userSpaceOnUse" x1="11.8965" y1="56.3086" x2="14.3623" y2="56.3086">
						<stop  offset="0" style="stop-color:#EB3349"/>
						<stop  offset="1" style="stop-color:#F45C43"/>
					</linearGradient>
					<path fill="url(#SVGID_2_)" d="M14.004,55.444L14,55.438c-0.48-0.48-1.26-0.482-1.742-0.002c-0.48,0.48-0.482,1.26-0.002,1.742
						c0.479,0.48,1.262,0.484,1.742,0.004C14.48,56.702,14.484,55.927,14.004,55.444z"/>
				</g>
			</g>
		</g>
		<g>
			<g>
				<g>
					<linearGradient id="SVGID_3_" gradientUnits="userSpaceOnUse" x1="6.3184" y1="50.7109" x2="8.7861" y2="50.7109">
						<stop  offset="0" style="stop-color:#EB3349"/>
						<stop  offset="1" style="stop-color:#F45C43"/>
					</linearGradient>
					<path fill="url(#SVGID_3_)" d="M8.428,49.847l-0.006-0.004c-0.479-0.482-1.26-0.484-1.74-0.004
						c-0.482,0.48-0.484,1.26-0.004,1.742c0.48,0.48,1.262,0.484,1.744,0.006C8.904,51.106,8.908,50.329,8.428,49.847z"/>
				</g>
			</g>
		</g>
		<g>
			<g>
				<g>
					<linearGradient id="SVGID_4_" gradientUnits="userSpaceOnUse" x1="52.6777" y1="10.167" x2="55.1436" y2="10.167">
						<stop  offset="0" style="stop-color:#EB3349"/>
						<stop  offset="1" style="stop-color:#F45C43"/>
					</linearGradient>
					<path fill="url(#SVGID_4_)" d="M54.785,9.302l-0.006-0.004c-0.479-0.482-1.258-0.484-1.74-0.004
						c-0.48,0.48-0.482,1.26-0.002,1.742c0.479,0.48,1.262,0.484,1.742,0.004C55.262,10.56,55.266,9.785,54.785,9.302z"/>
				</g>
			</g>
		</g>
		<g>
			<g>
				<g>
					<linearGradient id="SVGID_5_" gradientUnits="userSpaceOnUse" x1="55.2168" y1="13.2861" x2="57.6846" y2="13.2861">
						<stop  offset="0" style="stop-color:#EB3349"/>
						<stop  offset="1" style="stop-color:#F45C43"/>
					</linearGradient>
					<path fill="url(#SVGID_5_)" d="M57.326,12.421l-0.006-0.006c-0.48-0.48-1.26-0.482-1.74-0.002
						c-0.482,0.48-0.484,1.258-0.004,1.74s1.262,0.486,1.744,0.006S57.807,12.904,57.326,12.421z"/>
				</g>
			</g>
		</g>
		<g>
			<g>
				<g>
					<linearGradient id="SVGID_6_" gradientUnits="userSpaceOnUse" x1="49.5674" y1="7.6162" x2="52.0342" y2="7.6162">
						<stop  offset="0" style="stop-color:#EB3349"/>
						<stop  offset="1" style="stop-color:#F45C43"/>
					</linearGradient>
					<path fill="url(#SVGID_6_)" d="M51.676,6.751l-0.004-0.006c-0.48-0.48-1.26-0.482-1.742-0.002s-0.482,1.26-0.004,1.74
						c0.48,0.482,1.264,0.486,1.744,0.006C52.152,8.011,52.156,7.234,51.676,6.751z"/>
				</g>
			</g>
		</g>
		<g>
			<linearGradient id="SVGID_7_" gradientUnits="userSpaceOnUse" x1="0" y1="32" x2="64" y2="32">
				<stop  offset="0" style="stop-color:#EB3349"/>
				<stop  offset="1" style="stop-color:#F45C43"/>
			</linearGradient>
			<path fill="url(#SVGID_7_)" d="M6.643,51.546l1.762-1.754c-8.75-11.59-7.834-28.197,2.736-38.728S38.318-0.325,49.877,8.466
				l1.76-1.754C39.107-3.032,20.936-2.172,9.402,9.32C-2.131,20.81-3.057,38.979,6.643,51.546z M54.598,54.681
				c11.535-11.492,12.459-29.662,2.76-42.228l-1.76,1.754c8.75,11.59,7.832,28.197-2.736,38.728
				c-10.57,10.533-27.18,11.391-38.736,2.598l-1.76,1.756C24.895,67.032,43.066,66.171,54.598,54.681z"/>
		</g>
	</g>
	<g>
		<linearGradient id="SVGID_8_" gradientUnits="userSpaceOnUse" x1="12.6338" y1="32" x2="51.375" y2="32">
			<stop  offset="0" style="stop-color:#EB3349"/>
			<stop  offset="1" style="stop-color:#F45C43"/>
		</linearGradient>
		<path fill-rule="evenodd" clip-rule="evenodd" fill="url(#SVGID_8_)" d="M49.822,15.835c-5.936,0-11.869,0-17.805,0H15.969
			c-0.701,0-1.404-0.01-2.105,0.004c-0.715,0.016-1.117,0.385-1.205,1.09c-0.027,0.215-0.021,0.436-0.021,0.652v20.612
			c0,0.637-0.008,1.271,0.004,1.906c0.012,0.684,0.359,1.127,1.006,1.334c0.293,0.094,0.592,0.102,0.893,0.102
			c5.496-0.002,10.99,0,16.484-0.002c-0.002,0.787-0.002,1.574-0.002,2.359c0,0.688,0,1.375,0,2.063c-1.576,0-3.152,0.002-4.73,0
			c-0.41,0-0.813,0.049-1.102,0.375c-0.299,0.336-0.398,0.734-0.207,1.164c0.201,0.461,0.563,0.676,1.068,0.674
			c2.002-0.006,4.006-0.002,6.01-0.002c2.039,0,4.076,0.004,6.111-0.004c0.646-0.002,1.086-0.422,1.129-1.037
			c0.039-0.52-0.367-1.02-0.939-1.131c-0.193-0.037-0.398-0.037-0.598-0.037c-1.51-0.002-3.02-0.002-4.529,0
			c-0.002-0.66-0.002-1.32-0.002-1.98c0-0.816,0.002-1.629-0.002-2.443c5.521,0,11.045,0,16.564,0c1.184,0,1.578-0.389,1.578-1.559
			c0.002-7.523,0.002-15.045,0-22.569C51.373,16.218,50.99,15.835,49.822,15.835z M49.367,38.576c0,0.881-0.137,1.033-1.006,1.033
			c-10.904,0.002-21.809,0.002-32.711,0c-0.867,0-1.008-0.154-1.008-1.033V18.859c0-1.01,0.094-1.102,1.133-1.102h16.254
			c5.387,0,10.771,0,16.156,0c0.199,0,0.404-0.006,0.6,0.018c0.361,0.047,0.58,0.244,0.58,0.633c0,0.133,0.004,0.268,0.004,0.4
			C49.369,25.398,49.369,31.986,49.367,38.576z"/>
		<g>
			<g>
				<linearGradient id="SVGID_9_" gradientUnits="userSpaceOnUse" x1="23.5996" y1="31.8926" x2="38.4443" y2="31.8926">
					<stop  offset="0" style="stop-color:#EB3349"/>
					<stop  offset="1" style="stop-color:#F45C43"/>
				</linearGradient>
				<path fill-rule="evenodd" clip-rule="evenodd" fill="url(#SVGID_9_)" d="M27.299,37.926c-0.74,0-1.479,0.01-2.219-0.006
					c-1.002-0.018-1.551-0.686-1.301-1.666c0.283-1.121,0.629-2.227,0.977-3.33c0.129-0.402,0.184-0.668-0.383-0.627
					c-0.352,0.023-0.629-0.131-0.742-0.488c-0.105-0.333,0.074-0.583,0.307-0.774c0.908-0.748,1.342-1.688,1.428-2.879
					c0.078-1.15,1.129-1.984,2.229-1.967c1.086,0.016,1.936,0.834,2.119,1.984c0.096,0.602,0.045,1.189-0.08,1.762
					c-0.092,0.418,0.031,0.598,0.352,0.836c0.572,0.422,1.096,0.917,1.621,1.399c0.336,0.311,0.629,0.318,0.959-0.006
					c0.527-0.518,1.061-1.032,1.613-1.518c0.219-0.189,0.209-0.35,0.105-0.574c-0.475-1.014-0.234-2.084-0.211-3.129
					c0.01-0.414,0.33-0.709,0.725-0.865c1.898-0.758,3.6,0.393,3.613,2.428c0.006,0.648-0.018,1.283-0.408,1.84
					c-0.104,0.148-0.189,0.311-0.041,0.469c0.621,0.66,0.494,1.467,0.42,2.245c-0.121,1.275-0.289,2.543-0.439,3.813
					c-0.082,0.684-0.408,1.049-1.154,1.063c-1.932,0.037-1.965,0.023-2.182-1.877c-0.102-0.902-0.217-1.807-0.334-2.709
					c-0.045-0.34-0.043-0.699,0.35-0.783c0.428-0.092,0.51,0.283,0.58,0.604c0.037,0.168,0.078,0.338,0.086,0.51
					c0.023,0.59,0.51,0.73,0.912,0.801c0.414,0.072,0.807-0.176,1.055-0.545c0.063-0.096,0.074-0.236,0.074-0.359
					c0.01-0.74,0.553-1.596-0.303-2.17c-0.664-0.441-2.203-0.094-2.857,0.538c-0.375,0.357-0.732,0.734-1.133,1.061
					c-0.65,0.527-1.215,0.531-1.873,0.012c-0.48-0.381-0.932-0.805-1.385-1.221c-0.418-0.381-0.809-0.489-1.301-0.084
					c-0.525,0.434-1.164,0.646-1.857,0.592c-0.443-0.035-0.697,0.152-0.822,0.564c-0.354,1.152-0.711,2.305-1.066,3.457
					c-0.127,0.408,0.029,0.633,0.447,0.635c1.406,0.012,2.811,0.01,4.215,0.004c0.564,0,0.57-0.387,0.465-0.771
					c-0.213-0.783-0.465-1.557-0.693-2.336c-0.055-0.189-0.111-0.381-0.137-0.574c-0.029-0.24,0.053-0.449,0.303-0.527
					c0.258-0.082,0.465,0.061,0.535,0.277c0.389,1.189,0.92,2.35,1.006,3.611c0.057,0.811-0.439,1.26-1.281,1.279
					C28.828,37.938,28.064,37.924,27.299,37.926z M25.328,31.058c0.744-0.195,0.979-0.404,1.547-1.35
					c0.174-0.293,0.344-0.691,0.775-0.449c0.414,0.234,0.201,0.617,0.051,0.914c-0.191,0.377-0.439,0.723-0.693,1.131
					c1.398-0.354,1.85-1.129,1.736-2.861c-0.051-0.752-0.441-1.211-1.088-1.273c-0.631-0.061-1.277,0.408-1.338,1.115
					C26.232,29.294,25.926,30.203,25.328,31.058z M37.443,28.617c0.004-1.396-0.305-1.707-1.68-1.67
					c-0.299,0.01-0.682-0.084-0.758,0.373c-0.072,0.436,0.072,0.785,0.502,0.949c0.275,0.104,0.566,0.166,0.848,0.25
					c0.252,0.076,0.465,0.205,0.418,0.51c-0.047,0.334-0.309,0.418-0.598,0.402c-0.172-0.008-0.34-0.08-0.508-0.086
					c-0.199-0.008-0.447-0.281-0.586,0.006c-0.117,0.254,0.133,0.449,0.293,0.625c0.186,0.209,0.436,0.301,0.719,0.318
					C36.977,30.353,37.436,29.787,37.443,28.617z M36.338,36.969c0.609-0.008,0.816-0.303,0.766-1.279
					c-0.037-0.756-0.477-0.135-0.723-0.154c-0.201-0.016-0.379-0.068-0.561-0.135c-0.115-0.043-0.309-0.084-0.303,0.055
					c0.02,0.434,0.055,0.879,0.176,1.293C35.771,37.02,36.102,36.953,36.338,36.969z"/>
				<linearGradient id="SVGID_10_" gradientUnits="userSpaceOnUse" x1="23.4072" y1="31.8926" x2="38.6348" y2="31.8926">
					<stop  offset="0" style="stop-color:#EB3349"/>
					<stop  offset="1" style="stop-color:#F45C43"/>
				</linearGradient>
				<path fill="url(#SVGID_10_)" d="M36.188,38.133c-1.49,0-1.574-0.324-1.773-2.055c-0.102-0.902-0.217-1.805-0.334-2.707
					c-0.029-0.234-0.111-0.863,0.5-0.994c0.59-0.133,0.732,0.408,0.809,0.744l0.014,0.064c0.033,0.154,0.068,0.316,0.076,0.482
					c0.016,0.41,0.313,0.545,0.754,0.621c0.316,0.057,0.637-0.127,0.863-0.463c0.018-0.027,0.041-0.096,0.041-0.252
					c0.004-0.225,0.047-0.449,0.092-0.668c0.127-0.619,0.18-1.016-0.311-1.342c-0.162-0.11-0.408-0.167-0.711-0.167
					c-0.684,0-1.504,0.293-1.908,0.68c-0.098,0.096-0.195,0.189-0.291,0.287c-0.271,0.266-0.551,0.539-0.852,0.785
					c-0.729,0.592-1.379,0.594-2.111,0.014c-0.418-0.33-0.814-0.693-1.197-1.047l-0.199-0.184c-0.408-0.373-0.674-0.387-1.049-0.076
					c-0.57,0.471-1.264,0.684-1.996,0.635c-0.344-0.043-0.521,0.092-0.623,0.428l-1.068,3.459c-0.043,0.141-0.045,0.25-0.004,0.305
					c0.037,0.053,0.135,0.082,0.271,0.082c1.404,0.01,2.809,0.01,4.211,0.006c0.102,0,0.232-0.018,0.287-0.088
					c0.039-0.051,0.07-0.168-0.006-0.443c-0.129-0.48-0.275-0.955-0.42-1.432c-0.092-0.301-0.184-0.6-0.271-0.902
					c-0.053-0.182-0.115-0.389-0.143-0.604c-0.045-0.359,0.117-0.633,0.434-0.734c0.33-0.107,0.67,0.07,0.775,0.402
					c0.092,0.281,0.193,0.563,0.295,0.844c0.32,0.898,0.652,1.826,0.721,2.814c0.029,0.42-0.08,0.779-0.313,1.037
					c-0.258,0.279-0.656,0.434-1.156,0.445c-0.301,0.006-0.602,0.008-0.902,0.008l-1.393-0.002l-1.305,0.004
					c-0.307,0-0.611-0.002-0.918-0.01c-0.557-0.01-1.012-0.209-1.281-0.563c-0.266-0.35-0.336-0.814-0.201-1.342
					c0.295-1.172,0.676-2.373,0.98-3.34c0.023-0.076,0.098-0.307,0.072-0.359l0,0c0,0-0.078-0.031-0.26-0.02
					c-0.029,0.002-0.057,0.002-0.082,0.002c-0.42,0-0.73-0.227-0.857-0.623c-0.111-0.356,0.012-0.686,0.369-0.981
					c0.842-0.693,1.273-1.564,1.357-2.744c0.08-1.184,1.15-2.145,2.387-2.145c1.213,0.018,2.139,0.881,2.34,2.146
					c0.092,0.563,0.064,1.164-0.082,1.832c-0.07,0.324,0,0.432,0.281,0.641c0.514,0.381,0.994,0.822,1.459,1.25l0.176,0.162
					c0.271,0.248,0.441,0.248,0.695-0.002c0.48-0.469,1.039-1.014,1.623-1.526c0.131-0.113,0.139-0.168,0.055-0.35
					c-0.383-0.822-0.322-1.668-0.266-2.488c0.018-0.242,0.033-0.484,0.039-0.725c0.01-0.453,0.318-0.832,0.846-1.041
					c0.412-0.162,0.824-0.246,1.227-0.246c1.523,0,2.639,1.199,2.648,2.852c0.006,0.688-0.023,1.354-0.441,1.951
					c-0.117,0.168-0.092,0.193-0.061,0.229c0.641,0.68,0.559,1.512,0.486,2.245l-0.016,0.148c-0.09,0.959-0.209,1.93-0.324,2.865
					l-0.115,0.951c-0.098,0.816-0.535,1.219-1.342,1.232C36.564,38.129,36.365,38.133,36.188,38.133z M34.744,32.742
					c-0.025,0-0.053,0.002-0.082,0.01c-0.174,0.037-0.256,0.139-0.201,0.57c0.117,0.904,0.232,1.809,0.334,2.713
					c0.188,1.65,0.195,1.715,1.393,1.715c0.176,0,0.373-0.004,0.596-0.008c0.613-0.01,0.895-0.27,0.967-0.895l0.115-0.951
					c0.115-0.936,0.234-1.902,0.326-2.855l0.014-0.152c0.07-0.715,0.137-1.389-0.383-1.944c-0.271-0.287-0.049-0.605,0.023-0.709
					c0.355-0.506,0.379-1.084,0.373-1.73c-0.01-1.453-0.939-2.471-2.266-2.471c-0.354,0-0.719,0.074-1.086,0.221
					c-0.18,0.07-0.594,0.279-0.604,0.691c-0.006,0.246-0.023,0.496-0.039,0.744c-0.057,0.805-0.111,1.566,0.23,2.299
					c0.109,0.236,0.176,0.518-0.152,0.801c-0.572,0.504-1.129,1.043-1.605,1.51c-0.398,0.395-0.801,0.398-1.223,0.01l-0.176-0.162
					c-0.455-0.42-0.93-0.856-1.428-1.225c-0.363-0.27-0.539-0.514-0.426-1.029c0.135-0.621,0.16-1.174,0.078-1.689
					c-0.172-1.076-0.949-1.809-1.934-1.824l0,0c-1.068,0-1.967,0.803-2.033,1.789c-0.092,1.273-0.582,2.258-1.496,3.012
					c-0.301,0.248-0.291,0.436-0.248,0.571c0.074,0.236,0.24,0.355,0.492,0.355l0.055-0.002c0.043-0.004,0.082-0.004,0.119-0.004
					c0.086,0,0.342,0,0.477,0.184c0.145,0.195,0.055,0.473-0.016,0.697c-0.387,1.223-0.703,2.244-0.975,3.318
					c-0.105,0.412-0.059,0.762,0.135,1.016c0.197,0.258,0.547,0.404,0.984,0.414c0.305,0.006,0.607,0.006,0.91,0.006l1.477-0.002
					l1.221,0.002c0.297,0,0.596-0.002,0.895-0.008c0.393-0.01,0.697-0.121,0.881-0.322c0.164-0.18,0.236-0.434,0.215-0.752
					c-0.064-0.934-0.389-1.836-0.701-2.711c-0.102-0.285-0.203-0.568-0.297-0.855c-0.016-0.047-0.105-0.213-0.297-0.154
					c-0.055,0.018-0.201,0.064-0.17,0.322c0.023,0.182,0.078,0.365,0.131,0.543c0.088,0.301,0.178,0.6,0.27,0.898
					c0.146,0.479,0.293,0.959,0.426,1.441c0.094,0.348,0.074,0.602-0.061,0.777c-0.119,0.156-0.318,0.236-0.59,0.236
					c-1.404,0.006-2.811,0.008-4.215-0.004c-0.27,0-0.463-0.08-0.578-0.238c-0.117-0.16-0.135-0.377-0.053-0.645l1.068-3.457
					c0.152-0.506,0.492-0.746,1.018-0.699c0.625,0.051,1.229-0.141,1.723-0.547c0.52-0.432,0.998-0.417,1.551,0.09l0.201,0.184
					c0.379,0.348,0.77,0.707,1.174,1.029c0.59,0.465,1.045,0.465,1.633-0.012c0.287-0.234,0.561-0.502,0.824-0.762
					c0.1-0.098,0.197-0.193,0.297-0.289c0.475-0.458,1.387-0.79,2.172-0.79c0.379,0,0.697,0.08,0.924,0.232
					c0.729,0.487,0.586,1.18,0.473,1.737c-0.041,0.209-0.082,0.408-0.084,0.594c0,0.129-0.012,0.318-0.105,0.463
					c-0.313,0.461-0.773,0.701-1.248,0.629c-0.283-0.049-1.039-0.18-1.07-0.982c-0.006-0.135-0.035-0.271-0.068-0.418l-0.012-0.059
					C34.941,32.879,34.887,32.742,34.744,32.742z M36.34,37.16c-0.045-0.004-0.08-0.004-0.113-0.004v-0.189l-0.033,0.189
					c-0.004,0-0.006,0-0.008,0c-0.215,0-0.576-0.004-0.676-0.355c-0.131-0.447-0.166-0.926-0.184-1.338
					c-0.004-0.078,0.021-0.152,0.074-0.205c0.037-0.041,0.109-0.09,0.23-0.09c0.094,0,0.191,0.029,0.254,0.053
					c0.154,0.055,0.324,0.109,0.51,0.123c0.025-0.004,0.111-0.053,0.16-0.084c0.115-0.066,0.234-0.137,0.365-0.137
					c0.23,0,0.357,0.188,0.375,0.557c0.033,0.639-0.043,1.008-0.252,1.23C36.885,37.076,36.664,37.156,36.34,37.16z M35.715,35.566
					c0.018,0.359,0.055,0.762,0.162,1.129c0.014,0.047,0.041,0.078,0.281,0.078l0.068,0.193v-0.193c0.043,0,0.084,0.002,0.123,0.004
					c0.201-0.002,0.332-0.043,0.412-0.129c0.131-0.137,0.178-0.439,0.152-0.949c-0.006-0.098-0.018-0.154-0.027-0.184
					c-0.039,0.018-0.096,0.051-0.137,0.074c-0.113,0.066-0.229,0.137-0.357,0.137c-0.26-0.02-0.457-0.08-0.639-0.146
					C35.742,35.576,35.729,35.57,35.715,35.566z M26.596,31.605l0.25-0.403c0.082-0.131,0.162-0.254,0.24-0.377
					c0.164-0.252,0.318-0.49,0.445-0.738c0.217-0.426,0.219-0.551,0.023-0.662c-0.211-0.117-0.307,0.016-0.465,0.293l-0.051,0.088
					c-0.594,0.988-0.873,1.23-1.664,1.436l-0.504,0.133l0.299-0.426c0.561-0.797,0.873-1.674,0.957-2.682
					c0.066-0.768,0.773-1.357,1.547-1.287c0.744,0.072,1.203,0.602,1.262,1.451c0.119,1.828-0.408,2.686-1.881,3.059L26.596,31.605z
					 M27.404,28.994c0.107,0,0.223,0.033,0.338,0.1c0.563,0.316,0.291,0.854,0.143,1.141c-0.133,0.264-0.275,0.49-0.428,0.723
					c0.906-0.375,1.189-1.072,1.096-2.5c-0.031-0.463-0.215-1.027-0.914-1.096c-0.502-0.039-1.076,0.311-1.129,0.939
					c-0.074,0.879-0.313,1.668-0.725,2.395c0.33-0.172,0.543-0.447,0.924-1.086l0.049-0.082
					C26.889,29.3,27.066,28.994,27.404,28.994z M36.215,30.49L36.215,30.49c-0.043,0-0.088,0-0.133-0.004
					c-0.359-0.023-0.645-0.15-0.85-0.383l-0.068-0.07c-0.164-0.17-0.412-0.426-0.254-0.762c0.1-0.211,0.26-0.242,0.346-0.242
					c0.107,0,0.201,0.043,0.285,0.078c0.047,0.021,0.105,0.047,0.135,0.047c0.096,0.004,0.193,0.025,0.291,0.049
					c0.072,0.018,0.145,0.035,0.219,0.039h0.051c0.277,0,0.33-0.115,0.35-0.24c0.016-0.111,0.006-0.211-0.285-0.299
					c-0.094-0.027-0.189-0.053-0.283-0.078c-0.193-0.053-0.389-0.105-0.576-0.176c-0.496-0.189-0.717-0.602-0.625-1.16
					c0.09-0.535,0.535-0.535,0.701-0.535l0.201,0.004c0.113-0.004,0.184-0.004,0.252-0.004c0.652,0,1.037,0.107,1.287,0.357
					c0.316,0.316,0.379,0.832,0.377,1.508C37.625,30.166,36.857,30.49,36.215,30.49z M35.27,29.414
					c-0.049,0.107,0.014,0.191,0.17,0.354l0.076,0.08c0.141,0.156,0.332,0.24,0.59,0.256c0.039,0.004,0.082,0.006,0.113,0.006
					c0.254,0,1.023-0.006,1.033-1.492c0.002-0.688-0.074-1.045-0.266-1.236s-0.559-0.258-1.217-0.242l-0.252-0.002
					c-0.232,0-0.295,0.039-0.322,0.217c-0.063,0.373,0.063,0.615,0.381,0.738c0.176,0.066,0.359,0.113,0.541,0.162
					c0.098,0.027,0.195,0.053,0.291,0.082c0.422,0.125,0.609,0.369,0.555,0.723c-0.029,0.211-0.164,0.566-0.727,0.566l-0.07-0.002
					c-0.096-0.004-0.191-0.025-0.287-0.047c-0.074-0.018-0.146-0.035-0.219-0.039c-0.1-0.004-0.191-0.043-0.271-0.078
					C35.352,29.441,35.299,29.419,35.27,29.414z"/>
			</g>
			<g>
				<linearGradient id="SVGID_11_" gradientUnits="userSpaceOnUse" x1="22.4746" y1="23.2539" x2="41.5342" y2="23.2539">
					<stop  offset="0" style="stop-color:#EB3349"/>
					<stop  offset="1" style="stop-color:#F45C43"/>
				</linearGradient>
				<path fill-rule="evenodd" clip-rule="evenodd" fill="url(#SVGID_11_)" d="M41.533,24.193c0.023,1.111-0.32,2.096-0.969,2.975
					c-0.195,0.266-0.424,0.656-0.822,0.391c-0.453-0.297-0.133-0.65,0.064-0.951c1.676-2.57,0.441-5.871-2.533-6.625
					c-1.779-0.453-3.314,0.074-4.506,1.484c-0.754,0.896-0.795,0.91-1.506,0.021c-1.443-1.807-4.135-2.193-5.971-0.857
					c-1.957,1.428-2.424,3.945-1.102,5.951c0.08,0.123,0.162,0.246,0.227,0.379c0.107,0.223,0.094,0.438-0.117,0.596
					c-0.221,0.166-0.43,0.074-0.598-0.09c-0.486-0.477-0.783-1.074-0.99-1.711c-0.711-2.199,0.23-4.762,2.197-6.012
					c2.088-1.328,4.764-1.133,6.48,0.537c0.469,0.457,0.709,0.529,1.215,0.023c1.467-1.471,3.771-1.852,5.688-0.984
					C40.381,20.263,41.408,21.937,41.533,24.193z"/>
				<linearGradient id="SVGID_12_" gradientUnits="userSpaceOnUse" x1="22.2871" y1="23.2544" x2="41.7256" y2="23.2544">
					<stop  offset="0" style="stop-color:#EB3349"/>
					<stop  offset="1" style="stop-color:#F45C43"/>
				</linearGradient>
				<path fill="url(#SVGID_12_)" d="M39.996,27.839c-0.119,0-0.24-0.041-0.359-0.121c-0.172-0.113-0.275-0.25-0.307-0.408
					c-0.053-0.266,0.107-0.502,0.25-0.711l0.064-0.098c0.777-1.189,0.939-2.596,0.447-3.857c-0.482-1.234-1.527-2.137-2.865-2.477
					c-1.689-0.432-3.158,0.057-4.313,1.424c-0.406,0.482-0.631,0.746-0.922,0.746c-0.283,0-0.496-0.25-0.879-0.73
					c-0.791-0.99-2.035-1.582-3.33-1.582c-0.873,0-1.697,0.264-2.379,0.762c-1.881,1.369-2.326,3.764-1.055,5.689l0.025,0.043
					c0.076,0.115,0.154,0.232,0.213,0.357c0.158,0.328,0.094,0.631-0.174,0.832c-0.266,0.201-0.576,0.162-0.846-0.105
					c-0.453-0.443-0.793-1.029-1.039-1.789c-0.732-2.264,0.248-4.943,2.275-6.232c0.928-0.59,1.986-0.902,3.063-0.902
					c1.385,0,2.684,0.52,3.656,1.465c0.23,0.227,0.371,0.318,0.484,0.318s0.26-0.094,0.459-0.295
					c0.951-0.951,2.295-1.498,3.688-1.498c0.762,0,1.527,0.164,2.217,0.477c2.092,0.945,3.221,2.639,3.354,5.037
					c0.023,1.121-0.316,2.16-1.006,3.098l-0.049,0.064C40.521,27.554,40.316,27.839,39.996,27.839z M36.068,19.632
					c0.404,0,0.826,0.055,1.252,0.164c1.461,0.369,2.6,1.357,3.127,2.709c0.539,1.377,0.363,2.912-0.48,4.207l-0.07,0.102
					c-0.1,0.146-0.213,0.313-0.189,0.422c0.01,0.053,0.057,0.107,0.139,0.162c0.059,0.039,0.107,0.057,0.15,0.057
					c0.125,0,0.252-0.178,0.363-0.332l0.051-0.068c0.641-0.867,0.953-1.828,0.932-2.857c-0.125-2.236-1.178-3.82-3.129-4.703
					c-0.639-0.287-1.352-0.441-2.059-0.441c-1.291,0-2.537,0.506-3.416,1.387c-0.615,0.615-0.98,0.471-1.482-0.021
					c-0.9-0.873-2.104-1.355-3.389-1.355c-1.002,0-1.99,0.291-2.857,0.842c-1.887,1.201-2.795,3.689-2.117,5.793
					c0.229,0.699,0.535,1.234,0.943,1.633c0.084,0.082,0.215,0.172,0.35,0.074c0.084-0.064,0.156-0.156,0.059-0.359
					c-0.053-0.111-0.121-0.215-0.189-0.316l-0.025-0.041c-1.387-2.104-0.902-4.715,1.148-6.211c0.748-0.545,1.648-0.834,2.605-0.834
					c1.41,0,2.766,0.646,3.629,1.727c0.219,0.275,0.469,0.586,0.58,0.586c0.113,0,0.363-0.297,0.629-0.609
					C33.58,20.208,34.74,19.632,36.068,19.632z"/>
			</g>
		</g>
	</g>
</g>
</svg>
