<?xml version="1.0" encoding="utf-8"?>
<!-- Generator: Adobe Illustrator 16.0.0, SVG Export Plug-In . SVG Version: 6.00 Build 0)  -->
<!DOCTYPE svg PUBLIC "-//W3C//DTD SVG 1.1//EN" "http://www.w3.org/Graphics/SVG/1.1/DTD/svg11.dtd">
<svg version="1.1" id="Layer_1" xmlns="http://www.w3.org/2000/svg" xmlns:xlink="http://www.w3.org/1999/xlink" x="0px" y="0px"
	 width="64px" height="64px" viewBox="0 0 64 64" enable-background="new 0 0 64 64" xml:space="preserve">
<g>
	<text transform="matrix(1 0 0 1 5.8379 -4.0845)" fill="#080045" font-family="'MyriadPro-BoldCond'" font-size="18">Parallax</text>
</g>
<g>
	<g>
		<g>
			<g>
				<g>
					<linearGradient id="SVGID_1_" gradientUnits="userSpaceOnUse" x1="9.3838" y1="53.3105" x2="11.8506" y2="53.3105">
						<stop  offset="0" style="stop-color:#EB3349"/>
						<stop  offset="1" style="stop-color:#F45C43"/>
					</linearGradient>
					<path fill="url(#SVGID_1_)" d="M11.492,52.446l-0.004-0.006c-0.48-0.48-1.26-0.482-1.742-0.002
						c-0.482,0.479-0.482,1.26-0.004,1.742c0.48,0.48,1.264,0.484,1.744,0.004C11.969,53.706,11.973,52.929,11.492,52.446z"/>
				</g>
			</g>
		</g>
		<g>
			<g>
				<g>
					<linearGradient id="SVGID_2_" gradientUnits="userSpaceOnUse" x1="11.9004" y1="56.3086" x2="14.3662" y2="56.3086">
						<stop  offset="0" style="stop-color:#EB3349"/>
						<stop  offset="1" style="stop-color:#F45C43"/>
					</linearGradient>
					<path fill="url(#SVGID_2_)" d="M14.008,55.444l-0.004-0.006c-0.48-0.48-1.26-0.482-1.742-0.002
						c-0.48,0.48-0.482,1.26-0.002,1.742c0.479,0.48,1.262,0.484,1.742,0.004C14.484,56.702,14.488,55.927,14.008,55.444z"/>
				</g>
			</g>
		</g>
		<g>
			<g>
				<g>
					<linearGradient id="SVGID_3_" gradientUnits="userSpaceOnUse" x1="6.3223" y1="50.7109" x2="8.79" y2="50.7109">
						<stop  offset="0" style="stop-color:#EB3349"/>
						<stop  offset="1" style="stop-color:#F45C43"/>
					</linearGradient>
					<path fill="url(#SVGID_3_)" d="M8.432,49.847l-0.006-0.004c-0.479-0.482-1.26-0.484-1.74-0.004
						c-0.482,0.48-0.484,1.26-0.004,1.742c0.48,0.48,1.262,0.484,1.744,0.006C8.908,51.106,8.912,50.329,8.432,49.847z"/>
				</g>
			</g>
		</g>
		<g>
			<g>
				<g>
					<linearGradient id="SVGID_4_" gradientUnits="userSpaceOnUse" x1="52.6816" y1="10.1675" x2="55.1475" y2="10.1675">
						<stop  offset="0" style="stop-color:#EB3349"/>
						<stop  offset="1" style="stop-color:#F45C43"/>
					</linearGradient>
					<path fill="url(#SVGID_4_)" d="M54.789,9.303l-0.006-0.004c-0.479-0.482-1.258-0.484-1.74-0.004
						c-0.48,0.48-0.482,1.26-0.002,1.742c0.479,0.48,1.262,0.484,1.742,0.004C55.266,10.561,55.27,9.785,54.789,9.303z"/>
				</g>
			</g>
		</g>
		<g>
			<g>
				<g>
					<linearGradient id="SVGID_5_" gradientUnits="userSpaceOnUse" x1="55.2207" y1="13.2866" x2="57.6885" y2="13.2866">
						<stop  offset="0" style="stop-color:#EB3349"/>
						<stop  offset="1" style="stop-color:#F45C43"/>
					</linearGradient>
					<path fill="url(#SVGID_5_)" d="M57.33,12.422l-0.006-0.006c-0.48-0.48-1.26-0.482-1.74-0.002
						c-0.482,0.48-0.484,1.258-0.004,1.74s1.262,0.486,1.744,0.006S57.811,12.904,57.33,12.422z"/>
				</g>
			</g>
		</g>
		<g>
			<g>
				<g>
					<linearGradient id="SVGID_6_" gradientUnits="userSpaceOnUse" x1="49.5713" y1="7.6167" x2="52.0381" y2="7.6167">
						<stop  offset="0" style="stop-color:#EB3349"/>
						<stop  offset="1" style="stop-color:#F45C43"/>
					</linearGradient>
					<path fill="url(#SVGID_6_)" d="M51.68,6.752l-0.004-0.006c-0.48-0.48-1.26-0.482-1.742-0.002s-0.482,1.26-0.004,1.74
						c0.48,0.482,1.264,0.486,1.744,0.006C52.156,8.012,52.16,7.234,51.68,6.752z"/>
				</g>
			</g>
		</g>
		<g>
			<linearGradient id="SVGID_7_" gradientUnits="userSpaceOnUse" x1="0.0039" y1="32" x2="64.0039" y2="32">
				<stop  offset="0" style="stop-color:#EB3349"/>
				<stop  offset="1" style="stop-color:#F45C43"/>
			</linearGradient>
			<path fill="url(#SVGID_7_)" d="M6.646,51.546l1.762-1.754c-8.75-11.59-7.834-28.196,2.736-38.728S38.322-0.324,49.881,8.467
				l1.76-1.754C39.111-3.031,20.939-2.172,9.406,9.32C-2.127,20.811-3.053,38.979,6.646,51.546z M54.602,54.681
				c11.535-11.492,12.459-29.661,2.76-42.228l-1.76,1.754c8.75,11.59,7.832,28.196-2.736,38.728
				c-10.57,10.533-27.18,11.391-38.736,2.598l-1.76,1.756C24.898,67.032,43.07,66.171,54.602,54.681z"/>
		</g>
	</g>
	<g>
		<linearGradient id="SVGID_8_" gradientUnits="userSpaceOnUse" x1="12.6338" y1="32.001" x2="51.375" y2="32.001">
			<stop  offset="0" style="stop-color:#EB3349"/>
			<stop  offset="1" style="stop-color:#F45C43"/>
		</linearGradient>
		<path fill-rule="evenodd" clip-rule="evenodd" fill="url(#SVGID_8_)" d="M49.822,15.836c-5.936,0-11.869,0-17.805,0H15.969
			c-0.701,0-1.404-0.01-2.105,0.006c-0.715,0.014-1.117,0.383-1.205,1.09c-0.027,0.215-0.021,0.434-0.021,0.65v20.612
			c0,0.637-0.008,1.271,0.004,1.906c0.012,0.684,0.359,1.129,1.006,1.334c0.293,0.094,0.592,0.102,0.893,0.102
			c5.496,0,10.99,0,16.484,0c-0.002,0.785-0.002,1.572-0.002,2.359c0,0.686,0,1.373,0,2.063c-1.576,0-3.152,0-4.73,0
			c-0.41,0-0.813,0.047-1.102,0.373c-0.299,0.336-0.398,0.734-0.207,1.164c0.201,0.461,0.563,0.676,1.068,0.674
			c2.002-0.004,4.006-0.002,6.01-0.002c2.039,0,4.076,0.006,6.111-0.002c0.646-0.004,1.086-0.424,1.129-1.039
			c0.039-0.518-0.367-1.02-0.939-1.129c-0.193-0.039-0.398-0.039-0.598-0.039c-1.51-0.002-3.02,0-4.529,0
			c-0.002-0.66-0.002-1.32-0.002-1.98c0-0.814,0.002-1.629-0.002-2.441c5.521,0,11.045-0.002,16.564-0.002
			c1.184,0,1.578-0.389,1.578-1.559c0.002-7.522,0.002-15.046,0-22.569C51.373,16.219,50.99,15.836,49.822,15.836z M49.367,38.577
			c0,0.881-0.137,1.033-1.006,1.033c-10.904,0.002-21.809,0.002-32.711,0c-0.867,0-1.008-0.154-1.008-1.033V18.859
			c0-1.008,0.094-1.102,1.133-1.102h16.254c5.387,0,10.771,0,16.156,0c0.199,0,0.404-0.006,0.6,0.02
			c0.361,0.047,0.58,0.244,0.58,0.631c0,0.133,0.004,0.268,0.004,0.4C49.369,25.398,49.369,31.987,49.367,38.577z"/>
		<linearGradient id="SVGID_9_" gradientUnits="userSpaceOnUse" x1="13.4922" y1="28.75" x2="50.9414" y2="28.75">
			<stop  offset="0" style="stop-color:#EB3349"/>
			<stop  offset="1" style="stop-color:#F45C43"/>
		</linearGradient>
		<path fill="url(#SVGID_9_)" d="M50.066,27.875H35.92c0.086,0.332,0.146,0.672,0.146,1.029c0,0.248-0.029,0.486-0.072,0.721h14.072
			c0.484,0,0.875-0.391,0.875-0.875C50.941,28.268,50.551,27.875,50.066,27.875z M14.367,27.875c-0.484,0-0.875,0.393-0.875,0.875
			c0,0.484,0.391,0.875,0.875,0.875h13.646c-0.041-0.234-0.072-0.473-0.072-0.721c0-0.357,0.061-0.697,0.148-1.029H14.367z"/>
		<g>
			<linearGradient id="SVGID_10_" gradientUnits="userSpaceOnUse" x1="27.0664" y1="29.0005" x2="36.9414" y2="29.0005">
				<stop  offset="0" style="stop-color:#EB3349"/>
				<stop  offset="1" style="stop-color:#F45C43"/>
			</linearGradient>
			<path fill="url(#SVGID_10_)" d="M32.004,33.938c-2.723,0-4.938-2.215-4.938-4.938c0-2.723,2.215-4.938,4.938-4.938
				s4.938,2.215,4.938,4.938C36.941,31.723,34.727,33.938,32.004,33.938z M32.004,25.813c-1.758,0-3.188,1.43-3.188,3.188
				s1.43,3.188,3.188,3.188s3.188-1.43,3.188-3.188S33.762,25.813,32.004,25.813z"/>
		</g>
		
			<linearGradient id="SVGID_11_" gradientUnits="userSpaceOnUse" x1="29.7246" y1="278.7803" x2="34.2852" y2="278.7803" gradientTransform="matrix(1 0 0 -1 0 308.1875)">
			<stop  offset="0" style="stop-color:#EB3349"/>
			<stop  offset="1" style="stop-color:#F45C43"/>
		</linearGradient>
		<path fill="url(#SVGID_11_)" d="M34.1,29.037l-1.643,1.643c-0.25,0.25-0.654,0.25-0.904,0l-1.643-1.643
			c-0.248-0.25-0.248-0.654,0-0.904c0.125-0.123,0.289-0.186,0.451-0.186c0.164,0,0.328,0.063,0.453,0.186l1.189,1.191l1.191-1.191
			c0.125-0.123,0.289-0.186,0.451-0.186c0.164,0,0.328,0.063,0.453,0.186C34.348,28.383,34.348,28.787,34.1,29.037z"/>
		
			<linearGradient id="SVGID_12_" gradientUnits="userSpaceOnUse" x1="29.7246" y1="37.2764" x2="34.2852" y2="37.2764" gradientTransform="matrix(1 0 0 1 0 -17)">
			<stop  offset="0" style="stop-color:#EB3349"/>
			<stop  offset="1" style="stop-color:#F45C43"/>
		</linearGradient>
		<path fill="url(#SVGID_12_)" d="M34.1,20.645l-1.643-1.643c-0.25-0.248-0.654-0.248-0.904,0l-1.643,1.643
			c-0.248,0.25-0.248,0.654,0,0.904c0.125,0.125,0.289,0.188,0.451,0.188c0.164,0,0.328-0.063,0.453-0.188l1.189-1.189l1.191,1.189
			c0.125,0.125,0.289,0.188,0.451,0.188c0.164,0,0.328-0.063,0.453-0.188C34.348,21.299,34.348,20.895,34.1,20.645z"/>
	</g>
</g>
</svg>
