<?xml version="1.0" encoding="utf-8"?>
<!-- Generator: Adobe Illustrator 16.0.0, SVG Export Plug-In . SVG Version: 6.00 Build 0)  -->
<!DOCTYPE svg PUBLIC "-//W3C//DTD SVG 1.1//EN" "http://www.w3.org/Graphics/SVG/1.1/DTD/svg11.dtd">
<svg version="1.1" id="Layer_1" xmlns="http://www.w3.org/2000/svg" xmlns:xlink="http://www.w3.org/1999/xlink" x="0px" y="0px"
	 width="64px" height="64px" viewBox="0 0 64 64" enable-background="new 0 0 64 64" xml:space="preserve">
<g>
	<g>
		<g>
			<g>
				<g>
					<linearGradient id="SVGID_1_" gradientUnits="userSpaceOnUse" x1="9.3838" y1="53.3105" x2="11.8506" y2="53.3105">
						<stop  offset="0" style="stop-color:#EB3349"/>
						<stop  offset="1" style="stop-color:#F45C43"/>
					</linearGradient>
					<path fill="url(#SVGID_1_)" d="M11.492,52.446l-0.004-0.005c-0.48-0.481-1.26-0.483-1.742-0.003
						c-0.482,0.48-0.482,1.26-0.004,1.743c0.48,0.481,1.264,0.485,1.744,0.005C11.969,53.705,11.973,52.927,11.492,52.446z"/>
				</g>
			</g>
		</g>
		<g>
			<g>
				<g>
					<linearGradient id="SVGID_2_" gradientUnits="userSpaceOnUse" x1="11.9004" y1="56.3086" x2="14.3662" y2="56.3086">
						<stop  offset="0" style="stop-color:#EB3349"/>
						<stop  offset="1" style="stop-color:#F45C43"/>
					</linearGradient>
					<path fill="url(#SVGID_2_)" d="M14.008,55.444l-0.004-0.006c-0.48-0.481-1.26-0.482-1.742-0.002
						c-0.48,0.48-0.482,1.26-0.002,1.742c0.479,0.481,1.262,0.485,1.742,0.005C14.484,56.702,14.488,55.925,14.008,55.444z"/>
				</g>
			</g>
		</g>
		<g>
			<g>
				<g>
					<linearGradient id="SVGID_3_" gradientUnits="userSpaceOnUse" x1="6.3223" y1="50.7109" x2="8.79" y2="50.7109">
						<stop  offset="0" style="stop-color:#EB3349"/>
						<stop  offset="1" style="stop-color:#F45C43"/>
					</linearGradient>
					<path fill="url(#SVGID_3_)" d="M8.432,49.847l-0.006-0.005c-0.479-0.482-1.26-0.483-1.74-0.003
						c-0.482,0.48-0.484,1.26-0.004,1.742s1.262,0.486,1.744,0.006C8.908,51.105,8.912,50.328,8.432,49.847z"/>
				</g>
			</g>
		</g>
		<g>
			<g>
				<g>
					<linearGradient id="SVGID_4_" gradientUnits="userSpaceOnUse" x1="52.6816" y1="10.168" x2="55.1475" y2="10.168">
						<stop  offset="0" style="stop-color:#EB3349"/>
						<stop  offset="1" style="stop-color:#F45C43"/>
					</linearGradient>
					<path fill="url(#SVGID_4_)" d="M54.789,9.304l-0.006-0.005c-0.479-0.482-1.258-0.483-1.74-0.003
						c-0.48,0.48-0.482,1.26-0.002,1.741c0.479,0.481,1.262,0.486,1.742,0.005C55.266,10.562,55.27,9.786,54.789,9.304z"/>
				</g>
			</g>
		</g>
		<g>
			<g>
				<g>
					<linearGradient id="SVGID_5_" gradientUnits="userSpaceOnUse" x1="55.2207" y1="13.2866" x2="57.6885" y2="13.2866">
						<stop  offset="0" style="stop-color:#EB3349"/>
						<stop  offset="1" style="stop-color:#F45C43"/>
					</linearGradient>
					<path fill="url(#SVGID_5_)" d="M57.33,12.422l-0.006-0.005c-0.48-0.481-1.26-0.483-1.74-0.003
						c-0.482,0.48-0.484,1.259-0.004,1.742c0.48,0.481,1.262,0.485,1.744,0.005S57.811,12.904,57.33,12.422z"/>
				</g>
			</g>
		</g>
		<g>
			<g>
				<g>
					<linearGradient id="SVGID_6_" gradientUnits="userSpaceOnUse" x1="49.5713" y1="7.6172" x2="52.0381" y2="7.6172">
						<stop  offset="0" style="stop-color:#EB3349"/>
						<stop  offset="1" style="stop-color:#F45C43"/>
					</linearGradient>
					<path fill="url(#SVGID_6_)" d="M51.68,6.751l-0.004-0.005c-0.48-0.481-1.26-0.483-1.742-0.002
						c-0.482,0.48-0.482,1.259-0.004,1.741c0.48,0.481,1.264,0.486,1.744,0.006C52.156,8.011,52.16,7.234,51.68,6.751z"/>
				</g>
			</g>
		</g>
		<g>
			<linearGradient id="SVGID_7_" gradientUnits="userSpaceOnUse" x1="0.0039" y1="31.9995" x2="64.0039" y2="31.9995">
				<stop  offset="0" style="stop-color:#EB3349"/>
				<stop  offset="1" style="stop-color:#F45C43"/>
			</linearGradient>
			<path fill="url(#SVGID_7_)" d="M6.646,51.544l1.762-1.754c-8.75-11.588-7.834-28.194,2.736-38.726
				C21.715,0.533,38.322-0.325,49.881,8.466l1.76-1.754C39.111-3.032,20.939-2.171,9.406,9.32
				C-2.127,20.812-3.053,38.979,6.646,51.544z M54.602,54.68c11.535-11.493,12.459-29.661,2.76-42.226l-1.76,1.754
				c8.75,11.589,7.832,28.194-2.736,38.726c-10.57,10.532-27.18,11.39-38.736,2.598l-1.76,1.755
				C24.898,67.031,43.07,66.171,54.602,54.68z"/>
		</g>
	</g>
	<g>
		<linearGradient id="SVGID_8_" gradientUnits="userSpaceOnUse" x1="12.6338" y1="28.6841" x2="51.375" y2="28.6841">
			<stop  offset="0" style="stop-color:#EB3349"/>
			<stop  offset="1" style="stop-color:#F45C43"/>
		</linearGradient>
		<path fill-rule="evenodd" clip-rule="evenodd" fill="url(#SVGID_8_)" d="M32.018,15.836c5.936,0,11.869-0.001,17.805,0
			c1.168,0,1.551,0.383,1.551,1.57c0.002,7.522,0.002,15.045,0,22.568c0,1.169-0.395,1.558-1.578,1.558
			c-11.75,0-23.504,0-35.256,0.002c-0.301,0-0.6-0.008-0.893-0.101C13,41.228,12.652,40.783,12.641,40.1
			c-0.012-0.635-0.004-1.27-0.004-1.906c0-6.87,0-13.741,0-20.612c0-0.217-0.006-0.436,0.021-0.651
			c0.088-0.706,0.49-1.075,1.205-1.09c0.701-0.015,1.404-0.004,2.105-0.004C21.32,15.836,26.67,15.836,32.018,15.836z
			 M32.029,17.758c-5.418,0-10.834,0-16.254,0c-1.039,0-1.133,0.093-1.133,1.101c0,6.572,0,13.145,0,19.717
			c0,0.879,0.141,1.033,1.008,1.033c10.902,0.002,21.807,0.002,32.711,0c0.869,0,1.006-0.152,1.006-1.033
			c0.002-6.589,0.002-13.177,0.002-19.767c0-0.133-0.004-0.268-0.004-0.401c0-0.387-0.219-0.584-0.58-0.631
			c-0.195-0.025-0.4-0.018-0.6-0.018C42.801,17.758,37.416,17.758,32.029,17.758z"/>
		<linearGradient id="SVGID_9_" gradientUnits="userSpaceOnUse" x1="24.8848" y1="47.0615" x2="39.3037" y2="47.0615">
			<stop  offset="0" style="stop-color:#EB3349"/>
			<stop  offset="1" style="stop-color:#F45C43"/>
		</linearGradient>
		<path fill-rule="evenodd" clip-rule="evenodd" fill="url(#SVGID_9_)" d="M32.061,48.166c-2.004,0-4.008-0.003-6.01,0.002
			c-0.506,0.001-0.867-0.213-1.068-0.674c-0.191-0.429-0.092-0.827,0.207-1.164c0.289-0.326,0.691-0.374,1.102-0.374
			c1.988,0,3.977,0,5.963,0c1.836,0,3.674-0.001,5.51,0.001c0.199,0,0.404,0,0.598,0.038c0.572,0.11,0.979,0.611,0.939,1.13
			c-0.043,0.615-0.482,1.036-1.129,1.038C36.137,48.171,34.1,48.166,32.061,48.166z"/>
		<linearGradient id="SVGID_10_" gradientUnits="userSpaceOnUse" x1="31.0215" y1="43.9619" x2="33.2344" y2="43.9619">
			<stop  offset="0" style="stop-color:#EB3349"/>
			<stop  offset="1" style="stop-color:#F45C43"/>
		</linearGradient>
		<path fill-rule="evenodd" clip-rule="evenodd" fill="url(#SVGID_10_)" d="M33.232,43.976c0,0.862-0.002,1.723,0.002,2.584
			c0,0.218-0.213,0.373-0.674,0.46c-0.43,0.081-0.828,0.038-1.164-0.09c-0.326-0.125-0.375-0.297-0.375-0.474
			c0.002-0.855,0-1.709,0-2.563c0-0.79,0-1.58,0.002-2.369c0-0.086,0-0.174,0.037-0.257c0.111-0.246,0.611-0.42,1.131-0.404
			c0.615,0.019,1.035,0.208,1.039,0.486C33.236,42.224,33.232,43.1,33.232,43.976z"/>
		<linearGradient id="SVGID_11_" gradientUnits="userSpaceOnUse" x1="20.0459" y1="20.96" x2="44.2129" y2="20.96">
			<stop  offset="0" style="stop-color:#EB3349"/>
			<stop  offset="1" style="stop-color:#F45C43"/>
		</linearGradient>
		<path fill-rule="evenodd" clip-rule="evenodd" fill="url(#SVGID_11_)" d="M32.125,18.838c3.727,0,7.449-0.001,11.174,0
			c0.895,0,0.904,0.007,0.904,0.665c0.004,1.02-0.012,2.039,0.01,3.058c0.008,0.389-0.182,0.529-0.703,0.529
			c-7.582-0.008-15.164-0.009-22.746,0.001c-0.574,0-0.723-0.178-0.713-0.571c0.021-1.02,0.033-2.04-0.004-3.057
			c-0.02-0.48,0.195-0.636,0.84-0.634C24.631,18.847,28.379,18.838,32.125,18.838z"/>
		<linearGradient id="SVGID_12_" gradientUnits="userSpaceOnUse" x1="28.9844" y1="27.8853" x2="44.2031" y2="27.8853">
			<stop  offset="0" style="stop-color:#EB3349"/>
			<stop  offset="1" style="stop-color:#F45C43"/>
		</linearGradient>
		<path fill-rule="evenodd" clip-rule="evenodd" fill="url(#SVGID_12_)" d="M36.615,24.872c2.236-0.001,4.471-0.001,6.707,0.001
			c0.85,0,0.869,0.015,0.869,0.659c0.004,1.588-0.014,3.177,0.012,4.764c0.008,0.458-0.186,0.611-0.766,0.609
			c-4.557-0.014-9.111-0.013-13.664,0c-0.555,0.001-0.799-0.114-0.789-0.592c0.029-1.62,0.023-3.242,0.002-4.863
			c-0.006-0.435,0.182-0.588,0.732-0.584C32.018,24.882,34.316,24.872,36.615,24.872z"/>
		<linearGradient id="SVGID_13_" gradientUnits="userSpaceOnUse" x1="28.9824" y1="35.7124" x2="44.2031" y2="35.7124">
			<stop  offset="0" style="stop-color:#EB3349"/>
			<stop  offset="1" style="stop-color:#F45C43"/>
		</linearGradient>
		<path fill-rule="evenodd" clip-rule="evenodd" fill="url(#SVGID_13_)" d="M36.563,38.725c-2.256,0-4.514-0.012-6.771,0.008
			c-0.594,0.005-0.816-0.138-0.809-0.626c0.031-1.605,0.029-3.209,0.004-4.814c-0.012-0.468,0.209-0.603,0.775-0.601
			c4.555,0.013,9.109,0.013,13.666,0c0.566-0.002,0.783,0.133,0.775,0.601c-0.025,1.622-0.023,3.243,0,4.864
			c0.006,0.443-0.205,0.578-0.744,0.574C41.16,38.715,38.861,38.724,36.563,38.725z"/>
		<linearGradient id="SVGID_14_" gradientUnits="userSpaceOnUse" x1="20.0645" y1="31.7998" x2="27.1992" y2="31.7998">
			<stop  offset="0" style="stop-color:#EB3349"/>
			<stop  offset="1" style="stop-color:#F45C43"/>
		</linearGradient>
		<path fill-rule="evenodd" clip-rule="evenodd" fill="url(#SVGID_14_)" d="M27.186,31.822c0,2.089-0.018,4.179,0.014,6.268
			c0.008,0.469-0.223,0.658-1.053,0.644c-1.717-0.03-3.438-0.023-5.156-0.004c-0.703,0.008-0.928-0.156-0.926-0.561
			c0.016-4.245,0.014-8.492,0-12.738c-0.002-0.401,0.209-0.572,0.92-0.564c1.746,0.019,3.494,0.021,5.24-0.001
			c0.746-0.01,0.977,0.159,0.973,0.588C27.172,27.575,27.186,29.699,27.186,31.822z"/>
	</g>
</g>
</svg>
