<?xml version="1.0" encoding="utf-8"?>
<!-- Generator: Adobe Illustrator 16.0.0, SVG Export Plug-In . SVG Version: 6.00 Build 0)  -->
<!DOCTYPE svg PUBLIC "-//W3C//DTD SVG 1.1//EN" "http://www.w3.org/Graphics/SVG/1.1/DTD/svg11.dtd">
<svg version="1.1" id="Layer_1" xmlns="http://www.w3.org/2000/svg" xmlns:xlink="http://www.w3.org/1999/xlink" x="0px" y="0px"
	 width="64px" height="64px" viewBox="0 0 64 64" enable-background="new 0 0 64 64" xml:space="preserve">
<g>
	<g>
		<g>
			<g>
				<g>
					<linearGradient id="SVGID_1_" gradientUnits="userSpaceOnUse" x1="9.3799" y1="53.3105" x2="11.8467" y2="53.3105">
						<stop  offset="0" style="stop-color:#EB3349"/>
						<stop  offset="1" style="stop-color:#F45C43"/>
					</linearGradient>
					<path fill="url(#SVGID_1_)" d="M11.488,52.446l-0.004-0.005c-0.48-0.481-1.26-0.483-1.742-0.003
						c-0.482,0.48-0.482,1.26-0.004,1.743c0.48,0.481,1.264,0.485,1.744,0.005C11.965,53.705,11.969,52.927,11.488,52.446z"/>
				</g>
			</g>
		</g>
		<g>
			<g>
				<g>
					<linearGradient id="SVGID_2_" gradientUnits="userSpaceOnUse" x1="11.8965" y1="56.3086" x2="14.3623" y2="56.3086">
						<stop  offset="0" style="stop-color:#EB3349"/>
						<stop  offset="1" style="stop-color:#F45C43"/>
					</linearGradient>
					<path fill="url(#SVGID_2_)" d="M14.004,55.444L14,55.438c-0.48-0.481-1.26-0.482-1.742-0.002
						c-0.48,0.48-0.482,1.26-0.002,1.742c0.479,0.481,1.262,0.485,1.742,0.005C14.48,56.702,14.484,55.925,14.004,55.444z"/>
				</g>
			</g>
		</g>
		<g>
			<g>
				<g>
					<linearGradient id="SVGID_3_" gradientUnits="userSpaceOnUse" x1="6.3184" y1="50.7109" x2="8.7861" y2="50.7109">
						<stop  offset="0" style="stop-color:#EB3349"/>
						<stop  offset="1" style="stop-color:#F45C43"/>
					</linearGradient>
					<path fill="url(#SVGID_3_)" d="M8.428,49.847l-0.006-0.005c-0.479-0.482-1.26-0.483-1.74-0.003
						c-0.482,0.48-0.484,1.26-0.004,1.742s1.262,0.486,1.744,0.006C8.904,51.105,8.908,50.328,8.428,49.847z"/>
				</g>
			</g>
		</g>
		<g>
			<g>
				<g>
					<linearGradient id="SVGID_4_" gradientUnits="userSpaceOnUse" x1="52.6777" y1="10.168" x2="55.1436" y2="10.168">
						<stop  offset="0" style="stop-color:#EB3349"/>
						<stop  offset="1" style="stop-color:#F45C43"/>
					</linearGradient>
					<path fill="url(#SVGID_4_)" d="M54.785,9.304l-0.006-0.005c-0.479-0.482-1.258-0.483-1.74-0.003
						c-0.48,0.48-0.482,1.26-0.002,1.741c0.479,0.481,1.262,0.486,1.742,0.005C55.262,10.562,55.266,9.786,54.785,9.304z"/>
				</g>
			</g>
		</g>
		<g>
			<g>
				<g>
					<linearGradient id="SVGID_5_" gradientUnits="userSpaceOnUse" x1="55.2168" y1="13.2866" x2="57.6846" y2="13.2866">
						<stop  offset="0" style="stop-color:#EB3349"/>
						<stop  offset="1" style="stop-color:#F45C43"/>
					</linearGradient>
					<path fill="url(#SVGID_5_)" d="M57.326,12.422l-0.006-0.005c-0.48-0.481-1.26-0.483-1.74-0.003
						c-0.482,0.48-0.484,1.259-0.004,1.742c0.48,0.481,1.262,0.485,1.744,0.005S57.807,12.904,57.326,12.422z"/>
				</g>
			</g>
		</g>
		<g>
			<g>
				<g>
					<linearGradient id="SVGID_6_" gradientUnits="userSpaceOnUse" x1="49.5674" y1="7.6172" x2="52.0342" y2="7.6172">
						<stop  offset="0" style="stop-color:#EB3349"/>
						<stop  offset="1" style="stop-color:#F45C43"/>
					</linearGradient>
					<path fill="url(#SVGID_6_)" d="M51.676,6.751l-0.004-0.005c-0.48-0.481-1.26-0.483-1.742-0.002
						c-0.482,0.48-0.482,1.259-0.004,1.741c0.48,0.481,1.264,0.486,1.744,0.006C52.152,8.011,52.156,7.234,51.676,6.751z"/>
				</g>
			</g>
		</g>
	</g>
	<g>
		<linearGradient id="SVGID_7_" gradientUnits="userSpaceOnUse" x1="12.6299" y1="32.0005" x2="51.3711" y2="32.0005">
			<stop  offset="0" style="stop-color:#EB3349"/>
			<stop  offset="1" style="stop-color:#F45C43"/>
		</linearGradient>
		<path fill-rule="evenodd" clip-rule="evenodd" fill="url(#SVGID_7_)" d="M49.818,15.836c-5.936-0.001-11.869,0-17.805,0H15.965
			c-0.701,0-1.404-0.01-2.105,0.004c-0.715,0.015-1.117,0.384-1.205,1.09c-0.027,0.215-0.021,0.434-0.021,0.651v20.612
			c0,0.636-0.008,1.271,0.004,1.906c0.012,0.683,0.359,1.128,1.006,1.334c0.293,0.093,0.592,0.101,0.893,0.101
			c5.496-0.001,10.99,0,16.484-0.001c-0.002,0.786-0.002,1.573-0.002,2.359c0,0.687,0,1.375,0,2.063c-1.576,0-3.152,0-4.73,0
			c-0.41,0-0.813,0.048-1.102,0.374c-0.299,0.336-0.398,0.734-0.207,1.164c0.201,0.461,0.563,0.676,1.068,0.674
			c2.002-0.005,4.006-0.002,6.01-0.002c2.039,0,4.076,0.005,6.111-0.003c0.646-0.002,1.086-0.423,1.129-1.038
			c0.039-0.519-0.367-1.02-0.939-1.13c-0.193-0.038-0.398-0.038-0.598-0.038c-1.51-0.002-3.02-0.001-4.529-0.001
			c-0.002-0.66-0.002-1.32-0.002-1.98c0-0.815,0.002-1.629-0.002-2.442c5.521,0,11.045,0,16.564-0.001
			c1.184,0,1.578-0.389,1.578-1.558c0.002-7.523,0.002-15.046,0-22.568C51.369,16.219,50.986,15.836,49.818,15.836z M49.363,38.576
			c0,0.881-0.137,1.033-1.006,1.033c-10.904,0.002-21.809,0.002-32.711,0c-0.867,0-1.008-0.154-1.008-1.033V18.859
			c0-1.008,0.094-1.101,1.133-1.101h16.254c5.387,0,10.771,0,16.156,0c0.199,0,0.404-0.007,0.6,0.018
			c0.361,0.047,0.58,0.244,0.58,0.631c0,0.133,0.004,0.268,0.004,0.401C49.365,25.398,49.365,31.986,49.363,38.576z"/>
		<g>
			<g>
				<linearGradient id="SVGID_8_" gradientUnits="userSpaceOnUse" x1="20.1758" y1="33.0488" x2="34.8008" y2="33.0488">
					<stop  offset="0" style="stop-color:#EB3349"/>
					<stop  offset="1" style="stop-color:#F45C43"/>
				</linearGradient>
				<path fill="url(#SVGID_8_)" d="M30.387,32.229c-0.275,0-0.725,0-1,0h-6.492c-0.275,0-0.725,0.011-0.999,0.025l-1.221,0.063
					c-0.274,0.014-0.499,0.25-0.499,0.525v0.527c0,0.275,0.225,0.5,0.5,0.5h13.625c0.275,0,0.5-0.225,0.5-0.5v-0.64
					c0-0.275-0.225-0.5-0.5-0.5H30.387z M32.285,33.084c0,0.084-0.225,0.153-0.5,0.153h-3.621c-0.275,0-0.5-0.069-0.5-0.153
					c0-0.083,0.225-0.152,0.5-0.152h3.621C32.061,32.932,32.285,33,32.285,33.084z M32.285,33.237"/>
			</g>
			<g>
				<linearGradient id="SVGID_9_" gradientUnits="userSpaceOnUse" x1="22.3945" y1="26.6714" x2="37.8164" y2="26.6714">
					<stop  offset="0" style="stop-color:#EB3349"/>
					<stop  offset="1" style="stop-color:#F45C43"/>
				</linearGradient>
				<path fill="url(#SVGID_9_)" d="M23.551,23.244c0-0.275,0.225-0.5,0.5-0.5H36.16c0.275,0,0.5,0.084,0.5,0.188
					s0.225,0.188,0.5,0.188h0.156c0.275,0,0.5-0.225,0.5-0.5v-0.531c0-0.275-0.225-0.5-0.5-0.5H22.895c-0.275,0-0.5,0.225-0.5,0.5
					v9.168c0,0.275,0.225,0.5,0.5,0.5h11.406c0.275,0,0.5-0.225,0.5-0.5v-0.152c0-0.275-0.225-0.5-0.5-0.5h-10.25
					c-0.275,0-0.5-0.225-0.5-0.5V23.244z M23.551,22.744"/>
			</g>
			<g>
				<linearGradient id="SVGID_10_" gradientUnits="userSpaceOnUse" x1="36.6094" y1="24.9004" x2="36.6094" y2="24.9004">
					<stop  offset="0" style="stop-color:#EB3349"/>
					<stop  offset="1" style="stop-color:#F45C43"/>
				</linearGradient>
				<path fill="url(#SVGID_10_)" d="M36.609,24.9"/>
			</g>
			<g>
				<linearGradient id="SVGID_11_" gradientUnits="userSpaceOnUse" x1="40.668" y1="32.25" x2="46.2852" y2="32.25">
					<stop  offset="0" style="stop-color:#EB3349"/>
					<stop  offset="1" style="stop-color:#F45C43"/>
				</linearGradient>
				<path fill="url(#SVGID_11_)" d="M40.668,36.475c0,0.275,0.225,0.5,0.5,0.5h4.617c0.275,0,0.5-0.225,0.5-0.5v-8.449
					c0-0.275-0.225-0.5-0.5-0.5h-4.617c-0.275,0-0.5,0.225-0.5,0.5V36.475z M43.551,36.564c-0.18,0-0.324-0.145-0.324-0.324
					c0-0.176,0.145-0.321,0.324-0.321c0.176,0,0.32,0.145,0.32,0.321C43.871,36.419,43.727,36.564,43.551,36.564z M43.602,27.916
					c0.074,0,0.137,0.063,0.137,0.137c0,0.074-0.063,0.133-0.137,0.133s-0.137-0.059-0.137-0.133
					C43.465,27.979,43.527,27.916,43.602,27.916z M42.797,28.433c0-0.036,0.225-0.064,0.5-0.064h0.613c0.275,0,0.5,0.029,0.5,0.064
					s-0.225,0.064-0.5,0.064h-0.613C43.021,28.498,42.797,28.469,42.797,28.433z M41.57,29.462c0-0.275,0.225-0.5,0.5-0.5h2.816
					c0.275,0,0.5,0.225,0.5,0.5v5.992c-1.461,0.004-3.094,0.012-3.816,0.004V29.462z M41.57,28.962"/>
			</g>
		</g>
	</g>
	<linearGradient id="SVGID_12_" gradientUnits="userSpaceOnUse" x1="0" y1="31.9995" x2="64" y2="31.9995">
		<stop  offset="0" style="stop-color:#EB3349"/>
		<stop  offset="1" style="stop-color:#F45C43"/>
	</linearGradient>
	<path fill="url(#SVGID_12_)" d="M49.877,8.466l1.76-1.754C39.107-3.032,20.936-2.171,9.402,9.32
		C-2.131,20.812-3.057,38.979,6.643,51.544l1.762-1.754c-8.75-11.588-7.834-28.194,2.736-38.726
		C21.711,0.533,38.318-0.325,49.877,8.466z M57.357,12.454l-1.76,1.754c8.75,11.589,7.832,28.194-2.736,38.726
		c-10.57,10.532-27.18,11.39-38.736,2.598l-1.76,1.755c12.529,9.744,30.701,8.884,42.232-2.607
		C66.133,43.187,67.057,25.019,57.357,12.454z M42.816,26.987h0.16c0.275,0,0.5-0.225,0.5-0.5v-2.25c0-0.275-0.225-0.5-0.5-0.5
		h-7.027c-0.275,0-0.5,0.225-0.5,0.5v11.047c0,0.275,0.225,0.5,0.5,0.5h3.783c0.275,0,0.5-0.225,0.5-0.5v-0.997
		c0-0.275-0.225-0.5-0.5-0.5h-2.623c-0.275,0-0.5-0.225-0.5-0.5V25.4c0-0.275,0.225-0.5,0.5-0.5h4.707c0.275,0,0.5,0.225,0.5,0.5
		v1.086C42.316,26.762,42.541,26.987,42.816,26.987z M39.016,34.472c0.18,0,0.326,0.146,0.326,0.325s-0.146,0.326-0.326,0.326
		s-0.324-0.146-0.324-0.326S38.836,34.472,39.016,34.472z"/>
</g>
</svg>
