<?xml version="1.0" encoding="utf-8"?>
<!-- Generator: Adobe Illustrator 16.0.3, SVG Export Plug-In . SVG Version: 6.00 Build 0)  -->
<!DOCTYPE svg PUBLIC "-//W3C//DTD SVG 1.1//EN" "http://www.w3.org/Graphics/SVG/1.1/DTD/svg11.dtd">
<svg version="1.1" id="Layer_1" xmlns="http://www.w3.org/2000/svg" xmlns:xlink="http://www.w3.org/1999/xlink" x="0px" y="0px"
	 width="64px" height="64px" viewBox="0 0 64 64" enable-background="new 0 0 64 64" xml:space="preserve">
<g>
	<g>
		<g>
			<g>
				<linearGradient id="SVGID_1_" gradientUnits="userSpaceOnUse" x1="9.3799" y1="53.3096" x2="11.8467" y2="53.3096">
					<stop  offset="0" style="stop-color:#EB3349"/>
					<stop  offset="1" style="stop-color:#F45C43"/>
				</linearGradient>
				<path fill="url(#SVGID_1_)" d="M11.488,52.445l-0.005-0.005c-0.479-0.481-1.26-0.483-1.741-0.003
					c-0.482,0.48-0.483,1.26-0.004,1.743c0.48,0.481,1.263,0.485,1.744,0.005C11.965,53.704,11.969,52.927,11.488,52.445z"/>
			</g>
		</g>
	</g>
	<g>
		<g>
			<g>
				<linearGradient id="SVGID_2_" gradientUnits="userSpaceOnUse" x1="11.8955" y1="56.3076" x2="14.3623" y2="56.3076">
					<stop  offset="0" style="stop-color:#EB3349"/>
					<stop  offset="1" style="stop-color:#F45C43"/>
				</linearGradient>
				<path fill="url(#SVGID_2_)" d="M14.004,55.443L14,55.438c-0.48-0.481-1.26-0.482-1.742-0.002
					c-0.481,0.48-0.482,1.26-0.003,1.742c0.479,0.481,1.263,0.485,1.743,0.005C14.48,56.701,14.484,55.925,14.004,55.443z"/>
			</g>
		</g>
	</g>
	<g>
		<g>
			<g>
				<linearGradient id="SVGID_3_" gradientUnits="userSpaceOnUse" x1="6.3184" y1="50.7109" x2="8.7852" y2="50.7109">
					<stop  offset="0" style="stop-color:#EB3349"/>
					<stop  offset="1" style="stop-color:#F45C43"/>
				</linearGradient>
				<path fill="url(#SVGID_3_)" d="M8.428,49.846l-0.006-0.005c-0.479-0.482-1.26-0.483-1.741-0.003
					c-0.481,0.48-0.483,1.26-0.003,1.742s1.262,0.486,1.744,0.006C8.903,51.104,8.907,50.328,8.428,49.846z"/>
			</g>
		</g>
	</g>
	<g>
		<g>
			<g>
				<linearGradient id="SVGID_4_" gradientUnits="userSpaceOnUse" x1="52.6768" y1="10.1675" x2="55.1436" y2="10.1675">
					<stop  offset="0" style="stop-color:#EB3349"/>
					<stop  offset="1" style="stop-color:#F45C43"/>
				</linearGradient>
				<path fill="url(#SVGID_4_)" d="M54.785,9.303l-0.006-0.005c-0.479-0.482-1.258-0.483-1.74-0.003
					c-0.481,0.48-0.483,1.26-0.002,1.741c0.479,0.481,1.262,0.486,1.742,0.005C55.262,10.561,55.266,9.785,54.785,9.303z"/>
			</g>
		</g>
	</g>
	<g>
		<g>
			<g>
				<linearGradient id="SVGID_5_" gradientUnits="userSpaceOnUse" x1="55.2168" y1="13.2861" x2="57.6836" y2="13.2861">
					<stop  offset="0" style="stop-color:#EB3349"/>
					<stop  offset="1" style="stop-color:#F45C43"/>
				</linearGradient>
				<path fill="url(#SVGID_5_)" d="M57.326,12.421l-0.006-0.005c-0.48-0.481-1.26-0.483-1.74-0.003
					c-0.482,0.48-0.484,1.259-0.004,1.742c0.48,0.481,1.262,0.485,1.743,0.005C57.802,13.68,57.806,12.904,57.326,12.421z"/>
			</g>
		</g>
	</g>
	<g>
		<g>
			<g>
				<linearGradient id="SVGID_6_" gradientUnits="userSpaceOnUse" x1="49.5674" y1="7.6162" x2="52.0342" y2="7.6162">
					<stop  offset="0" style="stop-color:#EB3349"/>
					<stop  offset="1" style="stop-color:#F45C43"/>
				</linearGradient>
				<path fill="url(#SVGID_6_)" d="M51.676,6.751l-0.005-0.005c-0.479-0.481-1.259-0.483-1.741-0.002
					c-0.482,0.48-0.483,1.259-0.004,1.741c0.48,0.481,1.264,0.486,1.744,0.006C52.152,8.011,52.156,7.234,51.676,6.751z"/>
			</g>
		</g>
	</g>
	<g>
		<linearGradient id="SVGID_7_" gradientUnits="userSpaceOnUse" x1="0" y1="31.999" x2="64" y2="31.999">
			<stop  offset="0" style="stop-color:#EB3349"/>
			<stop  offset="1" style="stop-color:#F45C43"/>
		</linearGradient>
		<path fill="url(#SVGID_7_)" d="M6.643,51.544l1.762-1.754c-8.751-11.588-7.834-28.194,2.736-38.726
			C21.71,0.532,38.318-0.325,49.877,8.466l1.76-1.754C39.106-3.032,20.936-2.172,9.402,9.319
			C-2.131,20.811-3.057,38.979,6.643,51.544z M54.598,54.679c11.534-11.493,12.459-29.661,2.76-42.226l-1.76,1.754
			c8.75,11.589,7.832,28.194-2.737,38.726c-10.569,10.532-27.179,11.39-38.736,2.598l-1.76,1.755
			C24.895,67.031,43.066,66.17,54.598,54.679z"/>
	</g>
</g>
<g>
	<g>
		<linearGradient id="SVGID_8_" gradientUnits="userSpaceOnUse" x1="24.4355" y1="22.2173" x2="39.6689" y2="22.2173">
			<stop  offset="0" style="stop-color:#EB3349"/>
			<stop  offset="1" style="stop-color:#F45C43"/>
		</linearGradient>
		<path fill-rule="evenodd" clip-rule="evenodd" fill="url(#SVGID_8_)" d="M32.05,19.704c2.349-0.001,4.696-0.001,7.043,0
			c0.563,0,0.57,0.008,0.57,0.788c0.003,1.208-0.008,2.415,0.006,3.622c0.004,0.46-0.114,0.627-0.443,0.627
			c-4.779-0.01-9.559-0.011-14.338,0.001c-0.361,0.001-0.455-0.211-0.448-0.677c0.014-1.208,0.02-2.417-0.003-3.622
			c-0.012-0.568,0.122-0.754,0.529-0.751C27.326,19.714,29.688,19.704,32.05,19.704z"/>
		<linearGradient id="SVGID_9_" gradientUnits="userSpaceOnUse" x1="30.0713" y1="30.4229" x2="39.6631" y2="30.4229">
			<stop  offset="0" style="stop-color:#EB3349"/>
			<stop  offset="1" style="stop-color:#F45C43"/>
		</linearGradient>
		<path fill-rule="evenodd" clip-rule="evenodd" fill="url(#SVGID_9_)" d="M34.88,26.853c1.41-0.001,2.819-0.001,4.228,0.001
			c0.536,0,0.548,0.018,0.548,0.781c0.003,1.882-0.008,3.764,0.008,5.646c0.005,0.542-0.118,0.723-0.483,0.72
			c-2.872-0.016-5.742-0.016-8.613,0c-0.349,0.001-0.502-0.135-0.495-0.702c0.018-1.92,0.014-3.842,0-5.762
			c-0.004-0.515,0.114-0.697,0.462-0.692C31.981,26.864,33.432,26.853,34.88,26.853z"/>
		<linearGradient id="SVGID_10_" gradientUnits="userSpaceOnUse" x1="30.0684" y1="39.6963" x2="39.6631" y2="39.6963">
			<stop  offset="0" style="stop-color:#EB3349"/>
			<stop  offset="1" style="stop-color:#F45C43"/>
		</linearGradient>
		<path fill-rule="evenodd" clip-rule="evenodd" fill="url(#SVGID_10_)" d="M34.848,43.266c-1.424,0-2.846-0.015-4.268,0.009
			c-0.377,0.006-0.516-0.163-0.512-0.741c0.021-1.903,0.019-3.803,0.003-5.705c-0.007-0.554,0.132-0.714,0.489-0.711
			c2.871,0.015,5.743,0.015,8.612,0c0.357-0.003,0.495,0.158,0.49,0.711c-0.016,1.922-0.015,3.842,0,5.764
			c0.003,0.525-0.13,0.685-0.47,0.68C37.745,43.253,36.295,43.265,34.848,43.266z"/>
		<linearGradient id="SVGID_11_" gradientUnits="userSpaceOnUse" x1="24.4473" y1="35.061" x2="28.9453" y2="35.061">
			<stop  offset="0" style="stop-color:#EB3349"/>
			<stop  offset="1" style="stop-color:#F45C43"/>
		</linearGradient>
		<path fill-rule="evenodd" clip-rule="evenodd" fill="url(#SVGID_11_)" d="M28.937,35.087c0,2.475-0.011,4.951,0.009,7.427
			c0.004,0.555-0.141,0.779-0.664,0.763c-1.082-0.036-2.166-0.028-3.249-0.005c-0.444,0.009-0.587-0.185-0.585-0.665
			c0.01-5.03,0.01-10.062,0-15.092c-0.002-0.476,0.133-0.678,0.58-0.668c1.1,0.022,2.201,0.025,3.304-0.002
			c0.471-0.013,0.615,0.188,0.612,0.696C28.928,30.055,28.937,32.572,28.937,35.087z"/>
	</g>
	<linearGradient id="SVGID_12_" gradientUnits="userSpaceOnUse" x1="20.6855" y1="31.9648" x2="43.0811" y2="31.9648">
		<stop  offset="0" style="stop-color:#EB3349"/>
		<stop  offset="1" style="stop-color:#F45C43"/>
	</linearGradient>
	<path fill="url(#SVGID_12_)" d="M40.448,12.697H23.319c-1.426,0-2.634,1.209-2.634,2.636v33.269c0,1.425,1.208,2.631,2.634,2.631
		h17.129c1.427,0,2.633-1.206,2.633-2.631V15.333C43.085,13.906,41.875,12.697,40.448,12.697L40.448,12.697z M29.139,14.564h5.489
		c0.222,0,0.331,0.11,0.331,0.33c0,0.218-0.109,0.328-0.331,0.328h-5.489c-0.219,0-0.328-0.11-0.328-0.328
		C28.811,14.674,28.92,14.564,29.139,14.564L29.139,14.564z M31.883,49.806c-0.767,0-1.316-0.548-1.316-1.318
		c0-0.769,0.55-1.209,1.316-1.209c0.77,0,1.318,0.551,1.318,1.319C33.201,49.258,32.652,49.806,31.883,49.806L31.883,49.806z
		 M41.218,46.294H22.553V16.758h18.665V46.294z M41.218,46.294"/>
</g>
</svg>
