<?xml version="1.0" encoding="utf-8"?>
<!-- Generator: Adobe Illustrator 16.0.3, SVG Export Plug-In . SVG Version: 6.00 Build 0)  -->
<!DOCTYPE svg PUBLIC "-//W3C//DTD SVG 1.1//EN" "http://www.w3.org/Graphics/SVG/1.1/DTD/svg11.dtd">
<svg version="1.1" id="Layer_1" xmlns="http://www.w3.org/2000/svg" xmlns:xlink="http://www.w3.org/1999/xlink" x="0px" y="0px"
	 width="64px" height="64px" viewBox="0 0 64 64" enable-background="new 0 0 64 64" xml:space="preserve">
<g>
	<g>
		<g>
			<g>
				<linearGradient id="SVGID_1_" gradientUnits="userSpaceOnUse" x1="9.3799" y1="53.3105" x2="11.8462" y2="53.3105">
					<stop  offset="0" style="stop-color:#EB3349"/>
					<stop  offset="1" style="stop-color:#F45C43"/>
				</linearGradient>
				<path fill="url(#SVGID_1_)" d="M11.488,52.445l-0.005-0.006c-0.48-0.48-1.26-0.482-1.741-0.003
					c-0.482,0.479-0.483,1.26-0.003,1.743c0.48,0.48,1.262,0.484,1.744,0.004C11.965,53.704,11.968,52.927,11.488,52.445z"/>
			</g>
		</g>
	</g>
	<g>
		<g>
			<g>
				<linearGradient id="SVGID_2_" gradientUnits="userSpaceOnUse" x1="11.8955" y1="56.3086" x2="14.3623" y2="56.3086">
					<stop  offset="0" style="stop-color:#EB3349"/>
					<stop  offset="1" style="stop-color:#F45C43"/>
				</linearGradient>
				<path fill="url(#SVGID_2_)" d="M14.004,55.443L14,55.438c-0.48-0.48-1.26-0.482-1.742-0.002
					c-0.481,0.479-0.483,1.26-0.003,1.741s1.262,0.485,1.744,0.005C14.48,56.701,14.484,55.925,14.004,55.443z"/>
			</g>
		</g>
	</g>
	<g>
		<g>
			<g>
				<linearGradient id="SVGID_3_" gradientUnits="userSpaceOnUse" x1="6.3188" y1="50.7109" x2="8.7852" y2="50.7109">
					<stop  offset="0" style="stop-color:#EB3349"/>
					<stop  offset="1" style="stop-color:#F45C43"/>
				</linearGradient>
				<path fill="url(#SVGID_3_)" d="M8.427,49.846l-0.005-0.005c-0.48-0.481-1.26-0.483-1.742-0.003
					c-0.481,0.48-0.483,1.26-0.003,1.741s1.262,0.485,1.744,0.007C8.903,51.104,8.907,50.328,8.427,49.846z"/>
			</g>
		</g>
	</g>
	<g>
		<g>
			<g>
				<linearGradient id="SVGID_4_" gradientUnits="userSpaceOnUse" x1="52.6768" y1="10.168" x2="55.1431" y2="10.168">
					<stop  offset="0" style="stop-color:#EB3349"/>
					<stop  offset="1" style="stop-color:#F45C43"/>
				</linearGradient>
				<path fill="url(#SVGID_4_)" d="M54.786,9.303L54.78,9.298c-0.479-0.481-1.259-0.483-1.741-0.003
					c-0.481,0.48-0.483,1.26-0.002,1.741c0.479,0.481,1.262,0.485,1.743,0.005C55.261,10.561,55.266,9.785,54.786,9.303z"/>
			</g>
		</g>
	</g>
	<g>
		<g>
			<g>
				<linearGradient id="SVGID_5_" gradientUnits="userSpaceOnUse" x1="55.2168" y1="13.2871" x2="57.6836" y2="13.2871">
					<stop  offset="0" style="stop-color:#EB3349"/>
					<stop  offset="1" style="stop-color:#F45C43"/>
				</linearGradient>
				<path fill="url(#SVGID_5_)" d="M57.326,12.422l-0.005-0.006c-0.48-0.48-1.26-0.482-1.741-0.003
					c-0.482,0.48-0.484,1.259-0.003,1.741s1.262,0.486,1.743,0.006C57.802,13.68,57.806,12.904,57.326,12.422z"/>
			</g>
		</g>
	</g>
	<g>
		<g>
			<g>
				<linearGradient id="SVGID_6_" gradientUnits="userSpaceOnUse" x1="49.5674" y1="7.6172" x2="52.0342" y2="7.6172">
					<stop  offset="0" style="stop-color:#EB3349"/>
					<stop  offset="1" style="stop-color:#F45C43"/>
				</linearGradient>
				<path fill="url(#SVGID_6_)" d="M51.676,6.751l-0.005-0.005c-0.48-0.48-1.259-0.482-1.741-0.002
					c-0.482,0.479-0.483,1.259-0.003,1.74c0.48,0.482,1.263,0.486,1.744,0.006C52.152,8.011,52.156,7.234,51.676,6.751z"/>
			</g>
		</g>
	</g>
	<g>
		<linearGradient id="SVGID_7_" gradientUnits="userSpaceOnUse" x1="4.882813e-004" y1="31.999" x2="64" y2="31.999">
			<stop  offset="0" style="stop-color:#EB3349"/>
			<stop  offset="1" style="stop-color:#F45C43"/>
		</linearGradient>
		<path fill="url(#SVGID_7_)" d="M6.643,51.544l1.761-1.754c-8.75-11.589-7.833-28.194,2.736-38.726
			C21.71,0.532,38.319-0.325,49.876,8.466l1.76-1.754C39.106-3.032,20.935-2.172,9.402,9.319
			C-2.131,20.811-3.057,38.979,6.643,51.544z M54.598,54.68c11.534-11.493,12.458-29.661,2.759-42.227l-1.76,1.754
			c8.75,11.59,7.833,28.195-2.737,38.727c-10.569,10.532-27.179,11.39-38.736,2.598l-1.76,1.756
			C24.895,67.031,43.066,66.17,54.598,54.68z"/>
	</g>
</g>
<g>
	<text transform="matrix(1 0 0 1 19.5259 -1.377)" fill="#73E8FF" font-family="'MyriadPro-BoldCond'" font-size="18">SEO</text>
</g>
<g>
	<g>
		<linearGradient id="SVGID_8_" gradientUnits="userSpaceOnUse" x1="11.2324" y1="32" x2="52.7671" y2="32">
			<stop  offset="0" style="stop-color:#EB3349"/>
			<stop  offset="1" style="stop-color:#F45C43"/>
		</linearGradient>
		<path fill="url(#SVGID_8_)" d="M49.118,52.771c-0.975,0-1.891-0.38-2.581-1.069l-9.689-9.689
			c-2.674,1.704-5.745,2.602-8.931,2.602c-4.459,0-8.651-1.736-11.804-4.89c-6.508-6.508-6.508-17.098,0-23.606
			c3.152-3.153,7.344-4.89,11.804-4.89c4.458,0,8.649,1.736,11.802,4.89c5.557,5.556,6.463,14.155,2.285,20.73l9.694,9.693
			c0.689,0.69,1.069,1.606,1.069,2.58c0,0.975-0.38,1.891-1.069,2.58C51.008,52.392,50.092,52.771,49.118,52.771z M36.967,39.846
			c0.244,0,0.487,0.095,0.67,0.278l10.24,10.239c0.664,0.664,1.818,0.663,2.482,0c0.332-0.332,0.514-0.772,0.514-1.241
			c0-0.468-0.183-0.909-0.514-1.241L40.116,37.639c-0.326-0.325-0.37-0.838-0.105-1.214c4.148-5.897,3.463-13.874-1.631-18.968
			c-2.795-2.796-6.51-4.335-10.463-4.335c-3.954,0-7.67,1.539-10.465,4.335c-5.77,5.771-5.77,15.158,0,20.929
			c2.795,2.795,6.511,4.335,10.465,4.335c3.061,0,6.001-0.934,8.504-2.701C36.586,39.903,36.777,39.846,36.967,39.846z"/>
	</g>
	<g>
		<linearGradient id="SVGID_9_" gradientUnits="userSpaceOnUse" x1="18.2344" y1="29.3896" x2="30.7935" y2="29.3896">
			<stop  offset="0" style="stop-color:#EB3349"/>
			<stop  offset="1" style="stop-color:#F45C43"/>
		</linearGradient>
		<path fill="url(#SVGID_9_)" d="M29.848,25.804l-3.038,5.599l-3.89-5.505c-0.187-0.266-0.552-0.333-0.822-0.153l-3.595,2.397
			c-0.275,0.184-0.351,0.556-0.168,0.832c0.184,0.276,0.556,0.349,0.833,0.165l3.111-2.073l4.108,5.816
			c0.113,0.161,0.295,0.254,0.49,0.254c0.012,0,0.023,0,0.035-0.001c0.207-0.013,0.393-0.13,0.491-0.313l3.392-6.246
			C30.409,26.414,30.08,26.146,29.848,25.804z"/>
		<linearGradient id="SVGID_10_" gradientUnits="userSpaceOnUse" x1="30.272" y1="24.5947" x2="32.9702" y2="24.5947">
			<stop  offset="0" style="stop-color:#EB3349"/>
			<stop  offset="1" style="stop-color:#F45C43"/>
		</linearGradient>
		<circle fill="url(#SVGID_10_)" cx="31.622" cy="24.595" r="1.349"/>
		<linearGradient id="SVGID_11_" gradientUnits="userSpaceOnUse" x1="32.8394" y1="28.2666" x2="37.415" y2="28.2666">
			<stop  offset="0" style="stop-color:#EB3349"/>
			<stop  offset="1" style="stop-color:#F45C43"/>
		</linearGradient>
		<path fill="url(#SVGID_11_)" d="M32.839,26.359l3.501,4.545c0.204,0.262,0.58,0.311,0.841,0.11
			c0.262-0.203,0.311-0.58,0.109-0.842l-3.681-4.777C33.453,25.787,33.183,26.123,32.839,26.359z"/>
	</g>
</g>
</svg>
