<?xml version="1.0" encoding="utf-8"?>
<!-- Generator: Adobe Illustrator 16.0.3, SVG Export Plug-In . SVG Version: 6.00 Build 0)  -->
<!DOCTYPE svg PUBLIC "-//W3C//DTD SVG 1.1//EN" "http://www.w3.org/Graphics/SVG/1.1/DTD/svg11.dtd">
<svg version="1.1" id="Layer_1" xmlns="http://www.w3.org/2000/svg" xmlns:xlink="http://www.w3.org/1999/xlink" x="0px" y="0px"
	 width="64px" height="64px" viewBox="0 0 64 64" enable-background="new 0 0 64 64" xml:space="preserve">
<g>
	<g>
		<g>
			<g>
				<linearGradient id="SVGID_1_" gradientUnits="userSpaceOnUse" x1="9.3799" y1="53.3105" x2="11.8462" y2="53.3105">
					<stop  offset="0" style="stop-color:#EB3349"/>
					<stop  offset="1" style="stop-color:#F45C43"/>
				</linearGradient>
				<path fill="url(#SVGID_1_)" d="M11.488,52.445l-0.005-0.006c-0.48-0.48-1.26-0.482-1.741-0.003
					c-0.482,0.479-0.483,1.26-0.003,1.743c0.48,0.48,1.262,0.484,1.744,0.004C11.965,53.704,11.968,52.927,11.488,52.445z"/>
			</g>
		</g>
	</g>
	<g>
		<g>
			<g>
				<linearGradient id="SVGID_2_" gradientUnits="userSpaceOnUse" x1="11.8955" y1="56.3086" x2="14.3623" y2="56.3086">
					<stop  offset="0" style="stop-color:#EB3349"/>
					<stop  offset="1" style="stop-color:#F45C43"/>
				</linearGradient>
				<path fill="url(#SVGID_2_)" d="M14.004,55.443L14,55.438c-0.48-0.48-1.26-0.482-1.742-0.002
					c-0.481,0.479-0.483,1.26-0.003,1.741s1.262,0.485,1.744,0.005C14.48,56.701,14.484,55.925,14.004,55.443z"/>
			</g>
		</g>
	</g>
	<g>
		<g>
			<g>
				<linearGradient id="SVGID_3_" gradientUnits="userSpaceOnUse" x1="6.3188" y1="50.7109" x2="8.7852" y2="50.7109">
					<stop  offset="0" style="stop-color:#EB3349"/>
					<stop  offset="1" style="stop-color:#F45C43"/>
				</linearGradient>
				<path fill="url(#SVGID_3_)" d="M8.427,49.846l-0.005-0.005c-0.48-0.481-1.26-0.483-1.742-0.003
					c-0.481,0.48-0.483,1.26-0.003,1.741s1.262,0.485,1.744,0.007C8.903,51.104,8.907,50.328,8.427,49.846z"/>
			</g>
		</g>
	</g>
	<g>
		<g>
			<g>
				<linearGradient id="SVGID_4_" gradientUnits="userSpaceOnUse" x1="52.6768" y1="10.168" x2="55.1436" y2="10.168">
					<stop  offset="0" style="stop-color:#EB3349"/>
					<stop  offset="1" style="stop-color:#F45C43"/>
				</linearGradient>
				<path fill="url(#SVGID_4_)" d="M54.785,9.303l-0.006-0.005c-0.479-0.481-1.258-0.483-1.74-0.003
					c-0.481,0.48-0.483,1.26-0.002,1.741c0.479,0.481,1.262,0.485,1.742,0.005C55.262,10.561,55.266,9.785,54.785,9.303z"/>
			</g>
		</g>
	</g>
	<g>
		<g>
			<g>
				<linearGradient id="SVGID_5_" gradientUnits="userSpaceOnUse" x1="55.2168" y1="13.2871" x2="57.6836" y2="13.2871">
					<stop  offset="0" style="stop-color:#EB3349"/>
					<stop  offset="1" style="stop-color:#F45C43"/>
				</linearGradient>
				<path fill="url(#SVGID_5_)" d="M57.326,12.422l-0.006-0.006c-0.48-0.48-1.26-0.482-1.74-0.003
					c-0.482,0.48-0.484,1.259-0.004,1.741s1.262,0.486,1.743,0.006C57.802,13.68,57.806,12.904,57.326,12.422z"/>
			</g>
		</g>
	</g>
	<g>
		<g>
			<g>
				<linearGradient id="SVGID_6_" gradientUnits="userSpaceOnUse" x1="49.5674" y1="7.6172" x2="52.0342" y2="7.6172">
					<stop  offset="0" style="stop-color:#EB3349"/>
					<stop  offset="1" style="stop-color:#F45C43"/>
				</linearGradient>
				<path fill="url(#SVGID_6_)" d="M51.676,6.751l-0.005-0.005c-0.479-0.48-1.259-0.482-1.741-0.002
					c-0.482,0.479-0.483,1.259-0.004,1.74c0.48,0.482,1.264,0.486,1.744,0.006C52.152,8.011,52.156,7.234,51.676,6.751z"/>
			</g>
		</g>
	</g>
	<g>
		<linearGradient id="SVGID_7_" gradientUnits="userSpaceOnUse" x1="4.882813e-004" y1="31.999" x2="64" y2="31.999">
			<stop  offset="0" style="stop-color:#EB3349"/>
			<stop  offset="1" style="stop-color:#F45C43"/>
		</linearGradient>
		<path fill="url(#SVGID_7_)" d="M6.643,51.544l1.761-1.754c-8.75-11.589-7.833-28.194,2.736-38.726
			C21.71,0.532,38.318-0.325,49.877,8.466l1.76-1.754C39.106-3.032,20.935-2.172,9.402,9.319
			C-2.131,20.811-3.057,38.979,6.643,51.544z M54.598,54.68c11.534-11.493,12.459-29.661,2.76-42.227l-1.76,1.754
			c8.75,11.59,7.832,28.195-2.737,38.727c-10.569,10.532-27.179,11.39-38.736,2.598l-1.76,1.756
			C24.895,67.031,43.066,66.17,54.598,54.68z"/>
	</g>
</g>
<g>
	<text transform="matrix(1 0 0 1 21.1675 -1.377)" fill="#73E8FF" font-family="'MyriadPro-BoldCond'" font-size="18">SMM</text>
</g>
<linearGradient id="SVGID_8_" gradientUnits="userSpaceOnUse" x1="12.6304" y1="28.6836" x2="51.3691" y2="28.6836">
	<stop  offset="0" style="stop-color:#EB3349"/>
	<stop  offset="1" style="stop-color:#F45C43"/>
</linearGradient>
<path fill-rule="evenodd" clip-rule="evenodd" fill="url(#SVGID_8_)" d="M32.014,15.836c5.935,0,11.868-0.002,17.804,0
	c1.169,0,1.551,0.383,1.552,1.57c0.001,7.521,0.001,15.045-0.001,22.568c0,1.169-0.394,1.558-1.577,1.558
	c-11.75,0.001-23.504,0-35.256,0.002c-0.302,0-0.601-0.008-0.893-0.101c-0.647-0.207-0.994-0.652-1.006-1.335
	c-0.012-0.635-0.004-1.271-0.004-1.906c0-6.87,0-13.741,0-20.612c0-0.217-0.007-0.436,0.021-0.65
	c0.089-0.705,0.491-1.074,1.206-1.09c0.7-0.015,1.403-0.004,2.105-0.004C21.315,15.836,26.665,15.836,32.014,15.836z M32.025,17.757
	c-5.418,0-10.835,0-16.254,0c-1.04,0-1.134,0.093-1.134,1.101c0,6.572,0,13.145,0,19.717c0,0.88,0.141,1.033,1.008,1.033
	c10.903,0.003,21.808,0.003,32.712,0c0.868,0,1.006-0.152,1.006-1.033c0.001-6.589,0.001-13.177,0.001-19.767
	c0-0.134-0.003-0.268-0.003-0.401c-0.001-0.387-0.219-0.584-0.58-0.631c-0.196-0.025-0.4-0.018-0.6-0.018
	C42.796,17.757,37.412,17.757,32.025,17.757z"/>
<linearGradient id="SVGID_9_" gradientUnits="userSpaceOnUse" x1="24.8799" y1="47.0605" x2="39.2988" y2="47.0605">
	<stop  offset="0" style="stop-color:#EB3349"/>
	<stop  offset="1" style="stop-color:#F45C43"/>
</linearGradient>
<path fill-rule="evenodd" clip-rule="evenodd" fill="url(#SVGID_9_)" d="M32.057,48.165c-2.005,0-4.008-0.003-6.011,0.002
	c-0.506,0.001-0.867-0.213-1.068-0.675c-0.19-0.429-0.092-0.826,0.208-1.163c0.289-0.325,0.691-0.374,1.102-0.374
	c1.987,0,3.976,0,5.962,0c1.836,0,3.674-0.002,5.511,0.002c0.198,0,0.404-0.001,0.598,0.037c0.571,0.11,0.978,0.611,0.939,1.13
	c-0.043,0.615-0.482,1.036-1.129,1.038C36.132,48.17,34.095,48.165,32.057,48.165z"/>
<linearGradient id="SVGID_10_" gradientUnits="userSpaceOnUse" x1="31.0176" y1="43.9609" x2="33.2305" y2="43.9609">
	<stop  offset="0" style="stop-color:#EB3349"/>
	<stop  offset="1" style="stop-color:#F45C43"/>
</linearGradient>
<path fill-rule="evenodd" clip-rule="evenodd" fill="url(#SVGID_10_)" d="M33.228,43.975c0,0.862-0.002,1.724,0.003,2.585
	c0,0.218-0.213,0.373-0.675,0.46c-0.429,0.081-0.827,0.039-1.163-0.09c-0.327-0.124-0.375-0.297-0.375-0.474
	c0.001-0.854,0-1.71,0-2.563c0-0.789-0.001-1.58,0.002-2.369c0-0.086-0.001-0.174,0.037-0.258c0.111-0.245,0.611-0.42,1.131-0.404
	c0.615,0.02,1.034,0.208,1.038,0.486C33.232,42.223,33.228,43.099,33.228,43.975z"/>
<g>
	
		<linearGradient id="SVGID_11_" gradientUnits="userSpaceOnUse" x1="36.9971" y1="24.4229" x2="43.5537" y2="24.4229" gradientTransform="matrix(0.9935 0.1135 -0.1135 0.9935 3.4718 -3.9488)">
		<stop  offset="0" style="stop-color:#EB3349"/>
		<stop  offset="1" style="stop-color:#F45C43"/>
	</linearGradient>
	<path fill="url(#SVGID_11_)" d="M41.905,30.266c-0.122-0.014-0.25-0.055-0.378-0.118c-0.316-0.158-0.437-0.385-0.485-0.545
		c-0.115-0.395,0.095-0.748,0.247-1.007c0.034-0.054,0.064-0.107,0.089-0.155c0.536-1.099,0.682-2.162,0.439-3.252
		c-0.347-1.782-1.277-3.009-2.853-3.761l-0.094-0.043c-0.091-0.041-0.181-0.081-0.268-0.127c-0.616-0.339-0.809-0.77-0.57-1.283
		c0.232-0.503,0.705-0.68,1.36-0.414c1.604,0.646,2.83,1.769,3.642,3.336c1.056,2.043,1.068,4.168,0.042,6.317l-0.065,0.149
		C42.877,29.682,42.596,30.345,41.905,30.266z"/>
	<g>
		<linearGradient id="SVGID_12_" gradientUnits="userSpaceOnUse" x1="31.0693" y1="35.2363" x2="31.9917" y2="35.2363">
			<stop  offset="0" style="stop-color:#EB3349"/>
			<stop  offset="1" style="stop-color:#F45C43"/>
		</linearGradient>
		<path fill="url(#SVGID_12_)" d="M31.927,34.949c0.174,0.146-0.679,0.243-0.677,0.277c0,0.03-0.037,0.118-0.181,0.256l0.814,0.181
			c0.067-0.124,0.111-0.268,0.108-0.429c-0.004-0.148-0.046-0.292-0.129-0.426C31.917,34.855,31.873,34.904,31.927,34.949z"/>
		<linearGradient id="SVGID_13_" gradientUnits="userSpaceOnUse" x1="32.8472" y1="20.5674" x2="33.7412" y2="20.5674">
			<stop  offset="0" style="stop-color:#EB3349"/>
			<stop  offset="1" style="stop-color:#F45C43"/>
		</linearGradient>
		<path fill="url(#SVGID_13_)" d="M33.367,20.462c0.066-0.004,0.13-0.003,0.187,0.004c0.063,0.007,0.126,0.02,0.188,0.043
			c-0.049-0.014-0.1-0.025-0.156-0.032l-0.162-0.005c-0.248,0.009-0.435,0.091-0.576,0.203
			C33.484,20.609,33.188,20.472,33.367,20.462z"/>
		<linearGradient id="SVGID_14_" gradientUnits="userSpaceOnUse" x1="27.8477" y1="31.9766" x2="30.1582" y2="31.9766">
			<stop  offset="0" style="stop-color:#EB3349"/>
			<stop  offset="1" style="stop-color:#F45C43"/>
		</linearGradient>
		<path fill="url(#SVGID_14_)" d="M29.394,31.282c0.071-0.144-1.292,1.519-1.3,1.343c0.177,0.378,1.854-1.309,2.064-1.259
			c-0.095,0.022-0.188,0.048-0.282,0.072c-0.431,0.115-0.575,0.355-0.62,0.537c-0.059,0.235-1.569,0.478,0.151,0.6
			c-0.08-0.07-0.16-0.139-0.24-0.209c-0.185-0.161-0.405-0.258-0.653-0.287c-0.241-0.026-0.472,0.014-0.666,0.059
			c-0.053,0.011,2.108,0.022,2.058,0.034c0.3-0.104-0.867-0.146-0.553-0.244C29.743,31.808,29.261,31.554,29.394,31.282z"/>
		<linearGradient id="SVGID_15_" gradientUnits="userSpaceOnUse" x1="27.4321" y1="26.0488" x2="28.5156" y2="26.0488">
			<stop  offset="0" style="stop-color:#EB3349"/>
			<stop  offset="1" style="stop-color:#F45C43"/>
		</linearGradient>
		<path fill="url(#SVGID_15_)" d="M28.508,25.939c0.07-0.033-0.361-0.36-0.329-0.074c-0.213-0.349-0.476,0.244-0.747,0.484
			C27.797,26.234,28.155,26.098,28.508,25.939z"/>
		<linearGradient id="SVGID_16_" gradientUnits="userSpaceOnUse" x1="21.4497" y1="28.9297" x2="23.041" y2="28.9297">
			<stop  offset="0" style="stop-color:#EB3349"/>
			<stop  offset="1" style="stop-color:#F45C43"/>
		</linearGradient>
		<path fill="url(#SVGID_16_)" d="M21.76,30.129c0.095-0.863,0,0,1.168-1.343c0.027-0.031,0.075-1.038,0.113-1.057
			c-0.219,0.129-0.434,0.269-0.645,0.421C21.802,28.582,21,29.578,21.76,30.129z"/>
		<linearGradient id="SVGID_17_" gradientUnits="userSpaceOnUse" x1="21.7803" y1="32.7002" x2="26.394" y2="32.7002">
			<stop  offset="0" style="stop-color:#EB3349"/>
			<stop  offset="1" style="stop-color:#F45C43"/>
		</linearGradient>
		<path fill="url(#SVGID_17_)" d="M25.994,32.826l-0.643,0.337l0.477-0.132c0.434-0.749-1.049,0.055-1.534,0.11
			c-1.181,0.131-2.021-0.186-2.514-0.971c0.313,0.782,1.019,0.971,1.704,1.048c0.528,0.062,1.045-0.157,2.023-0.336
			c0.243-0.046,0.758,0.289,0.886-0.253C26.264,32.689,26.131,32.755,25.994,32.826z"/>
		<linearGradient id="SVGID_18_" gradientUnits="userSpaceOnUse" x1="20.2769" y1="28.6211" x2="38.8721" y2="28.6211">
			<stop  offset="0" style="stop-color:#EB3349"/>
			<stop  offset="1" style="stop-color:#F45C43"/>
		</linearGradient>
		<path fill="url(#SVGID_18_)" d="M38.743,31.301l-1.535-4.561c-0.632-1.873-1.263-3.749-1.892-5.624
			c-0.134-0.404-0.568-1.71-2-1.626c-0.914,0.05-1.515,0.639-1.784,1.751c-0.322,1.319-0.922,2.27-1.836,2.903
			c-1.018,0.708-2.051,1.182-3.161,1.445c-1.324,0.314-2.726,0.677-4.039,1.325c-1.857,0.919-2.49,2.174-2.117,4.196
			c0.414,2.256,1.813,2.879,2.915,3.004c0.343,0.04,0.717,0.036,1.11-0.007c0.443-0.053,0.716,0.034,1.07,0.344
			c1.029,0.903,2.102,1.784,3.193,2.681c0.439,0.36,0.869,0.559,1.312,0.609c0.566,0.065,1.134-0.123,1.691-0.561
			c0.274-0.215,0.524-0.461,0.772-0.705l0.297-0.289c0.33-0.314,0.493-0.648,0.481-0.988c-0.01-0.355-0.194-0.68-0.566-0.993
			c-0.702-0.592-1.383-1.212-2.063-1.831l-0.101-0.092c1.43-0.356,2.965-0.452,4.168,0.334c0.214,0.138,0.421,0.288,0.629,0.439
			c0.199,0.145,0.396,0.29,0.604,0.429c0.836,0.55,1.574,0.546,2.221,0.046C38.817,32.99,39.041,32.198,38.743,31.301z
			 M25.328,31.928c-1.914,0.35-2.445,0.336-2.933-0.614c-0.475-0.919-0.271-1.765,0.571-2.376c1.247-0.905,2.744-1.296,4.168-1.617
			c0.068-0.016,0.11-0.016,0.134-0.013c0.021,0.003,0.08,0.011,0.146,0.211l0.18,0.563c0.27,0.849,0.551,1.728,0.876,2.579
			c0.049,0.127,0.049,0.186,0.053,0.19c-0.012,0.012-0.059,0.046-0.193,0.088c-0.522,0.161-1.039,0.346-1.51,0.514
			C26.198,31.674,25.659,31.863,25.328,31.928z M30.979,35.269c-0.018,0.021-0.042,0.045-0.073,0.074l-0.072,0.071
			c-0.234,0.225-0.476,0.459-0.648,0.439c-0.067-0.009-0.152-0.054-0.247-0.129c-0.776-0.624-1.538-1.267-2.335-1.939l-0.487-0.409
			c0.306-0.122,0.611-0.215,0.946-0.293c0.176-0.039,0.362-0.077,0.467,0.016c0.544,0.474,1.083,0.953,1.624,1.433L30.979,35.269z
			 M36.766,31.822c-1.1-0.913-2.317-1.454-3.618-1.602c-0.81-0.093-1.667-0.036-2.551,0.17c-0.125,0.028-0.186,0.032-0.207,0.038
			c0,0-0.02-0.021-0.043-0.093c-0.29-0.889-0.593-1.77-0.898-2.654l-0.282-0.824c-0.046-0.144-0.066-0.204,0.184-0.328
			c2.148-1.062,3.495-2.675,4-4.794c0.051-0.211,0.085-0.279,0.061-0.333c0.021,0.032,0.051,0.138,0.071,0.21l3.374,10.075
			l0.058,0.155c0.014,0.038,0.035,0.09,0.05,0.11C36.935,31.941,36.872,31.912,36.766,31.822z"/>
		<linearGradient id="SVGID_19_" gradientUnits="userSpaceOnUse" x1="37.0498" y1="32.8545" x2="37.4922" y2="32.8545">
			<stop  offset="0" style="stop-color:#EB3349"/>
			<stop  offset="1" style="stop-color:#F45C43"/>
		</linearGradient>
		<path fill="url(#SVGID_19_)" d="M37.05,32.927c0.154-0.012,0.305-0.061,0.442-0.146C37.306,32.915,37.157,32.935,37.05,32.927z"/>
	</g>
	<linearGradient id="SVGID_20_" gradientUnits="userSpaceOnUse" x1="36.4287" y1="25.3867" x2="40.8271" y2="25.3867">
		<stop  offset="0" style="stop-color:#EB3349"/>
		<stop  offset="1" style="stop-color:#F45C43"/>
	</linearGradient>
	<path fill="url(#SVGID_20_)" d="M40.742,25.063c-0.359-1.479-1.317-2.599-2.769-3.232c-0.162-0.07-0.336-0.143-0.529-0.163
		c-0.403-0.047-0.74,0.146-0.921,0.531c-0.329,0.698,0.286,1.09,0.551,1.259c2.055,1.354,2.228,1.866,1.405,4.264
		c-0.079,0.231-0.32,0.938,0.377,1.284c0.115,0.055,0.227,0.089,0.341,0.102c0.614,0.07,0.901-0.478,1.028-0.715
		C40.781,27.325,40.947,26.279,40.742,25.063z"/>
</g>
</svg>
