<?xml version="1.0" encoding="utf-8"?>
<!-- Generator: Adobe Illustrator 16.0.3, SVG Export Plug-In . SVG Version: 6.00 Build 0)  -->
<!DOCTYPE svg PUBLIC "-//W3C//DTD SVG 1.1//EN" "http://www.w3.org/Graphics/SVG/1.1/DTD/svg11.dtd">
<svg version="1.1" id="Layer_1" xmlns="http://www.w3.org/2000/svg" xmlns:xlink="http://www.w3.org/1999/xlink" x="0px" y="0px"
	 width="64px" height="64px" viewBox="0 0 64 64" enable-background="new 0 0 64 64" xml:space="preserve">
<g>
	<g>
		<g>
			<g>
				<linearGradient id="SVGID_1_" gradientUnits="userSpaceOnUse" x1="9.3799" y1="53.3105" x2="11.8467" y2="53.3105">
					<stop  offset="0" style="stop-color:#EB3349"/>
					<stop  offset="1" style="stop-color:#F45C43"/>
				</linearGradient>
				<path fill="url(#SVGID_1_)" d="M11.488,52.445l-0.005-0.006c-0.479-0.48-1.26-0.482-1.741-0.003
					c-0.482,0.479-0.483,1.26-0.004,1.743c0.48,0.48,1.263,0.484,1.744,0.004C11.965,53.704,11.969,52.927,11.488,52.445z"/>
			</g>
		</g>
	</g>
	<g>
		<g>
			<g>
				<linearGradient id="SVGID_2_" gradientUnits="userSpaceOnUse" x1="11.8955" y1="56.3086" x2="14.3623" y2="56.3086">
					<stop  offset="0" style="stop-color:#EB3349"/>
					<stop  offset="1" style="stop-color:#F45C43"/>
				</linearGradient>
				<path fill="url(#SVGID_2_)" d="M14.004,55.443L14,55.438c-0.48-0.48-1.26-0.482-1.742-0.002
					c-0.481,0.479-0.482,1.26-0.003,1.741s1.263,0.485,1.743,0.005C14.48,56.701,14.484,55.925,14.004,55.443z"/>
			</g>
		</g>
	</g>
	<g>
		<g>
			<g>
				<linearGradient id="SVGID_3_" gradientUnits="userSpaceOnUse" x1="6.3184" y1="50.7109" x2="8.7852" y2="50.7109">
					<stop  offset="0" style="stop-color:#EB3349"/>
					<stop  offset="1" style="stop-color:#F45C43"/>
				</linearGradient>
				<path fill="url(#SVGID_3_)" d="M8.428,49.846l-0.006-0.005c-0.479-0.481-1.26-0.483-1.741-0.003s-0.483,1.26-0.003,1.741
					s1.262,0.485,1.744,0.007C8.903,51.104,8.907,50.328,8.428,49.846z"/>
			</g>
		</g>
	</g>
	<g>
		<g>
			<g>
				<linearGradient id="SVGID_4_" gradientUnits="userSpaceOnUse" x1="52.6768" y1="10.168" x2="55.1436" y2="10.168">
					<stop  offset="0" style="stop-color:#EB3349"/>
					<stop  offset="1" style="stop-color:#F45C43"/>
				</linearGradient>
				<path fill="url(#SVGID_4_)" d="M54.785,9.303l-0.006-0.005c-0.479-0.481-1.258-0.483-1.74-0.003
					c-0.481,0.48-0.483,1.26-0.002,1.741c0.479,0.481,1.262,0.485,1.742,0.005C55.262,10.561,55.266,9.785,54.785,9.303z"/>
			</g>
		</g>
	</g>
	<g>
		<g>
			<g>
				<linearGradient id="SVGID_5_" gradientUnits="userSpaceOnUse" x1="55.2168" y1="13.2871" x2="57.6836" y2="13.2871">
					<stop  offset="0" style="stop-color:#EB3349"/>
					<stop  offset="1" style="stop-color:#F45C43"/>
				</linearGradient>
				<path fill="url(#SVGID_5_)" d="M57.326,12.422l-0.006-0.006c-0.48-0.48-1.26-0.482-1.74-0.003
					c-0.482,0.48-0.484,1.259-0.004,1.741s1.262,0.486,1.743,0.006C57.802,13.68,57.806,12.904,57.326,12.422z"/>
			</g>
		</g>
	</g>
	<g>
		<g>
			<g>
				<linearGradient id="SVGID_6_" gradientUnits="userSpaceOnUse" x1="49.5674" y1="7.6172" x2="52.0342" y2="7.6172">
					<stop  offset="0" style="stop-color:#EB3349"/>
					<stop  offset="1" style="stop-color:#F45C43"/>
				</linearGradient>
				<path fill="url(#SVGID_6_)" d="M51.676,6.751l-0.005-0.005c-0.479-0.48-1.259-0.482-1.741-0.002
					c-0.482,0.479-0.483,1.259-0.004,1.74c0.48,0.482,1.264,0.486,1.744,0.006C52.152,8.011,52.156,7.234,51.676,6.751z"/>
			</g>
		</g>
	</g>
	<g>
		<linearGradient id="SVGID_7_" gradientUnits="userSpaceOnUse" x1="0" y1="31.999" x2="64" y2="31.999">
			<stop  offset="0" style="stop-color:#EB3349"/>
			<stop  offset="1" style="stop-color:#F45C43"/>
		</linearGradient>
		<path fill="url(#SVGID_7_)" d="M6.643,51.544l1.762-1.754c-8.751-11.589-7.834-28.194,2.736-38.726
			C21.71,0.532,38.318-0.325,49.877,8.466l1.76-1.754C39.106-3.032,20.936-2.172,9.402,9.319S-3.057,38.979,6.643,51.544z
			 M54.598,54.68c11.534-11.493,12.459-29.661,2.76-42.227l-1.76,1.754c8.75,11.59,7.832,28.195-2.737,38.727
			c-10.569,10.532-27.179,11.39-38.736,2.598l-1.76,1.756C24.895,67.031,43.066,66.17,54.598,54.68z"/>
	</g>
</g>
<g>
	<text transform="matrix(1 0 0 1 17.668 -1.377)" fill="#73E8FF" font-family="'MyriadPro-BoldCond'" font-size="18">SEM</text>
</g>
<g>
	<linearGradient id="SVGID_8_" gradientUnits="userSpaceOnUse" x1="11.2324" y1="32" x2="52.7666" y2="32">
		<stop  offset="0" style="stop-color:#EB3349"/>
		<stop  offset="1" style="stop-color:#F45C43"/>
	</linearGradient>
	<path fill="url(#SVGID_8_)" d="M49.118,52.771c-0.975,0-1.891-0.38-2.58-1.069l-9.689-9.689c-2.674,1.704-5.745,2.602-8.932,2.602
		c-4.459,0-8.65-1.736-11.803-4.89c-6.509-6.508-6.509-17.098,0-23.606c3.152-3.153,7.344-4.89,11.803-4.89s8.65,1.736,11.803,4.89
		c5.557,5.556,6.463,14.155,2.285,20.73l9.693,9.693c0.689,0.69,1.068,1.606,1.068,2.58c0,0.975-0.379,1.891-1.068,2.58
		S50.093,52.771,49.118,52.771z M36.967,39.846c0.244,0,0.487,0.095,0.67,0.278l10.24,10.239c0.663,0.664,1.817,0.663,2.482,0
		c0.331-0.332,0.515-0.772,0.515-1.241c0-0.468-0.184-0.909-0.515-1.241L40.116,37.639c-0.326-0.325-0.37-0.838-0.105-1.214
		c4.148-5.897,3.463-13.874-1.631-18.968c-2.795-2.796-6.51-4.335-10.463-4.335s-7.67,1.539-10.465,4.335
		c-5.77,5.771-5.77,15.158,0,20.929c2.795,2.795,6.512,4.335,10.465,4.335c3.061,0,6.002-0.934,8.504-2.701
		C36.586,39.903,36.776,39.846,36.967,39.846z"/>
</g>
<path fill="#F15045" d="M26.936,38.299c-0.054,0-0.105-0.006-0.158-0.021l-2.971-0.786c-0.329-0.086-0.526-0.425-0.438-0.754
	l0.571-2.175c-0.293-0.177-0.574-0.371-0.842-0.585l-1.837,1.297c-0.135,0.093-0.309,0.128-0.46,0.104
	c-0.161-0.027-0.306-0.12-0.399-0.252l-1.772-2.517c-0.094-0.134-0.131-0.299-0.103-0.459c0.027-0.163,0.119-0.306,0.253-0.401
	l1.833-1.293c-0.108-0.322-0.2-0.652-0.265-0.99l-2.24-0.189c-0.34-0.029-0.591-0.33-0.563-0.668l0.257-3.061
	c0.015-0.164,0.091-0.315,0.216-0.423c0.127-0.104,0.298-0.154,0.45-0.142l2.24,0.187c0.123-0.317,0.267-0.631,0.432-0.929
	l-1.593-1.583c-0.243-0.24-0.244-0.631-0.001-0.872l2.166-2.183c0.115-0.117,0.272-0.185,0.437-0.185h0.001
	c0.164,0,0.322,0.066,0.435,0.183l1.592,1.583c0.302-0.168,0.61-0.313,0.929-0.439L24.9,18.51c-0.031-0.339,0.221-0.639,0.562-0.671
	l3.062-0.28c0.17-0.013,0.324,0.035,0.451,0.141c0.125,0.105,0.203,0.256,0.218,0.418l0.205,2.241
	c0.334,0.064,0.667,0.152,0.992,0.261l1.281-1.842c0.191-0.28,0.579-0.348,0.859-0.154l2.524,1.755
	c0.135,0.095,0.228,0.237,0.257,0.398c0.027,0.16-0.009,0.328-0.104,0.464l-1.279,1.841c0.213,0.264,0.41,0.543,0.59,0.839
	l2.167-0.589c0.153-0.045,0.325-0.021,0.471,0.06c0.142,0.083,0.246,0.217,0.289,0.374l0.805,2.969
	c0.088,0.326-0.105,0.667-0.434,0.755l-2.169,0.588c-0.005,0.344-0.034,0.688-0.084,1.023l2.036,0.943
	c0.312,0.146,0.446,0.512,0.302,0.821l-1.289,2.791c-0.069,0.149-0.194,0.267-0.349,0.32c-0.152,0.056-0.324,0.051-0.473-0.02
	l-2.039-0.942c-0.225,0.257-0.466,0.5-0.725,0.728l0.957,2.033c0.071,0.147,0.079,0.316,0.022,0.472
	c-0.055,0.153-0.168,0.279-0.318,0.349l-2.783,1.31c-0.146,0.072-0.317,0.077-0.472,0.021c-0.152-0.056-0.28-0.169-0.352-0.318
	l-0.954-2.032c-0.166,0.027-0.335,0.049-0.506,0.064c-0.175,0.015-0.346,0.022-0.514,0.027l-0.577,2.175
	C27.46,38.115,27.209,38.299,26.936,38.299z M24.719,36.457l1.777,0.468l0.54-2.039c0.074-0.278,0.329-0.486,0.621-0.459
	l0.283,0.006c0.19,0,0.38-0.008,0.571-0.022c0.28-0.028,0.563-0.073,0.842-0.136c0.269-0.064,0.565,0.079,0.691,0.341l0.896,1.907
	l1.663-0.783l-0.896-1.906c-0.125-0.264-0.048-0.574,0.179-0.752c0.453-0.349,0.855-0.755,1.196-1.202
	c0.179-0.231,0.488-0.31,0.752-0.188l1.916,0.885l0.77-1.671l-1.912-0.884c-0.264-0.121-0.405-0.41-0.345-0.694
	c0.123-0.552,0.168-1.12,0.14-1.688c-0.017-0.29,0.173-0.553,0.453-0.628l2.039-0.553l-0.482-1.772l-2.031,0.549
	c-0.279,0.078-0.572-0.051-0.708-0.305c-0.271-0.514-0.603-0.98-0.98-1.386c-0.198-0.214-0.223-0.535-0.056-0.774l1.204-1.729
	l-1.511-1.049l-1.201,1.727c-0.165,0.239-0.469,0.331-0.743,0.219c-0.527-0.215-1.08-0.362-1.64-0.433
	c-0.287-0.036-0.512-0.269-0.536-0.559l-0.192-2.102l-1.829,0.168l0.188,2.102c0.027,0.286-0.15,0.557-0.428,0.643
	c-0.536,0.171-1.054,0.415-1.533,0.723c-0.242,0.156-0.565,0.124-0.771-0.081l-1.493-1.485l-1.295,1.305l1.493,1.487
	c0.206,0.205,0.241,0.523,0.086,0.769c-0.306,0.476-0.544,0.994-0.716,1.538c-0.087,0.276-0.364,0.448-0.64,0.431l-2.103-0.176
	l-0.153,1.832l2.102,0.179c0.287,0.021,0.521,0.243,0.56,0.532c0.079,0.568,0.229,1.12,0.444,1.643
	c0.107,0.267,0.02,0.577-0.215,0.742l-1.722,1.211l1.061,1.503l1.724-1.216c0.232-0.167,0.558-0.146,0.771,0.051
	c0.413,0.377,0.883,0.701,1.395,0.967c0.253,0.134,0.386,0.427,0.312,0.706L24.719,36.457z M27.916,31.272
	c-1.722,0-3.188-1.343-3.34-3.056c-0.083-0.893,0.191-1.765,0.768-2.454c0.574-0.688,1.379-1.111,2.272-1.19
	c1.845-0.181,3.479,1.195,3.647,3.039c0.165,1.843-1.196,3.481-3.041,3.647C28.119,31.27,28.017,31.272,27.916,31.272z
	 M27.924,25.794c-0.065,0-0.131,0.002-0.197,0.008c-0.563,0.053-1.071,0.317-1.436,0.752c-0.364,0.438-0.536,0.989-0.484,1.552
	c0.103,1.15,1.122,2.046,2.305,1.92c1.166-0.102,2.026-1.137,1.922-2.303C29.933,26.624,29.024,25.794,27.924,25.794z"/>
</svg>
