<?xml version="1.0" encoding="utf-8"?>
<!-- Generator: Adobe Illustrator 16.0.3, SVG Export Plug-In . SVG Version: 6.00 Build 0)  -->
<!DOCTYPE svg PUBLIC "-//W3C//DTD SVG 1.1//EN" "http://www.w3.org/Graphics/SVG/1.1/DTD/svg11.dtd">
<svg version="1.1" id="Layer_1" xmlns="http://www.w3.org/2000/svg" xmlns:xlink="http://www.w3.org/1999/xlink" x="0px" y="0px"
	 width="64px" height="64px" viewBox="0 0 64 64" enable-background="new 0 0 64 64" xml:space="preserve">
<g>
	<g>
		<g>
			<g>
				<linearGradient id="SVGID_1_" gradientUnits="userSpaceOnUse" x1="9.3799" y1="53.3105" x2="11.8467" y2="53.3105">
					<stop  offset="0" style="stop-color:#EB3349"/>
					<stop  offset="1" style="stop-color:#F45C43"/>
				</linearGradient>
				<path fill="url(#SVGID_1_)" d="M11.488,52.445l-0.005-0.006c-0.479-0.48-1.26-0.482-1.741-0.003
					c-0.482,0.479-0.483,1.26-0.004,1.743c0.48,0.48,1.263,0.484,1.744,0.004C11.965,53.704,11.969,52.927,11.488,52.445z"/>
			</g>
		</g>
	</g>
	<g>
		<g>
			<g>
				<linearGradient id="SVGID_2_" gradientUnits="userSpaceOnUse" x1="11.8955" y1="56.3086" x2="14.3623" y2="56.3086">
					<stop  offset="0" style="stop-color:#EB3349"/>
					<stop  offset="1" style="stop-color:#F45C43"/>
				</linearGradient>
				<path fill="url(#SVGID_2_)" d="M14.004,55.443L14,55.438c-0.48-0.48-1.26-0.482-1.742-0.002
					c-0.481,0.479-0.482,1.26-0.003,1.741s1.263,0.485,1.743,0.005C14.48,56.701,14.484,55.925,14.004,55.443z"/>
			</g>
		</g>
	</g>
	<g>
		<g>
			<g>
				<linearGradient id="SVGID_3_" gradientUnits="userSpaceOnUse" x1="6.3184" y1="50.7109" x2="8.7852" y2="50.7109">
					<stop  offset="0" style="stop-color:#EB3349"/>
					<stop  offset="1" style="stop-color:#F45C43"/>
				</linearGradient>
				<path fill="url(#SVGID_3_)" d="M8.428,49.846l-0.006-0.005c-0.479-0.481-1.26-0.483-1.741-0.003s-0.483,1.26-0.003,1.741
					s1.262,0.485,1.744,0.007C8.903,51.104,8.907,50.328,8.428,49.846z"/>
			</g>
		</g>
	</g>
	<g>
		<g>
			<g>
				<linearGradient id="SVGID_4_" gradientUnits="userSpaceOnUse" x1="52.6768" y1="10.168" x2="55.1436" y2="10.168">
					<stop  offset="0" style="stop-color:#EB3349"/>
					<stop  offset="1" style="stop-color:#F45C43"/>
				</linearGradient>
				<path fill="url(#SVGID_4_)" d="M54.785,9.303l-0.006-0.005c-0.479-0.481-1.258-0.483-1.74-0.003
					c-0.481,0.48-0.483,1.26-0.002,1.741c0.479,0.481,1.262,0.485,1.742,0.005C55.262,10.561,55.266,9.785,54.785,9.303z"/>
			</g>
		</g>
	</g>
	<g>
		<g>
			<g>
				<linearGradient id="SVGID_5_" gradientUnits="userSpaceOnUse" x1="55.2168" y1="13.2871" x2="57.6836" y2="13.2871">
					<stop  offset="0" style="stop-color:#EB3349"/>
					<stop  offset="1" style="stop-color:#F45C43"/>
				</linearGradient>
				<path fill="url(#SVGID_5_)" d="M57.326,12.422l-0.006-0.006c-0.48-0.48-1.26-0.482-1.74-0.003
					c-0.482,0.48-0.484,1.259-0.004,1.741s1.262,0.486,1.743,0.006C57.802,13.68,57.806,12.904,57.326,12.422z"/>
			</g>
		</g>
	</g>
	<g>
		<g>
			<g>
				<linearGradient id="SVGID_6_" gradientUnits="userSpaceOnUse" x1="49.5674" y1="7.6172" x2="52.0342" y2="7.6172">
					<stop  offset="0" style="stop-color:#EB3349"/>
					<stop  offset="1" style="stop-color:#F45C43"/>
				</linearGradient>
				<path fill="url(#SVGID_6_)" d="M51.676,6.751l-0.005-0.005c-0.479-0.48-1.259-0.482-1.741-0.002
					c-0.482,0.479-0.483,1.259-0.004,1.74c0.48,0.482,1.264,0.486,1.744,0.006C52.152,8.011,52.156,7.234,51.676,6.751z"/>
			</g>
		</g>
	</g>
	<g>
		<linearGradient id="SVGID_7_" gradientUnits="userSpaceOnUse" x1="0" y1="31.999" x2="64" y2="31.999">
			<stop  offset="0" style="stop-color:#EB3349"/>
			<stop  offset="1" style="stop-color:#F45C43"/>
		</linearGradient>
		<path fill="url(#SVGID_7_)" d="M6.643,51.544l1.762-1.754c-8.751-11.589-7.834-28.194,2.736-38.726
			C21.71,0.532,38.318-0.325,49.877,8.466l1.76-1.754C39.106-3.032,20.936-2.172,9.402,9.319S-3.057,38.979,6.643,51.544z
			 M54.598,54.68c11.534-11.493,12.459-29.661,2.76-42.227l-1.76,1.754c8.75,11.59,7.832,28.195-2.737,38.727
			c-10.569,10.532-27.179,11.39-38.736,2.598l-1.76,1.756C24.895,67.031,43.066,66.17,54.598,54.68z"/>
	</g>
</g>
<g>
	<text transform="matrix(1 0 0 1 0 -3.377)" fill="#73E8FF" font-family="'MyriadPro-BoldCond'" font-size="18">Digital Marketing</text>
</g>
<linearGradient id="SVGID_8_" gradientUnits="userSpaceOnUse" x1="38.875" y1="54.9688" x2="39.3174" y2="54.9688">
	<stop  offset="0" style="stop-color:#EB3349"/>
	<stop  offset="1" style="stop-color:#F45C43"/>
</linearGradient>
<path fill="url(#SVGID_8_)" d="M38.875,55.041c0.154-0.012,0.305-0.061,0.442-0.146C39.131,55.029,38.982,55.049,38.875,55.041z"/>
<g>
	<g>
		
			<linearGradient id="SVGID_9_" gradientUnits="userSpaceOnUse" x1="32.377" y1="9.3203" x2="41.2061" y2="9.3203" gradientTransform="matrix(0.9812 0.1926 -0.1926 0.9812 3.9222 13.2954)">
			<stop  offset="0" style="stop-color:#EB3349"/>
			<stop  offset="1" style="stop-color:#F45C43"/>
		</linearGradient>
		<path fill="url(#SVGID_9_)" d="M39.248,36.876c-0.163-0.031-0.329-0.101-0.494-0.199c-0.408-0.246-0.545-0.564-0.594-0.784
			c-0.112-0.542,0.208-0.994,0.44-1.325c0.052-0.068,0.099-0.137,0.137-0.198c0.838-1.417,1.148-2.829,0.94-4.318
			c-0.274-2.431-1.392-4.177-3.425-5.355l-0.122-0.069c-0.117-0.063-0.233-0.127-0.345-0.198c-0.79-0.521-1.003-1.12-0.627-1.784
			c0.365-0.65,1.02-0.837,1.87-0.409c2.085,1.039,3.609,2.68,4.529,4.87c1.197,2.857,0.985,5.711-0.624,8.485l-0.104,0.193
			C40.615,36.196,40.167,37.057,39.248,36.876z"/>
		
			<linearGradient id="SVGID_10_" gradientUnits="userSpaceOnUse" x1="10.3516" y1="33.584" x2="35.3936" y2="33.584" gradientTransform="matrix(0.9968 0.08 -0.08 0.9968 2.7592 -1.967)">
			<stop  offset="0" style="stop-color:#EB3349"/>
			<stop  offset="1" style="stop-color:#F45C43"/>
		</linearGradient>
		<path fill="url(#SVGID_10_)" d="M34.892,37.925l-1.569-6.288c-0.646-2.582-1.291-5.168-1.934-7.753
			c-0.136-0.557-0.579-2.357-2.51-2.398c-1.231-0.032-2.103,0.694-2.583,2.158c-0.575,1.736-1.483,2.947-2.777,3.699
			c-1.443,0.842-2.883,1.366-4.401,1.601c-1.812,0.279-3.732,0.614-5.563,1.344c-2.592,1.033-3.576,2.649-3.293,5.405
			c0.313,3.072,2.123,4.06,3.588,4.347c0.458,0.091,0.959,0.125,1.492,0.109c0.601-0.021,0.957,0.123,1.397,0.577
			c1.285,1.323,2.631,2.622,3.998,3.942c0.552,0.531,1.107,0.844,1.696,0.959c0.752,0.149,1.535-0.042,2.33-0.57
			c0.392-0.258,0.754-0.562,1.113-0.862l0.43-0.356c0.476-0.387,0.73-0.817,0.751-1.274c0.025-0.479-0.188-0.934-0.652-1.395
			c-0.88-0.87-1.727-1.775-2.573-2.681l-0.126-0.134c1.958-0.324,4.029-0.287,5.56,0.897c0.272,0.208,0.534,0.432,0.798,0.658
			c0.251,0.215,0.5,0.432,0.764,0.64c1.063,0.828,2.055,0.902,2.976,0.301C34.809,40.2,35.195,39.162,34.892,37.925z M16.815,37.321
			c-2.607,0.263-3.317,0.188-3.871-1.141c-0.538-1.284-0.174-2.398,1.022-3.128c1.771-1.081,3.822-1.444,5.769-1.722
			c0.094-0.015,0.15-0.01,0.183-0.004c0.026,0.008,0.106,0.023,0.172,0.3l0.182,0.774c0.271,1.168,0.554,2.379,0.897,3.557
			c0.053,0.176,0.046,0.255,0.051,0.261c-0.017,0.016-0.084,0.056-0.268,0.099c-0.719,0.159-1.432,0.351-2.084,0.526
			C18.011,37.074,17.267,37.271,16.815,37.321z M24.041,42.415c-0.027,0.024-0.062,0.056-0.106,0.092l-0.105,0.088
			c-0.338,0.276-0.688,0.564-0.917,0.52c-0.088-0.019-0.199-0.088-0.316-0.199c-0.975-0.921-1.928-1.866-2.926-2.855l-0.609-0.602
			c0.425-0.131,0.844-0.223,1.302-0.291c0.239-0.034,0.494-0.064,0.626,0.071c0.679,0.694,1.35,1.396,2.024,2.098L24.041,42.415z
			 M32.181,38.412c-1.378-1.345-2.954-2.202-4.685-2.54c-1.076-0.212-2.234-0.229-3.442-0.047c-0.171,0.024-0.254,0.023-0.282,0.029
			c0,0-0.023-0.031-0.047-0.129c-0.296-1.226-0.606-2.44-0.921-3.661l-0.29-1.136c-0.046-0.198-0.067-0.282,0.283-0.421
			c2.999-1.194,4.979-3.215,5.885-6.005c0.091-0.278,0.145-0.366,0.117-0.44c0.024,0.045,0.053,0.19,0.073,0.289l3.444,13.89
			l0.06,0.214c0.015,0.053,0.038,0.125,0.056,0.153C32.395,38.59,32.314,38.544,32.181,38.412z"/>
		
			<linearGradient id="SVGID_11_" gradientUnits="userSpaceOnUse" x1="32.1035" y1="29.2295" x2="38.0264" y2="29.2295" gradientTransform="matrix(0.9968 0.08 -0.08 0.9968 2.7592 -1.967)">
			<stop  offset="0" style="stop-color:#EB3349"/>
			<stop  offset="1" style="stop-color:#F45C43"/>
		</linearGradient>
		<path fill="url(#SVGID_11_)" d="M38.247,29.768c-0.323-2.025-1.488-3.631-3.368-4.638c-0.21-0.112-0.437-0.229-0.693-0.276
			c-0.536-0.106-1.009,0.116-1.293,0.614c-0.518,0.902,0.266,1.494,0.604,1.749c2.612,2.04,2.789,2.745,1.427,5.875
			c-0.131,0.303-0.53,1.224,0.368,1.764c0.148,0.087,0.295,0.145,0.446,0.174c0.817,0.161,1.262-0.544,1.457-0.849
			C38.057,32.808,38.392,31.421,38.247,29.768z"/>
	</g>
	<linearGradient id="SVGID_12_" gradientUnits="userSpaceOnUse" x1="43.8486" y1="28.752" x2="53.7861" y2="28.752">
		<stop  offset="0" style="stop-color:#EB3349"/>
		<stop  offset="1" style="stop-color:#F45C43"/>
	</linearGradient>
	<path fill-rule="evenodd" clip-rule="evenodd" fill="url(#SVGID_12_)" d="M43.849,28.003c0.52,0.695,1.139,1.235,2.023,1.509
		c-0.242-0.498-0.34-0.981-0.16-1.484c0.059-0.161,0.076-0.395,0.27-0.431c0.184-0.034,0.207,0.229,0.377,0.323
		c-0.088-0.511-0.066-1.001,0.211-1.448c0.053-0.085,0.109-0.169,0.176-0.247c0.25-0.295,0.328-0.283,0.467,0.063
		c0.025,0.068,0.061,0.136,0.121,0.275c0.086-0.403,0.193-0.731,0.404-1.014c0.246-0.328,0.578-0.526,0.963-0.649
		c0.287-0.092,0.357-0.016,0.293,0.283c-0.217,0.995-0.125,1.97,0.27,2.911c0.002,0.012,0.006,0.024,0.012,0.035
		c0.297,0.688,0.297,0.688,0.941,0.334c1.084-0.597,2.572,0.157,2.617,1.392c0.021,0.537,0.258,0.775,0.666,0.975
		c0.088,0.045,0.17,0.106,0.287,0.18c-0.314,0.237-0.645,0.11-0.967,0.12c0.102,0.251,0.387,0.272,0.51,0.511
		c-0.332,0.077-0.639,0.016-0.939-0.058c-0.213-0.052-0.379-0.018-0.564,0.11c-2.256,1.548-5.18,1.167-6.93-0.923
		C44.241,29.986,43.876,29.06,43.849,28.003z"/>
	<linearGradient id="SVGID_13_" gradientUnits="userSpaceOnUse" x1="39.9453" y1="20.7734" x2="47.1729" y2="20.7734">
		<stop  offset="0" style="stop-color:#EB3349"/>
		<stop  offset="1" style="stop-color:#F45C43"/>
	</linearGradient>
	<path fill-rule="evenodd" clip-rule="evenodd" fill="url(#SVGID_13_)" d="M46.767,19.317c0.508,0.727,0.637,0.522-0.188,1.133
		c-0.396,0.293-0.426,0.283-0.725-0.11c-0.32-0.42-0.395-0.443-0.73-0.216c-0.482,0.328-0.482,0.33-0.127,0.815
		c0.307,0.424,0.307,0.424-0.141,0.715c-0.053,0.034-0.105,0.069-0.162,0.101c-0.543,0.305-0.553,0.313-0.932-0.176
		c-0.176-0.229-0.324-0.217-0.537-0.056c-0.699,0.528-1.414,1.039-2.109,1.569c-0.25,0.188-0.422,0.186-0.594-0.081
		c-0.145-0.225-0.311-0.438-0.475-0.646c-0.164-0.205-0.129-0.352,0.08-0.505c0.709-0.515,1.404-1.05,2.119-1.56
		c0.254-0.183,0.357-0.344,0.119-0.608c-0.178-0.193-0.131-0.359,0.088-0.498c0.139-0.088,0.275-0.186,0.398-0.295
		c0.246-0.221,0.465-0.298,0.678,0.045c0.111,0.186,0.266,0.149,0.424,0.039c0.174-0.124,0.359-0.238,0.541-0.354
		c0.809-0.505,1.449-0.391,2.027,0.358C46.593,19.08,46.659,19.173,46.767,19.317z"/>
	<g>
		
			<linearGradient id="SVGID_14_" gradientUnits="userSpaceOnUse" x1="-85.2969" y1="-126.7388" x2="-78.5117" y2="-126.7388" gradientTransform="matrix(0.2582 0.9661 -0.9661 0.2582 -54.1853 151.6932)">
			<stop  offset="0" style="stop-color:#EB3349"/>
			<stop  offset="1" style="stop-color:#F45C43"/>
		</linearGradient>
		<path fill-rule="evenodd" clip-rule="evenodd" fill="url(#SVGID_14_)" d="M50.456,39.11c0.076,0.357,0.299,0.909,0.346,1.503
			c0.07,0.896-0.338,1.644-1.164,1.958c-1.092,0.416-2.215,0.745-3.373,0.918c-0.836,0.128-1.609-0.306-1.92-1.09
			c-0.414-1.042-0.701-2.126-0.873-3.233c-0.146-0.954,0.283-1.737,1.193-2.069c1.049-0.382,2.117-0.736,3.227-0.903
			c1.063-0.16,1.836,0.35,2.15,1.376C50.175,38.007,50.28,38.452,50.456,39.11z M49.798,39.333
			c-0.176-0.653-0.277-1.102-0.416-1.537c-0.229-0.734-0.652-1.022-1.41-0.916c-1.078,0.152-2.102,0.522-3.123,0.877
			c-0.512,0.177-0.787,0.638-0.721,1.134c0.152,1.112,0.439,2.196,0.85,3.238c0.221,0.559,0.58,0.769,1.176,0.68
			c1.143-0.172,2.262-0.473,3.33-0.921c0.447-0.189,0.656-0.583,0.639-1.08C50.104,40.221,49.862,39.683,49.798,39.333z"/>
		
			<linearGradient id="SVGID_15_" gradientUnits="userSpaceOnUse" x1="-83.627" y1="-126.7476" x2="-80.1816" y2="-126.7476" gradientTransform="matrix(0.2582 0.9661 -0.9661 0.2582 -54.1853 151.6932)">
			<stop  offset="0" style="stop-color:#EB3349"/>
			<stop  offset="1" style="stop-color:#F45C43"/>
		</linearGradient>
		<path fill-rule="evenodd" clip-rule="evenodd" fill="url(#SVGID_15_)" d="M47.552,41.507c-0.943,0.255-1.881-0.265-2.125-1.179
			c-0.254-0.942,0.309-1.902,1.264-2.157c0.941-0.252,1.873,0.271,2.119,1.188C49.069,40.319,48.528,41.243,47.552,41.507z
			 M47.396,40.844c0.594-0.163,0.914-0.722,0.748-1.309c-0.154-0.556-0.695-0.857-1.264-0.707c-0.625,0.164-0.955,0.72-0.785,1.318
			C46.253,40.714,46.802,41.008,47.396,40.844z"/>
		
			<linearGradient id="SVGID_16_" gradientUnits="userSpaceOnUse" x1="-80.5791" y1="-128.5498" x2="-79.7285" y2="-128.5498" gradientTransform="matrix(0.2582 0.9661 -0.9661 0.2582 -54.1853 151.6932)">
			<stop  offset="0" style="stop-color:#EB3349"/>
			<stop  offset="1" style="stop-color:#F45C43"/>
		</linearGradient>
		<path fill-rule="evenodd" clip-rule="evenodd" fill="url(#SVGID_16_)" d="M49.425,41.476c-0.273,0.043-0.465-0.048-0.529-0.29
			c-0.074-0.257,0.047-0.458,0.301-0.529c0.258-0.07,0.471,0.037,0.531,0.298C49.79,41.213,49.644,41.386,49.425,41.476z"/>
	</g>
</g>
</svg>
