<?xml version="1.0" encoding="utf-8"?>
<!-- Generator: Adobe Illustrator 16.0.3, SVG Export Plug-In . SVG Version: 6.00 Build 0)  -->
<!DOCTYPE svg PUBLIC "-//W3C//DTD SVG 1.1//EN" "http://www.w3.org/Graphics/SVG/1.1/DTD/svg11.dtd">
<svg version="1.1" id="Layer_1" xmlns="http://www.w3.org/2000/svg" xmlns:xlink="http://www.w3.org/1999/xlink" x="0px" y="0px"
	 width="151.5px" height="50px" viewBox="0 0 151.5 50" enable-background="new 0 0 151.5 50" xml:space="preserve">
<g>
	<path fill="#F99D1C" d="M25.706,11.129c-6.932,0-12.571,5.64-12.571,12.57c0,4.563,2.449,8.727,6.418,10.956l0.836,4.577
		c0.07,0.382,0.402,0.658,0.791,0.658h2.313v-1.608H21.85l-0.785-4.296c-0.043-0.243-0.198-0.453-0.418-0.566
		c-3.641-1.9-5.904-5.625-5.904-9.721c0-6.044,4.918-10.962,10.964-10.962c6.044,0,10.962,4.918,10.962,10.962
		c0,4.096-2.262,7.82-5.903,9.721c-0.222,0.113-0.374,0.323-0.42,0.566l-0.784,4.296h-2.275v1.608h2.946
		c0.386,0,0.72-0.276,0.789-0.658l0.836-4.577c3.971-2.229,6.421-6.393,6.421-10.956C38.277,16.769,32.637,11.129,25.706,11.129z"/>
	<path fill="#F99D1C" d="M26.553,6.841c0,0.469-0.379,0.85-0.848,0.85s-0.849-0.381-0.849-0.85V2.598
		c0-0.468,0.38-0.848,0.849-0.848s0.848,0.38,0.848,0.848V6.841z"/>
	<path fill="#F99D1C" d="M35.621,9.278c-0.224,0.411-0.738,0.564-1.148,0.34c-0.414-0.224-0.566-0.739-0.342-1.151l2.023-3.728
		c0.224-0.412,0.739-0.564,1.151-0.342c0.412,0.224,0.564,0.741,0.34,1.152L35.621,9.278z"/>
	<path fill="#F99D1C" d="M41.539,15.9c-0.386,0.268-0.911,0.173-1.18-0.211c-0.269-0.385-0.174-0.914,0.211-1.182l3.483-2.423
		c0.384-0.267,0.913-0.172,1.182,0.212c0.266,0.385,0.171,0.913-0.214,1.182L41.539,15.9z"/>
	<path fill="#F99D1C" d="M15.79,9.278c0.224,0.411,0.737,0.564,1.15,0.34c0.411-0.224,0.563-0.739,0.341-1.151L15.256,4.74
		c-0.224-0.412-0.739-0.564-1.15-0.342c-0.413,0.224-0.564,0.741-0.342,1.152L15.79,9.278z"/>
	<path fill="#F99D1C" d="M9.871,15.9c0.385,0.268,0.914,0.173,1.182-0.211c0.268-0.385,0.172-0.914-0.212-1.182l-3.483-2.423
		c-0.386-0.267-0.915-0.172-1.18,0.212c-0.27,0.385-0.175,0.913,0.211,1.182L9.871,15.9z"/>
	<path fill="#F99D1C" d="M20.301,37.534v3.622c0.031-0.004,0.064-0.005,0.104-0.005c1.269,0.003,2.538,0.003,3.806,0.005
		c0.289,0,0.299-0.011,0.299-0.298c0-1.107-0.001-2.216-0.001-3.324H20.301z"/>
	<path fill="#F99D1C" d="M24.294,43.544c-0.955,0.004-1.91,0.004-2.865,0.004c-0.359,0-0.717-0.006-1.076-0.001
		c-0.02,0-0.032-0.005-0.052-0.007v2.443c0,0.651,0.53,1.179,1.18,1.179h3.028c0-0.443,0-0.889-0.001-1.333
		c0-0.693-0.006-1.387,0.002-2.08C24.512,43.586,24.443,43.543,24.294,43.544z"/>
	<path fill="#F99D1C" d="M26.899,37.534c0,0.481,0,0.961,0,1.439v1.946c0,0.214,0.02,0.231,0.235,0.231
		c1.285,0.001,2.57,0.003,3.855,0.005c0.049,0,0.085,0,0.118,0.002v-3.624H26.899z"/>
	<path fill="#F99D1C" d="M27.3,43.544c-0.058,0-0.115,0-0.171,0.002c-0.207,0.002-0.229,0.021-0.229,0.224
		c0,1.008,0.003,2.015,0.003,3.021c0,0.125,0,0.248,0,0.372h3.026c0.651,0,1.18-0.527,1.18-1.179v-2.44
		c-0.046,0.005-0.102,0.005-0.174,0.005C29.723,43.548,28.511,43.547,27.3,43.544z"/>
</g>
<g>
	<path fill="#ED1C29" d="M46.224,28.574l6.784-14.265l6.783,14.265H56.8l-1.065-2.246h-5.453l-1.066,2.246H46.224z M54.743,24.244
		l-0.84-1.764c-0.188-0.396-0.487-1.091-0.896-2.085c-0.102,0.214-0.246,0.554-0.435,1.019c-0.188,0.459-0.336,0.805-0.443,1.038
		l-0.858,1.792H54.743z"/>
	<path fill="#ED1C29" d="M65.385,14.895c1.888,0,3.497,0.667,4.831,2c1.34,1.339,2.01,2.953,2.01,4.84c0,1.887-0.67,3.497-2.01,4.83
		c-1.334,1.34-2.943,2.01-4.831,2.01h-3.896v-13.68H65.385z M64.225,17.63v8.208h1.16c1.133,0,2.098-0.402,2.896-1.208
		c0.806-0.799,1.208-1.765,1.208-2.896c0-1.132-0.402-2.101-1.208-2.906c-0.799-0.799-1.764-1.198-2.896-1.198H64.225z"/>
	<path fill="#ED1C29" d="M78.386,14.895c1.888,0,3.497,0.667,4.831,2c1.34,1.339,2.01,2.953,2.01,4.84c0,1.887-0.67,3.497-2.01,4.83
		c-1.334,1.34-2.943,2.01-4.831,2.01H74.49v-13.68H78.386z M77.226,17.63v8.208h1.16c1.133,0,2.098-0.402,2.896-1.208
		c0.806-0.799,1.208-1.765,1.208-2.896c0-1.132-0.402-2.101-1.208-2.906c-0.799-0.799-1.764-1.198-2.896-1.198H77.226z"/>
	<path fill="#F99D1C" d="M56.593,33.072c-0.73-0.289-1.494-0.435-2.293-0.435c-1.724,0-3.192,0.61-4.405,1.831
		c-1.221,1.22-1.831,2.688-1.831,4.405c0,1.724,0.61,3.195,1.831,4.415c1.213,1.215,2.682,1.821,4.405,1.821
		c0.799,0,1.563-0.145,2.293-0.434c0.735-0.29,1.393-0.705,1.972-1.246l0.707,0.755c-0.679,0.636-1.446,1.123-2.302,1.463
		c-0.855,0.339-1.745,0.509-2.67,0.509c-2.006,0-3.721-0.71-5.142-2.132c-1.422-1.421-2.132-3.139-2.132-5.151
		c0-2.006,0.71-3.72,2.132-5.142c1.421-1.421,3.136-2.132,5.142-2.132c0.925,0,1.814,0.17,2.67,0.509
		c0.855,0.334,1.623,0.821,2.302,1.463l-0.707,0.755C57.985,33.786,57.328,33.368,56.593,33.072z"/>
	<path fill="#F99D1C" d="M61.913,45.639v-13.52h5.246c1.56,0,2.771,0.422,3.632,1.265c0.761,0.748,1.133,1.686,1.113,2.811
		c-0.025,1.102-0.412,2.063-1.16,2.888c-0.817,0.899-1.881,1.399-3.188,1.5l4.443,5.057h-1.378l-4.425-5.038h-3.245v5.038H61.913z
		 M62.951,39.563h4.208c1.063,0,1.943-0.333,2.642-1c0.647-0.609,1.003-1.346,1.066-2.207c0.068-0.874-0.195-1.607-0.793-2.198
		c-0.667-0.667-1.639-1-2.915-1h-4.208V39.563z"/>
	<path fill="#F99D1C" d="M82.612,33.166h-7.5v4.698h6.793v1.038h-6.793v5.708h7.5v1.028h-8.538v-13.51h8.538V33.166z"/>
	<path fill="#F99D1C" d="M86.698,41.422l-1.953,4.217h-1.142l6.028-13.038l0.472-1.01l0.472,1.01l6.038,13.038h-1.142l-1.952-4.217
		H86.698z M93.085,40.487l-2.981-6.435l-2.972,6.435H93.085z"/>
	<path fill="#F99D1C" d="M101.481,33.157v12.481h-1.038V33.157h-4.5v-1.038h10.028v1.038H101.481z"/>
	<path fill="#F99D1C" d="M109.322,32.119v13.52h-1.038v-13.52H109.322z"/>
	<path fill="#F99D1C" d="M112.473,32.119l4.858,11.416l4.868-11.416h1.123l-5.991,14.058l-5.981-14.058H112.473z"/>
	<path fill="#F99D1C" d="M133.652,33.166h-7.5v4.698h6.793v1.038h-6.793v5.708h7.5v1.028h-8.538v-13.51h8.538V33.166z"/>
	<path fill="#F99D1C" d="M136.53,42.327c0,0.629,0.221,1.17,0.661,1.623c0.396,0.415,0.931,0.723,1.604,0.924
		c0.528,0.158,1.088,0.236,1.68,0.236c0.591,0,1.147-0.078,1.67-0.236c0.679-0.201,1.217-0.509,1.613-0.924
		c0.434-0.453,0.65-0.994,0.65-1.623c0-0.868-0.421-1.541-1.264-2.019c-0.51-0.29-1.44-0.598-2.793-0.925
		c-1.623-0.396-2.736-0.783-3.34-1.16c-1.013-0.636-1.519-1.569-1.519-2.803c0-0.88,0.289-1.638,0.867-2.273
		c0.528-0.572,1.242-0.994,2.142-1.265c0.623-0.188,1.28-0.282,1.973-0.282c0.685,0,1.343,0.094,1.972,0.282
		c0.899,0.271,1.609,0.692,2.132,1.265c0.585,0.636,0.877,1.394,0.877,2.273h-1.047c0-0.622-0.217-1.163-0.65-1.622
		c-0.396-0.409-0.935-0.718-1.613-0.925c-0.522-0.157-1.079-0.236-1.67-0.236c-0.592,0-1.151,0.079-1.68,0.236
		c-0.673,0.207-1.208,0.516-1.604,0.925c-0.44,0.459-0.661,1-0.661,1.622c0,0.875,0.425,1.551,1.274,2.028
		c0.503,0.283,1.434,0.592,2.792,0.925c1.616,0.396,2.729,0.783,3.34,1.16c1.013,0.636,1.519,1.566,1.519,2.793
		c0,0.887-0.292,1.648-0.877,2.283c-0.522,0.572-1.232,0.994-2.132,1.265c-0.629,0.188-1.287,0.282-1.972,0.282
		c-0.692,0-1.35-0.094-1.973-0.282c-0.899-0.271-1.613-0.692-2.142-1.265c-0.578-0.635-0.867-1.396-0.867-2.283H136.53z"/>
</g>
</svg>
