<?xml version="1.0" encoding="utf-8"?>
<!-- Generator: Adobe Illustrator 16.0.3, SVG Export Plug-In . SVG Version: 6.00 Build 0)  -->
<!DOCTYPE svg PUBLIC "-//W3C//DTD SVG 1.1//EN" "http://www.w3.org/Graphics/SVG/1.1/DTD/svg11.dtd">
<svg version="1.1" id="Layer_1" xmlns="http://www.w3.org/2000/svg" xmlns:xlink="http://www.w3.org/1999/xlink" x="0px" y="0px"
	 width="200px" height="65px" viewBox="0 0 239 75" enable-background="new 0 0 239 75" xml:space="preserve">
<g>
	<path fill="#F99D1C" d="M47.412,15.878c-10.396,0-18.852,8.457-18.852,18.851c0,6.844,3.671,13.086,9.625,16.43l1.254,6.863
		c0.104,0.572,0.603,0.988,1.186,0.988h3.469v-2.412h-2.463l-1.179-6.441c-0.064-0.365-0.298-0.68-0.627-0.852
		c-5.46-2.85-8.854-8.436-8.854-14.576c0-9.065,7.375-16.44,16.441-16.44c9.064,0,16.44,7.375,16.44,16.44
		c0,6.141-3.394,11.727-8.854,14.576c-0.331,0.172-0.562,0.486-0.629,0.852l-1.176,6.441h-3.412v2.412h4.418
		c0.58,0,1.079-0.416,1.184-0.988l1.254-6.863c5.954-3.344,9.628-9.586,9.628-16.43C66.265,24.334,57.807,15.878,47.412,15.878z"/>
	<path fill="#F99D1C" d="M48.684,9.447c0,0.703-0.569,1.274-1.272,1.274c-0.702,0-1.272-0.571-1.272-1.274V3.085
		c0-0.703,0.57-1.272,1.272-1.272c0.703,0,1.272,0.57,1.272,1.272V9.447z"/>
	<path fill="#F99D1C" d="M62.282,13.102c-0.337,0.617-1.107,0.846-1.725,0.511c-0.619-0.335-0.848-1.107-0.511-1.726l3.035-5.591
		c0.335-0.618,1.108-0.846,1.725-0.512c0.62,0.336,0.848,1.11,0.512,1.727L62.282,13.102z"/>
	<path fill="#F99D1C" d="M71.157,23.034c-0.579,0.401-1.368,0.259-1.771-0.317c-0.402-0.578-0.26-1.37,0.316-1.772l5.225-3.634
		c0.576-0.4,1.369-0.258,1.771,0.318c0.399,0.578,0.257,1.369-0.32,1.772L71.157,23.034z"/>
	<path fill="#F99D1C" d="M32.541,13.102c0.336,0.617,1.107,0.846,1.726,0.511s0.847-1.107,0.511-1.726l-3.035-5.591
		c-0.337-0.618-1.109-0.846-1.727-0.512c-0.618,0.336-0.847,1.11-0.512,1.727L32.541,13.102z"/>
	<path fill="#F99D1C" d="M23.666,23.034c0.577,0.401,1.371,0.259,1.771-0.317c0.402-0.578,0.259-1.37-0.316-1.772l-5.225-3.634
		c-0.578-0.4-1.372-0.258-1.771,0.318c-0.402,0.578-0.26,1.369,0.318,1.772L23.666,23.034z"/>
	<path fill="#F99D1C" d="M39.309,55.477v5.43c0.045-0.004,0.095-0.006,0.156-0.006c1.902,0.004,3.804,0.004,5.706,0.006
		c0.433,0,0.448-0.016,0.448-0.445c0-1.66-0.001-3.322-0.003-4.984H39.309z"/>
	<path fill="#F99D1C" d="M45.296,64.489c-1.433,0.006-2.865,0.006-4.298,0.006c-0.538,0-1.075-0.01-1.613-0.002
		c-0.029,0-0.049-0.008-0.076-0.01v3.664c0,0.977,0.793,1.768,1.768,1.768h4.542c-0.001-0.666-0.002-1.332-0.003-1.998
		c0-1.041-0.007-2.08,0.004-3.121C45.622,64.551,45.52,64.487,45.296,64.489z"/>
	<path fill="#F99D1C" d="M49.203,55.477c0,0.721,0,1.439,0,2.158v2.918c0,0.32,0.029,0.348,0.352,0.348
		c1.928,0.002,3.855,0.004,5.783,0.006c0.071,0,0.127,0,0.176,0.004v-5.434H49.203z"/>
	<path fill="#F99D1C" d="M49.803,64.489c-0.086,0-0.172,0-0.256,0.002c-0.311,0.004-0.344,0.031-0.344,0.336
		c0,1.512,0.004,3.021,0.004,4.529c0,0.188,0,0.373,0,0.559h4.539c0.977,0,1.768-0.791,1.768-1.768v-3.66
		c-0.068,0.008-0.15,0.008-0.26,0.008C53.435,64.495,51.619,64.493,49.803,64.489z"/>
</g>
<g>
	<path fill="#ED1C29" d="M78.183,42.042L88.354,20.65l10.173,21.393h-4.485l-1.599-3.368h-8.178l-1.599,3.368H78.183z
		 M90.958,35.548l-1.259-2.646c-0.283-0.594-0.731-1.636-1.345-3.127c-0.15,0.321-0.367,0.83-0.65,1.528
		c-0.283,0.689-0.505,1.208-0.665,1.557l-1.288,2.688H90.958z"/>
	<path fill="#ED1C29" d="M106.917,21.527c2.829,0,5.244,1,7.244,3c2.009,2.009,3.013,4.429,3.013,7.258s-1.004,5.245-3.013,7.244
		c-2,2.009-4.415,3.014-7.244,3.014h-5.844V21.527H106.917z M105.177,25.63v12.31h1.74c1.697,0,3.146-0.604,4.344-1.812
		c1.207-1.198,1.811-2.646,1.811-4.343s-0.604-3.15-1.811-4.358c-1.198-1.198-2.646-1.797-4.344-1.797H105.177z"/>
	<path fill="#ED1C29" d="M126.414,21.527c2.829,0,5.244,1,7.244,3c2.009,2.009,3.013,4.429,3.013,7.258s-1.004,5.245-3.013,7.244
		c-2,2.009-4.415,3.014-7.244,3.014h-5.844V21.527H126.414z M124.674,25.63v12.31h1.74c1.697,0,3.146-0.604,4.344-1.812
		c1.207-1.198,1.811-2.646,1.811-4.343s-0.604-3.15-1.811-4.358c-1.198-1.198-2.646-1.797-4.344-1.797H124.674z"/>
	<path fill="#F99D1C" d="M93.731,48.788c-1.095-0.434-2.24-0.65-3.438-0.65c-2.584,0-4.787,0.915-6.607,2.744
		c-1.83,1.83-2.744,4.032-2.744,6.607c0,2.585,0.914,4.792,2.744,6.622c1.82,1.82,4.023,2.73,6.607,2.73
		c1.198,0,2.344-0.217,3.438-0.651c1.104-0.434,2.089-1.056,2.957-1.867l1.061,1.132c-1.019,0.953-2.169,1.684-3.452,2.192
		c-1.282,0.51-2.617,0.765-4.004,0.765c-3.009,0-5.579-1.066-7.711-3.197c-2.132-2.132-3.197-4.707-3.197-7.726
		c0-3.009,1.065-5.579,3.197-7.711c2.132-2.131,4.702-3.197,7.711-3.197c1.387,0,2.722,0.255,4.004,0.764
		c1.283,0.501,2.434,1.231,3.452,2.193l-1.061,1.132C95.82,49.859,94.835,49.231,93.731,48.788z"/>
	<path fill="#F99D1C" d="M101.711,67.633V47.359h7.866c2.339,0,4.154,0.632,5.447,1.896c1.141,1.123,1.697,2.528,1.669,4.217
		c-0.037,1.65-0.617,3.094-1.74,4.329c-1.226,1.349-2.82,2.099-4.782,2.25l6.664,7.583h-2.065l-6.636-7.555h-4.867v7.555H101.711z
		 M103.267,58.522h6.311c1.594,0,2.914-0.5,3.961-1.5c0.972-0.915,1.505-2.019,1.6-3.311c0.104-1.311-0.293-2.41-1.188-3.297
		c-1-0.999-2.458-1.499-4.372-1.499h-6.311V58.522z"/>
	<path fill="#F99D1C" d="M132.752,48.929h-11.248v7.046h10.188v1.557h-10.188v8.56h11.248v1.542h-12.804V47.373h12.804V48.929z"/>
	<path fill="#F99D1C" d="M138.878,61.309l-2.929,6.324h-1.712l9.041-19.553l0.707-1.514l0.708,1.514l9.055,19.553h-1.712
		l-2.929-6.324H138.878z M148.456,59.909l-4.471-9.649l-4.456,9.649H148.456z"/>
	<path fill="#F99D1C" d="M161.049,48.916v18.718h-1.557V48.916h-6.748v-1.557h15.039v1.557H161.049z"/>
	<path fill="#F99D1C" d="M172.806,47.359v20.274h-1.556V47.359H172.806z"/>
	<path fill="#F99D1C" d="M177.531,47.359l7.286,17.119l7.301-17.119h1.684l-8.984,21.081l-8.97-21.081H177.531z"/>
	<path fill="#F99D1C" d="M209.294,48.929h-11.248v7.046h10.188v1.557h-10.188v8.56h11.248v1.542H196.49V47.373h12.804V48.929z"/>
	<path fill="#F99D1C" d="M213.609,62.667c0,0.943,0.33,1.754,0.99,2.434c0.594,0.622,1.396,1.084,2.405,1.386
		c0.792,0.236,1.632,0.354,2.519,0.354c0.886,0,1.721-0.118,2.504-0.354c1.019-0.302,1.825-0.764,2.419-1.386
		c0.651-0.68,0.977-1.49,0.977-2.434c0-1.302-0.632-2.311-1.896-3.028c-0.765-0.434-2.16-0.896-4.188-1.386
		c-2.434-0.595-4.103-1.175-5.008-1.74c-1.52-0.953-2.278-2.354-2.278-4.202c0-1.32,0.434-2.457,1.302-3.41
		c0.792-0.858,1.862-1.49,3.212-1.896c0.934-0.283,1.919-0.425,2.957-0.425c1.027,0,2.014,0.142,2.956,0.425
		c1.35,0.405,2.415,1.037,3.198,1.896c0.877,0.953,1.315,2.09,1.315,3.41h-1.57c0-0.935-0.325-1.745-0.977-2.434
		c-0.594-0.613-1.4-1.075-2.419-1.387c-0.783-0.235-1.618-0.354-2.504-0.354c-0.887,0-1.727,0.118-2.519,0.354
		c-1.01,0.312-1.812,0.773-2.405,1.387c-0.66,0.688-0.99,1.499-0.99,2.434c0,1.311,0.637,2.325,1.909,3.042
		c0.755,0.424,2.151,0.887,4.188,1.386c2.424,0.595,4.094,1.175,5.009,1.74c1.519,0.953,2.277,2.349,2.277,4.188
		c0,1.33-0.438,2.471-1.315,3.424c-0.783,0.858-1.849,1.49-3.198,1.896c-0.942,0.283-1.929,0.425-2.956,0.425
		c-1.038,0-2.023-0.142-2.957-0.425c-1.35-0.405-2.42-1.037-3.212-1.896c-0.868-0.953-1.302-2.094-1.302-3.424H213.609z"/>
</g>
</svg>
