<?xml version="1.0" encoding="utf-8"?>
<!-- Generator: Adobe Illustrator 16.0.0, SVG Export Plug-In . SVG Version: 6.00 Build 0)  -->
<!DOCTYPE svg PUBLIC "-//W3C//DTD SVG 1.1//EN" "http://www.w3.org/Graphics/SVG/1.1/DTD/svg11.dtd">
<svg version="1.1" id="Layer_1" xmlns="http://www.w3.org/2000/svg" xmlns:xlink="http://www.w3.org/1999/xlink" x="0px" y="0px"
	 width="25px" height="25px" viewBox="0 0 40 40" enable-background="new 0 0 40 40" xml:space="preserve">
<g>
	<g>
		<defs>
			<rect id="SVGID_1_" x="1.23" y="0.448" width="37.539" height="39.104"/>
		</defs>
		<clipPath id="SVGID_2_">
			<use xlink:href="#SVGID_1_"  overflow="visible"/>
		</clipPath>
		<path fill="#fff" clip-path="url(#SVGID_2_)" fill-rule="evenodd" clip-rule="evenodd" d="M22.083,14.354H19.77v-2.319
			c0-1.279-1.035-2.32-2.319-2.32c-1.279,0-2.313,1.041-2.313,2.32v2.319h-2.32c-1.278,0-2.32,1.035-2.32,2.314
			c0,1.285,1.042,2.32,2.32,2.32h2.32V21.3c0,1.285,1.034,2.32,2.313,2.32c1.284,0,2.319-1.035,2.319-2.32v-2.313h2.313
			c1.284,0,2.319-1.035,2.319-2.32C24.402,15.389,23.367,14.354,22.083,14.354L22.083,14.354z M37.896,34.364l-7.694-7.695
			c2.167-2.754,3.469-6.223,3.469-10.001c0-8.956-7.259-16.219-16.22-16.219c-8.955,0-16.22,7.264-16.22,16.219
			c0,8.96,7.265,16.22,16.22,16.22c3.507,0,6.743-1.121,9.396-3.016l7.773,7.768c0.899,0.904,2.37,0.904,3.275,0
			C38.801,36.739,38.801,35.269,37.896,34.364L37.896,34.364z M26.456,24.825c-0.311,0.113-0.605,0.277-0.849,0.525
			c-0.231,0.232-0.401,0.492-0.515,0.775c-2.087,1.691-4.746,2.711-7.643,2.711c-6.716,0-12.164-5.449-12.164-12.169
			c0-6.715,5.447-12.163,12.164-12.163c6.721,0,12.169,5.447,12.169,12.163C29.619,19.813,28.414,22.669,26.456,24.825
			L26.456,24.825z M26.456,24.825"/>
	</g>
</g>
</svg>
