<?xml version="1.0" encoding="utf-8"?>
<!-- Generator: Adobe Illustrator 16.0.0, SVG Export Plug-In . SVG Version: 6.00 Build 0)  -->
<!DOCTYPE svg PUBLIC "-//W3C//DTD SVG 1.1//EN" "http://www.w3.org/Graphics/SVG/1.1/DTD/svg11.dtd">
<svg version="1.1" id="Layer_1" xmlns="http://www.w3.org/2000/svg" xmlns:xlink="http://www.w3.org/1999/xlink" x="0px" y="0px"
	 width="64px" height="64px" viewBox="0 0 64 64" enable-background="new 0 0 64 64" xml:space="preserve">
<g>
	<text transform="matrix(1 0 0 1 -39.3354 -3.8032)" fill="#79FF00" font-family="'MyriadPro-BoldCond'" font-size="18">Name Generation</text>
</g>
<g>
	<g>
		<g>
			<g>
				<g>
					<linearGradient id="SVGID_1_" gradientUnits="userSpaceOnUse" x1="9.3784" y1="53.3105" x2="11.8447" y2="53.3105">
						<stop  offset="0" style="stop-color:#EB3349"/>
						<stop  offset="1" style="stop-color:#F45C43"/>
					</linearGradient>
					<path fill="url(#SVGID_1_)" d="M11.487,52.446l-0.005-0.005c-0.48-0.481-1.26-0.483-1.741-0.003
						c-0.482,0.48-0.483,1.26-0.003,1.743c0.48,0.481,1.262,0.485,1.744,0.005C11.963,53.705,11.967,52.927,11.487,52.446z"/>
				</g>
			</g>
		</g>
		<g>
			<g>
				<g>
					<linearGradient id="SVGID_2_" gradientUnits="userSpaceOnUse" x1="11.894" y1="56.3086" x2="14.3608" y2="56.3086">
						<stop  offset="0" style="stop-color:#EB3349"/>
						<stop  offset="1" style="stop-color:#F45C43"/>
					</linearGradient>
					<path fill="url(#SVGID_2_)" d="M14.003,55.444l-0.005-0.006c-0.48-0.481-1.26-0.482-1.742-0.002
						c-0.481,0.48-0.483,1.26-0.003,1.742c0.48,0.481,1.262,0.485,1.744,0.005C14.479,56.702,14.483,55.925,14.003,55.444z"/>
				</g>
			</g>
		</g>
		<g>
			<g>
				<g>
					<linearGradient id="SVGID_3_" gradientUnits="userSpaceOnUse" x1="6.3174" y1="50.7109" x2="8.7837" y2="50.7109">
						<stop  offset="0" style="stop-color:#EB3349"/>
						<stop  offset="1" style="stop-color:#F45C43"/>
					</linearGradient>
					<path fill="url(#SVGID_3_)" d="M8.426,49.847l-0.005-0.005c-0.48-0.482-1.26-0.483-1.742-0.003
						c-0.481,0.48-0.483,1.26-0.003,1.742s1.262,0.486,1.744,0.006C8.902,51.105,8.906,50.328,8.426,49.847z"/>
				</g>
			</g>
		</g>
		<g>
			<g>
				<g>
					<linearGradient id="SVGID_4_" gradientUnits="userSpaceOnUse" x1="52.6753" y1="10.168" x2="55.1416" y2="10.168">
						<stop  offset="0" style="stop-color:#EB3349"/>
						<stop  offset="1" style="stop-color:#F45C43"/>
					</linearGradient>
					<path fill="url(#SVGID_4_)" d="M54.784,9.304l-0.006-0.005c-0.479-0.482-1.259-0.483-1.741-0.003
						c-0.481,0.48-0.483,1.26-0.002,1.741c0.479,0.481,1.262,0.486,1.743,0.005C55.26,10.562,55.264,9.786,54.784,9.304z"/>
				</g>
			</g>
		</g>
		<g>
			<g>
				<g>
					<linearGradient id="SVGID_5_" gradientUnits="userSpaceOnUse" x1="55.2158" y1="13.2866" x2="57.6816" y2="13.2866">
						<stop  offset="0" style="stop-color:#EB3349"/>
						<stop  offset="1" style="stop-color:#F45C43"/>
					</linearGradient>
					<path fill="url(#SVGID_5_)" d="M57.324,12.422l-0.005-0.005c-0.48-0.481-1.26-0.483-1.741-0.003
						c-0.482,0.48-0.484,1.259-0.003,1.742c0.48,0.481,1.262,0.485,1.743,0.005C57.8,13.681,57.804,12.904,57.324,12.422z"/>
				</g>
			</g>
		</g>
		<g>
			<g>
				<g>
					<linearGradient id="SVGID_6_" gradientUnits="userSpaceOnUse" x1="49.5654" y1="7.6172" x2="52.0327" y2="7.6172">
						<stop  offset="0" style="stop-color:#EB3349"/>
						<stop  offset="1" style="stop-color:#F45C43"/>
					</linearGradient>
					<path fill="url(#SVGID_6_)" d="M51.675,6.751l-0.005-0.005c-0.48-0.481-1.259-0.483-1.741-0.002
						c-0.482,0.48-0.483,1.259-0.003,1.741c0.48,0.481,1.263,0.486,1.744,0.006C52.151,8.011,52.155,7.234,51.675,6.751z"/>
				</g>
			</g>
		</g>
		<g>
			<linearGradient id="SVGID_7_" gradientUnits="userSpaceOnUse" x1="-9.765625e-004" y1="31.9995" x2="63.999" y2="31.9995">
				<stop  offset="0" style="stop-color:#EB3349"/>
				<stop  offset="1" style="stop-color:#F45C43"/>
			</linearGradient>
			<path fill="url(#SVGID_7_)" d="M6.642,51.544l1.761-1.754c-8.75-11.588-7.833-28.194,2.736-38.726
				C21.708,0.533,38.317-0.325,49.875,8.466l1.76-1.754C39.105-3.032,20.934-2.171,9.4,9.32
				C-2.132,20.812-3.058,38.979,6.642,51.544z M54.597,54.68c11.534-11.493,12.459-29.661,2.759-42.226l-1.76,1.754
				c8.75,11.589,7.833,28.194-2.737,38.726C42.29,63.466,25.68,64.324,14.123,55.532l-1.76,1.755
				C24.893,67.031,43.064,66.171,54.597,54.68z"/>
		</g>
	</g>
	<g>
		<linearGradient id="SVGID_8_" gradientUnits="userSpaceOnUse" x1="12.0732" y1="34.752" x2="51.9238" y2="34.752">
			<stop  offset="0" style="stop-color:#EB3349"/>
			<stop  offset="1" style="stop-color:#F45C43"/>
		</linearGradient>
		<path fill-rule="evenodd" clip-rule="evenodd" fill="url(#SVGID_8_)" d="M12.073,23.386c0.208-0.732,0.505-1.416,1.057-1.964
			c0.763-0.759,1.689-1.156,2.76-1.159c3.89-0.011,7.781-0.005,11.672-0.005c0.078,0,0.156-0.003,0.232,0.009
			c0.378,0.055,0.65,0.363,0.639,0.716c-0.013,0.363-0.287,0.63-0.698,0.635c-0.999,0.01-1.997,0.005-2.996,0.005
			c-2.905,0-5.81-0.004-8.715,0.001c-1.303,0.003-2.246,0.704-2.554,1.864c-0.067,0.255-0.062,0.515-0.062,0.772
			c-0.001,6.99,0.017,13.981-0.015,20.971c-0.008,1.59,1.164,2.656,2.656,2.654c10.66-0.014,21.321-0.006,31.981-0.008
			c1.513-0.001,2.556-1.035,2.557-2.539c0.005-7.016-0.018-14.032,0.017-21.048c0.007-1.492-1.045-2.687-2.72-2.677
			c-3.903,0.024-7.806,0.009-11.71,0.007c-0.513,0-0.794-0.186-0.848-0.555c-0.071-0.479,0.241-0.804,0.8-0.806
			c1.427-0.006,2.854-0.005,4.28-0.005c2.374,0,4.749,0.061,7.119-0.014c2.415-0.075,3.962,1.26,4.399,3.145
			c0,7.575,0,15.151,0,22.727c-0.427,1.864-1.98,3.184-4.393,3.153c-5.34-0.069-10.68-0.02-16.021-0.02
			c-5.146,0-10.292-0.002-15.438,0.002c-0.937,0-1.792-0.236-2.543-0.808c-0.778-0.593-1.211-1.401-1.457-2.328
			C12.073,38.537,12.073,30.961,12.073,23.386z"/>
		<linearGradient id="SVGID_9_" gradientUnits="userSpaceOnUse" x1="14.7246" y1="34.9785" x2="35.0781" y2="34.9785">
			<stop  offset="0" style="stop-color:#EB3349"/>
			<stop  offset="1" style="stop-color:#F45C43"/>
		</linearGradient>
		<path fill-rule="evenodd" clip-rule="evenodd" fill="url(#SVGID_9_)" d="M24.787,45.12c-2.64-0.063-5.383-0.178-8.081-0.781
			c-0.57-0.128-1.124-0.309-1.671-0.512c-0.201-0.074-0.329-0.185-0.309-0.428c0.1-1.231,0.435-2.39,1.024-3.479
			c0.544-1.007,1.363-1.664,2.423-2.078c1.267-0.496,2.524-1.021,3.734-1.648c0.482-0.251,0.44-0.245,0.177-0.693
			c-0.567-0.964-1.096-1.951-1.666-2.916c-0.281-0.475-0.319-1.036-0.271-1.589c0.01-0.115,0.01-0.262,0.077-0.336
			c0.545-0.602,0.334-1.342,0.374-2.027c0.029-0.524,0.088-1.032,0.296-1.515c0.469-1.087,1.291-1.768,2.429-2.06
			c1.292-0.331,2.576-0.315,3.809,0.232c1.327,0.591,1.962,1.675,2.083,3.087c0.03,0.335-0.008,0.675,0.013,1.011
			c0.024,0.413-0.007,0.813,0.317,1.191c0.282,0.33,0.168,0.823,0.098,1.244c-0.121,0.723-0.458,1.346-0.943,1.889
			c-0.159,0.178-0.273,0.37-0.342,0.6c-0.15,0.503-0.398,0.961-0.737,1.359c-0.17,0.201-0.125,0.288,0.082,0.404
			c0.805,0.451,1.655,0.804,2.499,1.173c0.535,0.232,1.069,0.47,1.615,0.675c0.993,0.373,1.722,1.029,2.228,1.957
			c0.579,1.062,0.94,2.18,1.032,3.394c0.027,0.369-0.117,0.498-0.424,0.611c-1.188,0.436-2.423,0.667-3.669,0.836
			C28.962,44.995,26.931,45.09,24.787,45.12z"/>
		<linearGradient id="SVGID_10_" gradientUnits="userSpaceOnUse" x1="28.9424" y1="18.7588" x2="35.0527" y2="18.7588">
			<stop  offset="0" style="stop-color:#EB3349"/>
			<stop  offset="1" style="stop-color:#F45C43"/>
		</linearGradient>
		<path fill-rule="evenodd" clip-rule="evenodd" fill="url(#SVGID_10_)" d="M32.026,12.938c0.415,0,0.83,0,1.245,0
			c1.089,0.001,1.813,0.707,1.781,1.802c-0.028,0.983-0.112,1.965-0.18,2.947c-0.091,1.329-0.187,2.66-0.288,3.989
			c-0.038,0.503-0.052,1.014-0.153,1.504c-0.197,0.963-0.783,1.403-1.76,1.399c-0.506-0.001-1.012,0.003-1.518,0
			c-1.069-0.006-1.756-0.634-1.817-1.702c-0.093-1.642-0.163-3.285-0.244-4.928c-0.05-1.034-0.122-2.069-0.149-3.104
			c-0.032-1.229,0.66-1.913,1.877-1.907C31.222,12.938,31.624,12.938,32.026,12.938z"/>
		<linearGradient id="SVGID_11_" gradientUnits="userSpaceOnUse" x1="36.4995" y1="28.1729" x2="48.3701" y2="28.1729">
			<stop  offset="0" style="stop-color:#EB3349"/>
			<stop  offset="1" style="stop-color:#F45C43"/>
		</linearGradient>
		<path fill-rule="evenodd" clip-rule="evenodd" fill="url(#SVGID_11_)" d="M42.427,27.489c1.709-0.001,3.419,0.002,5.128-0.002
			c0.321,0,0.592,0.084,0.742,0.392c0.229,0.47-0.107,0.963-0.684,0.971c-1.126,0.014-2.254,0.007-3.38,0.007
			c-2.241,0-4.481-0.001-6.723-0.002c-0.09,0-0.181,0.002-0.271-0.003c-0.446-0.028-0.74-0.305-0.739-0.693
			c0.002-0.375,0.315-0.665,0.759-0.666C38.981,27.486,40.704,27.489,42.427,27.489z"/>
		<linearGradient id="SVGID_12_" gradientUnits="userSpaceOnUse" x1="36.4985" y1="33.6279" x2="48.3638" y2="33.6279">
			<stop  offset="0" style="stop-color:#EB3349"/>
			<stop  offset="1" style="stop-color:#F45C43"/>
		</linearGradient>
		<path fill-rule="evenodd" clip-rule="evenodd" fill="url(#SVGID_12_)" d="M42.389,34.31c-1.673,0-3.346,0-5.02,0
			c-0.552,0-0.87-0.243-0.871-0.665c-0.001-0.415,0.335-0.696,0.86-0.696c3.384-0.002,6.77-0.003,10.156,0
			c0.552,0.001,0.903,0.338,0.842,0.783c-0.051,0.374-0.318,0.575-0.793,0.576C45.839,34.31,44.114,34.309,42.389,34.31
			L42.389,34.31z"/>
	</g>
</g>
</svg>
