<?xml version="1.0" encoding="utf-8"?>
<!-- Generator: Adobe Illustrator 16.0.3, SVG Export Plug-In . SVG Version: 6.00 Build 0)  -->
<!DOCTYPE svg PUBLIC "-//W3C//DTD SVG 1.1//EN" "http://www.w3.org/Graphics/SVG/1.1/DTD/svg11.dtd">
<svg version="1.1" id="Layer_1" xmlns="http://www.w3.org/2000/svg" xmlns:xlink="http://www.w3.org/1999/xlink" x="0px" y="0px"
	 width="64px" height="64px" viewBox="0 0 64 64" enable-background="new 0 0 64 64" xml:space="preserve">
<g>
	<g>
		<g>
			<g>
				<linearGradient id="SVGID_1_" gradientUnits="userSpaceOnUse" x1="9.3799" y1="53.3105" x2="11.8462" y2="53.3105">
					<stop  offset="0" style="stop-color:#EB3349"/>
					<stop  offset="1" style="stop-color:#F45C43"/>
				</linearGradient>
				<path fill="url(#SVGID_1_)" d="M11.488,52.445l-0.005-0.006c-0.48-0.48-1.26-0.482-1.741-0.003
					c-0.482,0.479-0.483,1.26-0.003,1.743c0.48,0.48,1.262,0.484,1.744,0.004C11.965,53.704,11.968,52.927,11.488,52.445z"/>
			</g>
		</g>
	</g>
	<g>
		<g>
			<g>
				<linearGradient id="SVGID_2_" gradientUnits="userSpaceOnUse" x1="11.8955" y1="56.3086" x2="14.3623" y2="56.3086">
					<stop  offset="0" style="stop-color:#EB3349"/>
					<stop  offset="1" style="stop-color:#F45C43"/>
				</linearGradient>
				<path fill="url(#SVGID_2_)" d="M14.004,55.443L14,55.438c-0.48-0.48-1.26-0.482-1.742-0.002
					c-0.481,0.479-0.483,1.26-0.003,1.741s1.262,0.485,1.744,0.005C14.48,56.701,14.484,55.925,14.004,55.443z"/>
			</g>
		</g>
	</g>
	<g>
		<g>
			<g>
				<linearGradient id="SVGID_3_" gradientUnits="userSpaceOnUse" x1="6.3188" y1="50.7109" x2="8.7852" y2="50.7109">
					<stop  offset="0" style="stop-color:#EB3349"/>
					<stop  offset="1" style="stop-color:#F45C43"/>
				</linearGradient>
				<path fill="url(#SVGID_3_)" d="M8.427,49.846l-0.005-0.005c-0.48-0.481-1.26-0.483-1.742-0.003
					c-0.481,0.48-0.483,1.26-0.003,1.741s1.262,0.485,1.744,0.007C8.903,51.104,8.907,50.328,8.427,49.846z"/>
			</g>
		</g>
	</g>
	<g>
		<g>
			<g>
				<linearGradient id="SVGID_4_" gradientUnits="userSpaceOnUse" x1="52.6768" y1="10.168" x2="55.1431" y2="10.168">
					<stop  offset="0" style="stop-color:#EB3349"/>
					<stop  offset="1" style="stop-color:#F45C43"/>
				</linearGradient>
				<path fill="url(#SVGID_4_)" d="M54.786,9.303L54.78,9.298c-0.479-0.481-1.259-0.483-1.741-0.003
					c-0.481,0.48-0.483,1.26-0.002,1.741c0.479,0.481,1.262,0.485,1.743,0.005C55.261,10.561,55.266,9.785,54.786,9.303z"/>
			</g>
		</g>
	</g>
	<g>
		<g>
			<g>
				<linearGradient id="SVGID_5_" gradientUnits="userSpaceOnUse" x1="55.2168" y1="13.2871" x2="57.6836" y2="13.2871">
					<stop  offset="0" style="stop-color:#EB3349"/>
					<stop  offset="1" style="stop-color:#F45C43"/>
				</linearGradient>
				<path fill="url(#SVGID_5_)" d="M57.326,12.422l-0.005-0.006c-0.48-0.48-1.26-0.482-1.741-0.003
					c-0.482,0.48-0.484,1.259-0.003,1.741s1.262,0.486,1.743,0.006C57.802,13.68,57.806,12.904,57.326,12.422z"/>
			</g>
		</g>
	</g>
	<g>
		<g>
			<g>
				<linearGradient id="SVGID_6_" gradientUnits="userSpaceOnUse" x1="49.5674" y1="7.6172" x2="52.0342" y2="7.6172">
					<stop  offset="0" style="stop-color:#EB3349"/>
					<stop  offset="1" style="stop-color:#F45C43"/>
				</linearGradient>
				<path fill="url(#SVGID_6_)" d="M51.676,6.751l-0.005-0.005c-0.48-0.48-1.259-0.482-1.741-0.002
					c-0.482,0.479-0.483,1.259-0.003,1.74c0.48,0.482,1.263,0.486,1.744,0.006C52.152,8.011,52.156,7.234,51.676,6.751z"/>
			</g>
		</g>
	</g>
	<g>
		<linearGradient id="SVGID_7_" gradientUnits="userSpaceOnUse" x1="4.882813e-004" y1="31.999" x2="64" y2="31.999">
			<stop  offset="0" style="stop-color:#EB3349"/>
			<stop  offset="1" style="stop-color:#F45C43"/>
		</linearGradient>
		<path fill="url(#SVGID_7_)" d="M6.643,51.544l1.761-1.754c-8.75-11.589-7.833-28.194,2.736-38.726
			C21.71,0.532,38.319-0.325,49.876,8.466l1.76-1.754C39.106-3.032,20.935-2.172,9.402,9.319
			C-2.131,20.811-3.057,38.979,6.643,51.544z M54.598,54.68c11.534-11.493,12.458-29.661,2.759-42.227l-1.76,1.754
			c8.75,11.59,7.833,28.195-2.737,38.727c-10.569,10.532-27.179,11.39-38.736,2.598l-1.76,1.756
			C24.895,67.031,43.066,66.17,54.598,54.68z"/>
	</g>
</g>
<g>
	<text transform="matrix(1 0 0 1 -46.5161 -3.7012)" fill="#79FF00" font-family="'MyriadPro-BoldCond'" font-size="18">Creative Concepts</text>
</g>
<linearGradient id="SVGID_8_" gradientUnits="userSpaceOnUse" x1="24.2197" y1="50.9023" x2="39.0625" y2="50.9023">
	<stop  offset="0" style="stop-color:#EB3349"/>
	<stop  offset="1" style="stop-color:#F45C43"/>
</linearGradient>
<path fill-rule="evenodd" clip-rule="evenodd" fill="url(#SVGID_8_)" d="M31.644,51.872c-2.143,0-4.286,0.004-6.429-0.003
	c-0.705-0.002-1.165-0.666-0.936-1.317c0.132-0.377,0.515-0.615,1.015-0.616c1.394-0.003,2.787-0.001,4.18-0.001
	c2.815,0,5.631,0.001,8.447-0.002c0.298,0,0.571,0.054,0.798,0.265c0.315,0.291,0.428,0.706,0.277,1.074
	c-0.163,0.396-0.462,0.599-0.895,0.599c-2.152,0-4.305,0-6.458,0C31.644,51.871,31.644,51.871,31.644,51.872z"/>
<linearGradient id="SVGID_9_" gradientUnits="userSpaceOnUse" x1="26.4038" y1="54.4629" x2="36.8804" y2="54.4629">
	<stop  offset="0" style="stop-color:#EB3349"/>
	<stop  offset="1" style="stop-color:#F45C43"/>
</linearGradient>
<path fill-rule="evenodd" clip-rule="evenodd" fill="url(#SVGID_9_)" d="M31.655,52.708c1.384,0,2.768-0.003,4.151,0.002
	c0.586,0.002,0.972,0.308,1.061,0.816c0.05,0.285-0.04,0.508-0.281,0.673c-0.219,0.149-0.467,0.251-0.721,0.275
	c-0.673,0.065-1.204,0.422-1.742,0.778c-0.393,0.26-0.798,0.497-1.229,0.692c-1.028,0.467-2.008,0.303-2.946-0.244
	c-0.461-0.27-0.941-0.509-1.366-0.842c-0.236-0.185-0.512-0.293-0.819-0.324c-0.316-0.032-0.621-0.121-0.908-0.268
	c-0.301-0.153-0.486-0.368-0.447-0.727c0.041-0.372,0.249-0.617,0.584-0.755c0.179-0.073,0.374-0.079,0.567-0.079
	C28.925,52.709,30.29,52.708,31.655,52.708z"/>
<linearGradient id="SVGID_10_" gradientUnits="userSpaceOnUse" x1="47.6143" y1="29.582" x2="52.5322" y2="29.582">
	<stop  offset="0" style="stop-color:#EB3349"/>
	<stop  offset="1" style="stop-color:#F45C43"/>
</linearGradient>
<path fill-rule="evenodd" clip-rule="evenodd" fill="url(#SVGID_10_)" d="M50.066,30.507c-0.489,0-0.979,0.006-1.467-0.001
	c-0.422-0.008-0.798-0.264-0.929-0.612c-0.209-0.562,0.203-1.199,0.842-1.221c1.006-0.032,2.014-0.014,3.021-0.006
	c0.168,0,0.342,0.04,0.497,0.128c0.358,0.203,0.565,0.598,0.486,0.931c-0.104,0.435-0.48,0.752-0.924,0.779
	c-0.019,0.001-0.038,0.002-0.058,0.002C51.044,30.507,50.556,30.507,50.066,30.507z"/>
<g>
	<linearGradient id="SVGID_11_" gradientUnits="userSpaceOnUse" x1="32.2896" y1="28.8916" x2="46.4004" y2="28.8916">
		<stop  offset="0" style="stop-color:#EB3349"/>
		<stop  offset="1" style="stop-color:#F45C43"/>
	</linearGradient>
	<path fill-rule="evenodd" clip-rule="evenodd" fill="url(#SVGID_11_)" d="M32.294,28.857c0-4.776,0.001-9.555-0.005-14.332
		c0-0.226,0.099-0.242,0.28-0.244c3.293-0.028,6.105,1.159,8.541,3.337c1.125,1.005,1.807,2.278,2.32,3.659
		c0.318,0.855,0.615,1.718,0.542,2.661c-0.042,0.543-0.124,1.061-0.413,1.539c-0.321,0.532-0.127,1.219,0.379,1.752
		c0.832,0.875,1.697,1.732,2.208,2.859c0.143,0.316,0.265,0.633,0.254,0.994c-0.019,0.598-0.471,1.074-1.072,1.1
		c-0.096,0.005-0.192,0-0.288,0.007c-0.422,0.031-0.641,0.215-0.678,0.632c-0.05,0.567-0.179,1.144,0.139,1.689
		c0.109,0.187-0.042,0.346-0.182,0.437c-0.189,0.122-0.231,0.232-0.138,0.444c0.123,0.282,0.013,0.522-0.261,0.675
		c-0.541,0.299-0.681,0.588-0.56,1.202c0.087,0.443,0.142,0.888,0.156,1.342c0.032,1.077-0.653,1.753-1.485,2.08
		c-0.556,0.218-1.141,0.331-1.747,0.315c-0.528-0.013-1.058-0.001-1.586,0.011c-0.471,0.012-0.532,0.074-0.607,0.547
		c-0.083,0.521-0.174,1.042-0.243,1.565c-0.036,0.271-0.125,0.378-0.433,0.374c-1.567-0.021-3.134-0.01-4.7-0.01
		c-0.416-0.001-0.416-0.002-0.416-0.419c0-4.738,0-9.478,0-14.217C32.296,28.857,32.295,28.857,32.294,28.857z"/>
	<linearGradient id="SVGID_12_" gradientUnits="userSpaceOnUse" x1="17.9341" y1="35.0967" x2="31.5571" y2="35.0967">
		<stop  offset="0" style="stop-color:#EB3349"/>
		<stop  offset="1" style="stop-color:#F45C43"/>
	</linearGradient>
	<path fill-rule="evenodd" clip-rule="evenodd" fill="url(#SVGID_12_)" d="M24.667,30.098c2.038,0,4.075-0.001,6.113,0
		c0.124,0.001,0.25,0.004,0.373,0.021c0.215,0.03,0.348,0.147,0.362,0.378c0.01,0.183,0.04,0.363,0.041,0.545
		c0.003,2.739,0.002,5.479,0.002,8.218c0,0.067,0.001,0.135-0.001,0.202c-0.021,0.498-0.153,0.631-0.648,0.631
		c-2.556,0.001-5.113-0.004-7.669,0.005c-0.352,0.001-0.595-0.121-0.798-0.41c-1.07-1.526-2.148-3.049-2.992-4.716
		c-0.671-1.325-1.159-2.721-1.485-4.171c-0.025-0.111-0.023-0.229-0.028-0.344c-0.009-0.21,0.101-0.322,0.304-0.346
		c0.095-0.011,0.191-0.014,0.288-0.014C20.573,30.096,22.62,30.097,24.667,30.098C24.667,30.097,24.667,30.097,24.667,30.098z
		 M25.179,32.424c-1.239,0-2.478,0.003-3.717-0.005c-0.244-0.002-0.345,0.074-0.278,0.316c0.117,0.426,0.225,0.854,0.357,1.273
		c0.399,1.267,1.06,2.4,1.799,3.495c0.164,0.243,0.37,0.324,0.656,0.323c1.613-0.01,3.228-0.011,4.841-0.002
		c0.256,0.001,0.356-0.068,0.354-0.34c-0.01-1.575-0.011-3.15,0-4.726c0.002-0.271-0.095-0.344-0.353-0.342
		C27.619,32.428,26.399,32.423,25.179,32.424z"/>
	<linearGradient id="SVGID_13_" gradientUnits="userSpaceOnUse" x1="17.6333" y1="25.6533" x2="31.5122" y2="25.6533">
		<stop  offset="0" style="stop-color:#EB3349"/>
		<stop  offset="1" style="stop-color:#F45C43"/>
	</linearGradient>
	<path fill-rule="evenodd" clip-rule="evenodd" fill="url(#SVGID_13_)" d="M24.615,29.759c-2.018,0-4.036,0-6.055-0.001
		c-0.125,0-0.25-0.005-0.374-0.015c-0.296-0.021-0.449-0.185-0.475-0.478c-0.121-1.423-0.133-2.844,0.185-4.244
		c0.247-1.091,0.642-2.131,1.244-3.083c0.156-0.246,0.357-0.387,0.66-0.384c0.702,0.005,1.403-0.002,2.105,0
		c0.08,0.001,0.189-0.041,0.231,0.061c0.032,0.077-0.049,0.139-0.089,0.201c-0.832,1.28-1.37,2.679-1.64,4.18
		c-0.079,0.437-0.104,0.876-0.098,1.319c0.003,0.214,0.07,0.316,0.301,0.314c1.046-0.007,2.093-0.009,3.139,0
		c0.253,0.002,0.304-0.118,0.304-0.337c-0.005-1.346-0.002-2.691-0.002-4.037c0-0.427,0-0.426,0.412-0.426
		c0.683,0,1.365,0.014,2.047-0.008c0.269-0.009,0.323,0.091,0.322,0.33c-0.008,1.345-0.005,2.691-0.005,4.037
		c0,0.408,0.001,0.401,0.4,0.446c0.537,0.059,1.076,0.007,1.612,0.034c0.271,0.014,0.345-0.099,0.344-0.355
		c-0.008-1.729-0.005-3.461-0.004-5.19c0-0.622-0.048-0.567,0.58-0.57c0.413-0.002,0.827-0.006,1.24-0.006
		c0.366,0,0.511,0.132,0.511,0.501c0.003,2.393,0.003,4.786,0,7.179c0,0.393-0.099,0.494-0.493,0.521
		c-0.268,0.018-0.538,0.008-0.807,0.008C28.345,29.758,26.48,29.758,24.615,29.759C24.615,29.758,24.615,29.758,24.615,29.759z"/>
	<linearGradient id="SVGID_14_" gradientUnits="userSpaceOnUse" x1="19.8486" y1="17.6875" x2="31.562" y2="17.6875">
		<stop  offset="0" style="stop-color:#EB3349"/>
		<stop  offset="1" style="stop-color:#F45C43"/>
	</linearGradient>
	<path fill-rule="evenodd" clip-rule="evenodd" fill="url(#SVGID_14_)" d="M25.601,21.115c-1.758,0-3.517,0.001-5.276-0.002
		c-0.155,0-0.352,0.059-0.443-0.123c-0.098-0.194,0.042-0.348,0.147-0.496c1.343-1.919,3.081-3.39,5.149-4.47
		c1.877-0.979,3.875-1.564,5.984-1.769c0.242-0.023,0.376,0.09,0.388,0.317c0.016,0.345,0.017,0.691,0.002,1.036
		c-0.013,0.284-0.218,0.385-0.47,0.412c-0.565,0.063-1.116,0.194-1.67,0.311c-0.294,0.062-0.41,0.2-0.4,0.512
		c0.022,0.711,0.014,1.423,0.003,2.134c-0.004,0.247,0.081,0.343,0.334,0.337c0.566-0.013,1.134-0.009,1.7-0.001
		c0.369,0.006,0.454,0.098,0.462,0.47c0.005,0.221,0.004,0.441,0.002,0.663c-0.007,0.593-0.082,0.669-0.664,0.669
		C29.099,21.117,27.35,21.116,25.601,21.115C25.601,21.115,25.601,21.115,25.601,21.115z M23.682,19.309
		c0.952,0,1.835,0.001,2.718-0.001c0.354-0.001,0.393-0.04,0.409-0.394c0.024-0.52-0.065-1.036-0.033-1.557
		c0.013-0.213-0.132-0.104-0.214-0.067c-0.693,0.313-1.36,0.673-1.966,1.136C24.277,18.67,23.967,18.925,23.682,19.309z"/>
	<linearGradient id="SVGID_15_" gradientUnits="userSpaceOnUse" x1="24.2197" y1="48.1348" x2="39.0547" y2="48.1348">
		<stop  offset="0" style="stop-color:#EB3349"/>
		<stop  offset="1" style="stop-color:#F45C43"/>
	</linearGradient>
	<path fill-rule="evenodd" clip-rule="evenodd" fill="url(#SVGID_15_)" d="M31.626,49.101c-2.142,0-4.285,0.003-6.428-0.002
		c-0.683-0.002-1.146-0.661-0.923-1.302c0.131-0.377,0.429-0.55,0.8-0.62c0.066-0.013,0.134-0.009,0.202-0.009
		c4.237-0.001,8.474-0.001,12.711,0.001c0.488,0,0.865,0.256,1.008,0.669c0.219,0.631-0.211,1.255-0.885,1.26
		c-1.134,0.009-2.268,0.003-3.401,0.003C33.683,49.101,32.654,49.101,31.626,49.101z"/>
	<linearGradient id="SVGID_16_" gradientUnits="userSpaceOnUse" x1="24.2231" y1="45.3623" x2="39.0537" y2="45.3623">
		<stop  offset="0" style="stop-color:#EB3349"/>
		<stop  offset="1" style="stop-color:#F45C43"/>
	</linearGradient>
	<path fill-rule="evenodd" clip-rule="evenodd" fill="url(#SVGID_16_)" d="M31.655,46.331c-2.133,0-4.266,0.002-6.398-0.001
		c-0.473,0-0.832-0.242-0.968-0.632c-0.234-0.672,0.179-1.279,0.903-1.299c0.662-0.017,1.326-0.005,1.988-0.005
		c3.584,0,7.167,0,10.75,0.001c0.546,0,0.937,0.258,1.075,0.699c0.196,0.627-0.229,1.228-0.894,1.234
		c-1.153,0.009-2.306,0.004-3.459,0.004c-0.999,0-1.998,0-2.998,0C31.655,46.333,31.655,46.332,31.655,46.331z"/>
	<linearGradient id="SVGID_17_" gradientUnits="userSpaceOnUse" x1="26.2471" y1="41.9902" x2="31.5645" y2="41.9902">
		<stop  offset="0" style="stop-color:#EB3349"/>
		<stop  offset="1" style="stop-color:#F45C43"/>
	</linearGradient>
	<path fill-rule="evenodd" clip-rule="evenodd" fill="url(#SVGID_17_)" d="M28.906,43.492c-0.682,0-1.363,0.002-2.045-0.001
		c-0.456-0.002-0.608-0.15-0.611-0.603c-0.004-0.576-0.003-1.151,0-1.728c0.003-0.497,0.149-0.649,0.653-0.667
		c0.345-0.013,0.691-0.004,1.038-0.004c0.97,0,1.939-0.002,2.909,0.003c0.592,0.002,0.708,0.12,0.712,0.709
		c0.003,0.556,0.003,1.113,0,1.67c-0.003,0.501-0.114,0.615-0.609,0.618C30.271,43.494,29.588,43.491,28.906,43.492
		C28.906,43.491,28.906,43.491,28.906,43.492z"/>
	<linearGradient id="SVGID_18_" gradientUnits="userSpaceOnUse" x1="42.5117" y1="15.8877" x2="46.5122" y2="15.8877">
		<stop  offset="0" style="stop-color:#EB3349"/>
		<stop  offset="1" style="stop-color:#F45C43"/>
	</linearGradient>
	<path fill-rule="evenodd" clip-rule="evenodd" fill="url(#SVGID_18_)" d="M45.572,13.892c0.423,0.006,0.688,0.16,0.837,0.475
		c0.179,0.378,0.121,0.76-0.155,1.049c-0.723,0.758-1.461,1.501-2.222,2.223c-0.373,0.354-0.949,0.312-1.286-0.027
		c-0.306-0.308-0.326-0.892,0.01-1.27c0.433-0.487,0.905-0.939,1.365-1.403c0.25-0.252,0.504-0.502,0.767-0.74
		C45.101,14.006,45.347,13.88,45.572,13.892z"/>
	<linearGradient id="SVGID_19_" gradientUnits="userSpaceOnUse" x1="17.1274" y1="15.8779" x2="21.0957" y2="15.8779">
		<stop  offset="0" style="stop-color:#EB3349"/>
		<stop  offset="1" style="stop-color:#F45C43"/>
	</linearGradient>
	<path fill-rule="evenodd" clip-rule="evenodd" fill="url(#SVGID_19_)" d="M17.127,14.691c0.011-0.286,0.154-0.547,0.473-0.702
		c0.382-0.187,0.759-0.13,1.046,0.143c0.752,0.712,1.487,1.444,2.197,2.197c0.358,0.382,0.318,0.985-0.01,1.315
		c-0.311,0.312-0.883,0.315-1.29-0.029c-0.321-0.271-0.606-0.586-0.906-0.882c-0.368-0.365-0.732-0.733-1.103-1.095
		C17.283,15.394,17.128,15.107,17.127,14.691z"/>
	<linearGradient id="SVGID_20_" gradientUnits="userSpaceOnUse" x1="11.4775" y1="29.582" x2="16.3867" y2="29.582">
		<stop  offset="0" style="stop-color:#EB3349"/>
		<stop  offset="1" style="stop-color:#F45C43"/>
	</linearGradient>
	<path fill-rule="evenodd" clip-rule="evenodd" fill="url(#SVGID_20_)" d="M13.877,30.507c-0.471,0-0.941,0.01-1.412-0.003
		c-0.597-0.018-1.002-0.427-0.987-0.974c0.012-0.457,0.413-0.853,0.945-0.862c1.008-0.02,2.017-0.018,3.024,0.001
		c0.544,0.011,0.939,0.432,0.939,0.937c0,0.48-0.411,0.862-0.983,0.896c-0.258,0.015-0.518,0.006-0.777,0.006
		C14.376,30.509,14.127,30.508,13.877,30.507L13.877,30.507z"/>
	<linearGradient id="SVGID_21_" gradientUnits="userSpaceOnUse" x1="42.9194" y1="41.8428" x2="46.9111" y2="41.8428">
		<stop  offset="0" style="stop-color:#EB3349"/>
		<stop  offset="1" style="stop-color:#F45C43"/>
	</linearGradient>
	<path fill-rule="evenodd" clip-rule="evenodd" fill="url(#SVGID_21_)" d="M46.079,43.836c-0.304-0.014-0.566-0.098-0.773-0.303
		c-0.696-0.688-1.391-1.378-2.076-2.077c-0.337-0.344-0.401-0.842-0.185-1.188c0.3-0.478,0.983-0.573,1.427-0.151
		c0.744,0.707,1.466,1.438,2.177,2.179c0.28,0.29,0.338,0.666,0.165,1.044C46.669,43.652,46.412,43.818,46.079,43.836z"/>
	<linearGradient id="SVGID_22_" gradientUnits="userSpaceOnUse" x1="17.1177" y1="41.8418" x2="21.0664" y2="41.8418">
		<stop  offset="0" style="stop-color:#EB3349"/>
		<stop  offset="1" style="stop-color:#F45C43"/>
	</linearGradient>
	<path fill-rule="evenodd" clip-rule="evenodd" fill="url(#SVGID_22_)" d="M21.066,40.959c-0.01,0.237-0.304,0.555-0.606,0.842
		c-0.202,0.191-0.404,0.378-0.589,0.586c-0.338,0.379-0.737,0.696-1.083,1.071c-0.237,0.257-0.569,0.402-0.938,0.358
		c-0.621-0.073-0.924-0.769-0.604-1.354c0.155-0.287,0.417-0.476,0.633-0.704c0.443-0.467,0.9-0.92,1.356-1.373
		c0.225-0.224,0.45-0.441,0.785-0.506C20.615,39.766,21.071,40.129,21.066,40.959z"/>
	<linearGradient id="SVGID_23_" gradientUnits="userSpaceOnUse" x1="31.0859" y1="10.2363" x2="32.8945" y2="10.2363">
		<stop  offset="0" style="stop-color:#EB3349"/>
		<stop  offset="1" style="stop-color:#F45C43"/>
	</linearGradient>
	<path fill-rule="evenodd" clip-rule="evenodd" fill="url(#SVGID_23_)" d="M32.89,10.218c0,0.519,0.013,1.038-0.004,1.557
		c-0.018,0.567-0.41,0.938-0.935,0.916c-0.458-0.02-0.845-0.393-0.853-0.889c-0.018-1.057-0.016-2.114,0-3.171
		c0.006-0.452,0.454-0.851,0.896-0.85c0.45,0.002,0.875,0.392,0.89,0.852c0.017,0.527,0.003,1.057,0.003,1.585
		C32.888,10.218,32.889,10.218,32.89,10.218z"/>
	<linearGradient id="SVGID_24_" gradientUnits="userSpaceOnUse" x1="23.3394" y1="42.0195" x2="25.9712" y2="42.0195">
		<stop  offset="0" style="stop-color:#EB3349"/>
		<stop  offset="1" style="stop-color:#F45C43"/>
	</linearGradient>
	<path fill-rule="evenodd" clip-rule="evenodd" fill="url(#SVGID_24_)" d="M25.97,42.073c0,0.316,0.004,0.634-0.001,0.95
		c-0.003,0.204-0.001,0.416-0.277,0.463c-0.377,0.063-0.695-0.053-0.792-0.306c-0.059-0.152-0.091-0.313-0.148-0.466
		c-0.111-0.297-0.312-0.521-0.568-0.707c-0.21-0.15-0.414-0.312-0.609-0.48c-0.196-0.17-0.255-0.395-0.227-0.651
		c0.023-0.217,0.129-0.337,0.35-0.337c0.595-0.002,1.19-0.01,1.786,0.002c0.313,0.007,0.469,0.171,0.482,0.496
		c0.013,0.345,0.002,0.689,0.002,1.036C25.967,42.073,25.969,42.073,25.97,42.073z"/>
</g>
</svg>
