<?xml version="1.0" encoding="utf-8"?>
<!-- Generator: Adobe Illustrator 16.0.0, SVG Export Plug-In . SVG Version: 6.00 Build 0)  -->
<!DOCTYPE svg PUBLIC "-//W3C//DTD SVG 1.1//EN" "http://www.w3.org/Graphics/SVG/1.1/DTD/svg11.dtd">
<svg version="1.1" id="Layer_1" xmlns="http://www.w3.org/2000/svg" xmlns:xlink="http://www.w3.org/1999/xlink" x="0px" y="0px"
	 width="64px" height="64px" viewBox="0 0 64 64" enable-background="new 0 0 64 64" xml:space="preserve">
<g>
	<g>
		<g>
			<g>
				<linearGradient id="SVGID_1_" gradientUnits="userSpaceOnUse" x1="9.3789" y1="53.3105" x2="11.8452" y2="53.3105">
					<stop  offset="0" style="stop-color:#EB3349"/>
					<stop  offset="1" style="stop-color:#F45C43"/>
				</linearGradient>
				<path fill="url(#SVGID_1_)" d="M11.487,52.446l-0.005-0.005c-0.48-0.481-1.26-0.483-1.741-0.003
					c-0.482,0.48-0.483,1.26-0.003,1.743c0.48,0.481,1.262,0.485,1.744,0.005C11.964,53.705,11.967,52.927,11.487,52.446z"/>
			</g>
		</g>
	</g>
	<g>
		<g>
			<g>
				<linearGradient id="SVGID_2_" gradientUnits="userSpaceOnUse" x1="11.895" y1="56.3086" x2="14.3608" y2="56.3086">
					<stop  offset="0" style="stop-color:#EB3349"/>
					<stop  offset="1" style="stop-color:#F45C43"/>
				</linearGradient>
				<path fill="url(#SVGID_2_)" d="M14.003,55.444l-0.005-0.006c-0.48-0.481-1.26-0.482-1.742-0.002
					c-0.481,0.48-0.483,1.26-0.003,1.742c0.48,0.481,1.262,0.485,1.744,0.005C14.479,56.702,14.483,55.925,14.003,55.444z"/>
			</g>
		</g>
	</g>
	<g>
		<g>
			<g>
				<linearGradient id="SVGID_3_" gradientUnits="userSpaceOnUse" x1="6.3174" y1="50.7109" x2="8.7842" y2="50.7109">
					<stop  offset="0" style="stop-color:#EB3349"/>
					<stop  offset="1" style="stop-color:#F45C43"/>
				</linearGradient>
				<path fill="url(#SVGID_3_)" d="M8.426,49.847l-0.005-0.005c-0.48-0.482-1.26-0.483-1.742-0.003
					c-0.481,0.48-0.483,1.26-0.003,1.742s1.262,0.486,1.744,0.006C8.902,51.105,8.906,50.328,8.426,49.847z"/>
			</g>
		</g>
	</g>
	<g>
		<g>
			<g>
				<linearGradient id="SVGID_4_" gradientUnits="userSpaceOnUse" x1="52.6758" y1="10.168" x2="55.1421" y2="10.168">
					<stop  offset="0" style="stop-color:#EB3349"/>
					<stop  offset="1" style="stop-color:#F45C43"/>
				</linearGradient>
				<path fill="url(#SVGID_4_)" d="M54.784,9.304l-0.006-0.005c-0.479-0.482-1.258-0.483-1.74-0.003
					c-0.481,0.48-0.483,1.26-0.002,1.741c0.479,0.481,1.262,0.486,1.742,0.005C55.261,10.562,55.265,9.786,54.784,9.304z"/>
			</g>
		</g>
	</g>
	<g>
		<g>
			<g>
				<linearGradient id="SVGID_5_" gradientUnits="userSpaceOnUse" x1="55.2158" y1="13.2866" x2="57.6826" y2="13.2866">
					<stop  offset="0" style="stop-color:#EB3349"/>
					<stop  offset="1" style="stop-color:#F45C43"/>
				</linearGradient>
				<path fill="url(#SVGID_5_)" d="M57.325,12.422l-0.006-0.005c-0.48-0.481-1.26-0.483-1.74-0.003
					c-0.482,0.48-0.484,1.259-0.004,1.742c0.48,0.481,1.262,0.485,1.743,0.005C57.801,13.681,57.805,12.904,57.325,12.422z"/>
			</g>
		</g>
	</g>
	<g>
		<g>
			<g>
				<linearGradient id="SVGID_6_" gradientUnits="userSpaceOnUse" x1="49.5659" y1="7.6172" x2="52.0327" y2="7.6172">
					<stop  offset="0" style="stop-color:#EB3349"/>
					<stop  offset="1" style="stop-color:#F45C43"/>
				</linearGradient>
				<path fill="url(#SVGID_6_)" d="M51.675,6.751L51.67,6.747c-0.479-0.481-1.259-0.483-1.741-0.002
					c-0.482,0.48-0.483,1.259-0.004,1.741c0.48,0.481,1.264,0.486,1.744,0.006C52.151,8.011,52.155,7.234,51.675,6.751z"/>
			</g>
		</g>
	</g>
	<g>
		<linearGradient id="SVGID_7_" gradientUnits="userSpaceOnUse" x1="-4.882813e-004" y1="31.9995" x2="63.999" y2="31.9995">
			<stop  offset="0" style="stop-color:#EB3349"/>
			<stop  offset="1" style="stop-color:#F45C43"/>
		</linearGradient>
		<path fill="url(#SVGID_7_)" d="M6.642,51.544l1.761-1.754c-8.75-11.588-7.833-28.194,2.736-38.726
			C21.709,0.533,38.317-0.325,49.876,8.466l1.76-1.754C39.105-3.032,20.934-2.171,9.401,9.32
			C-2.132,20.812-3.058,38.979,6.642,51.544z M54.597,54.68c11.534-11.493,12.459-29.661,2.76-42.226l-1.76,1.754
			c8.75,11.589,7.832,28.194-2.737,38.726c-10.569,10.532-27.179,11.39-38.736,2.598l-1.76,1.755
			C24.894,67.031,43.065,66.171,54.597,54.68z"/>
	</g>
</g>
<g>
	<text transform="matrix(1 0 0 1 0.9146 -3.6782)" fill="#79FF00" font-family="'MyriadPro-BoldCond'" font-size="18">Stationary</text>
</g>
<g>
	<g>
		<linearGradient id="SVGID_8_" gradientUnits="userSpaceOnUse" x1="15" y1="32" x2="48.998" y2="32">
			<stop  offset="0" style="stop-color:#EB3349"/>
			<stop  offset="1" style="stop-color:#F45C43"/>
		</linearGradient>
		<path fill-rule="evenodd" clip-rule="evenodd" fill="url(#SVGID_8_)" d="M35.605,10.327c0.314,0.261,0.396,0.597,0.396,1
			c-0.009,5.385-0.006,10.769-0.003,16.152c0,0.127-0.049,0.266,0.07,0.42c0.541-0.976,1.07-1.929,1.598-2.885
			c0.683-1.237,1.355-2.48,2.05-3.712c0.173-0.303,0.167-0.516-0.056-0.803c-0.943-1.229-1.023-2.82-0.207-4.142
			c0.364-0.587,0.791-1.135,1.19-1.701c0.678-0.965,0.886-1.958,0.205-3.021c-0.188-0.299-0.213-0.637,0.017-0.932
			c0.242-0.308,0.564-0.344,0.937-0.248c2.887,0.742,4.979,3.436,5.03,6.419c0.023,1.423-0.312,2.705-1.208,3.826
			c-0.485,0.609-1.097,1.026-1.839,1.238c-0.253,0.073-0.41,0.186-0.506,0.444c-0.787,2.096-1.587,4.19-2.382,6.282
			c-0.084,0.217-0.156,0.388,0.209,0.416c0.441,0.032,0.654,0.331,0.66,0.766c0.008,0.571,0.013,1.142,0,1.713
			c-0.007,0.293,0.104,0.393,0.394,0.398c0.72,0.016,1.441-0.055,2.161,0.083c2.524,0.485,4.465,2.595,4.656,5.084
			c0.213,2.816-1.279,5.227-3.782,6.125c-0.927,0.332-1.89,0.352-2.853,0.303c-0.458-0.022-0.59,0.122-0.583,0.58
			c0.026,1.73,0.015,3.459,0.008,5.189c-0.007,2.408-1.924,4.341-4.319,4.345c-5.325,0.006-10.648,0.007-15.973,0
			c-2.322-0.003-4.307-2.013-4.308-4.337c-0.001-6.437-0.001-12.874-0.001-19.309c0-0.61,0.104-0.784,0.671-0.949
			c0.341-0.1,0.143-0.271,0.08-0.401c-0.456-0.934-0.853-1.903-1.403-2.776c-0.857-1.361-0.95-2.885-1.142-4.399
			c-0.109-0.864-0.216-1.728-0.321-2.594c-0.019-0.148-0.032-0.298-0.045-0.449c-0.029-0.334,0.035-0.636,0.344-0.823
			c0.319-0.192,0.631-0.125,0.938,0.05c1.056,0.607,2.115,1.212,3.17,1.817c0.301,0.17,0.585,0.38,0.902,0.509
			c0.794,0.321,1.228,0.928,1.589,1.676c1.104,2.29,2.26,4.552,3.398,6.825c0.066,0.134,0.135,0.268,0.208,0.4
			c0.037,0.067,0.091,0.134,0.175,0.11c0.083-0.025,0.093-0.108,0.095-0.185c0.001-0.106,0.001-0.212,0.001-0.316
			c0.001-5.729,0.004-11.46-0.003-17.189c-0.001-0.403,0.079-0.74,0.396-1C29.349,10.327,32.477,10.327,35.605,10.327z
			 M29.492,30.571c0-0.001,0-0.001,0-0.001c-3.397,0-6.795,0-10.192,0c-0.63,0-0.631,0-0.631,0.648c0,1.519,0.001,3.036,0.001,4.555
			c0,4.45-0.004,8.899,0.001,13.349c0.003,1.933,1.133,3.043,3.072,3.044c0.751,0,1.503,0,2.254,0
			c4.404,0.002,8.809,0.007,13.212-0.002c1.014-0.001,1.947-0.237,2.563-1.146c0.395-0.584,0.492-1.254,0.492-1.937
			c0.004-5.983-0.003-11.967,0.015-17.948c0.001-0.476-0.158-0.572-0.596-0.569C36.287,30.578,32.889,30.571,29.492,30.571z
			 M27.335,20.417c0,2.722,0.001,5.444-0.003,8.165c0,0.281,0.004,0.493,0.392,0.491c2.121-0.014,4.241-0.011,6.36-0.004
			c0.278,0,0.416-0.078,0.409-0.383c-0.011-0.692-0.008-1.384,0.003-2.075c0.004-0.269-0.096-0.381-0.369-0.376
			c-0.556,0.012-1.113,0.009-1.669,0.002c-0.551-0.008-0.859-0.295-0.849-0.771c0.012-0.452,0.317-0.722,0.848-0.729
			c0.556-0.007,1.114-0.01,1.668,0c0.274,0.006,0.375-0.104,0.371-0.373c-0.011-0.661-0.022-1.324,0.004-1.984
			c0.017-0.39-0.141-0.483-0.499-0.478c-0.979,0.019-1.956,0.008-2.933,0.003c-0.595-0.003-0.909-0.273-0.902-0.762
			c0.006-0.467,0.317-0.734,0.882-0.737c0.826-0.004,1.654,0.009,2.481-0.004c1.102-0.018,0.941,0.208,0.967-0.99
			c0.007-0.293-0.103-0.403-0.395-0.396c-0.586,0.012-1.174,0.013-1.76-0.003c-0.451-0.016-0.732-0.318-0.732-0.748
			c0.001-0.426,0.287-0.725,0.739-0.743c0.405-0.016,0.811,0,1.218-0.006c1.046-0.017,0.906,0.165,0.934-0.938
			c0.01-0.374-0.148-0.457-0.484-0.453c-0.977,0.015-1.954,0.008-2.931,0.007c-0.596-0.002-0.915-0.263-0.918-0.751
			c-0.004-0.488,0.308-0.75,0.909-0.752c1.007-0.003,2.016-0.009,3.022,0.001c0.292,0.003,0.403-0.103,0.396-0.396
			c-0.011-0.646-0.023-1.295,0.007-1.939c0.021-0.411-0.138-0.506-0.521-0.503c-2.031,0.017-4.061,0.021-6.089,0.002
			c-0.428-0.005-0.568,0.104-0.565,0.55C27.344,15.036,27.335,17.727,27.335,20.417z M41.771,37.728
			c0,1.292,0.011,2.582-0.007,3.874c-0.004,0.355,0.11,0.489,0.466,0.463c0.329-0.022,0.661,0.008,0.989-0.009
			c1.55-0.072,2.901-0.542,3.697-1.996c0.515-0.936,0.611-1.95,0.503-3.009c-0.17-1.682-1.29-3.021-2.935-3.419
			c-0.751-0.181-1.517-0.174-2.283-0.18c-0.342-0.003-0.438,0.119-0.435,0.447C41.78,35.176,41.773,36.452,41.771,37.728z
			 M45.334,16.976c-0.03-0.256-0.058-0.57-0.105-0.882c-0.209-1.354-0.834-2.464-1.948-3.277c-0.167-0.123-0.364-0.272-0.348,0.126
			c0.047,1.085-0.409,1.981-1.048,2.81c-0.338,0.44-0.72,0.85-1.032,1.309c-0.877,1.282-0.529,2.531,0.864,3.197
			c1.517,0.725,2.791,0.188,3.317-1.406C45.229,18.263,45.293,17.65,45.334,16.976z M21.813,29.067c0-0.002,0-0.002,0-0.003
			c0.526,0,1.053-0.017,1.579,0.006c0.396,0.018,0.474-0.077,0.287-0.449c-1.013-1.997-2.01-4.001-3.004-6.009
			c-0.12-0.24-0.214-0.319-0.465-0.146c-0.803,0.555-1.619,1.094-2.437,1.629c-0.209,0.138-0.282,0.264-0.157,0.513
			c0.702,1.379,1.393,2.765,2.08,4.152c0.118,0.236,0.286,0.314,0.54,0.309C20.76,29.058,21.287,29.067,21.813,29.067z
			 M37.196,29.065c0.603,0,1.111-0.008,1.621,0.003c0.244,0.004,0.342-0.14,0.416-0.335c0.817-2.166,1.633-4.329,2.463-6.49
			c0.112-0.292-0.017-0.366-0.252-0.434c-0.279-0.08-0.332,0.139-0.422,0.301c-0.649,1.167-1.297,2.338-1.94,3.51
			C38.465,26.737,37.857,27.857,37.196,29.065z M16.917,19.826c-0.232,0.001-0.159,0.183-0.147,0.291
			c0.085,0.759,0.181,1.516,0.273,2.274c0.036,0.296,0.19,0.2,0.34,0.101c0.565-0.367,1.127-0.741,1.695-1.106
			c0.201-0.128,0.21-0.213-0.009-0.335c-0.68-0.381-1.354-0.773-2.03-1.16C17.001,19.87,16.96,19.849,16.917,19.826z"/>
	</g>
	<g>
		<linearGradient id="SVGID_9_" gradientUnits="userSpaceOnUse" x1="37.4985" y1="37.4541" x2="38.7485" y2="37.4541">
			<stop  offset="0" style="stop-color:#EB3349"/>
			<stop  offset="1" style="stop-color:#F45C43"/>
		</linearGradient>
		<path fill="url(#SVGID_9_)" d="M38.124,41.572c-0.345,0-0.625-0.28-0.625-0.625v-6.985c0-0.345,0.28-0.625,0.625-0.625
			s0.625,0.28,0.625,0.625v6.985C38.749,41.292,38.468,41.572,38.124,41.572z"/>
	</g>
	<g>
		<linearGradient id="SVGID_10_" gradientUnits="userSpaceOnUse" x1="37.4985" y1="44.3799" x2="38.7485" y2="44.3799">
			<stop  offset="0" style="stop-color:#EB3349"/>
			<stop  offset="1" style="stop-color:#F45C43"/>
		</linearGradient>
		<path fill="url(#SVGID_10_)" d="M38.124,46.009c-0.345,0-0.625-0.28-0.625-0.625v-2.009c0-0.345,0.28-0.625,0.625-0.625
			s0.625,0.28,0.625,0.625v2.009C38.749,45.729,38.468,46.009,38.124,46.009z"/>
	</g>
</g>
</svg>
