<?xml version="1.0" encoding="utf-8"?>
<!-- Generator: Adobe Illustrator 16.0.0, SVG Export Plug-In . SVG Version: 6.00 Build 0)  -->
<!DOCTYPE svg PUBLIC "-//W3C//DTD SVG 1.1//EN" "http://www.w3.org/Graphics/SVG/1.1/DTD/svg11.dtd">
<svg version="1.1" id="Layer_1" xmlns="http://www.w3.org/2000/svg" xmlns:xlink="http://www.w3.org/1999/xlink" x="0px" y="0px"
	 width="64px" height="64px" viewBox="0 0 64 64" enable-background="new 0 0 64 64" xml:space="preserve">
<g>
	<text transform="matrix(1 0 0 1 0.915 -3.8032)" fill="#79FF00" font-family="'MyriadPro-BoldCond'" font-size="18">Brochures</text>
</g>
<g>
	<g>
		<g>
			<g>
				<g>
					<linearGradient id="SVGID_1_" gradientUnits="userSpaceOnUse" x1="9.3838" y1="53.3105" x2="11.8506" y2="53.3105">
						<stop  offset="0" style="stop-color:#EB3349"/>
						<stop  offset="1" style="stop-color:#F45C43"/>
					</linearGradient>
					<path fill="url(#SVGID_1_)" d="M11.492,52.446l-0.004-0.005c-0.48-0.481-1.26-0.483-1.742-0.003
						c-0.482,0.48-0.482,1.26-0.004,1.743c0.48,0.481,1.264,0.485,1.744,0.005C11.969,53.705,11.973,52.927,11.492,52.446z"/>
				</g>
			</g>
		</g>
		<g>
			<g>
				<g>
					<linearGradient id="SVGID_2_" gradientUnits="userSpaceOnUse" x1="11.9004" y1="56.3086" x2="14.3662" y2="56.3086">
						<stop  offset="0" style="stop-color:#EB3349"/>
						<stop  offset="1" style="stop-color:#F45C43"/>
					</linearGradient>
					<path fill="url(#SVGID_2_)" d="M14.008,55.444l-0.004-0.006c-0.48-0.481-1.26-0.482-1.742-0.002
						c-0.48,0.48-0.482,1.26-0.002,1.742c0.479,0.481,1.262,0.485,1.742,0.005C14.484,56.702,14.488,55.925,14.008,55.444z"/>
				</g>
			</g>
		</g>
		<g>
			<g>
				<g>
					<linearGradient id="SVGID_3_" gradientUnits="userSpaceOnUse" x1="6.3223" y1="50.7109" x2="8.79" y2="50.7109">
						<stop  offset="0" style="stop-color:#EB3349"/>
						<stop  offset="1" style="stop-color:#F45C43"/>
					</linearGradient>
					<path fill="url(#SVGID_3_)" d="M8.432,49.847l-0.006-0.005c-0.479-0.482-1.26-0.483-1.74-0.003
						c-0.482,0.48-0.484,1.26-0.004,1.742s1.262,0.486,1.744,0.006C8.908,51.105,8.912,50.328,8.432,49.847z"/>
				</g>
			</g>
		</g>
		<g>
			<g>
				<g>
					<linearGradient id="SVGID_4_" gradientUnits="userSpaceOnUse" x1="52.6816" y1="10.168" x2="55.1475" y2="10.168">
						<stop  offset="0" style="stop-color:#EB3349"/>
						<stop  offset="1" style="stop-color:#F45C43"/>
					</linearGradient>
					<path fill="url(#SVGID_4_)" d="M54.789,9.304l-0.006-0.005c-0.479-0.482-1.258-0.483-1.74-0.003
						c-0.48,0.48-0.482,1.26-0.002,1.741c0.479,0.481,1.262,0.486,1.742,0.005C55.266,10.562,55.27,9.786,54.789,9.304z"/>
				</g>
			</g>
		</g>
		<g>
			<g>
				<g>
					<linearGradient id="SVGID_5_" gradientUnits="userSpaceOnUse" x1="55.2207" y1="13.2866" x2="57.6885" y2="13.2866">
						<stop  offset="0" style="stop-color:#EB3349"/>
						<stop  offset="1" style="stop-color:#F45C43"/>
					</linearGradient>
					<path fill="url(#SVGID_5_)" d="M57.33,12.422l-0.006-0.005c-0.48-0.481-1.26-0.483-1.74-0.003
						c-0.482,0.48-0.484,1.259-0.004,1.742c0.48,0.481,1.262,0.485,1.744,0.005S57.811,12.904,57.33,12.422z"/>
				</g>
			</g>
		</g>
		<g>
			<g>
				<g>
					<linearGradient id="SVGID_6_" gradientUnits="userSpaceOnUse" x1="49.5713" y1="7.6172" x2="52.0381" y2="7.6172">
						<stop  offset="0" style="stop-color:#EB3349"/>
						<stop  offset="1" style="stop-color:#F45C43"/>
					</linearGradient>
					<path fill="url(#SVGID_6_)" d="M51.68,6.751l-0.004-0.005c-0.48-0.481-1.26-0.483-1.742-0.002
						c-0.482,0.48-0.482,1.259-0.004,1.741c0.48,0.481,1.264,0.486,1.744,0.006C52.156,8.011,52.16,7.234,51.68,6.751z"/>
				</g>
			</g>
		</g>
		<g>
			<linearGradient id="SVGID_7_" gradientUnits="userSpaceOnUse" x1="0.0039" y1="31.9995" x2="64.0039" y2="31.9995">
				<stop  offset="0" style="stop-color:#EB3349"/>
				<stop  offset="1" style="stop-color:#F45C43"/>
			</linearGradient>
			<path fill="url(#SVGID_7_)" d="M6.646,51.544l1.762-1.754c-8.75-11.588-7.834-28.194,2.736-38.726
				C21.715,0.533,38.322-0.325,49.881,8.466l1.76-1.754C39.111-3.032,20.939-2.171,9.406,9.32
				C-2.127,20.812-3.053,38.979,6.646,51.544z M54.602,54.68c11.535-11.493,12.459-29.661,2.76-42.226l-1.76,1.754
				c8.75,11.589,7.832,28.194-2.736,38.726c-10.57,10.532-27.18,11.39-38.736,2.598l-1.76,1.755
				C24.898,67.031,43.07,66.171,54.602,54.68z"/>
		</g>
	</g>
	<g>
		<g>
			<linearGradient id="SVGID_8_" gradientUnits="userSpaceOnUse" x1="13.1982" y1="32" x2="50.8096" y2="32">
				<stop  offset="0" style="stop-color:#EB3349"/>
				<stop  offset="1" style="stop-color:#F45C43"/>
			</linearGradient>
			<path fill-rule="evenodd" clip-rule="evenodd" fill="url(#SVGID_8_)" d="M50.481,17.587c-1.707-0.757-3.408-1.526-5.111-2.293
				c-2.193-0.986-4.387-1.974-6.578-2.961c-0.063-0.028-0.125-0.06-0.168-0.109h-1c-0.029,0.033-0.092,0.066-0.141,0.09
				c-0.137,0.068-0.277,0.128-0.416,0.191c-3.57,1.607-7.145,3.211-10.711,4.83c-0.314,0.142-0.568,0.165-0.889,0.021
				c-2.891-1.314-5.789-2.614-8.684-3.917c-1.092-0.492-2.186-0.982-3.275-1.479c-0.223-0.102-0.324-0.067-0.307,0.193
				c0.008,0.091,0.002,0.183,0.002,0.274c0,5.553,0,11.105,0,16.658c0,5.593,0.002,11.186-0.006,16.779
				c0,0.297,0.094,0.447,0.369,0.57c3.383,1.511,6.758,3.034,10.135,4.555c0.287,0.129,0.576,0.254,0.861,0.385
				c0.271,0.125,0.541,0.258,0.811,0.388h1.031c0.055-0.046,0.127-0.077,0.201-0.111c3.758-1.689,7.514-3.38,11.268-5.076
				c0.176-0.078,0.32-0.08,0.49-0.002c1.285,0.584,2.572,1.163,3.857,1.743c2.73,1.228,5.459,2.456,8.189,3.684
				c0.367,0.164,0.393,0.146,0.393-0.254c0.002-11.216,0-22.432,0.006-33.649C50.81,17.832,50.718,17.693,50.481,17.587z
				 M25.446,50.368c0,0.424-0.006,0.426-0.4,0.248c-3.553-1.599-7.104-3.2-10.662-4.789c-0.254-0.115-0.305-0.264-0.305-0.515
				c0.006-5.287,0.006-10.576,0.006-15.864s0-10.577,0-15.865c0-0.384,0.002-0.387,0.359-0.226c3.563,1.604,7.123,3.21,10.688,4.807
				c0.244,0.109,0.32,0.247,0.32,0.505C25.446,29.236,25.446,39.802,25.446,50.368z M37.362,45.843
				c-3.576,1.597-7.146,3.206-10.719,4.812c-0.314,0.142-0.316,0.142-0.316-0.215c0-10.584,0.002-21.171-0.006-31.756
				c0-0.279,0.092-0.414,0.34-0.526c3.566-1.595,7.127-3.2,10.689-4.801c0.332-0.148,0.334-0.145,0.334,0.228
				c0,5.288,0,10.576,0,15.864S37.683,40.023,37.69,45.31C37.69,45.581,37.618,45.729,37.362,45.843z M49.925,34.53
				c0,5.288,0,10.577,0,15.864c0,0.404-0.004,0.408-0.357,0.248c-3.371-1.513-6.738-3.03-10.105-4.545
				c-0.057-0.025-0.109-0.054-0.166-0.078c-0.896-0.412-0.725-0.172-0.727-1.117c-0.004-10.413-0.002-20.827-0.002-31.24
				c0-0.45,0-0.452,0.398-0.273c3.527,1.585,7.053,3.172,10.582,4.748c0.279,0.125,0.385,0.274,0.385,0.59
				C49.921,23.995,49.925,29.264,49.925,34.53z"/>
			<linearGradient id="SVGID_9_" gradientUnits="userSpaceOnUse" x1="12.8232" y1="32" x2="51.1846" y2="32">
				<stop  offset="0" style="stop-color:#EB3349"/>
				<stop  offset="1" style="stop-color:#F45C43"/>
			</linearGradient>
			<path fill="url(#SVGID_9_)" d="M50.696,52.47c-0.139,0-0.27-0.054-0.439-0.13l-9.107-4.098c-0.98-0.442-1.961-0.884-2.939-1.33
				c-0.111-0.023-0.143-0.014-0.182,0.003c-3.754,1.695-7.51,3.386-11.268,5.075c-0.055,0.025-0.102,0.046-0.115,0.057l-0.1,0.076
				l-0.141,0.011l-1.193-0.037l-0.25-0.121c-0.186-0.089-0.369-0.179-0.555-0.265l-2.809-1.262
				c-2.727-1.229-5.453-2.457-8.184-3.677c-0.41-0.183-0.592-0.465-0.592-0.914c0.008-4.66,0.006-9.322,0.006-13.983V12.425
				c0.002-0.14,0.004-0.191,0-0.242c-0.006-0.086-0.021-0.329,0.141-0.502l0.109-0.119l0.246-0.032c0.102,0,0.211,0.027,0.34,0.086
				c0.816,0.373,1.637,0.741,2.455,1.11l2.799,1.26c2.236,1.006,4.473,2.012,6.705,3.027c0.205,0.092,0.336,0.088,0.578-0.021
				c2.965-1.345,5.934-2.68,8.902-4.016l1.906-0.857c0.102-0.045,0.205-0.091,0.305-0.141l0.111-0.127l1.371-0.002l0.111,0.132
				l7.572,3.403c1.383,0.623,2.766,1.246,4.152,1.861c0.375,0.167,0.551,0.437,0.551,0.849c-0.004,8.406-0.004,16.811-0.004,25.216
				l-0.002,8.434c0,0.163-0.004,0.27-0.029,0.365C51.091,52.331,50.917,52.47,50.696,52.47z M38.124,46.139
				c0.133,0,0.262,0.03,0.396,0.091c0.979,0.445,1.957,0.887,2.938,1.328l8.971,4.037l0.002-8.285c0-8.405,0-16.81,0.004-25.216
				c0-0.114-0.004-0.118-0.105-0.164c-1.389-0.616-2.771-1.239-4.156-1.862l-7.535-3.393c-0.047-0.021-0.096-0.045-0.145-0.076
				h-0.748c-0.033,0.02-0.066,0.037-0.1,0.053c-0.104,0.052-0.217,0.103-0.33,0.153l-1.904,0.856c-2.967,1.335-5.936,2.67-8.9,4.015
				c-0.443,0.201-0.795,0.202-1.197,0.021c-2.232-1.015-4.467-2.021-6.703-3.026l-2.799-1.26c-0.744-0.335-1.488-0.67-2.23-1.008
				l-0.002,19.475c0,4.662,0.002,9.324-0.006,13.985c0,0.15,0.01,0.166,0.148,0.227c2.73,1.22,5.457,2.449,8.186,3.677l2.813,1.265
				c0.191,0.088,0.381,0.18,0.568,0.271l0.172,0.083h0.834c0.047-0.026,0.092-0.047,0.135-0.067c3.781-1.7,7.537-3.391,11.291-5.086
				C37.86,46.169,37.993,46.139,38.124,46.139z M26.401,51.118c-0.449,0-0.449-0.476-0.449-0.679v-3.512
				c0-9.414,0-18.829-0.006-28.244c0-0.426,0.174-0.694,0.563-0.868c2.473-1.106,4.941-2.217,7.412-3.328l3.277-1.474
				c0.16-0.072,0.277-0.124,0.406-0.124c0.455,0,0.455,0.469,0.455,0.694v18.747c0,4.327,0,8.653,0.006,12.979
				c0,0.292-0.061,0.657-0.549,0.876c-2.773,1.238-5.541,2.482-8.309,3.728l-2.412,1.084C26.634,51.07,26.528,51.118,26.401,51.118z
				 M37.31,13.786l-3.082,1.386c-2.471,1.111-4.939,2.222-7.412,3.328c-0.117,0.052-0.119,0.056-0.119,0.184
				c0.006,9.415,0.006,18.83,0.006,28.244v3.29l2.197-0.988c2.77-1.245,5.537-2.49,8.311-3.728c0.102-0.046,0.105-0.047,0.105-0.189
				c-0.006-4.328-0.006-8.654-0.006-12.981V13.786z M49.839,51.116c-0.135,0-0.256-0.055-0.426-0.131l-10.195-4.587
				c-0.209-0.097-0.316-0.143-0.404-0.18c-0.555-0.236-0.648-0.378-0.627-0.949c0.004-0.096,0.008-0.215,0.008-0.365
				c-0.004-8.097-0.004-16.194-0.002-24.291v-6.95c0-0.284,0-0.759,0.467-0.759c0.141,0,0.268,0.058,0.461,0.145l1.701,0.764
				c2.959,1.33,5.918,2.661,8.879,3.983c0.42,0.188,0.607,0.476,0.607,0.933c-0.01,4.338-0.01,8.676-0.008,13.013v18.653
				C50.3,50.628,50.3,51.116,49.839,51.116z M38.933,45.45c0.047,0.022,0.113,0.051,0.176,0.077c0.092,0.04,0.207,0.088,0.344,0.152
				l0.096,0.045l10.002,4.5V31.742c-0.002-4.338-0.002-8.677,0.008-13.015c0-0.161-0.012-0.18-0.164-0.247
				c-2.961-1.323-5.922-2.653-8.881-3.984l-1.57-0.706v6.823c-0.002,8.096-0.002,16.193,0.002,24.29c0,0.162-0.004,0.29-0.008,0.394
				C38.935,45.349,38.933,45.407,38.933,45.45z M25.354,51.103c-0.143,0-0.27-0.058-0.463-0.145l-1.48-0.667
				c-3.059-1.377-6.117-2.754-9.18-4.122c-0.467-0.211-0.527-0.569-0.527-0.857c0.006-4.625,0.006-9.25,0.006-13.875V13.583
				c0-0.228,0-0.702,0.457-0.702c0.135,0,0.252,0.053,0.432,0.134l2.355,1.061c2.775,1.25,5.553,2.501,8.332,3.746
				c0.369,0.166,0.541,0.435,0.541,0.848c-0.006,9.39-0.006,18.779-0.006,28.168v3.53C25.821,50.606,25.821,51.103,25.354,51.103z
				 M14.46,13.776v17.661c0,4.625,0,9.251-0.006,13.876c0,0.103,0.012,0.128,0.014,0.131c3.133,1.409,6.191,2.786,9.252,4.164
				l1.352,0.609v-3.378c0-9.39,0-18.779,0.006-28.168c0-0.088-0.012-0.111-0.012-0.112c0,0-0.016-0.02-0.086-0.051
				c-2.779-1.245-5.557-2.496-8.334-3.747L14.46,13.776z"/>
		</g>
		<g>
			<linearGradient id="SVGID_10_" gradientUnits="userSpaceOnUse" x1="39.9668" y1="30.5625" x2="47.9639" y2="30.5625">
				<stop  offset="0" style="stop-color:#EB3349"/>
				<stop  offset="1" style="stop-color:#F45C43"/>
			</linearGradient>
			<path fill-rule="evenodd" clip-rule="evenodd" fill="url(#SVGID_10_)" d="M47.964,32.131c0.002,0.447-0.252,0.623-0.602,0.466
				c-2.266-1.014-4.529-2.027-6.795-3.042c-0.072-0.032-0.145-0.064-0.221-0.089c-0.322-0.112-0.463-0.422-0.33-0.744
				c0.098-0.241,0.268-0.31,0.512-0.2c2.113,0.945,4.227,1.891,6.34,2.836c0.26,0.117,0.523,0.225,0.787,0.337
				C47.872,31.787,47.956,31.961,47.964,32.131z"/>
			<linearGradient id="SVGID_11_" gradientUnits="userSpaceOnUse" x1="39.5908" y1="30.5625" x2="48.3389" y2="30.5625">
				<stop  offset="0" style="stop-color:#EB3349"/>
				<stop  offset="1" style="stop-color:#F45C43"/>
			</linearGradient>
			<path fill="url(#SVGID_11_)" d="M47.597,33.029c-0.125,0-0.256-0.03-0.387-0.089l-6.795-3.042
				c-0.068-0.03-0.125-0.056-0.186-0.076c-0.26-0.09-0.457-0.265-0.561-0.494c-0.104-0.231-0.104-0.497,0.002-0.75
				c0.176-0.436,0.514-0.483,0.652-0.483c0.113,0,0.234,0.028,0.357,0.083l6.342,2.836c0.186,0.083,0.371,0.162,0.559,0.241
				l0.221,0.093c0.32,0.136,0.521,0.422,0.537,0.765c0.002,0.387-0.131,0.599-0.244,0.711
				C47.966,32.957,47.788,33.029,47.597,33.029z M40.374,28.864c-0.027,0.043-0.043,0.104-0.02,0.156
				c0.021,0.05,0.074,0.078,0.115,0.092c0.08,0.026,0.158,0.06,0.236,0.095l6.879,3.068c-0.008-0.014,0.004-0.063,0.004-0.143
				c-0.002-0.04-0.023-0.068-0.08-0.093l-0.219-0.092c-0.193-0.081-0.385-0.163-0.574-0.248L40.374,28.864z"/>
		</g>
		<g>
			<linearGradient id="SVGID_12_" gradientUnits="userSpaceOnUse" x1="39.9697" y1="38.6465" x2="47.9619" y2="38.6465">
				<stop  offset="0" style="stop-color:#EB3349"/>
				<stop  offset="1" style="stop-color:#F45C43"/>
			</linearGradient>
			<path fill-rule="evenodd" clip-rule="evenodd" fill="url(#SVGID_12_)" d="M47.962,40.15c0.006,0.516-0.254,0.693-0.623,0.528
				c-2.18-0.975-4.359-1.953-6.539-2.928c-0.16-0.072-0.32-0.14-0.482-0.202c-0.334-0.131-0.457-0.563-0.238-0.85
				c0.127-0.17,0.281-0.171,0.463-0.088c0.953,0.431,1.91,0.859,2.867,1.288c1.359,0.611,2.719,1.229,4.086,1.823
				C47.759,39.836,47.962,39.95,47.962,40.15z"/>
			<linearGradient id="SVGID_13_" gradientUnits="userSpaceOnUse" x1="39.5938" y1="38.6465" x2="48.3369" y2="38.6465">
				<stop  offset="0" style="stop-color:#EB3349"/>
				<stop  offset="1" style="stop-color:#F45C43"/>
			</linearGradient>
			<path fill="url(#SVGID_13_)" d="M47.585,41.112c-0.127,0-0.262-0.031-0.398-0.092l-6.541-2.928
				c-0.154-0.07-0.309-0.135-0.463-0.195c-0.271-0.107-0.473-0.331-0.553-0.616c-0.08-0.284-0.025-0.58,0.15-0.81
				c0.18-0.24,0.4-0.291,0.553-0.291c0.115,0,0.236,0.028,0.365,0.087c0.869,0.394,1.742,0.785,2.617,1.176l1.145,0.515
				c1.059,0.477,2.119,0.954,3.184,1.417c0.242,0.106,0.691,0.303,0.693,0.771c0.004,0.331-0.08,0.587-0.25,0.759
				C47.954,41.042,47.78,41.112,47.585,41.112z M40.388,36.952c-0.055,0.033-0.043,0.101-0.035,0.127s0.031,0.092,0.104,0.12
				c0.166,0.064,0.332,0.135,0.498,0.21l6.539,2.927c0.037,0.017,0.064,0.023,0.078,0.026c-0.002-0.017,0.018-0.079,0.016-0.203
				c0,0.028-0.061-0.014-0.242-0.095c-1.068-0.464-2.131-0.942-3.193-1.421l-1.143-0.514C42.134,37.737,41.259,37.346,40.388,36.952
				z"/>
		</g>
		<g>
			<linearGradient id="SVGID_14_" gradientUnits="userSpaceOnUse" x1="39.9678" y1="23.3418" x2="47.9639" y2="23.3418">
				<stop  offset="0" style="stop-color:#EB3349"/>
				<stop  offset="1" style="stop-color:#F45C43"/>
			</linearGradient>
			<path fill-rule="evenodd" clip-rule="evenodd" fill="url(#SVGID_14_)" d="M47.964,24.918c-0.01,0.463-0.266,0.616-0.643,0.447
				c-2.215-0.995-4.43-1.986-6.645-2.979c-0.123-0.055-0.25-0.103-0.375-0.153c-0.32-0.131-0.438-0.558-0.23-0.836
				c0.137-0.18,0.297-0.171,0.484-0.085c0.816,0.371,1.635,0.737,2.453,1.102c1.551,0.691,3.104,1.38,4.654,2.067
				C47.886,24.579,47.944,24.763,47.964,24.918z"/>
			<linearGradient id="SVGID_15_" gradientUnits="userSpaceOnUse" x1="39.5928" y1="23.3418" x2="48.335" y2="23.3418">
				<stop  offset="0" style="stop-color:#EB3349"/>
				<stop  offset="1" style="stop-color:#F45C43"/>
			</linearGradient>
			<path fill="url(#SVGID_15_)" d="M47.593,25.807c-0.135,0-0.277-0.034-0.424-0.1l-6.646-2.979
				c-0.08-0.036-0.162-0.068-0.242-0.101l-0.121-0.047c-0.26-0.107-0.453-0.329-0.531-0.608c-0.078-0.281-0.025-0.573,0.143-0.8
				c0.186-0.244,0.406-0.295,0.561-0.295c0.119,0,0.244,0.031,0.381,0.093c0.814,0.371,1.633,0.736,2.449,1.101
				c1.551,0.69,3.104,1.38,4.654,2.067c0.207,0.091,0.467,0.294,0.52,0.736C48.325,25.576,47.929,25.807,47.593,25.807z
				 M40.401,21.653c-0.059,0.007-0.066,0.063-0.051,0.118c0.006,0.026,0.029,0.089,0.092,0.114l0.113,0.045
				c0.092,0.037,0.184,0.073,0.273,0.113l6.646,2.979c0.057,0.025,0.092,0.032,0.107,0.034c-0.01-0.01,0.004-0.06,0.006-0.146
				c-0.012-0.058-0.039-0.071-0.076-0.087c-1.553-0.688-3.105-1.377-4.656-2.068C42.038,22.391,41.218,22.024,40.401,21.653z"/>
		</g>
		<g>
			<linearGradient id="SVGID_16_" gradientUnits="userSpaceOnUse" x1="28.0098" y1="22.5449" x2="35.999" y2="22.5449">
				<stop  offset="0" style="stop-color:#EB3349"/>
				<stop  offset="1" style="stop-color:#F45C43"/>
			</linearGradient>
			<path fill-rule="evenodd" clip-rule="evenodd" fill="url(#SVGID_16_)" d="M35.999,20.92c0.002,0.226-0.074,0.396-0.297,0.493
				c-1.068,0.468-2.135,0.938-3.201,1.414c-1.283,0.572-2.563,1.15-3.844,1.726c-0.314,0.141-0.479,0.099-0.592-0.15
				c-0.131-0.288-0.025-0.613,0.242-0.731c0.861-0.382,1.727-0.761,2.59-1.146c1.492-0.666,2.984-1.335,4.475-2.004
				C35.749,20.354,35.995,20.511,35.999,20.92z"/>
			<linearGradient id="SVGID_17_" gradientUnits="userSpaceOnUse" x1="27.6357" y1="22.5449" x2="36.374" y2="22.5449">
				<stop  offset="0" style="stop-color:#EB3349"/>
				<stop  offset="1" style="stop-color:#F45C43"/>
			</linearGradient>
			<path fill="url(#SVGID_17_)" d="M28.36,25.009c-0.197,0-0.469-0.078-0.637-0.451c-0.107-0.236-0.117-0.506-0.027-0.741
				c0.084-0.221,0.246-0.394,0.459-0.488l2.588-1.145c1.355-0.604,2.707-1.21,4.061-1.817l0.416-0.187
				c0.539-0.244,1.148-0.058,1.154,0.737c0.004,0.502-0.281,0.734-0.521,0.839c-1.068,0.468-2.133,0.938-3.197,1.413
				c-0.916,0.409-1.832,0.82-2.746,1.231l-1.1,0.495C28.638,24.973,28.495,25.009,28.36,25.009z M35.612,20.825
				c-0.008,0.011-0.041,0.019-0.086,0.04l-0.416,0.187c-1.354,0.607-2.707,1.214-4.061,1.817l-2.59,1.146
				c-0.082,0.117-0.078,0.177-0.053,0.233l0,0c0.021-0.007,0.055-0.018,0.096-0.037l1.1-0.494c0.914-0.412,1.83-0.823,2.746-1.232
				c1.066-0.476,2.133-0.947,3.203-1.415c0.051-0.023,0.072-0.032,0.072-0.146C35.624,20.877,35.618,20.845,35.612,20.825z"/>
		</g>
		<g>
			<linearGradient id="SVGID_18_" gradientUnits="userSpaceOnUse" x1="28.0088" y1="31.0288" x2="35.999" y2="31.0288">
				<stop  offset="0" style="stop-color:#EB3349"/>
				<stop  offset="1" style="stop-color:#F45C43"/>
			</linearGradient>
			<path fill-rule="evenodd" clip-rule="evenodd" fill="url(#SVGID_18_)" d="M35.999,29.411c0,0.214-0.066,0.389-0.277,0.482
				c-1.154,0.51-2.309,1.018-3.461,1.531c-1.211,0.539-2.42,1.082-3.631,1.623c-0.289,0.13-0.465,0.08-0.57-0.159
				c-0.121-0.278-0.018-0.612,0.229-0.721c1.391-0.618,2.785-1.234,4.176-1.853c0.98-0.436,1.957-0.875,2.936-1.312
				C35.763,28.841,35.999,29.004,35.999,29.411z"/>
			<linearGradient id="SVGID_19_" gradientUnits="userSpaceOnUse" x1="27.6348" y1="31.0288" x2="36.374" y2="31.0288">
				<stop  offset="0" style="stop-color:#EB3349"/>
				<stop  offset="1" style="stop-color:#F45C43"/>
			</linearGradient>
			<path fill="url(#SVGID_19_)" d="M28.36,33.492c-0.166,0-0.471-0.059-0.645-0.454c-0.203-0.468-0.012-1.023,0.42-1.214
				l7.111-3.164c0.531-0.237,1.127-0.042,1.127,0.75c0,0.499-0.271,0.724-0.502,0.825l-0.699,0.31
				c-0.922,0.406-1.842,0.813-2.76,1.222l-3.629,1.623C28.63,33.458,28.491,33.492,28.36,33.492z M35.616,29.317
				c-0.012,0.007-0.035,0.015-0.064,0.027L28.44,32.51c-0.041,0.018-0.08,0.121-0.039,0.224c0.02-0.005,0.043-0.014,0.076-0.028
				l3.631-1.624c0.918-0.409,1.84-0.816,2.762-1.222l0.699-0.31c0.033-0.014,0.055-0.024,0.055-0.139
				C35.624,29.369,35.62,29.338,35.616,29.317z"/>
		</g>
		<g>
			<linearGradient id="SVGID_20_" gradientUnits="userSpaceOnUse" x1="28.0098" y1="38.647" x2="35.9971" y2="38.647">
				<stop  offset="0" style="stop-color:#EB3349"/>
				<stop  offset="1" style="stop-color:#F45C43"/>
			</linearGradient>
			<path fill-rule="evenodd" clip-rule="evenodd" fill="url(#SVGID_20_)" d="M35.997,37.032c0,0.215-0.07,0.39-0.283,0.478
				c-1.102,0.451-2.178,0.96-3.266,1.444c-1.268,0.563-2.533,1.134-3.803,1.7c-0.316,0.141-0.469,0.096-0.584-0.16
				c-0.127-0.284-0.012-0.618,0.252-0.729c2.363-1.01,4.695-2.094,7.045-3.135C35.749,36.458,35.999,36.611,35.997,37.032z"/>
			<linearGradient id="SVGID_21_" gradientUnits="userSpaceOnUse" x1="27.6357" y1="38.6475" x2="36.3721" y2="38.6475">
				<stop  offset="0" style="stop-color:#EB3349"/>
				<stop  offset="1" style="stop-color:#F45C43"/>
			</linearGradient>
			<path fill="url(#SVGID_21_)" d="M28.354,41.108c-0.195,0-0.465-0.08-0.635-0.46c-0.105-0.236-0.111-0.507-0.02-0.743
				c0.088-0.223,0.254-0.395,0.467-0.486c1.484-0.634,2.957-1.298,4.43-1.962c0.869-0.392,1.738-0.784,2.611-1.17
				c0.369-0.165,0.713-0.124,0.934,0.098c0.105,0.106,0.232,0.304,0.23,0.648c0,0.53-0.322,0.744-0.514,0.823
				c-0.762,0.312-1.51,0.65-2.256,0.989l-4.805,2.151C28.628,41.073,28.487,41.108,28.354,41.108z M35.612,36.926
				c-0.008,0.013-0.045,0.022-0.102,0.047c-0.871,0.385-1.738,0.776-2.607,1.168c-1.477,0.666-2.953,1.332-4.443,1.968l-0.063,0.071
				c-0.02,0.05-0.018,0.109,0.006,0.162v0.005c0.021-0.007,0.051-0.018,0.09-0.035l4.799-2.148c0.756-0.343,1.512-0.686,2.281-1
				c0.029-0.012,0.049-0.021,0.049-0.131C35.622,36.979,35.616,36.945,35.612,36.926z"/>
		</g>
	</g>
</g>
</svg>
