<?xml version="1.0" encoding="utf-8"?>
<!-- Generator: Adobe Illustrator 16.0.0, SVG Export Plug-In . SVG Version: 6.00 Build 0)  -->
<!DOCTYPE svg PUBLIC "-//W3C//DTD SVG 1.1//EN" "http://www.w3.org/Graphics/SVG/1.1/DTD/svg11.dtd">
<svg version="1.1" id="Layer_1" xmlns="http://www.w3.org/2000/svg" xmlns:xlink="http://www.w3.org/1999/xlink" x="0px" y="0px"
	 width="64px" height="64px" viewBox="0 0 64 64" enable-background="new 0 0 64 64" xml:space="preserve">
<g>
	<text transform="matrix(1 0 0 1 -0.4604 -3.8032)"><tspan x="0" y="0" fill="#79FF00" font-family="'MyriadPro-BoldCond'" font-size="18">Logo</tspan><tspan x="30.402" y="0" fill="#79FF00" font-family="'MyriadPro-BoldCond'" font-size="12"> Creation</tspan></text>
</g>
<g>
	<g>
		<g>
			<g>
				<g>
					<linearGradient id="SVGID_1_" gradientUnits="userSpaceOnUse" x1="9.3784" y1="53.3105" x2="11.8452" y2="53.3105">
						<stop  offset="0" style="stop-color:#EB3349"/>
						<stop  offset="1" style="stop-color:#F45C43"/>
					</linearGradient>
					<path fill="url(#SVGID_1_)" d="M11.487,52.446l-0.005-0.005c-0.48-0.481-1.26-0.483-1.741-0.003
						c-0.482,0.48-0.483,1.26-0.004,1.743c0.48,0.481,1.263,0.485,1.744,0.005C11.964,53.705,11.967,52.927,11.487,52.446z"/>
				</g>
			</g>
		</g>
		<g>
			<g>
				<g>
					<linearGradient id="SVGID_2_" gradientUnits="userSpaceOnUse" x1="11.8945" y1="56.3086" x2="14.3608" y2="56.3086">
						<stop  offset="0" style="stop-color:#EB3349"/>
						<stop  offset="1" style="stop-color:#F45C43"/>
					</linearGradient>
					<path fill="url(#SVGID_2_)" d="M14.003,55.444l-0.005-0.006c-0.48-0.481-1.26-0.482-1.741-0.002s-0.483,1.26-0.003,1.742
						c0.479,0.481,1.262,0.485,1.743,0.005C14.479,56.702,14.483,55.925,14.003,55.444z"/>
				</g>
			</g>
		</g>
		<g>
			<g>
				<g>
					<linearGradient id="SVGID_3_" gradientUnits="userSpaceOnUse" x1="6.3174" y1="50.7109" x2="8.7842" y2="50.7109">
						<stop  offset="0" style="stop-color:#EB3349"/>
						<stop  offset="1" style="stop-color:#F45C43"/>
					</linearGradient>
					<path fill="url(#SVGID_3_)" d="M8.426,49.847l-0.005-0.005c-0.479-0.482-1.26-0.483-1.741-0.003
						c-0.481,0.48-0.483,1.26-0.003,1.742c0.479,0.481,1.262,0.486,1.743,0.006C8.902,51.105,8.906,50.328,8.426,49.847z"/>
				</g>
			</g>
		</g>
		<g>
			<g>
				<g>
					<linearGradient id="SVGID_4_" gradientUnits="userSpaceOnUse" x1="52.6758" y1="10.168" x2="55.1421" y2="10.168">
						<stop  offset="0" style="stop-color:#EB3349"/>
						<stop  offset="1" style="stop-color:#F45C43"/>
					</linearGradient>
					<path fill="url(#SVGID_4_)" d="M54.784,9.304l-0.006-0.005c-0.479-0.482-1.259-0.483-1.74-0.003s-0.483,1.26-0.003,1.741
						c0.479,0.481,1.262,0.486,1.743,0.005S55.265,9.786,54.784,9.304z"/>
				</g>
			</g>
		</g>
		<g>
			<g>
				<g>
					<linearGradient id="SVGID_5_" gradientUnits="userSpaceOnUse" x1="55.2158" y1="13.2866" x2="57.6826" y2="13.2866">
						<stop  offset="0" style="stop-color:#EB3349"/>
						<stop  offset="1" style="stop-color:#F45C43"/>
					</linearGradient>
					<path fill="url(#SVGID_5_)" d="M57.324,12.422l-0.005-0.005c-0.48-0.481-1.26-0.483-1.741-0.003
						c-0.481,0.48-0.483,1.259-0.003,1.742c0.48,0.481,1.262,0.485,1.743,0.005C57.801,13.681,57.805,12.904,57.324,12.422z"/>
				</g>
			</g>
		</g>
		<g>
			<g>
				<g>
					<linearGradient id="SVGID_6_" gradientUnits="userSpaceOnUse" x1="49.5659" y1="7.6172" x2="52.0327" y2="7.6172">
						<stop  offset="0" style="stop-color:#EB3349"/>
						<stop  offset="1" style="stop-color:#F45C43"/>
					</linearGradient>
					<path fill="url(#SVGID_6_)" d="M51.675,6.751L51.67,6.747c-0.48-0.481-1.26-0.483-1.741-0.002
						c-0.482,0.48-0.483,1.259-0.004,1.741c0.48,0.481,1.263,0.486,1.744,0.006C52.151,8.011,52.155,7.234,51.675,6.751z"/>
				</g>
			</g>
		</g>
		<g>
			<linearGradient id="SVGID_7_" gradientUnits="userSpaceOnUse" x1="-4.882813e-004" y1="31.9995" x2="63.999" y2="31.9995">
				<stop  offset="0" style="stop-color:#EB3349"/>
				<stop  offset="1" style="stop-color:#F45C43"/>
			</linearGradient>
			<path fill="url(#SVGID_7_)" d="M6.642,51.544l1.761-1.754c-8.75-11.588-7.833-28.194,2.736-38.726
				C21.709,0.533,38.317-0.325,49.875,8.466l1.761-1.754C39.105-3.032,20.934-2.171,9.4,9.32
				C-2.132,20.812-3.058,38.979,6.642,51.544z M54.597,54.68c11.534-11.493,12.459-29.661,2.76-42.226l-1.76,1.754
				c8.749,11.589,7.832,28.194-2.737,38.726c-10.569,10.532-27.179,11.39-38.736,2.598l-1.76,1.755
				C24.894,67.031,43.064,66.171,54.597,54.68z"/>
		</g>
	</g>
	<g>
		<linearGradient id="SVGID_8_" gradientUnits="userSpaceOnUse" x1="19.5249" y1="25.8721" x2="54.5405" y2="25.8721">
			<stop  offset="0" style="stop-color:#EB3349"/>
			<stop  offset="1" style="stop-color:#F45C43"/>
		</linearGradient>
		<path fill-rule="evenodd" clip-rule="evenodd" fill="url(#SVGID_8_)" d="M35.219,30.462c-0.124-1.882-0.498-3.698-1.641-5.249
			c-0.461-0.625-0.421-1.031,0.138-1.573c2.039-1.981,4.026-4.017,6.046-6.019c0.908-0.899,1.822-1.031,2.499-0.404
			c0.676,0.626,0.544,1.698-0.328,2.597c-0.559,0.575-1.162,1.111-1.682,1.72c-1.181,1.381-1.132,3.153,0.073,4.35
			c1.231,1.223,3.025,1.36,4.338,0.094c3.201-3.086,6.315-6.263,9.456-9.412c0.387-0.387,0.639-0.881,0.161-1.342
			c-0.509-0.493-0.938-0.096-1.309,0.273c-2.839,2.833-5.672,5.671-8.508,8.507c-0.231,0.231-0.452,0.478-0.701,0.69
			c-0.782,0.664-1.64,0.692-2.271,0.094c-0.644-0.612-0.63-1.569,0.087-2.349c0.615-0.671,1.302-1.277,1.915-1.951
			c1.211-1.331,1.197-3.125,0.001-4.336c-1.229-1.245-3.119-1.318-4.422-0.061c-2.15,2.076-4.259,4.197-6.344,6.339
			c-0.591,0.606-1.027,0.668-1.763,0.188c-3.383-2.206-7.716-2.058-10.748,0.313c-0.356,0.279-1.008,0.508-0.514,1.189
			c0.446,0.615,0.879,0.534,1.464,0.109c2.72-1.972,5.587-2.072,8.538-0.536c0.648,0.337,1.149,0.72,0.337,1.444
			c-0.363,0.324-0.439,0.777-0.054,1.162c0.401,0.401,0.84,0.243,1.155-0.103c0.627-0.688,1.003-0.455,1.368,0.253
			c1.54,2.987,1.454,5.895-0.485,8.664c-0.42,0.601-0.515,0.996,0.095,1.449c0.685,0.511,0.913-0.159,1.187-0.504
			C34.605,34.428,35.097,32.504,35.219,30.462z"/>
		<linearGradient id="SVGID_9_" gradientUnits="userSpaceOnUse" x1="9.4561" y1="33.1045" x2="35.1978" y2="33.1045">
			<stop  offset="0" style="stop-color:#EB3349"/>
			<stop  offset="1" style="stop-color:#F45C43"/>
		</linearGradient>
		<path fill-rule="evenodd" clip-rule="evenodd" fill="url(#SVGID_9_)" d="M13.718,23.106c0.995,0.175,1.771,0.553,2.451,1.239
			c5.725,5.764,11.474,11.503,17.221,17.247c0.254,0.254,0.519,0.544,0.836,0.678c0.358,0.152,0.575-0.218,0.793-0.451
			c0.231-0.25,0.242-0.525,0.012-0.783c-0.242-0.271-0.492-0.537-0.749-0.795c-5.664-5.669-11.338-11.331-16.986-17.017
			c-0.717-0.722-1.497-1.224-2.477-1.501c-1.541-0.436-3.059-0.958-4.588-1.437c-0.623-0.195-0.927-0.061-0.698,0.669
			c0.576,1.842,1.134,3.691,1.699,5.536c0.133,0.433,0.431,0.752,0.742,1.064c5.949,5.952,11.896,11.907,17.854,17.852
			c0.3,0.3,0.558,0.865,1.161,0.446c0.668-0.463,0.663-0.881,0.064-1.471c-3.19-3.146-6.347-6.327-9.515-9.498
			c-2.678-2.68-5.342-5.375-8.042-8.033c-0.604-0.595-0.944-1.286-1.114-2.079C12.21,23.978,13.021,23.05,13.718,23.106z"/>
		<linearGradient id="SVGID_10_" gradientUnits="userSpaceOnUse" x1="9.8164" y1="38.3682" x2="25.9365" y2="38.3682">
			<stop  offset="0" style="stop-color:#EB3349"/>
			<stop  offset="1" style="stop-color:#F45C43"/>
		</linearGradient>
		<path fill-rule="evenodd" clip-rule="evenodd" fill="url(#SVGID_10_)" d="M9.816,37.042c-0.007,3.873,2.194,7.225,5.842,8.69
			c3.568,1.435,6.835,0.803,9.768-1.668c0.592-0.499,0.754-0.96,0.027-1.469c-0.525-0.367-0.815,0.09-1.12,0.348
			c-2.109,1.789-4.556,2.295-7.163,1.629c-5.535-1.415-7.561-8.087-3.9-12.603c0.235-0.291,0.729-0.513,0.523-0.983
			c-0.122-0.276-0.405-0.53-0.679-0.677c-0.369-0.199-0.585,0.148-0.805,0.385C10.692,32.432,9.82,34.653,9.816,37.042z"/>
		<linearGradient id="SVGID_11_" gradientUnits="userSpaceOnUse" x1="32.5557" y1="46.1846" x2="38.2417" y2="46.1846">
			<stop  offset="0" style="stop-color:#EB3349"/>
			<stop  offset="1" style="stop-color:#F45C43"/>
		</linearGradient>
		<path fill-rule="evenodd" clip-rule="evenodd" fill="url(#SVGID_11_)" d="M34.759,49.002c2.659-0.007,4.277-2.648,3.084-4.935
			c-0.184-0.351-0.34-0.941-0.932-0.604c-0.438,0.25-0.849,0.608-0.541,1.244c0.093,0.191,0.137,0.415,0.162,0.628
			c0.172,1.429-0.801,2.307-2.204,1.989c-0.246-0.056-0.476-0.214-0.721-0.238c-0.516-0.051-0.805,0.331-0.996,0.713
			c-0.201,0.399,0.188,0.574,0.456,0.741C33.604,48.876,34.195,49.038,34.759,49.002z"/>
		<linearGradient id="SVGID_12_" gradientUnits="userSpaceOnUse" x1="31.1895" y1="44.6968" x2="36.6421" y2="44.6968">
			<stop  offset="0" style="stop-color:#EB3349"/>
			<stop  offset="1" style="stop-color:#F45C43"/>
		</linearGradient>
		<path fill-rule="evenodd" clip-rule="evenodd" fill="url(#SVGID_12_)" d="M35.793,41.973c-0.285-0.008-0.469,0.178-0.646,0.356
			c-1.232,1.229-2.455,2.468-3.694,3.691c-0.421,0.416-0.289,0.731,0.066,1.104c0.395,0.413,0.704,0.383,1.09-0.012
			c1.217-1.245,2.457-2.467,3.685-3.702c0.229-0.231,0.499-0.471,0.25-0.841C36.358,42.295,36.126,42.067,35.793,41.973z"/>
	</g>
</g>
</svg>
