<?xml version="1.0" encoding="utf-8"?>
<!-- Generator: Adobe Illustrator 16.0.0, SVG Export Plug-In . SVG Version: 6.00 Build 0)  -->
<!DOCTYPE svg PUBLIC "-//W3C//DTD SVG 1.1//EN" "http://www.w3.org/Graphics/SVG/1.1/DTD/svg11.dtd">
<svg version="1.1" id="Layer_1" xmlns="http://www.w3.org/2000/svg" xmlns:xlink="http://www.w3.org/1999/xlink" x="0px" y="0px"
	 width="64px" height="64px" viewBox="0 0 64 64" enable-background="new 0 0 64 64" xml:space="preserve">
<g>
	<g>
		<g>
			<g>
				<g>
					<linearGradient id="SVGID_1_" gradientUnits="userSpaceOnUse" x1="9.3794" y1="53.3115" x2="11.8457" y2="53.3115">
						<stop  offset="0" style="stop-color:#EB3349"/>
						<stop  offset="1" style="stop-color:#F45C43"/>
					</linearGradient>
					<path fill="url(#SVGID_1_)" d="M11.488,52.446l-0.005-0.005c-0.48-0.481-1.26-0.483-1.741-0.003
						c-0.482,0.48-0.483,1.26-0.003,1.743c0.48,0.481,1.262,0.485,1.744,0.005C11.964,53.705,11.968,52.928,11.488,52.446z"/>
				</g>
			</g>
		</g>
		<g>
			<g>
				<g>
					<linearGradient id="SVGID_2_" gradientUnits="userSpaceOnUse" x1="11.8955" y1="56.3086" x2="14.3618" y2="56.3086">
						<stop  offset="0" style="stop-color:#EB3349"/>
						<stop  offset="1" style="stop-color:#F45C43"/>
					</linearGradient>
					<path fill="url(#SVGID_2_)" d="M14.004,55.444l-0.005-0.006c-0.48-0.481-1.26-0.482-1.742-0.002
						c-0.481,0.48-0.483,1.26-0.003,1.742c0.48,0.481,1.262,0.485,1.744,0.005C14.48,56.702,14.484,55.926,14.004,55.444z"/>
				</g>
			</g>
		</g>
		<g>
			<g>
				<g>
					<linearGradient id="SVGID_3_" gradientUnits="userSpaceOnUse" x1="6.3179" y1="50.7114" x2="8.7847" y2="50.7114">
						<stop  offset="0" style="stop-color:#EB3349"/>
						<stop  offset="1" style="stop-color:#F45C43"/>
					</linearGradient>
					<path fill="url(#SVGID_3_)" d="M8.427,49.847l-0.005-0.005c-0.48-0.482-1.26-0.483-1.742-0.003
						c-0.481,0.48-0.483,1.26-0.003,1.742s1.262,0.486,1.744,0.006C8.903,51.105,8.907,50.329,8.427,49.847z"/>
				</g>
			</g>
		</g>
		<g>
			<g>
				<g>
					<linearGradient id="SVGID_4_" gradientUnits="userSpaceOnUse" x1="52.6768" y1="10.1685" x2="55.1426" y2="10.1685">
						<stop  offset="0" style="stop-color:#EB3349"/>
						<stop  offset="1" style="stop-color:#F45C43"/>
					</linearGradient>
					<path fill="url(#SVGID_4_)" d="M54.785,9.304l-0.006-0.005c-0.479-0.482-1.259-0.483-1.741-0.003
						c-0.481,0.48-0.483,1.26-0.002,1.741c0.479,0.481,1.262,0.486,1.743,0.005C55.261,10.562,55.265,9.786,54.785,9.304z"/>
				</g>
			</g>
		</g>
		<g>
			<g>
				<g>
					<linearGradient id="SVGID_5_" gradientUnits="userSpaceOnUse" x1="55.2163" y1="13.2871" x2="57.6831" y2="13.2871">
						<stop  offset="0" style="stop-color:#EB3349"/>
						<stop  offset="1" style="stop-color:#F45C43"/>
					</linearGradient>
					<path fill="url(#SVGID_5_)" d="M57.325,12.422l-0.005-0.005c-0.48-0.481-1.26-0.483-1.741-0.003
						c-0.482,0.48-0.484,1.259-0.003,1.742c0.48,0.481,1.262,0.485,1.743,0.005C57.801,13.681,57.805,12.905,57.325,12.422z"/>
				</g>
			</g>
		</g>
		<g>
			<g>
				<g>
					<linearGradient id="SVGID_6_" gradientUnits="userSpaceOnUse" x1="49.5664" y1="7.6172" x2="52.0332" y2="7.6172">
						<stop  offset="0" style="stop-color:#EB3349"/>
						<stop  offset="1" style="stop-color:#F45C43"/>
					</linearGradient>
					<path fill="url(#SVGID_6_)" d="M51.676,6.752L51.67,6.747c-0.48-0.481-1.259-0.483-1.741-0.002
						c-0.482,0.48-0.483,1.259-0.003,1.741c0.48,0.481,1.263,0.486,1.744,0.006C52.152,8.012,52.156,7.235,51.676,6.752z"/>
				</g>
			</g>
		</g>
		<g>
			<linearGradient id="SVGID_7_" gradientUnits="userSpaceOnUse" x1="-4.882813e-004" y1="32.0005" x2="64" y2="32.0005">
				<stop  offset="0" style="stop-color:#EB3349"/>
				<stop  offset="1" style="stop-color:#F45C43"/>
			</linearGradient>
			<path fill="url(#SVGID_7_)" d="M6.643,51.545l1.761-1.754c-8.75-11.588-7.833-28.194,2.736-38.726
				C21.709,0.533,38.318-0.324,49.876,8.467l1.76-1.754C39.106-3.031,20.935-2.171,9.401,9.32
				C-2.131,20.812-3.057,38.979,6.643,51.545z M54.598,54.68c11.534-11.493,12.459-29.661,2.759-42.226l-1.76,1.754
				c8.75,11.589,7.833,28.194-2.737,38.726c-10.569,10.532-27.179,11.39-38.736,2.598l-1.76,1.755
				C24.894,67.032,43.065,66.171,54.598,54.68z"/>
		</g>
	</g>
	<g>
		<linearGradient id="SVGID_8_" gradientUnits="userSpaceOnUse" x1="21.5176" y1="38.3516" x2="42.481" y2="38.3516">
			<stop  offset="0" style="stop-color:#EB3349"/>
			<stop  offset="1" style="stop-color:#F45C43"/>
		</linearGradient>
		<path fill-rule="evenodd" clip-rule="evenodd" fill="url(#SVGID_8_)" d="M32.003,25.788c3.303,0,6.606,0,9.909,0.001
			c0.566,0,0.568,0.003,0.568,0.577c0.001,5.034,0.001,10.067,0,15.102c0,1.215-0.639,1.851-1.863,1.856
			c-0.647,0.003-1.295,0.02-1.942-0.007c-0.391-0.015-0.495,0.136-0.492,0.506c0.016,1.52,0.009,3.039,0.005,4.559
			c-0.001,0.537-0.096,1.05-0.401,1.508c-0.543,0.811-1.5,1.18-2.463,0.944c-0.909-0.222-1.598-0.982-1.685-1.93
			c-0.122-1.331-0.027-2.667-0.051-4c-0.007-0.409-0.005-0.819-0.001-1.229c0.002-0.221-0.074-0.351-0.318-0.351
			c-0.846,0.004-1.692,0.004-2.537,0c-0.322-0.001-0.306,0.219-0.306,0.437c0,1.573,0.005,3.144-0.002,4.717
			c-0.004,0.701-0.209,1.333-0.744,1.815c-0.717,0.646-1.554,0.796-2.43,0.432c-0.881-0.365-1.37-1.067-1.379-2.037
			c-0.015-1.625-0.016-3.251,0.001-4.875c0.004-0.383-0.113-0.511-0.495-0.497c-0.673,0.026-1.348,0.011-2.021,0.007
			c-1.172-0.008-1.827-0.649-1.829-1.815c-0.003-5.074,0.003-10.147-0.01-15.221c0-0.417,0.157-0.506,0.537-0.505
			C25.371,25.793,28.687,25.788,32.003,25.788z"/>
		<linearGradient id="SVGID_9_" gradientUnits="userSpaceOnUse" x1="21.4722" y1="18.9785" x2="42.5361" y2="18.9785">
			<stop  offset="0" style="stop-color:#EB3349"/>
			<stop  offset="1" style="stop-color:#F45C43"/>
		</linearGradient>
		<path fill-rule="evenodd" clip-rule="evenodd" fill="url(#SVGID_9_)" d="M32.004,24.875c-3.342,0-6.684,0-10.026,0
			c-0.537,0-0.553-0.004-0.465-0.52c0.547-3.183,2.183-5.653,4.902-7.39c0.347-0.222,0.357-0.382,0.175-0.709
			c-0.417-0.75-0.795-1.521-1.185-2.286c-0.06-0.118-0.122-0.237-0.153-0.363c-0.048-0.2,0.016-0.371,0.212-0.463
			c0.204-0.096,0.367-0.011,0.478,0.158c0.115,0.176,0.206,0.369,0.302,0.556c0.363,0.703,0.737,1.403,1.081,2.116
			c0.139,0.287,0.274,0.346,0.575,0.211c1.333-0.595,2.746-0.857,4.199-0.847c1.331,0.007,2.628,0.256,3.855,0.782
			c0.366,0.157,0.529,0.082,0.709-0.252c0.412-0.767,0.864-1.513,1.301-2.268c0.059-0.103,0.121-0.205,0.186-0.304
			c0.137-0.208,0.33-0.277,0.545-0.152c0.219,0.129,0.247,0.335,0.125,0.551c-0.364,0.644-0.734,1.283-1.104,1.925
			c-0.138,0.24-0.263,0.49-0.423,0.716c-0.175,0.248-0.108,0.37,0.142,0.518c1.375,0.814,2.499,1.898,3.388,3.223
			c0.881,1.312,1.447,2.752,1.681,4.319c0.07,0.47,0.066,0.479-0.434,0.479C38.715,24.875,35.36,24.875,32.004,24.875z
			 M35.971,20.233c-0.007,0.469,0.344,0.843,0.799,0.852c0.437,0.008,0.83-0.386,0.832-0.833c0.001-0.448-0.383-0.831-0.833-0.83
			C36.337,19.423,35.977,19.789,35.971,20.233z M26.457,20.262c0.005,0.452,0.354,0.813,0.795,0.821
			c0.437,0.01,0.836-0.393,0.832-0.839c-0.003-0.44-0.415-0.838-0.851-0.823C26.791,19.439,26.453,19.806,26.457,20.262z"/>
		<linearGradient id="SVGID_10_" gradientUnits="userSpaceOnUse" x1="16.1162" y1="32.5283" x2="20.6807" y2="32.5283">
			<stop  offset="0" style="stop-color:#EB3349"/>
			<stop  offset="1" style="stop-color:#F45C43"/>
		</linearGradient>
		<path fill-rule="evenodd" clip-rule="evenodd" fill="url(#SVGID_10_)" d="M16.117,32.539c0-1.612-0.003-3.224,0.001-4.835
			c0.003-1.363,0.954-2.348,2.253-2.342c1.325,0.004,2.302,0.99,2.305,2.354c0.007,3.209,0.007,6.42,0,9.63
			c-0.003,1.351-1,2.353-2.315,2.351c-1.279,0-2.24-1.008-2.243-2.362C16.115,35.735,16.117,34.136,16.117,32.539z"/>
		<linearGradient id="SVGID_11_" gradientUnits="userSpaceOnUse" x1="43.3164" y1="32.5303" x2="47.8833" y2="32.5303">
			<stop  offset="0" style="stop-color:#EB3349"/>
			<stop  offset="1" style="stop-color:#F45C43"/>
		</linearGradient>
		<path fill-rule="evenodd" clip-rule="evenodd" fill="url(#SVGID_11_)" d="M47.882,32.527c0,1.599,0.003,3.197,0,4.796
			c-0.003,1.36-0.947,2.36-2.233,2.373c-1.315,0.011-2.318-0.977-2.323-2.338c-0.013-3.237-0.011-6.473-0.001-9.71
			c0.003-1.153,0.865-2.14,1.934-2.265c1.248-0.146,2.299,0.551,2.573,1.721c0.044,0.19,0.049,0.391,0.049,0.588
			C47.884,29.304,47.882,30.916,47.882,32.527z"/>
	</g>
</g>
<g>
	<text transform="matrix(1 0 0 1 0.9141 -4.2749)" fill="#E50C0C" font-family="'MyriadPro-BoldCond'" font-size="18">Android</text>
</g>
</svg>
