<?xml version="1.0" encoding="utf-8"?>
<!-- Generator: Adobe Illustrator 16.0.0, SVG Export Plug-In . SVG Version: 6.00 Build 0)  -->
<!DOCTYPE svg PUBLIC "-//W3C//DTD SVG 1.1//EN" "http://www.w3.org/Graphics/SVG/1.1/DTD/svg11.dtd">
<svg version="1.1" id="Layer_1" xmlns="http://www.w3.org/2000/svg" xmlns:xlink="http://www.w3.org/1999/xlink" x="0px" y="0px"
	 width="64px" height="64px" viewBox="0 0 64 64" enable-background="new 0 0 64 64" xml:space="preserve">
<g>
	<g>
		<g>
			<g>
				<g>
					<linearGradient id="SVGID_1_" gradientUnits="userSpaceOnUse" x1="9.3794" y1="53.3115" x2="11.8457" y2="53.3115">
						<stop  offset="0" style="stop-color:#EB3349"/>
						<stop  offset="1" style="stop-color:#F45C43"/>
					</linearGradient>
					<path fill="url(#SVGID_1_)" d="M11.488,52.446l-0.005-0.005c-0.48-0.481-1.26-0.483-1.741-0.003
						c-0.482,0.48-0.483,1.26-0.003,1.743c0.48,0.481,1.262,0.485,1.744,0.005C11.964,53.705,11.968,52.928,11.488,52.446z"/>
				</g>
			</g>
		</g>
		<g>
			<g>
				<g>
					<linearGradient id="SVGID_2_" gradientUnits="userSpaceOnUse" x1="11.8955" y1="56.3086" x2="14.3618" y2="56.3086">
						<stop  offset="0" style="stop-color:#EB3349"/>
						<stop  offset="1" style="stop-color:#F45C43"/>
					</linearGradient>
					<path fill="url(#SVGID_2_)" d="M14.004,55.444l-0.005-0.006c-0.48-0.481-1.26-0.482-1.742-0.002
						c-0.481,0.48-0.483,1.26-0.003,1.742c0.48,0.481,1.262,0.485,1.744,0.005C14.48,56.702,14.484,55.926,14.004,55.444z"/>
				</g>
			</g>
		</g>
		<g>
			<g>
				<g>
					<linearGradient id="SVGID_3_" gradientUnits="userSpaceOnUse" x1="6.3179" y1="50.7114" x2="8.7847" y2="50.7114">
						<stop  offset="0" style="stop-color:#EB3349"/>
						<stop  offset="1" style="stop-color:#F45C43"/>
					</linearGradient>
					<path fill="url(#SVGID_3_)" d="M8.427,49.847l-0.005-0.005c-0.48-0.482-1.26-0.483-1.742-0.003
						c-0.481,0.48-0.483,1.26-0.003,1.742s1.262,0.486,1.744,0.006C8.903,51.105,8.907,50.329,8.427,49.847z"/>
				</g>
			</g>
		</g>
		<g>
			<g>
				<g>
					<linearGradient id="SVGID_4_" gradientUnits="userSpaceOnUse" x1="52.6768" y1="10.1685" x2="55.1426" y2="10.1685">
						<stop  offset="0" style="stop-color:#EB3349"/>
						<stop  offset="1" style="stop-color:#F45C43"/>
					</linearGradient>
					<path fill="url(#SVGID_4_)" d="M54.785,9.304l-0.006-0.005c-0.479-0.482-1.258-0.483-1.74-0.003
						c-0.481,0.48-0.483,1.26-0.002,1.741c0.479,0.481,1.262,0.486,1.742,0.005C55.261,10.562,55.265,9.786,54.785,9.304z"/>
				</g>
			</g>
		</g>
		<g>
			<g>
				<g>
					<linearGradient id="SVGID_5_" gradientUnits="userSpaceOnUse" x1="55.2163" y1="13.2871" x2="57.6831" y2="13.2871">
						<stop  offset="0" style="stop-color:#EB3349"/>
						<stop  offset="1" style="stop-color:#F45C43"/>
					</linearGradient>
					<path fill="url(#SVGID_5_)" d="M57.326,12.422l-0.006-0.005c-0.48-0.481-1.26-0.483-1.74-0.003
						c-0.482,0.48-0.484,1.259-0.004,1.742c0.48,0.481,1.262,0.485,1.743,0.005C57.801,13.681,57.805,12.905,57.326,12.422z"/>
				</g>
			</g>
		</g>
		<g>
			<g>
				<g>
					<linearGradient id="SVGID_6_" gradientUnits="userSpaceOnUse" x1="49.5664" y1="7.6172" x2="52.0332" y2="7.6172">
						<stop  offset="0" style="stop-color:#EB3349"/>
						<stop  offset="1" style="stop-color:#F45C43"/>
					</linearGradient>
					<path fill="url(#SVGID_6_)" d="M51.675,6.752L51.67,6.747c-0.479-0.481-1.259-0.483-1.741-0.002
						c-0.482,0.48-0.483,1.259-0.004,1.741c0.48,0.481,1.264,0.486,1.744,0.006C52.152,8.012,52.156,7.235,51.675,6.752z"/>
				</g>
			</g>
		</g>
		<g>
			<linearGradient id="SVGID_7_" gradientUnits="userSpaceOnUse" x1="-4.882813e-004" y1="32.0005" x2="63.9995" y2="32.0005">
				<stop  offset="0" style="stop-color:#EB3349"/>
				<stop  offset="1" style="stop-color:#F45C43"/>
			</linearGradient>
			<path fill="url(#SVGID_7_)" d="M6.643,51.545l1.761-1.754c-8.75-11.588-7.833-28.194,2.736-38.726
				C21.709,0.533,38.318-0.324,49.876,8.467l1.76-1.754C39.106-3.031,20.935-2.171,9.401,9.32
				C-2.131,20.812-3.057,38.979,6.643,51.545z M54.597,54.68c11.534-11.493,12.459-29.661,2.76-42.226l-1.76,1.754
				c8.75,11.589,7.832,28.194-2.737,38.726c-10.569,10.532-27.179,11.39-38.736,2.598l-1.76,1.755
				C24.894,67.032,43.066,66.171,54.597,54.68z"/>
		</g>
	</g>
	<g>
		<linearGradient id="SVGID_8_" gradientUnits="userSpaceOnUse" x1="32.228" y1="15.8311" x2="37.9663" y2="15.8311">
			<stop  offset="0" style="stop-color:#EB3349"/>
			<stop  offset="1" style="stop-color:#F45C43"/>
		</linearGradient>
		<path fill-rule="evenodd" clip-rule="evenodd" fill="url(#SVGID_8_)" d="M37.946,13.289c0.005,0.21,0.015,0.421,0.015,0.632
			c0.002,1.381-0.004,2.761,0.006,4.142c0.001,0.23-0.066,0.32-0.304,0.311c-0.39-0.015-0.779-0.012-1.169-0.001
			c-0.201,0.005-0.271-0.073-0.268-0.271c0.008-0.617,0.002-1.234,0.002-1.852c0-0.078,0-0.155,0-0.233
			c-0.015-0.004-0.028-0.008-0.044-0.012c-0.294,0.454-0.587,0.908-0.882,1.36c-0.218,0.335-0.22,0.335-0.433,0.005
			c-0.289-0.442-0.576-0.883-0.876-1.345c-0.069,0.102-0.046,0.192-0.047,0.274c-0.001,0.592-0.006,1.186,0.001,1.778
			c0.003,0.217-0.073,0.305-0.298,0.297c-0.397-0.014-0.796-0.006-1.194-0.003c-0.146,0.001-0.229-0.046-0.228-0.209
			c0.007-1.624,0.01-3.248,0.015-4.871c0.602,0,1.202,0,1.804,0c0.309,0.504,0.619,1.006,0.921,1.515
			c0.098,0.165,0.157,0.17,0.257,0.002c0.301-0.51,0.612-1.013,0.918-1.518C36.745,13.289,37.345,13.289,37.946,13.289z"/>
		<linearGradient id="SVGID_9_" gradientUnits="userSpaceOnUse" x1="21.167" y1="15.8311" x2="26.1572" y2="15.8311">
			<stop  offset="0" style="stop-color:#EB3349"/>
			<stop  offset="1" style="stop-color:#F45C43"/>
		</linearGradient>
		<path fill-rule="evenodd" clip-rule="evenodd" fill="url(#SVGID_9_)" d="M26.149,13.289c0.003,1.616,0.004,3.232,0.008,4.848
			c0.001,0.164-0.061,0.236-0.23,0.234c-0.43-0.005-0.86-0.007-1.29,0c-0.186,0.003-0.241-0.087-0.241-0.252
			c0.003-0.398-0.006-0.796,0.003-1.194c0.002-0.184-0.054-0.266-0.251-0.259c-0.324,0.013-0.65,0.01-0.975,0
			c-0.179-0.005-0.247,0.061-0.244,0.24c0.008,0.397-0.003,0.796,0.004,1.194c0.004,0.193-0.061,0.279-0.268,0.273
			c-0.414-0.012-0.828-0.01-1.242-0.001c-0.192,0.004-0.258-0.073-0.256-0.259c0.005-1.607,0.007-3.216,0.01-4.823
			c0.584,0,1.169,0,1.754,0c0,0.454,0.007,0.907-0.004,1.361c-0.004,0.205,0.053,0.297,0.274,0.286c0.307-0.016,0.616-0.016,0.922,0
			c0.221,0.011,0.28-0.081,0.275-0.286c-0.011-0.454-0.004-0.907-0.006-1.361C24.979,13.289,25.564,13.289,26.149,13.289z"/>
		<linearGradient id="SVGID_10_" gradientUnits="userSpaceOnUse" x1="26.8203" y1="15.8315" x2="31.5601" y2="15.8315">
			<stop  offset="0" style="stop-color:#EB3349"/>
			<stop  offset="1" style="stop-color:#F45C43"/>
		</linearGradient>
		<path fill-rule="evenodd" clip-rule="evenodd" fill="url(#SVGID_10_)" d="M31.56,13.289c-0.002,0.471-0.009,0.942-0.002,1.414
			c0.003,0.214-0.067,0.311-0.295,0.301c-0.317-0.014-0.636,0.004-0.952-0.005c-0.188-0.006-0.255,0.063-0.253,0.253
			c0.007,0.935-0.005,1.869,0.008,2.803c0.003,0.248-0.077,0.33-0.323,0.319c-0.381-0.017-0.764-0.014-1.146-0.001
			c-0.217,0.008-0.277-0.077-0.276-0.286c0.009-0.934-0.002-1.869,0.009-2.803c0.004-0.231-0.076-0.297-0.294-0.287
			c-0.316,0.014-0.634-0.002-0.95,0.005c-0.182,0.004-0.271-0.055-0.265-0.251c0.01-0.487,0.008-0.975,0.011-1.462
			C28.407,13.289,29.984,13.289,31.56,13.289z"/>
		<linearGradient id="SVGID_11_" gradientUnits="userSpaceOnUse" x1="38.7573" y1="15.8301" x2="42.8794" y2="15.8301">
			<stop  offset="0" style="stop-color:#EB3349"/>
			<stop  offset="1" style="stop-color:#F45C43"/>
		</linearGradient>
		<path fill-rule="evenodd" clip-rule="evenodd" fill="url(#SVGID_11_)" d="M40.481,13.289c0.004,0.998,0.01,1.997,0.014,2.995
			c0.002,0.355,0,0.355,0.362,0.355c0.584,0,1.169,0.007,1.753-0.002c0.203-0.003,0.273,0.074,0.27,0.271
			c-0.009,0.406-0.007,0.812-0.002,1.218c0.003,0.175-0.064,0.247-0.244,0.246c-1.209-0.005-2.419-0.003-3.628-0.001
			c-0.15,0-0.248-0.029-0.248-0.212c0.005-1.607,0.005-3.214,0.008-4.822c0-0.016,0.006-0.031,0.01-0.047
			C39.343,13.289,39.913,13.289,40.481,13.289z"/>
		<linearGradient id="SVGID_12_" gradientUnits="userSpaceOnUse" x1="18.7227" y1="35.6704" x2="45.2764" y2="35.6704">
			<stop  offset="0" style="stop-color:#EB3349"/>
			<stop  offset="1" style="stop-color:#F45C43"/>
		</linearGradient>
		<path fill-rule="evenodd" clip-rule="evenodd" fill="url(#SVGID_12_)" d="M32.015,20.63c4.297,0,8.594,0,12.891,0
			c0.388,0,0.393,0.008,0.356,0.4c-0.131,1.438-0.257,2.876-0.387,4.314c-0.174,1.907-0.352,3.813-0.521,5.719
			c-0.14,1.552-0.267,3.104-0.405,4.655c-0.154,1.72-0.317,3.441-0.472,5.162c-0.122,1.365-0.234,2.731-0.355,4.097
			c-0.076,0.856-0.163,1.712-0.232,2.569c-0.016,0.186-0.128,0.223-0.264,0.261c-0.931,0.258-1.861,0.518-2.792,0.776
			c-2.495,0.691-4.99,1.379-7.486,2.076c-0.241,0.067-0.463,0.074-0.711,0.004c-3.408-0.955-6.819-1.899-10.23-2.84
			c-0.201-0.056-0.289-0.136-0.307-0.356c-0.099-1.253-0.216-2.506-0.33-3.757c-0.122-1.357-0.251-2.714-0.373-4.071
			c-0.107-1.196-0.204-2.393-0.31-3.589c-0.104-1.171-0.218-2.342-0.323-3.513c-0.09-1.002-0.17-2.004-0.261-3.006
			c-0.105-1.18-0.218-2.358-0.323-3.538c-0.09-1.01-0.173-2.021-0.262-3.031c-0.054-0.622-0.117-1.243-0.174-1.865
			c-0.008-0.082-0.008-0.163-0.018-0.244c-0.021-0.173,0.062-0.226,0.226-0.225c0.455,0.007,0.91,0.002,1.365,0.002
			C24.216,20.63,28.115,20.63,32.015,20.63z M32.006,26.216c0,0.001,0,0.002,0,0.003c-2.649,0-5.297,0-7.945,0
			c-0.342,0-0.359,0.022-0.327,0.359c0.143,1.535,0.287,3.069,0.423,4.604c0.14,1.551,0.271,3.104,0.405,4.655
			c0.03,0.342,0.039,0.348,0.38,0.348c2.193,0,4.386,0,6.58,0c1.414,0.001,2.827,0.002,4.24,0.004c0.346,0,0.342,0.005,0.311,0.337
			c-0.06,0.63-0.107,1.261-0.163,1.892c-0.057,0.638-0.121,1.276-0.175,1.915c-0.013,0.161-0.082,0.237-0.243,0.279
			c-1.105,0.292-2.211,0.594-3.314,0.894c-0.138,0.037-0.268,0.038-0.406,0c-1.089-0.298-2.18-0.592-3.27-0.88
			c-0.172-0.045-0.261-0.115-0.274-0.307c-0.056-0.736-0.129-1.47-0.19-2.206c-0.011-0.129-0.053-0.193-0.188-0.193
			c-0.975,0.002-1.95,0.001-2.925,0.001c-0.125,0-0.17,0.052-0.158,0.181c0.037,0.364,0.062,0.728,0.096,1.091
			c0.108,1.187,0.227,2.374,0.319,3.563c0.02,0.238,0.096,0.337,0.32,0.398c2.098,0.576,4.194,1.162,6.29,1.746
			c0.137,0.038,0.266,0.04,0.405,0.001c2.095-0.584,4.191-1.167,6.29-1.74c0.204-0.056,0.299-0.152,0.315-0.359
			c0.08-0.962,0.168-1.924,0.252-2.885c0.088-0.994,0.172-1.988,0.26-2.982c0.109-1.244,0.216-2.489,0.337-3.731
			c0.023-0.233-0.06-0.267-0.264-0.267c-2.422,0.006-4.842,0.003-7.263,0.004c-1.404,0.001-2.812,0.004-4.216,0.004
			c-0.343,0-0.34-0.004-0.364-0.357c-0.017-0.267-0.051-0.532-0.075-0.799c-0.063-0.711-0.121-1.422-0.185-2.133
			c-0.011-0.125,0.033-0.186,0.157-0.189c0.089-0.002,0.179-0.002,0.268-0.002c3.948,0.001,7.896,0.002,11.843,0.004
			c0.452,0.001,0.452,0,0.477-0.454c0.001-0.024,0-0.049,0.001-0.074c0.072-0.808,0.135-1.617,0.222-2.423
			c0.023-0.224-0.008-0.305-0.251-0.303C37.335,26.218,34.67,26.216,32.006,26.216z"/>
	</g>
</g>
</svg>
