<?xml version="1.0" encoding="utf-8"?>
<!-- Generator: Adobe Illustrator 16.0.0, SVG Export Plug-In . SVG Version: 6.00 Build 0)  -->
<!DOCTYPE svg PUBLIC "-//W3C//DTD SVG 1.1//EN" "http://www.w3.org/Graphics/SVG/1.1/DTD/svg11.dtd">
<svg version="1.1" id="Layer_1" xmlns="http://www.w3.org/2000/svg" xmlns:xlink="http://www.w3.org/1999/xlink" x="0px" y="0px"
	 width="64px" height="64px" viewBox="0 0 64 64" enable-background="new 0 0 64 64" xml:space="preserve">
<g>
	<g>
		<g>
			<g>
				<g>
					<linearGradient id="SVGID_1_" gradientUnits="userSpaceOnUse" x1="9.3794" y1="53.3105" x2="11.8457" y2="53.3105">
						<stop  offset="0" style="stop-color:#EB3349"/>
						<stop  offset="1" style="stop-color:#F45C43"/>
					</linearGradient>
					<path fill="url(#SVGID_1_)" d="M11.488,52.446l-0.005-0.005c-0.48-0.481-1.26-0.483-1.741-0.003
						c-0.482,0.48-0.483,1.26-0.003,1.743c0.48,0.481,1.262,0.485,1.744,0.005C11.964,53.705,11.968,52.927,11.488,52.446z"/>
				</g>
			</g>
		</g>
		<g>
			<g>
				<g>
					<linearGradient id="SVGID_2_" gradientUnits="userSpaceOnUse" x1="11.8955" y1="56.3086" x2="14.3618" y2="56.3086">
						<stop  offset="0" style="stop-color:#EB3349"/>
						<stop  offset="1" style="stop-color:#F45C43"/>
					</linearGradient>
					<path fill="url(#SVGID_2_)" d="M14.004,55.444l-0.005-0.006c-0.48-0.481-1.26-0.482-1.742-0.002
						c-0.481,0.48-0.483,1.26-0.003,1.742c0.48,0.481,1.262,0.485,1.744,0.005C14.48,56.702,14.484,55.925,14.004,55.444z"/>
				</g>
			</g>
		</g>
		<g>
			<g>
				<g>
					<linearGradient id="SVGID_3_" gradientUnits="userSpaceOnUse" x1="6.3179" y1="50.7109" x2="8.7847" y2="50.7109">
						<stop  offset="0" style="stop-color:#EB3349"/>
						<stop  offset="1" style="stop-color:#F45C43"/>
					</linearGradient>
					<path fill="url(#SVGID_3_)" d="M8.427,49.847l-0.005-0.005c-0.48-0.482-1.26-0.483-1.742-0.003
						c-0.481,0.48-0.483,1.26-0.003,1.742s1.262,0.486,1.744,0.006C8.903,51.105,8.907,50.328,8.427,49.847z"/>
				</g>
			</g>
		</g>
		<g>
			<g>
				<g>
					<linearGradient id="SVGID_4_" gradientUnits="userSpaceOnUse" x1="52.6768" y1="10.168" x2="55.1426" y2="10.168">
						<stop  offset="0" style="stop-color:#EB3349"/>
						<stop  offset="1" style="stop-color:#F45C43"/>
					</linearGradient>
					<path fill="url(#SVGID_4_)" d="M54.785,9.304l-0.006-0.005c-0.479-0.482-1.259-0.483-1.741-0.003
						c-0.481,0.48-0.483,1.26-0.002,1.741c0.479,0.481,1.262,0.486,1.743,0.005C55.261,10.562,55.265,9.786,54.785,9.304z"/>
				</g>
			</g>
		</g>
		<g>
			<g>
				<g>
					<linearGradient id="SVGID_5_" gradientUnits="userSpaceOnUse" x1="55.2163" y1="13.2866" x2="57.6831" y2="13.2866">
						<stop  offset="0" style="stop-color:#EB3349"/>
						<stop  offset="1" style="stop-color:#F45C43"/>
					</linearGradient>
					<path fill="url(#SVGID_5_)" d="M57.325,12.422l-0.005-0.005c-0.48-0.481-1.26-0.483-1.741-0.003
						c-0.482,0.48-0.484,1.259-0.003,1.742c0.48,0.481,1.262,0.485,1.743,0.005C57.801,13.681,57.805,12.904,57.325,12.422z"/>
				</g>
			</g>
		</g>
		<g>
			<g>
				<g>
					<linearGradient id="SVGID_6_" gradientUnits="userSpaceOnUse" x1="49.5664" y1="7.6172" x2="52.0332" y2="7.6172">
						<stop  offset="0" style="stop-color:#EB3349"/>
						<stop  offset="1" style="stop-color:#F45C43"/>
					</linearGradient>
					<path fill="url(#SVGID_6_)" d="M51.676,6.751L51.67,6.747c-0.48-0.481-1.259-0.483-1.741-0.002
						c-0.482,0.48-0.483,1.259-0.003,1.741c0.48,0.481,1.263,0.486,1.744,0.006C52.152,8.011,52.156,7.234,51.676,6.751z"/>
				</g>
			</g>
		</g>
		<g>
			<linearGradient id="SVGID_7_" gradientUnits="userSpaceOnUse" x1="-4.882813e-004" y1="31.9995" x2="63.9995" y2="31.9995">
				<stop  offset="0" style="stop-color:#EB3349"/>
				<stop  offset="1" style="stop-color:#F45C43"/>
			</linearGradient>
			<path fill="url(#SVGID_7_)" d="M6.643,51.544l1.761-1.754c-8.75-11.588-7.833-28.194,2.736-38.726
				C21.709,0.533,38.318-0.325,49.876,8.466l1.76-1.754C39.106-3.032,20.935-2.171,9.401,9.32
				C-2.131,20.812-3.057,38.979,6.643,51.544z M54.598,54.68c11.534-11.493,12.458-29.661,2.759-42.226l-1.76,1.754
				c8.75,11.589,7.833,28.194-2.737,38.726c-10.569,10.532-27.179,11.39-38.736,2.598l-1.76,1.755
				C24.894,67.031,43.065,66.171,54.598,54.68z"/>
		</g>
	</g>
	<g>
		<linearGradient id="SVGID_8_" gradientUnits="userSpaceOnUse" x1="15.7231" y1="36.5723" x2="48.2759" y2="36.5723">
			<stop  offset="0" style="stop-color:#EB3349"/>
			<stop  offset="1" style="stop-color:#F45C43"/>
		</linearGradient>
		<path fill-rule="evenodd" clip-rule="evenodd" fill="url(#SVGID_8_)" d="M15.723,33.169c0.009-1.812,0.371-3.911,1.407-5.849
			c1.523-2.846,3.841-4.647,7.034-5.272c1.472-0.288,2.897-0.085,4.302,0.387c1.013,0.34,2.002,0.745,3.032,1.038
			c0.525,0.149,1.023,0.151,1.546-0.01c0.991-0.305,1.958-0.679,2.94-1.008c1.103-0.37,2.228-0.655,3.395-0.649
			c1.063,0.005,2.108,0.188,3.131,0.493c1.489,0.444,2.792,1.196,3.878,2.312c0.271,0.278,0.518,0.579,0.757,0.887
			c0.121,0.157,0.118,0.241-0.064,0.353c-0.967,0.596-1.822,1.324-2.514,2.228c-0.92,1.201-1.43,2.562-1.556,4.071
			c-0.139,1.674,0.081,3.285,0.871,4.782c0.939,1.781,2.357,3.067,4.171,3.925c0.169,0.08,0.276,0.138,0.195,0.373
			c-1.068,3.107-2.787,5.816-5.017,8.209c-0.588,0.632-1.282,1.137-2.083,1.487c-1.204,0.525-2.412,0.426-3.633,0.069
			c-0.677-0.199-1.323-0.48-1.986-0.718c-1.965-0.703-3.91-0.611-5.842,0.123c-0.711,0.271-1.421,0.539-2.156,0.747
			c-1.565,0.443-2.958,0.116-4.22-0.879c-0.969-0.763-1.754-1.696-2.512-2.659c-2.159-2.742-3.612-5.824-4.457-9.2
			C15.942,36.809,15.725,35.184,15.723,33.169z"/>
		<linearGradient id="SVGID_9_" gradientUnits="userSpaceOnUse" x1="32.0122" y1="17.2612" x2="40.189" y2="17.2612">
			<stop  offset="0" style="stop-color:#EB3349"/>
			<stop  offset="1" style="stop-color:#F45C43"/>
		</linearGradient>
		<path fill-rule="evenodd" clip-rule="evenodd" fill="url(#SVGID_9_)" d="M32.014,21.039c0.023-1.952,0.758-3.639,1.972-5.128
			c1.443-1.768,3.323-2.794,5.557-3.195c0.605-0.109,0.63-0.101,0.644,0.509c0.029,1.266-0.218,2.48-0.791,3.614
			c-0.98,1.941-2.393,3.471-4.361,4.439c-0.854,0.42-1.768,0.612-2.727,0.579c-0.206-0.006-0.301-0.078-0.296-0.283
			C32.017,21.395,32.014,21.217,32.014,21.039z"/>
	</g>
</g>
<g>
	<text transform="matrix(1 0 0 1 7.5615 -4.2749)" fill="#E50C0C" font-family="'MyriadPro-BoldCond'" font-size="18">iOS</text>
</g>
</svg>
